<svg width="273" height="58" viewBox="0 0 273 58" fill="none" xmlns="http://www.w3.org/2000/svg">
<path d="M230.232 4.43615C230.232 2.41844 228.611 0.783691 226.611 0.783691C224.61 0.783691 222.989 2.41844 222.989 4.43615V18.0125C218.894 14.1047 213.363 11.7123 207.292 11.7123C204.92 11.7123 202.633 12.0787 200.474 12.7541C200.294 12.8076 200.119 12.8652 199.939 12.927C194.023 14.9529 189.181 19.3425 186.536 24.9838C186.405 25.268 186.278 25.5521 186.156 25.8486C185.939 26.3674 185.74 26.8986 185.564 27.4298C185.364 28.0104 185.192 28.6034 185.045 29.2087C184.968 29.5093 184.903 29.814 184.837 30.1187C184.813 30.2422 184.788 30.374 184.764 30.5017C184.678 30.9423 184.568 31.6711 184.515 32.1158C184.482 32.3835 184.453 32.6511 184.433 32.9229C184.408 33.2359 184.388 33.5571 184.372 33.8782C184.356 34.2035 184.352 34.5289 184.352 34.85C184.352 36.2418 184.474 37.6007 184.715 38.9349C184.743 39.0996 184.78 39.2684 184.809 39.4331C184.976 40.2979 185.201 41.1502 185.466 41.9738C185.556 42.2497 185.65 42.5215 185.748 42.7932C185.878 43.1432 186.013 43.4974 186.16 43.8433C186.303 44.1891 186.458 44.5309 186.621 44.8686C187.025 45.7127 187.483 46.528 187.973 47.3104C188.271 47.7798 188.585 48.241 188.92 48.6775C189.034 48.8258 189.148 48.9781 189.254 49.1222C189.397 49.3075 189.549 49.4887 189.691 49.6658C189.985 50.0199 190.283 50.3658 190.606 50.6993C190.761 50.8682 190.925 51.0329 191.088 51.1976C192.905 53.0259 195.023 54.5536 197.363 55.6942C197.694 55.8589 198.036 56.0154 198.371 56.1595C198.886 56.3778 199.413 56.5795 199.947 56.7648C201.462 57.2837 203.046 57.6501 204.683 57.8313C204.919 57.856 205.157 57.8808 205.389 57.9013C205.7 57.9261 206.018 57.9425 206.341 57.9631C206.651 57.9796 206.978 57.9837 207.296 57.9837C208.676 57.9837 210.031 57.8602 211.35 57.6172C211.909 57.5184 212.46 57.399 213.003 57.259C213.546 57.119 214.081 56.9584 214.608 56.7813C214.8 56.7113 214.987 56.6454 215.171 56.5754C215.351 56.5054 215.522 56.4436 215.694 56.3736C215.788 56.3325 215.882 56.2995 215.976 56.2583C216.404 56.0772 216.837 55.8877 217.257 55.686C218.09 55.2701 218.895 54.8212 219.662 54.3189C219.96 54.1253 220.258 53.9277 220.54 53.7218C220.834 53.5118 221.108 53.2977 221.394 53.0835C221.537 52.9724 221.675 52.8653 221.81 52.75C222.214 52.4165 222.61 52.0665 222.994 51.7V54.3271C222.994 56.3448 224.614 57.9796 226.615 57.9796C228.615 57.9796 230.236 56.3448 230.236 54.3271V35.1589C230.24 35.06 230.24 34.953 230.24 34.8541C230.24 34.743 230.24 34.64 230.236 34.5289V4.43615H230.232ZM222.989 34.8541C222.989 43.9503 215.339 51.28 206.186 50.6417C198.653 50.1187 192.463 44.1109 191.684 36.5383C190.99 29.8428 194.464 23.8638 199.82 20.932C200.037 20.8125 200.266 20.6931 200.494 20.5819C200.723 20.4708 200.955 20.3637 201.188 20.269C201.396 20.1784 201.605 20.0961 201.813 20.0178C202.442 19.779 203.095 19.5772 203.756 19.4249C203.895 19.3919 204.038 19.359 204.185 19.3301C204.467 19.2684 204.76 19.2272 205.05 19.1819C205.234 19.1572 205.418 19.1325 205.606 19.1119C206.161 19.0501 206.725 19.0213 207.292 19.0213C215.951 19.0213 222.989 26.1121 222.989 34.8541Z" fill="#14163A"/>
<path d="M230.232 4.43615C230.232 2.41844 228.611 0.783691 226.611 0.783691C224.61 0.783691 222.989 2.41844 222.989 4.43615V18.0125C218.894 14.1047 213.363 11.7123 207.292 11.7123C204.92 11.7123 202.633 12.0787 200.474 12.7541C200.294 12.8076 200.119 12.8652 199.939 12.927C194.023 14.9529 189.181 19.3425 186.536 24.9838C186.405 25.268 186.278 25.5521 186.156 25.8486C185.939 26.3674 185.74 26.8986 185.564 27.4298C185.364 28.0104 185.192 28.6034 185.045 29.2087C184.968 29.5093 184.903 29.814 184.837 30.1187C184.813 30.2422 184.788 30.374 184.764 30.5017C184.678 30.9423 184.568 31.6711 184.515 32.1158C184.482 32.3835 184.453 32.6511 184.433 32.9229C184.408 33.2359 184.388 33.5571 184.372 33.8782C184.356 34.2035 184.352 34.5289 184.352 34.85C184.352 36.2418 184.474 37.6007 184.715 38.9349C184.743 39.0996 184.78 39.2684 184.809 39.4331C184.976 40.2979 185.201 41.1502 185.466 41.9738C185.556 42.2497 185.65 42.5215 185.748 42.7932C185.878 43.1432 186.013 43.4974 186.16 43.8433C186.303 44.1891 186.458 44.5309 186.621 44.8686C187.025 45.7127 187.483 46.528 187.973 47.3104C188.271 47.7798 188.585 48.241 188.92 48.6775C189.034 48.8258 189.148 48.9781 189.254 49.1222C189.397 49.3075 189.549 49.4887 189.691 49.6658C189.985 50.0199 190.283 50.3658 190.606 50.6993C190.761 50.8682 190.925 51.0329 191.088 51.1976C192.905 53.0259 195.023 54.5536 197.363 55.6942C197.694 55.8589 198.036 56.0154 198.371 56.1595C198.886 56.3778 199.413 56.5795 199.947 56.7648C201.462 57.2837 203.046 57.6501 204.683 57.8313C204.919 57.856 205.157 57.8808 205.389 57.9013C205.7 57.9261 206.018 57.9425 206.341 57.9631C206.651 57.9796 206.978 57.9837 207.296 57.9837C208.676 57.9837 210.031 57.8602 211.35 57.6172C211.909 57.5184 212.46 57.399 213.003 57.259C213.546 57.119 214.081 56.9584 214.608 56.7813C214.8 56.7113 214.987 56.6454 215.171 56.5754C215.351 56.5054 215.522 56.4436 215.694 56.3736C215.788 56.3325 215.882 56.2995 215.976 56.2583C216.404 56.0772 216.837 55.8877 217.257 55.686C218.09 55.2701 218.895 54.8212 219.662 54.3189C219.96 54.1253 220.258 53.9277 220.54 53.7218C220.834 53.5118 221.108 53.2977 221.394 53.0835C221.537 52.9724 221.675 52.8653 221.81 52.75C222.214 52.4165 222.61 52.0665 222.994 51.7V54.3271C222.994 56.3448 224.614 57.9796 226.615 57.9796C228.615 57.9796 230.236 56.3448 230.236 54.3271V35.1589C230.24 35.06 230.24 34.953 230.24 34.8541C230.24 34.743 230.24 34.64 230.236 34.5289V4.43615H230.232ZM222.989 34.8541C222.989 43.9503 215.339 51.28 206.186 50.6417C198.653 50.1187 192.463 44.1109 191.684 36.5383C190.99 29.8428 194.464 23.8638 199.82 20.932C200.037 20.8125 200.266 20.6931 200.494 20.5819C200.723 20.4708 200.955 20.3637 201.188 20.269C201.396 20.1784 201.605 20.0961 201.813 20.0178C202.442 19.779 203.095 19.5772 203.756 19.4249C203.895 19.3919 204.038 19.359 204.185 19.3301C204.467 19.2684 204.76 19.2272 205.05 19.1819C205.234 19.1572 205.418 19.1325 205.606 19.1119C206.161 19.0501 206.725 19.0213 207.292 19.0213C215.951 19.0213 222.989 26.1121 222.989 34.8541Z" fill="#14163A"/>
<path d="M146.546 11.7077C138.525 11.8024 131.486 16.0321 127.438 22.3726C123.341 15.9621 116.184 11.7077 108.051 11.7077C101.705 11.7077 95.9445 14.2958 91.7778 18.4802C90.6061 19.6611 89.5537 20.9695 88.6523 22.3849C84.2604 15.489 76.3325 11.0864 67.4585 11.7736C56.2205 12.65 47.166 21.7718 46.3262 33.058C46.2811 33.6505 46.2607 34.2347 46.2607 34.819V34.7696C46.2607 34.424 46.2402 33.8644 46.2197 33.5188C46.2074 33.3089 46.1951 33.1032 46.1787 32.8975C46.1459 32.5436 46.1088 32.1939 46.0679 31.8483C46.0105 31.371 45.9285 30.8978 45.8384 30.4288C45.8179 30.3177 45.7934 30.2025 45.7729 30.0955C45.7074 29.791 45.6382 29.4866 45.5645 29.1862C45.417 28.5814 45.2406 27.9889 45.0439 27.4087C44.8637 26.8738 44.6668 26.3472 44.4497 25.8288C44.3268 25.5325 44.1962 25.2486 44.061 24.9647C41.4103 19.3278 36.5508 14.9417 30.6143 12.9174C30.434 12.8516 30.2579 12.7981 30.0776 12.7446C27.9103 12.0657 25.6162 11.7036 23.2358 11.7036C17.1477 11.7036 11.5883 14.0942 7.47901 17.9988V4.42915C7.47901 2.41304 5.85205 0.783691 3.84863 0.783691C1.84521 0.783691 0.218751 2.41715 0.218751 4.42915V34.498C0.214654 34.6091 0.214845 34.712 0.214845 34.8231C0.214845 34.9218 0.214654 35.0288 0.218751 35.1275V54.2847C0.218751 56.2967 1.84521 57.9302 3.84863 57.9302C5.85205 57.9302 7.47901 56.2967 7.47901 54.2847V51.6556C7.86822 52.0218 8.2653 52.3674 8.6709 52.7048C8.8061 52.82 8.94547 52.9311 9.08887 53.038C9.36746 53.252 9.64984 53.466 9.94483 53.6758C10.2275 53.8856 10.5271 54.079 10.8262 54.2724C11.5964 54.7744 12.3989 55.227 13.2388 55.6384C13.6608 55.8441 14.0952 56.0334 14.5254 56.2103C14.6196 56.2515 14.7139 56.2844 14.8081 56.3255C14.9802 56.3955 15.1562 56.4572 15.3364 56.5272C15.5208 56.5971 15.7098 56.6629 15.9023 56.7329C16.4309 56.9139 16.9632 57.0703 17.5122 57.2102C18.0571 57.3501 18.6101 57.4694 19.1714 57.5681C20.4947 57.8068 21.8509 57.9343 23.2397 57.9343C23.5593 57.9343 23.8869 57.9302 24.1982 57.9137C24.5219 57.8932 24.8374 57.8808 25.1528 57.852C25.3864 57.8314 25.6242 57.8068 25.8618 57.7821C27.5047 57.5969 29.0945 57.2349 30.6104 56.7164C31.1512 56.5313 31.6714 56.3338 32.1958 56.1116C32.5318 55.9676 32.8757 55.8112 33.2075 55.6467C35.5551 54.5028 37.6817 52.9763 39.5049 51.1536C39.6688 50.989 39.8285 50.8244 39.9883 50.6557C40.3119 50.3225 40.6149 49.9768 40.9058 49.623C41.0492 49.4419 41.2008 49.265 41.3442 49.0799C41.4549 48.9359 41.5696 48.7836 41.6802 48.6355C42.012 48.1953 42.3277 47.7385 42.6309 47.2695C43.1225 46.4877 43.5812 45.6731 43.9868 44.8296C44.1507 44.4963 44.3063 44.1507 44.4497 43.8051C44.5931 43.4594 44.7327 43.1056 44.8638 42.7559C44.9621 42.4884 45.0564 42.2128 45.1465 41.9371C45.4128 41.1142 45.6382 40.2625 45.8062 39.3984C45.8348 39.2338 45.8712 39.0651 45.8999 38.9006C46.1375 37.5675 46.2646 36.2138 46.2646 34.819C46.2687 47.5657 56.5847 57.9302 69.2812 57.9302C75.3775 57.9302 80.9212 55.5397 85.0264 51.635C89.4962 47.4341 92.2944 41.4433 92.2944 34.819C92.2944 25.9275 99.6277 18.7312 108.526 18.9987C117.093 19.2538 123.8 26.5406 123.8 35.1481V54.3382C123.8 56.3502 125.426 57.9837 127.43 57.9837C129.433 57.9837 131.06 56.3502 131.06 54.3382V35.1522C131.06 26.5406 137.771 19.2538 146.337 18.9987C155.24 18.7312 162.569 25.9275 162.569 34.8107V54.2642C162.569 56.2762 164.196 57.9096 166.199 57.9096C168.203 57.9096 169.83 56.2762 169.83 54.2642V35.2099C169.83 22.3438 159.349 11.5432 146.538 11.6954L146.546 11.7077ZM38.9067 36.51C38.1201 44.0766 31.9093 50.0797 24.3545 50.6022C15.165 51.24 7.4914 43.9162 7.48731 34.8272C7.4914 26.088 14.554 19.0028 23.2437 19.0028C23.8131 19.0028 24.3829 19.0316 24.936 19.0933C25.1245 19.1139 25.3088 19.1386 25.4932 19.1632C25.7881 19.2085 26.0791 19.2538 26.3618 19.3114C26.5052 19.3402 26.6568 19.3731 26.792 19.406C27.4557 19.5623 28.1113 19.7598 28.7422 19.9985C28.9511 20.0725 29.1599 20.159 29.3647 20.2495C29.6024 20.3441 29.836 20.4552 30.0654 20.5622C30.2949 20.6733 30.5241 20.7926 30.7412 20.9119C36.1164 23.8414 39.6032 29.8157 38.9067 36.5059V36.51ZM68.1016 50.5981C60.3419 50.0303 54.0776 43.694 53.5654 35.9011C52.955 26.6805 60.2392 19.0069 69.2812 19.0069C78.3233 19.0069 85.0264 26.0962 85.0264 34.8313C85.0264 43.5664 77.3118 51.277 68.0977 50.5981H68.1016Z" fill="#14163A"/>
<path d="M146.546 11.7077C138.525 11.8024 131.486 16.0321 127.438 22.3726C123.341 15.9621 116.184 11.7077 108.051 11.7077C101.705 11.7077 95.9445 14.2958 91.7778 18.4802C90.6061 19.6611 89.5537 20.9695 88.6523 22.3849C84.2604 15.489 76.3325 11.0864 67.4585 11.7736C56.2205 12.65 47.166 21.7718 46.3262 33.058C46.2811 33.6505 46.2607 34.2347 46.2607 34.819V34.7696C46.2607 34.424 46.2402 33.8644 46.2197 33.5188C46.2074 33.3089 46.1951 33.1032 46.1787 32.8975C46.1459 32.5436 46.1088 32.1939 46.0679 31.8483C46.0105 31.371 45.9285 30.8978 45.8384 30.4288C45.8179 30.3177 45.7934 30.2025 45.7729 30.0955C45.7074 29.791 45.6382 29.4866 45.5645 29.1862C45.417 28.5814 45.2406 27.9889 45.0439 27.4087C44.8637 26.8738 44.6668 26.3472 44.4497 25.8288C44.3268 25.5325 44.1962 25.2486 44.061 24.9647C41.4103 19.3278 36.5508 14.9417 30.6143 12.9174C30.434 12.8516 30.2579 12.7981 30.0776 12.7446C27.9103 12.0657 25.6162 11.7036 23.2358 11.7036C17.1477 11.7036 11.5883 14.0942 7.47901 17.9988V4.42915C7.47901 2.41304 5.85205 0.783691 3.84863 0.783691C1.84521 0.783691 0.218751 2.41715 0.218751 4.42915V34.498C0.214654 34.6091 0.214845 34.712 0.214845 34.8231C0.214845 34.9218 0.214654 35.0288 0.218751 35.1275V54.2847C0.218751 56.2967 1.84521 57.9302 3.84863 57.9302C5.85205 57.9302 7.47901 56.2967 7.47901 54.2847V51.6556C7.86822 52.0218 8.2653 52.3674 8.6709 52.7048C8.8061 52.82 8.94547 52.9311 9.08887 53.038C9.36746 53.252 9.64984 53.466 9.94483 53.6758C10.2275 53.8856 10.5271 54.079 10.8262 54.2724C11.5964 54.7744 12.3989 55.227 13.2388 55.6384C13.6608 55.8441 14.0952 56.0334 14.5254 56.2103C14.6196 56.2515 14.7139 56.2844 14.8081 56.3255C14.9802 56.3955 15.1562 56.4572 15.3364 56.5272C15.5208 56.5971 15.7098 56.6629 15.9023 56.7329C16.4309 56.9139 16.9632 57.0703 17.5122 57.2102C18.0571 57.3501 18.6101 57.4694 19.1714 57.5681C20.4947 57.8068 21.8509 57.9343 23.2397 57.9343C23.5593 57.9343 23.8869 57.9302 24.1982 57.9137C24.5219 57.8932 24.8374 57.8808 25.1528 57.852C25.3864 57.8314 25.6242 57.8068 25.8618 57.7821C27.5047 57.5969 29.0945 57.2349 30.6104 56.7164C31.1512 56.5313 31.6714 56.3338 32.1958 56.1116C32.5318 55.9676 32.8757 55.8112 33.2075 55.6467C35.5551 54.5028 37.6817 52.9763 39.5049 51.1536C39.6688 50.989 39.8285 50.8244 39.9883 50.6557C40.3119 50.3225 40.6149 49.9768 40.9058 49.623C41.0492 49.4419 41.2008 49.265 41.3442 49.0799C41.4549 48.9359 41.5696 48.7836 41.6802 48.6355C42.012 48.1953 42.3277 47.7385 42.6309 47.2695C43.1225 46.4877 43.5812 45.6731 43.9868 44.8296C44.1507 44.4963 44.3063 44.1507 44.4497 43.8051C44.5931 43.4594 44.7327 43.1056 44.8638 42.7559C44.9621 42.4884 45.0564 42.2128 45.1465 41.9371C45.4128 41.1142 45.6382 40.2625 45.8062 39.3984C45.8348 39.2338 45.8712 39.0651 45.8999 38.9006C46.1375 37.5675 46.2646 36.2138 46.2646 34.819C46.2687 47.5657 56.5847 57.9302 69.2812 57.9302C75.3775 57.9302 80.9212 55.5397 85.0264 51.635C89.4962 47.4341 92.2944 41.4433 92.2944 34.819C92.2944 25.9275 99.6277 18.7312 108.526 18.9987C117.093 19.2538 123.8 26.5406 123.8 35.1481V54.3382C123.8 56.3502 125.426 57.9837 127.43 57.9837C129.433 57.9837 131.06 56.3502 131.06 54.3382V35.1522C131.06 26.5406 137.771 19.2538 146.337 18.9987C155.24 18.7312 162.569 25.9275 162.569 34.8107V54.2642C162.569 56.2762 164.196 57.9096 166.199 57.9096C168.203 57.9096 169.83 56.2762 169.83 54.2642V35.2099C169.83 22.3438 159.349 11.5432 146.538 11.6954L146.546 11.7077ZM38.9067 36.51C38.1201 44.0766 31.9093 50.0797 24.3545 50.6022C15.165 51.24 7.4914 43.9162 7.48731 34.8272C7.4914 26.088 14.554 19.0028 23.2437 19.0028C23.8131 19.0028 24.3829 19.0316 24.936 19.0933C25.1245 19.1139 25.3088 19.1386 25.4932 19.1632C25.7881 19.2085 26.0791 19.2538 26.3618 19.3114C26.5052 19.3402 26.6568 19.3731 26.792 19.406C27.4557 19.5623 28.1113 19.7598 28.7422 19.9985C28.9511 20.0725 29.1599 20.159 29.3647 20.2495C29.6024 20.3441 29.836 20.4552 30.0654 20.5622C30.2949 20.6733 30.5241 20.7926 30.7412 20.9119C36.1164 23.8414 39.6032 29.8157 38.9067 36.5059V36.51ZM68.1016 50.5981C60.3419 50.0303 54.0776 43.694 53.5654 35.9011C52.955 26.6805 60.2392 19.0069 69.2812 19.0069C78.3233 19.0069 85.0264 26.0962 85.0264 34.8313C85.0264 43.5664 77.3118 51.277 68.0977 50.5981H68.1016Z" fill="#14163A"/>
<path d="M254.148 38.9508L252.533 37.3292L248.27 33.038C247.802 32.564 247.165 32.3021 246.499 32.3021H239.715C238.333 32.3021 237.211 33.4289 237.211 34.8177C237.211 36.2065 238.333 37.3333 239.715 37.3333H247.016C250.054 37.3333 252.525 39.8115 252.533 42.8635V50.215C252.533 51.6038 253.655 52.7306 255.037 52.7306C256.42 52.7306 257.542 51.6038 257.542 50.215V43.3999C257.542 42.7346 257.276 42.0943 256.809 41.6203L254.151 38.955L254.148 38.9508Z" fill="#14163A"/>
<path d="M254.148 38.9508L252.533 37.3292L248.27 33.038C247.802 32.564 247.165 32.3021 246.499 32.3021H239.715C238.333 32.3021 237.211 33.4289 237.211 34.8177C237.211 36.2065 238.333 37.3333 239.715 37.3333H247.016C250.054 37.3333 252.525 39.8115 252.533 42.8635V50.215C252.533 51.6038 253.655 52.7306 255.037 52.7306C256.42 52.7306 257.542 51.6038 257.542 50.215V43.3999C257.542 42.7346 257.276 42.0943 256.809 41.6203L254.151 38.955L254.148 38.9508Z" fill="#14163A"/>
<path d="M270.144 32.527H262.841C259.802 32.527 257.331 30.0483 257.323 26.9957V19.6427C257.323 18.2536 256.201 17.1265 254.818 17.1265C253.435 17.1265 252.314 18.2536 252.314 19.6427V26.4591C252.314 27.1246 252.578 27.765 253.046 28.2392L257.318 32.527L261.583 36.819C262.05 37.2931 262.688 37.5551 263.355 37.5551H270.14C271.522 37.5551 272.644 36.4281 272.644 35.039C272.644 33.6499 271.522 32.5228 270.14 32.5228L270.144 32.527Z" fill="#14163A"/>
<path d="M270.144 32.527H262.841C259.802 32.527 257.331 30.0483 257.323 26.9957V19.6427C257.323 18.2536 256.201 17.1265 254.818 17.1265C253.435 17.1265 252.314 18.2536 252.314 19.6427V26.4591C252.314 27.1246 252.578 27.765 253.046 28.2392L257.318 32.527L261.583 36.819C262.05 37.2931 262.688 37.5551 263.355 37.5551H270.14C271.522 37.5551 272.644 36.4281 272.644 35.039C272.644 33.6499 271.522 32.5228 270.14 32.5228L270.144 32.527Z" fill="#14163A"/>
</svg>
