<svg width="211" height="101" viewBox="0 0 211 101" fill="none" xmlns="http://www.w3.org/2000/svg">
<path d="M66.4712 27.5982L66.5293 27.5406C66.5293 27.5406 66.5455 27.5571 66.5537 27.5653C67.1386 27.3351 67.9993 26.1227 68.4482 25.6748C69.7086 24.4172 69.0786 25.046 70.0259 24.1007C70.1618 23.9651 70.2772 23.8295 70.3843 23.6938L71.8135 22.2677C71.8135 22.2677 71.8216 22.2677 71.8257 22.2636C71.8628 22.2102 71.908 22.1568 71.9492 22.1033C71.9698 22.0787 71.9865 22.054 72.0112 22.0294C72.073 21.9595 72.139 21.8937 72.209 21.8321L88.3208 0.518555L68.749 19.7895C66.9903 18.7168 65.1453 17.7839 63.2178 17.0072C59.1032 15.3427 54.7786 14.418 50.3428 14.2495L48.8521 3.89272L47.3608 14.2495C42.925 14.418 38.5999 15.3427 34.4854 17.0113C30.9433 18.4456 27.6734 20.3813 24.7285 22.7856L2.93262 6.50245L27.3604 30.8696C37.9948 20.2539 54.6141 19.1689 66.48 27.5982H66.4712Z" fill="#14163A"/>
<path d="M66.4712 27.5982L66.5293 27.5406C66.5293 27.5406 66.5455 27.5571 66.5537 27.5653C67.1386 27.3351 67.9993 26.1227 68.4482 25.6748C69.7086 24.4172 69.0786 25.046 70.0259 24.1007C70.1618 23.9651 70.2772 23.8295 70.3843 23.6938L71.8135 22.2677C71.8135 22.2677 71.8216 22.2677 71.8257 22.2636C71.8628 22.2102 71.908 22.1568 71.9492 22.1033C71.9698 22.0787 71.9865 22.054 72.0112 22.0294C72.073 21.9595 72.139 21.8937 72.209 21.8321L88.3208 0.518555L68.749 19.7895C66.9903 18.7168 65.1453 17.7839 63.2178 17.0072C59.1032 15.3427 54.7786 14.418 50.3428 14.2495L48.8521 3.89272L47.3608 14.2495C42.925 14.418 38.5999 15.3427 34.4854 17.0113C30.9433 18.4456 27.6734 20.3813 24.7285 22.7856L2.93262 6.50245L27.3604 30.8696C37.9948 20.2539 54.6141 19.1689 66.48 27.5982H66.4712Z" fill="#14163A"/>
<path d="M27.3291 73.5603C16.8144 62.9242 15.7361 46.2987 24.0933 34.4309L19.3062 27.9512C16.9288 30.8965 15.0152 34.159 13.5986 37.6975C11.95 41.8127 11.0341 46.138 10.8672 50.5745L0.609375 52.0657L10.8672 53.5569C11.0341 57.9934 11.9498 62.3187 13.6025 66.4339C15.0232 69.9765 16.9409 73.2473 19.3223 76.1926L3.19385 97.992L27.3291 73.5603Z" fill="#14163A"/>
<path d="M27.3291 73.5603C16.8144 62.9242 15.7361 46.2987 24.0933 34.4309L19.3062 27.9512C16.9288 30.8965 15.0152 34.159 13.5986 37.6975C11.95 41.8127 11.0341 46.138 10.8672 50.5745L0.609375 52.0657L10.8672 53.5569C11.0341 57.9934 11.9498 62.3187 13.6025 66.4339C15.0232 69.9765 16.9409 73.2473 19.3223 76.1926L3.19385 97.992L27.3291 73.5603Z" fill="#14163A"/>
<path d="M31.4541 76.7961L25.0059 81.7151C27.9371 84.1557 31.1876 86.12 34.7051 87.5744C38.8005 89.267 43.1053 90.2073 47.5205 90.3787L49.0049 100.91L50.4883 90.3787C54.9035 90.2073 59.2087 89.267 63.3042 87.5702C66.8298 86.1116 70.0844 84.1432 73.0156 81.6983L94.7104 98.2566L70.396 73.4777C59.8068 84.2728 43.2611 85.3803 31.4502 76.7961H31.4541Z" fill="#14163A"/>
<path d="M31.4541 76.7961L25.0059 81.7151C27.9371 84.1557 31.1876 86.12 34.7051 87.5744C38.8005 89.267 43.1053 90.2073 47.5205 90.3787L49.0049 100.91L50.4883 90.3787C54.9035 90.2073 59.2087 89.267 63.3042 87.5702C66.8298 86.1116 70.0844 84.1432 73.0156 81.6983L94.7104 98.2566L70.396 73.4777C59.8068 84.2728 43.2611 85.3803 31.4502 76.7961H31.4541Z" fill="#14163A"/>
<path d="M44.6357 56.0834L48.5537 67.0573L58.6963 41.9594L33.7188 52.1509L44.6357 56.0834Z" fill="#14163A"/>
<path d="M44.6357 56.0834L48.5537 67.0573L58.6963 41.9594L33.7188 52.1509L44.6357 56.0834Z" fill="#14163A"/>
<path d="M69.3716 61.1077H78.8076L80.2129 65.3063H87.1592L77.0674 38.4573H71.1685L61.02 65.3063H67.9658L69.3716 61.1077ZM73.7881 47.8638L74.0693 46.6428H74.106L74.4028 47.8638L76.9126 55.3807H71.2783L73.7881 47.8638Z" fill="#14163A"/>
<path d="M69.3716 61.1077H78.8076L80.2129 65.3063H87.1592L77.0674 38.4573H71.1685L61.02 65.3063H67.9658L69.3716 61.1077ZM73.7881 47.8638L74.0693 46.6428H74.106L74.4028 47.8638L76.9126 55.3807H71.2783L73.7881 47.8638Z" fill="#14163A"/>
<path d="M109.896 51.9816C110.593 50.7631 110.94 49.3034 110.94 47.5941C110.94 45.8849 110.544 44.2297 109.755 42.8448C108.967 41.46 107.862 40.387 106.446 39.6135C105.031 38.8441 103.405 38.4573 101.573 38.4573H90.0635V65.3063H96.8887V56.7434H99.6372C99.9921 56.7434 100.265 56.7393 100.455 56.7226L104.437 65.3021H112.137L106.979 54.9427C108.229 54.1775 109.203 53.1877 109.9 51.9692L109.896 51.9816ZM103.62 49.1828C103.356 49.6527 102.988 50.0312 102.518 50.3098C102.051 50.5884 101.523 50.7298 100.945 50.7298H96.8887V44.6705H101.003C101.849 44.6705 102.563 44.9325 103.145 45.4524C103.726 45.9764 104.016 46.6958 104.016 47.6108C104.016 48.1847 103.883 48.7087 103.615 49.1786L103.62 49.1828Z" fill="#14163A"/>
<path d="M109.896 51.9816C110.593 50.7631 110.94 49.3034 110.94 47.5941C110.94 45.8849 110.544 44.2297 109.755 42.8448C108.967 41.46 107.862 40.387 106.446 39.6135C105.031 38.8441 103.405 38.4573 101.573 38.4573H90.0635V65.3063H96.8887V56.7434H99.6372C99.9921 56.7434 100.265 56.7393 100.455 56.7226L104.437 65.3021H112.137L106.979 54.9427C108.229 54.1775 109.203 53.1877 109.9 51.9692L109.896 51.9816ZM103.62 49.1828C103.356 49.6527 102.988 50.0312 102.518 50.3098C102.051 50.5884 101.523 50.7298 100.945 50.7298H96.8887V44.6705H101.003C101.849 44.6705 102.563 44.9325 103.145 45.4524C103.726 45.9764 104.016 46.6958 104.016 47.6108C104.016 48.1847 103.883 48.7087 103.615 49.1786L103.62 49.1828Z" fill="#14163A"/>
<path d="M131.979 40.2165C129.859 39.0437 127.523 38.4573 124.97 38.4573H115.041V65.3063H125.027C127.568 65.3063 129.896 64.7199 132.007 63.5472C134.123 62.3744 135.794 60.7649 137.019 58.7105C138.244 56.6602 138.857 54.3771 138.857 51.8693C138.857 49.3616 138.24 47.0826 137.007 45.0365C135.773 42.9904 134.098 41.3851 131.975 40.2123L131.979 40.2165ZM131.133 55.4584C130.553 56.5105 129.749 57.3298 128.72 57.9162C127.695 58.5026 126.535 58.7937 125.248 58.7937H121.792V44.9783H125.227C126.518 44.9783 127.678 45.2735 128.708 45.8683C129.741 46.4588 130.545 47.2781 131.129 48.3219C131.709 49.3658 132.003 50.551 132.003 51.8777C132.003 53.2043 131.713 54.4104 131.129 55.4625L131.133 55.4584Z" fill="#14163A"/>
<path d="M131.979 40.2165C129.859 39.0437 127.523 38.4573 124.97 38.4573H115.041V65.3063H125.027C127.568 65.3063 129.896 64.7199 132.007 63.5472C134.123 62.3744 135.794 60.7649 137.019 58.7105C138.244 56.6602 138.857 54.3771 138.857 51.8693C138.857 49.3616 138.24 47.0826 137.007 45.0365C135.773 42.9904 134.098 41.3851 131.975 40.2123L131.979 40.2165ZM131.133 55.4584C130.553 56.5105 129.749 57.3298 128.72 57.9162C127.695 58.5026 126.535 58.7937 125.248 58.7937H121.792V44.9783H125.227C126.518 44.9783 127.678 45.2735 128.708 45.8683C129.741 46.4588 130.545 47.2781 131.129 48.3219C131.709 49.3658 132.003 50.551 132.003 51.8777C132.003 53.2043 131.713 54.4104 131.129 55.4625L131.133 55.4584Z" fill="#14163A"/>
<path d="M149.788 54.6058H159.644V48.8501H149.788V44.6664H162.386V38.4573H142.923V65.3063H162.672V59.0931H149.788V54.6058Z" fill="#14163A"/>
<path d="M149.788 54.6058H159.644V48.8501H149.788V44.6664H162.386V38.4573H142.923V65.3063H162.672V59.0931H149.788V54.6058Z" fill="#14163A"/>
<path d="M174.208 38.4573L163.834 65.3063H170.935L172.372 61.1076H182.017L183.454 65.3063H190.554L180.239 38.4573H174.208ZM174.325 55.3849L176.89 47.868L177.178 46.647H177.215L177.52 47.868L180.084 55.3849H174.325Z" fill="#14163A"/>
<path d="M174.208 38.4573L163.834 65.3063H170.935L172.372 61.1076H182.017L183.454 65.3063H190.554L180.239 38.4573H174.208ZM174.325 55.3849L176.89 47.868L177.178 46.647H177.215L177.52 47.868L180.084 55.3849H174.325Z" fill="#14163A"/>
<path d="M200.117 38.4573H193.459V65.3063H210.885V58.7313H200.117V38.4573Z" fill="#14163A"/>
<path d="M200.117 38.4573H193.459V65.3063H210.885V58.7313H200.117V38.4573Z" fill="#14163A"/>
<path d="M66.8286 32.0697C64.5049 30.0407 61.9039 28.4562 59.0176 27.3203C56.1313 26.1845 53.0416 25.6165 49.7354 25.6165C44.9941 25.6165 40.6442 26.7771 36.6816 29.0983C32.7191 31.4194 29.5922 34.5842 27.293 38.5969C24.9937 42.6095 23.8442 47.042 23.8442 51.8983C23.8442 56.7546 24.9937 61.1541 27.293 65.1667C29.5922 69.1794 32.7191 72.3442 36.6816 74.6654C40.6442 76.9865 44.9941 78.1471 49.7354 78.1471C52.9886 78.1471 56.058 77.5545 58.9443 76.3692C61.8266 75.1839 64.4561 73.5789 66.8247 71.5499L64.7046 68.6855C60.0857 72.5541 55.0918 74.4843 49.731 74.4843C45.7317 74.4843 42.0425 73.4883 38.6548 71.4923C35.267 69.5004 32.5885 66.78 30.6113 63.3353C28.6382 59.8906 27.6475 56.0797 27.6475 51.8983C27.6475 47.7169 28.6341 43.9018 30.6113 40.4448C32.5845 36.9877 35.267 34.2632 38.6548 32.2713C42.0425 30.2794 45.7317 29.2793 49.731 29.2793C52.5317 29.2793 55.2021 29.7691 57.7378 30.7486C60.2735 31.7281 62.5848 33.0985 64.668 34.8641L66.8208 32.0738L66.8286 32.0697Z" fill="#14163A"/>
<path d="M66.8286 32.0697C64.5049 30.0407 61.9039 28.4562 59.0176 27.3203C56.1313 26.1845 53.0416 25.6165 49.7354 25.6165C44.9941 25.6165 40.6442 26.7771 36.6816 29.0983C32.7191 31.4194 29.5922 34.5842 27.293 38.5969C24.9937 42.6095 23.8442 47.042 23.8442 51.8983C23.8442 56.7546 24.9937 61.1541 27.293 65.1667C29.5922 69.1794 32.7191 72.3442 36.6816 74.6654C40.6442 76.9865 44.9941 78.1471 49.7354 78.1471C52.9886 78.1471 56.058 77.5545 58.9443 76.3692C61.8266 75.1839 64.4561 73.5789 66.8247 71.5499L64.7046 68.6855C60.0857 72.5541 55.0918 74.4843 49.731 74.4843C45.7317 74.4843 42.0425 73.4883 38.6548 71.4923C35.267 69.5004 32.5885 66.78 30.6113 63.3353C28.6382 59.8906 27.6475 56.0797 27.6475 51.8983C27.6475 47.7169 28.6341 43.9018 30.6113 40.4448C32.5845 36.9877 35.267 34.2632 38.6548 32.2713C42.0425 30.2794 45.7317 29.2793 49.731 29.2793C52.5317 29.2793 55.2021 29.7691 57.7378 30.7486C60.2735 31.7281 62.5848 33.0985 64.668 34.8641L66.8208 32.0738L66.8286 32.0697Z" fill="#14163A"/>
<path d="M91.1445 27.0346V26.2002H85.4165V33.7879H91.2251V32.9496H86.374V30.3133H90.2637V29.4946H86.374V27.0346H91.1445Z" fill="#14163A"/>
<path d="M91.1445 27.0346V26.2002H85.4165V33.7879H91.2251V32.9496H86.374V30.3133H90.2637V29.4946H86.374V27.0346H91.1445Z" fill="#14163A"/>
<path d="M93.9795 27.6065L96.3628 33.7879H97.1367L99.5234 27.6065L100.186 33.7879H101.1L100.217 26.2002H99.1787L96.7515 32.5187L94.3164 26.2002H93.2695L92.3872 33.7879H93.3057L93.9795 27.6065Z" fill="#14163A"/>
<path d="M93.9795 27.6065L96.3628 33.7879H97.1367L99.5234 27.6065L100.186 33.7879H101.1L100.217 26.2002H99.1787L96.7515 32.5187L94.3164 26.2002H93.2695L92.3872 33.7879H93.3057L93.9795 27.6065Z" fill="#14163A"/>
<path d="M103.817 31.1007H105.829C106.405 31.1007 106.907 30.9988 107.332 30.7951C107.756 30.5914 108.084 30.3055 108.31 29.9294C108.535 29.5573 108.651 29.1225 108.651 28.625C108.651 28.1275 108.535 27.724 108.305 27.3558C108.076 26.9876 107.747 26.7055 107.318 26.5018C106.89 26.302 106.392 26.2002 105.825 26.2002H102.843V33.7879H103.821V31.1007H103.817ZM103.817 27.0189H105.755C106.136 27.0189 106.474 27.0855 106.76 27.2187C107.05 27.3519 107.27 27.5399 107.426 27.7828C107.582 28.0256 107.66 28.3116 107.66 28.6367C107.66 28.9619 107.582 29.2596 107.426 29.5064C107.27 29.7532 107.045 29.9451 106.76 30.0822C106.47 30.2154 106.136 30.2859 105.755 30.2859H103.817V27.0189Z" fill="#14163A"/>
<path d="M103.817 31.1007H105.829C106.405 31.1007 106.907 30.9988 107.332 30.7951C107.756 30.5914 108.084 30.3055 108.31 29.9294C108.535 29.5573 108.651 29.1225 108.651 28.625C108.651 28.1275 108.535 27.724 108.305 27.3558C108.076 26.9876 107.747 26.7055 107.318 26.5018C106.89 26.302 106.392 26.2002 105.825 26.2002H102.843V33.7879H103.821V31.1007H103.817ZM103.817 27.0189H105.755C106.136 27.0189 106.474 27.0855 106.76 27.2187C107.05 27.3519 107.27 27.5399 107.426 27.7828C107.582 28.0256 107.66 28.3116 107.66 28.6367C107.66 28.9619 107.582 29.2596 107.426 29.5064C107.27 29.7532 107.045 29.9451 106.76 30.0822C106.47 30.2154 106.136 30.2859 105.755 30.2859H103.817V27.0189Z" fill="#14163A"/>
<path d="M114.147 30.8186C114.602 30.6306 114.961 30.3525 115.213 29.9843C115.47 29.616 115.597 29.1656 115.597 28.6367C115.597 28.151 115.486 27.724 115.267 27.3558C115.048 26.9876 114.734 26.7016 114.333 26.5018C113.932 26.302 113.461 26.2002 112.928 26.2002H109.813V33.7879H110.747V31.0811H112.701C112.891 31.0811 113.073 31.0694 113.246 31.0498L114.568 33.7879H115.622L114.147 30.8226V30.8186ZM112.85 30.282H110.747V27.0111H112.85C113.209 27.0111 113.527 27.0777 113.796 27.2069C114.069 27.3362 114.28 27.5281 114.424 27.771C114.573 28.0178 114.647 28.3038 114.647 28.6406C114.647 28.9775 114.573 29.2557 114.424 29.5064C114.276 29.7532 114.064 29.9451 113.796 30.0822C113.523 30.2154 113.209 30.2859 112.85 30.2859V30.282Z" fill="#14163A"/>
<path d="M114.147 30.8186C114.602 30.6306 114.961 30.3525 115.213 29.9843C115.47 29.616 115.597 29.1656 115.597 28.6367C115.597 28.151 115.486 27.724 115.267 27.3558C115.048 26.9876 114.734 26.7016 114.333 26.5018C113.932 26.302 113.461 26.2002 112.928 26.2002H109.813V33.7879H110.747V31.0811H112.701C112.891 31.0811 113.073 31.0694 113.246 31.0498L114.568 33.7879H115.622L114.147 30.8226V30.8186ZM112.85 30.282H110.747V27.0111H112.85C113.209 27.0111 113.527 27.0777 113.796 27.2069C114.069 27.3362 114.28 27.5281 114.424 27.771C114.573 28.0178 114.647 28.3038 114.647 28.6406C114.647 28.9775 114.573 29.2557 114.424 29.5064C114.276 29.7532 114.064 29.9451 113.796 30.0822C113.523 30.2154 113.209 30.2859 112.85 30.2859V30.282Z" fill="#14163A"/>
<path d="M122.592 32.9496H118.226V30.3133H121.724V29.4946H118.226V27.0346H122.52V26.2002H117.365V33.7879H122.592V32.9496Z" fill="#14163A"/>
<path d="M122.592 32.9496H118.226V30.3133H121.724V29.4946H118.226V27.0346H122.52V26.2002H117.365V33.7879H122.592V32.9496Z" fill="#14163A"/>
<path d="M130.144 32.9496H125.296V30.3133H129.183V29.4946H125.296V27.0346H130.063V26.2002H124.335V33.7879H130.144V32.9496Z" fill="#14163A"/>
<path d="M130.144 32.9496H125.296V30.3133H129.183V29.4946H125.296V27.0346H130.063V26.2002H124.335V33.7879H130.144V32.9496Z" fill="#14163A"/>
<path d="M132.775 27.5908L137.399 33.7879H138.276V26.2002H137.387V32.3464L132.802 26.2002H131.886V33.7879H132.775V27.5908Z" fill="#14163A"/>
<path d="M132.775 27.5908L137.399 33.7879H138.276V26.2002H137.387V32.3464L132.802 26.2002H131.886V33.7879H132.775V27.5908Z" fill="#14163A"/>
<path d="M145.5 33.2865C146.137 32.9536 146.639 32.4952 147.012 31.9194C147.385 31.3397 147.57 30.7051 147.57 30.0039C147.57 29.3027 147.385 28.6602 147.012 28.0805C146.639 27.5007 146.132 27.0424 145.491 26.7055C144.849 26.3686 144.145 26.2002 143.378 26.2002H140.6V33.7879H143.395C144.158 33.7879 144.858 33.6195 145.496 33.2865H145.5ZM141.547 27.0502H143.395C143.986 27.0502 144.531 27.1795 145.017 27.438C145.507 27.6966 145.893 28.0531 146.174 28.5035C146.459 28.954 146.598 29.4554 146.598 30.0039C146.598 30.5523 146.455 31.0459 146.174 31.4963C145.893 31.9468 145.508 32.2994 145.026 32.5618C144.54 32.8204 144.003 32.9496 143.412 32.9496H141.539V27.0541L141.547 27.0502Z" fill="#14163A"/>
<path d="M145.5 33.2865C146.137 32.9536 146.639 32.4952 147.012 31.9194C147.385 31.3397 147.57 30.7051 147.57 30.0039C147.57 29.3027 147.385 28.6602 147.012 28.0805C146.639 27.5007 146.132 27.0424 145.491 26.7055C144.849 26.3686 144.145 26.2002 143.378 26.2002H140.6V33.7879H143.395C144.158 33.7879 144.858 33.6195 145.496 33.2865H145.5ZM141.547 27.0502H143.395C143.986 27.0502 144.531 27.1795 145.017 27.438C145.507 27.6966 145.893 28.0531 146.174 28.5035C146.459 28.954 146.598 29.4554 146.598 30.0039C146.598 30.5523 146.455 31.0459 146.174 31.4963C145.893 31.9468 145.508 32.2994 145.026 32.5618C144.54 32.8204 144.003 32.9496 143.412 32.9496H141.539V27.0541L141.547 27.0502Z" fill="#14163A"/>
<path d="M150.474 26.2002H149.312V33.7879H150.474V26.2002Z" fill="#14163A"/>
<path d="M150.474 26.2002H149.312V33.7879H150.474V26.2002Z" fill="#14163A"/>
<path d="M153.334 27.6065L155.876 33.7879H156.702L159.249 27.6065L159.95 33.7879H160.93L159.989 26.2002H158.88L156.287 32.5187L153.694 26.2002H152.577L151.636 33.7879H152.612L153.334 27.6065Z" fill="#14163A"/>
<path d="M153.334 27.6065L155.876 33.7879H156.702L159.249 27.6065L159.95 33.7879H160.93L159.989 26.2002H158.88L156.287 32.5187L153.694 26.2002H152.577L151.636 33.7879H152.612L153.334 27.6065Z" fill="#14163A"/>
<path d="M167.9 32.9496H163.537V30.3133H167.036V29.4946H163.537V27.0346H167.828V26.2002H162.672V33.7879H167.9V32.9496Z" fill="#14163A"/>
<path d="M167.9 32.9496H163.537V30.3133H167.036V29.4946H163.537V27.0346H167.828V26.2002H162.672V33.7879H167.9V32.9496Z" fill="#14163A"/>
<path d="M170.612 27.5908L175.657 33.7879H176.613V26.2002H175.644V32.3464L170.643 26.2002H169.643V33.7879H170.612V27.5908Z" fill="#14163A"/>
<path d="M170.612 27.5908L175.657 33.7879H176.613V26.2002H175.644V32.3464L170.643 26.2002H169.643V33.7879H170.612V27.5908Z" fill="#14163A"/>
<path d="M180.476 33.7879H181.451V27.0346H184.165V26.2002H177.775V27.0346H180.476V33.7879Z" fill="#14163A"/>
<path d="M180.476 33.7879H181.451V27.0346H184.165V26.2002H177.775V27.0346H180.476V33.7879Z" fill="#14163A"/>
<path d="M190.284 26.1558C189.66 25.7963 188.978 25.6165 188.231 25.6165C187.484 25.6165 186.802 25.7963 186.182 26.1558C185.561 26.5154 185.067 27.0097 184.708 27.6349C184.344 28.26 184.165 28.9464 184.165 29.6981C184.165 30.4499 184.344 31.1363 184.708 31.7614C185.071 32.3865 185.561 32.8809 186.182 33.2445C186.802 33.6082 187.488 33.7879 188.231 33.7879C188.974 33.7879 189.664 33.6082 190.284 33.2445C190.905 32.8809 191.399 32.3906 191.758 31.7614C192.118 31.1363 192.297 30.4499 192.297 29.6981C192.297 28.9464 192.118 28.26 191.758 27.6349C191.399 27.0097 190.905 26.5154 190.284 26.1558ZM190.941 31.3202C190.66 31.8064 190.28 32.1904 189.798 32.4723C189.317 32.7543 188.795 32.8932 188.227 32.8932C187.66 32.8932 187.137 32.7543 186.659 32.4723C186.182 32.1904 185.802 31.8064 185.52 31.3202C185.238 30.834 185.1 30.2947 185.1 29.7063C185.1 29.118 185.238 28.5787 185.52 28.0884C185.802 27.5981 186.182 27.214 186.659 26.9321C187.137 26.6502 187.66 26.5113 188.227 26.5113C188.795 26.5113 189.317 26.6502 189.798 26.9321C190.28 27.214 190.66 27.5981 190.941 28.0884C191.223 28.5787 191.362 29.118 191.362 29.7063C191.362 30.2947 191.223 30.834 190.941 31.3202Z" fill="#14163A"/>
<path d="M190.284 26.1558C189.66 25.7963 188.978 25.6165 188.231 25.6165C187.484 25.6165 186.802 25.7963 186.182 26.1558C185.561 26.5154 185.067 27.0097 184.708 27.6349C184.344 28.26 184.165 28.9464 184.165 29.6981C184.165 30.4499 184.344 31.1363 184.708 31.7614C185.071 32.3865 185.561 32.8809 186.182 33.2445C186.802 33.6082 187.488 33.7879 188.231 33.7879C188.974 33.7879 189.664 33.6082 190.284 33.2445C190.905 32.8809 191.399 32.3906 191.758 31.7614C192.118 31.1363 192.297 30.4499 192.297 29.6981C192.297 28.9464 192.118 28.26 191.758 27.6349C191.399 27.0097 190.905 26.5154 190.284 26.1558ZM190.941 31.3202C190.66 31.8064 190.28 32.1904 189.798 32.4723C189.317 32.7543 188.795 32.8932 188.227 32.8932C187.66 32.8932 187.137 32.7543 186.659 32.4723C186.182 32.1904 185.802 31.8064 185.52 31.3202C185.238 30.834 185.1 30.2947 185.1 29.7063C185.1 29.118 185.238 28.5787 185.52 28.0884C185.802 27.5981 186.182 27.214 186.659 26.9321C187.137 26.6502 187.66 26.5113 188.227 26.5113C188.795 26.5113 189.317 26.6502 189.798 26.9321C190.28 27.214 190.66 27.5981 190.941 28.0884C191.223 28.5787 191.362 29.118 191.362 29.7063C191.362 30.2947 191.223 30.834 190.941 31.3202Z" fill="#14163A"/>
<path d="M197.454 32.7526C197.173 32.8636 196.861 32.917 196.508 32.917C196.042 32.917 195.593 32.8225 195.152 32.6294C194.715 32.4363 194.349 32.1611 194.057 31.8036L193.459 32.3911C193.812 32.8389 194.261 33.184 194.799 33.4264C195.34 33.6688 195.906 33.7879 196.504 33.7879C197.025 33.7879 197.49 33.6976 197.912 33.5168C198.329 33.336 198.662 33.069 198.902 32.7198C199.147 32.3706 199.268 31.9556 199.268 31.4709C199.268 31.0231 199.151 30.6533 198.918 30.3616C198.686 30.0699 198.389 29.844 198.032 29.6796C197.671 29.5153 197.21 29.3469 196.648 29.1825C196.179 29.0552 195.822 28.9401 195.569 28.8456C195.32 28.7512 195.111 28.6156 194.943 28.4471C194.778 28.2787 194.694 28.0527 194.694 27.7775C194.694 27.5022 194.775 27.2804 194.936 27.0832C195.096 26.886 195.312 26.734 195.585 26.6313C195.858 26.5286 196.159 26.4752 196.488 26.4752C196.861 26.4752 197.23 26.545 197.591 26.6888C197.956 26.8326 198.265 27.0216 198.521 27.2639L199.063 26.623C198.726 26.3026 198.333 26.052 197.876 25.8794C197.419 25.7028 196.941 25.6165 196.447 25.6165C195.926 25.6165 195.46 25.7069 195.059 25.8877C194.658 26.0684 194.345 26.3231 194.121 26.6436C193.896 26.964 193.788 27.3338 193.788 27.7487C193.788 28.2047 193.904 28.5786 194.137 28.8662C194.369 29.1538 194.654 29.3756 194.991 29.5276C195.328 29.6796 195.741 29.8193 196.227 29.9467C196.728 30.0822 197.121 30.2055 197.402 30.3164C197.683 30.4273 197.911 30.5752 198.088 30.7601C198.264 30.945 198.353 31.1874 198.353 31.4832C198.353 31.779 198.273 32.0501 198.112 32.2638C197.952 32.4774 197.731 32.6376 197.45 32.7485L197.454 32.7526Z" fill="#14163A"/>
<path d="M197.454 32.7526C197.173 32.8636 196.861 32.917 196.508 32.917C196.042 32.917 195.593 32.8225 195.152 32.6294C194.715 32.4363 194.349 32.1611 194.057 31.8036L193.459 32.3911C193.812 32.8389 194.261 33.184 194.799 33.4264C195.34 33.6688 195.906 33.7879 196.504 33.7879C197.025 33.7879 197.49 33.6976 197.912 33.5168C198.329 33.336 198.662 33.069 198.902 32.7198C199.147 32.3706 199.268 31.9556 199.268 31.4709C199.268 31.0231 199.151 30.6533 198.918 30.3616C198.686 30.0699 198.389 29.844 198.032 29.6796C197.671 29.5153 197.21 29.3469 196.648 29.1825C196.179 29.0552 195.822 28.9401 195.569 28.8456C195.32 28.7512 195.111 28.6156 194.943 28.4471C194.778 28.2787 194.694 28.0527 194.694 27.7775C194.694 27.5022 194.775 27.2804 194.936 27.0832C195.096 26.886 195.312 26.734 195.585 26.6313C195.858 26.5286 196.159 26.4752 196.488 26.4752C196.861 26.4752 197.23 26.545 197.591 26.6888C197.956 26.8326 198.265 27.0216 198.521 27.2639L199.063 26.623C198.726 26.3026 198.333 26.052 197.876 25.8794C197.419 25.7028 196.941 25.6165 196.447 25.6165C195.926 25.6165 195.46 25.7069 195.059 25.8877C194.658 26.0684 194.345 26.3231 194.121 26.6436C193.896 26.964 193.788 27.3338 193.788 27.7487C193.788 28.2047 193.904 28.5786 194.137 28.8662C194.369 29.1538 194.654 29.3756 194.991 29.5276C195.328 29.6796 195.741 29.8193 196.227 29.9467C196.728 30.0822 197.121 30.2055 197.402 30.3164C197.683 30.4273 197.911 30.5752 198.088 30.7601C198.264 30.945 198.353 31.1874 198.353 31.4832C198.353 31.779 198.273 32.0501 198.112 32.2638C197.952 32.4774 197.731 32.6376 197.45 32.7485L197.454 32.7526Z" fill="#14163A"/>
</svg>
