<svg width="263" height="68" viewBox="0 0 263 68" fill="none" xmlns="http://www.w3.org/2000/svg">
<path d="M83.5986 29.9634C85.9742 29.9634 88.089 29.57 89.939 28.7791C91.7889 27.9882 93.7569 26.5704 95.8391 24.5296L92.2002 20.7144C90.6559 22.2593 89.2378 23.3207 87.9502 23.9067C86.6626 24.4927 85.2366 24.7837 83.6841 24.7837C81.8586 24.7837 80.1999 24.3657 78.7085 23.5297C77.2171 22.6937 76.0601 21.5422 75.2451 20.0792C74.4302 18.6122 74.019 16.9361 74.019 15.047C74.019 12.3342 74.9398 10.0516 76.7856 8.19935C78.6274 6.34709 80.8969 5.42096 83.5903 5.42096C86.7809 5.42096 89.6492 6.77737 92.2041 9.4902L95.9573 5.89222C94.4007 4.07274 92.5426 2.66715 90.3911 1.67955C88.2396 0.691946 86.0025 0.200195 83.6758 0.200195C80.9416 0.200195 78.3909 0.868162 76.0234 2.20409C73.656 3.54001 71.8348 5.30622 70.5635 7.5027C69.2921 9.69919 68.6562 12.2112 68.6562 15.0347C68.6562 19.4031 70.0496 22.9806 72.8408 25.7754C75.632 28.5701 79.2182 29.9675 83.5986 29.9675V29.9634Z" fill="#14163A"/>
<path d="M83.5986 29.9634C85.9742 29.9634 88.089 29.57 89.939 28.7791C91.7889 27.9882 93.7569 26.5704 95.8391 24.5296L92.2002 20.7144C90.6559 22.2593 89.2378 23.3207 87.9502 23.9067C86.6626 24.4927 85.2366 24.7837 83.6841 24.7837C81.8586 24.7837 80.1999 24.3657 78.7085 23.5297C77.2171 22.6937 76.0601 21.5422 75.2451 20.0792C74.4302 18.6122 74.019 16.9361 74.019 15.047C74.019 12.3342 74.9398 10.0516 76.7856 8.19935C78.6274 6.34709 80.8969 5.42096 83.5903 5.42096C86.7809 5.42096 89.6492 6.77737 92.2041 9.4902L95.9573 5.89222C94.4007 4.07274 92.5426 2.66715 90.3911 1.67955C88.2396 0.691946 86.0025 0.200195 83.6758 0.200195C80.9416 0.200195 78.3909 0.868162 76.0234 2.20409C73.656 3.54001 71.8348 5.30622 70.5635 7.5027C69.2921 9.69919 68.6562 12.2112 68.6562 15.0347C68.6562 19.4031 70.0496 22.9806 72.8408 25.7754C75.632 28.5701 79.2182 29.9675 83.5986 29.9675V29.9634Z" fill="#14163A"/>
<path d="M104.09 0.200195H98.8621V29.9675H104.09V0.200195Z" fill="#14163A"/>
<path d="M104.09 0.200195H98.8621V29.9675H104.09V0.200195Z" fill="#14163A"/>
<path d="M127.653 25.458L123.209 23.4181C121.79 24.7633 120.096 25.4379 118.127 25.4379C116.479 25.4379 115.122 25.0083 114.057 24.1449C112.992 23.2816 112.339 22.1211 112.096 20.6634H129.047L129.067 19.6796C129.067 16.2824 128.031 13.5477 125.955 11.4757C123.879 9.40363 121.186 8.37162 117.876 8.37162C114.756 8.37162 112.166 9.40765 110.098 11.4757C108.03 13.5477 106.994 16.1499 106.994 19.282C106.994 22.4142 108.03 24.8878 110.106 26.9197C112.182 28.9516 114.867 29.9675 118.164 29.9675C120.29 29.9675 122.127 29.5981 123.673 28.8633C125.219 28.1284 126.547 26.992 127.657 25.454L127.653 25.458ZM114.262 13.9413C115.372 13.1381 116.664 12.7326 118.135 12.7326C119.492 12.7326 120.68 13.09 121.708 13.8088C122.736 14.5275 123.422 15.4592 123.772 16.6036H112.33C112.922 15.3307 113.568 14.4432 114.267 13.9413H114.262Z" fill="#14163A"/>
<path d="M127.653 25.458L123.209 23.4181C121.79 24.7633 120.096 25.4379 118.127 25.4379C116.479 25.4379 115.122 25.0083 114.057 24.1449C112.992 23.2816 112.339 22.1211 112.096 20.6634H129.047L129.067 19.6796C129.067 16.2824 128.031 13.5477 125.955 11.4757C123.879 9.40363 121.186 8.37162 117.876 8.37162C114.756 8.37162 112.166 9.40765 110.098 11.4757C108.03 13.5477 106.994 16.1499 106.994 19.282C106.994 22.4142 108.03 24.8878 110.106 26.9197C112.182 28.9516 114.867 29.9675 118.164 29.9675C120.29 29.9675 122.127 29.5981 123.673 28.8633C125.219 28.1284 126.547 26.992 127.657 25.454L127.653 25.458ZM114.262 13.9413C115.372 13.1381 116.664 12.7326 118.135 12.7326C119.492 12.7326 120.68 13.09 121.708 13.8088C122.736 14.5275 123.422 15.4592 123.772 16.6036H112.33C112.922 15.3307 113.568 14.4432 114.267 13.9413H114.262Z" fill="#14163A"/>
<path d="M125.582 5.45326L120.036 0.200195H118.031L120.036 5.45326H125.582Z" fill="#14163A"/>
<path d="M125.582 5.45326L120.036 0.200195H118.031L120.036 5.45326H125.582Z" fill="#14163A"/>
<path d="M118.031 0.200195H115.991L110.479 5.45326H115.991L118.031 0.200195Z" fill="#14163A"/>
<path d="M118.031 0.200195H115.991L110.479 5.45326H115.991L118.031 0.200195Z" fill="#14163A"/>
<path d="M150.559 29.9675V16.3948C150.559 14.0296 149.949 12.2427 148.732 11.034C147.281 9.61245 145.261 8.90168 143.765 8.90168C137.459 8.90168 137.229 19.3704 137.229 19.3704V8.37162H131.971V29.9675H137.229V21.7275C137.229 19.5912 137.307 18.2018 137.459 17.5593C137.754 16.3265 138.282 15.3628 139.045 14.6641C139.807 13.9654 140.721 13.616 141.782 13.616C142.602 13.616 143.29 13.8248 143.847 14.2465C144.404 14.6681 144.798 15.2785 145.019 16.0856C145.245 16.8887 145.355 18.5191 145.355 20.9686V29.9635H150.555L150.559 29.9675Z" fill="#14163A"/>
<path d="M150.559 29.9675V16.3948C150.559 14.0296 149.949 12.2427 148.732 11.034C147.281 9.61245 145.261 8.90168 143.765 8.90168C137.459 8.90168 137.229 19.3704 137.229 19.3704V8.37162H131.971V29.9675H137.229V21.7275C137.229 19.5912 137.307 18.2018 137.459 17.5593C137.754 16.3265 138.282 15.3628 139.045 14.6641C139.807 13.9654 140.721 13.616 141.782 13.616C142.602 13.616 143.29 13.8248 143.847 14.2465C144.404 14.6681 144.798 15.2785 145.019 16.0856C145.245 16.8887 145.355 18.5191 145.355 20.9686V29.9635H150.555L150.559 29.9675Z" fill="#14163A"/>
<path d="M156.101 5.44955C156.81 5.44955 157.417 5.22349 157.928 4.77138C158.439 4.31926 158.692 3.77079 158.692 3.12968C158.692 2.48856 158.434 1.92527 157.92 1.46945C157.405 1.01363 156.789 0.783871 156.072 0.783871C155.354 0.783871 154.738 1.00622 154.228 1.45463C153.717 1.90304 153.464 2.44409 153.464 3.07779C153.464 3.7115 153.721 4.29703 154.236 4.76026C154.751 5.22349 155.371 5.45326 156.101 5.45326V5.44955Z" fill="#14163A"/>
<path d="M156.101 5.44955C156.81 5.44955 157.417 5.22349 157.928 4.77138C158.439 4.31926 158.692 3.77079 158.692 3.12968C158.692 2.48856 158.434 1.92527 157.92 1.46945C157.405 1.01363 156.789 0.783871 156.072 0.783871C155.354 0.783871 154.738 1.00622 154.228 1.45463C153.717 1.90304 153.464 2.44409 153.464 3.07779C153.464 3.7115 153.721 4.29703 154.236 4.76026C154.751 5.22349 155.371 5.45326 156.101 5.45326V5.44955Z" fill="#14163A"/>
<path d="M158.692 8.37162H153.464V29.9675H158.692V8.37162Z" fill="#14163A"/>
<path d="M158.692 8.37162H153.464V29.9675H158.692V8.37162Z" fill="#14163A"/>
<path d="M172.524 29.9675C174.573 29.9675 176.451 29.4938 178.155 28.5423C179.858 27.5907 181.204 26.2739 182.188 24.5876C183.176 22.9014 183.669 21.0907 183.669 19.1515C183.669 17.2123 183.18 15.4338 182.2 13.7716C181.22 12.1095 179.854 10.7966 178.109 9.825C176.36 8.85742 174.491 8.37162 172.507 8.37162C169.758 8.37162 167.326 9.30306 165.214 11.166C162.802 13.3059 161.596 15.9798 161.596 19.1877C161.596 22.1827 162.662 24.7282 164.798 26.8239C166.934 28.9197 169.511 29.9675 172.528 29.9675H172.524ZM168.49 14.8958C169.581 13.7836 170.947 13.2256 172.59 13.2256C174.232 13.2256 175.647 13.7756 176.73 14.8757C177.808 15.9758 178.347 17.4091 178.347 19.1716C178.347 20.9341 177.796 22.3754 176.701 23.4956C175.602 24.6157 174.228 25.1738 172.573 25.1738C170.918 25.1738 169.552 24.6198 168.473 23.5117C167.395 22.4036 166.856 20.9582 166.856 19.1716C166.856 17.385 167.404 16.0079 168.494 14.8958H168.49Z" fill="#14163A"/>
<path d="M172.524 29.9675C174.573 29.9675 176.451 29.4938 178.155 28.5423C179.858 27.5907 181.204 26.2739 182.188 24.5876C183.176 22.9014 183.669 21.0907 183.669 19.1515C183.669 17.2123 183.18 15.4338 182.2 13.7716C181.22 12.1095 179.854 10.7966 178.109 9.825C176.36 8.85742 174.491 8.37162 172.507 8.37162C169.758 8.37162 167.326 9.30306 165.214 11.166C162.802 13.3059 161.596 15.9798 161.596 19.1877C161.596 22.1827 162.662 24.7282 164.798 26.8239C166.934 28.9197 169.511 29.9675 172.528 29.9675H172.524ZM168.49 14.8958C169.581 13.7836 170.947 13.2256 172.59 13.2256C174.232 13.2256 175.647 13.7756 176.73 14.8757C177.808 15.9758 178.347 17.4091 178.347 19.1716C178.347 20.9341 177.796 22.3754 176.701 23.4956C175.602 24.6157 174.228 25.1738 172.573 25.1738C170.918 25.1738 169.552 24.6198 168.473 23.5117C167.395 22.4036 166.856 20.9582 166.856 19.1716C166.856 17.385 167.404 16.0079 168.494 14.8958H168.49Z" fill="#14163A"/>
<path d="M137.959 38.6834C131.651 38.6834 131.422 49.435 131.422 49.435V38.139H126.163V60.3186H131.422V51.8558C131.422 49.6618 131.499 48.2348 131.651 47.575C131.946 46.3089 132.475 45.3191 133.237 44.6015C133.999 43.8839 134.914 43.5251 135.975 43.5251C136.795 43.5251 137.483 43.7395 138.041 44.1726C138.598 44.6056 138.992 45.2325 139.213 46.0614C139.439 46.8863 139.55 48.5607 139.55 51.0764V60.3144H144.751V46.3749C144.751 43.9458 144.14 42.1105 142.923 40.8691C141.472 39.4092 139.451 38.6792 137.955 38.6792L137.959 38.6834Z" fill="#14163A"/>
<path d="M137.959 38.6834C131.651 38.6834 131.422 49.435 131.422 49.435V38.139H126.163V60.3186H131.422V51.8558C131.422 49.6618 131.499 48.2348 131.651 47.575C131.946 46.3089 132.475 45.3191 133.237 44.6015C133.999 43.8839 134.914 43.5251 135.975 43.5251C136.795 43.5251 137.483 43.7395 138.041 44.1726C138.598 44.6056 138.992 45.2325 139.213 46.0614C139.439 46.8863 139.55 48.5607 139.55 51.0764V60.3144H144.751V46.3749C144.751 43.9458 144.14 42.1105 142.923 40.8691C141.472 39.4092 139.451 38.6792 137.955 38.6792L137.959 38.6834Z" fill="#14163A"/>
<path d="M83.9053 50.1027H92.1602C91.3689 51.8074 90.3349 53.0567 89.0449 53.8548C87.759 54.6528 86.176 55.0539 84.3008 55.0539C81.4158 55.0539 78.9928 54.0846 77.0269 52.1459C75.061 50.2071 74.0801 47.8422 74.0801 45.0553C74.0801 42.2684 75.0277 40.0664 76.9194 38.1779C78.8153 36.2935 81.1645 35.3492 83.9712 35.3492C87.19 35.3492 90.0095 36.6444 92.4287 39.2391L96.2493 35.4077C94.5059 33.494 92.7211 32.1486 90.8994 31.3631C88.7439 30.4313 86.4235 29.9675 83.9424 29.9675C79.2028 29.9675 75.3491 31.6514 72.394 35.0149C69.9006 37.8436 68.6562 41.1695 68.6562 44.9926C68.6562 47.7837 69.3325 50.3826 70.6802 52.7935C72.0279 55.2043 73.8654 57.0595 76.1816 58.3631C78.502 59.6667 81.1402 60.3186 84.0952 60.3186C86.8607 60.3186 89.2672 59.7211 91.3237 58.5303C93.3762 57.3395 95.0499 55.6096 96.344 53.345C97.634 51.0804 98.281 48.6821 98.281 46.1542L98.2439 44.9341H83.9053V50.1027Z" fill="#14163A"/>
<path d="M83.9053 50.1027H92.1602C91.3689 51.8074 90.3349 53.0567 89.0449 53.8548C87.759 54.6528 86.176 55.0539 84.3008 55.0539C81.4158 55.0539 78.9928 54.0846 77.0269 52.1459C75.061 50.2071 74.0801 47.8422 74.0801 45.0553C74.0801 42.2684 75.0277 40.0664 76.9194 38.1779C78.8153 36.2935 81.1645 35.3492 83.9712 35.3492C87.19 35.3492 90.0095 36.6444 92.4287 39.2391L96.2493 35.4077C94.5059 33.494 92.7211 32.1486 90.8994 31.3631C88.7439 30.4313 86.4235 29.9675 83.9424 29.9675C79.2028 29.9675 75.3491 31.6514 72.394 35.0149C69.9006 37.8436 68.6562 41.1695 68.6562 44.9926C68.6562 47.7837 69.3325 50.3826 70.6802 52.7935C72.0279 55.2043 73.8654 57.0595 76.1816 58.3631C78.502 59.6667 81.1402 60.3186 84.0952 60.3186C86.8607 60.3186 89.2672 59.7211 91.3237 58.5303C93.3762 57.3395 95.0499 55.6096 96.344 53.345C97.634 51.0804 98.281 48.6821 98.281 46.1542L98.2439 44.9341H83.9053V50.1027Z" fill="#14163A"/>
<path d="M117.695 39.6316C115.946 38.6379 114.078 38.139 112.094 38.139C109.346 38.139 106.914 39.0956 104.802 41.0088C102.391 43.2066 101.185 45.9527 101.185 49.2473C101.185 52.3233 102.251 54.9376 104.386 57.09C106.522 59.2424 109.099 60.3186 112.115 60.3186C114.164 60.3186 116.041 59.832 117.744 58.8548C119.448 57.8775 120.794 56.5251 121.777 54.7932C122.765 53.0614 123.259 51.2018 123.259 49.2102C123.259 47.2186 122.769 45.392 121.79 43.6849C120.81 41.9778 119.444 40.6295 117.699 39.6316H117.695ZM116.292 53.6676C115.193 54.818 113.819 55.3911 112.164 55.3911C110.51 55.3911 109.144 54.8221 108.066 53.684C106.988 52.546 106.448 51.0616 106.448 49.2267C106.448 47.3918 106.996 45.9775 108.086 44.8353C109.177 43.6931 110.543 43.12 112.185 43.12C113.827 43.12 115.242 43.6849 116.324 44.8147C117.403 45.9445 117.942 47.4165 117.942 49.2267C117.942 51.0369 117.39 52.5172 116.296 53.6676H116.292Z" fill="#14163A"/>
<path d="M117.695 39.6316C115.946 38.6379 114.078 38.139 112.094 38.139C109.346 38.139 106.914 39.0956 104.802 41.0088C102.391 43.2066 101.185 45.9527 101.185 49.2473C101.185 52.3233 102.251 54.9376 104.386 57.09C106.522 59.2424 109.099 60.3186 112.115 60.3186C114.164 60.3186 116.041 59.832 117.744 58.8548C119.448 57.8775 120.794 56.5251 121.777 54.7932C122.765 53.0614 123.259 51.2018 123.259 49.2102C123.259 47.2186 122.769 45.392 121.79 43.6849C120.81 41.9778 119.444 40.6295 117.699 39.6316H117.695ZM116.292 53.6676C115.193 54.818 113.819 55.3911 112.164 55.3911C110.51 55.3911 109.144 54.8221 108.066 53.684C106.988 52.546 106.448 51.0616 106.448 49.2267C106.448 47.3918 106.996 45.9775 108.086 44.8353C109.177 43.6931 110.543 43.12 112.185 43.12C113.827 43.12 115.242 43.6849 116.324 44.8147C117.403 45.9445 117.942 47.4165 117.942 49.2267C117.942 51.0369 117.39 52.5172 116.296 53.6676H116.292Z" fill="#14163A"/>
<path d="M159.524 43.0977C160.603 43.0977 161.543 43.2678 162.344 43.6039C163.146 43.94 163.959 44.5459 164.781 45.4173L169.147 42.9773C168.097 41.4296 166.744 40.2345 165.092 39.3963C163.44 38.5581 161.576 38.139 159.499 38.139C157.254 38.139 155.231 38.6328 153.416 39.6204C151.601 40.6079 150.19 41.969 149.176 43.6993C148.162 45.4297 147.655 47.3219 147.655 49.3759C147.655 52.3428 148.698 54.928 150.779 57.1397C152.348 58.8078 154.368 59.8452 156.845 60.256L156.364 61.9199L157.438 61.8826C157.962 61.8826 158.35 61.9781 158.591 62.1731C158.836 62.3681 158.955 62.6337 158.955 62.9739C158.955 63.3889 158.796 63.725 158.477 63.9781C158.158 64.2312 157.671 64.3599 157.017 64.3599C156.134 64.3599 155.231 64.2105 154.307 63.9117L153.616 66.4263C155.206 67.0239 156.625 67.3226 157.884 67.3226C159.434 67.3226 160.644 66.945 161.519 66.194C162.39 65.4429 162.827 64.5383 162.827 63.4885C162.827 62.8121 162.582 62.1938 162.087 61.6295C161.592 61.0652 160.918 60.6875 160.059 60.4925L160.071 60.4386C163.845 60.2892 166.797 58.8161 168.919 56.0152L164.781 53.1395C163.473 54.7661 161.645 55.5795 159.295 55.5795C157.398 55.5795 155.865 55.0068 154.696 53.8657C153.526 52.7246 152.946 51.2474 152.946 49.4423C152.946 47.6373 153.551 46.0646 154.765 44.8737C155.975 43.6869 157.565 43.0935 159.528 43.0935L159.524 43.0977Z" fill="#14163A"/>
<path d="M159.524 43.0977C160.603 43.0977 161.543 43.2678 162.344 43.6039C163.146 43.94 163.959 44.5459 164.781 45.4173L169.147 42.9773C168.097 41.4296 166.744 40.2345 165.092 39.3963C163.44 38.5581 161.576 38.139 159.499 38.139C157.254 38.139 155.231 38.6328 153.416 39.6204C151.601 40.6079 150.19 41.969 149.176 43.6993C148.162 45.4297 147.655 47.3219 147.655 49.3759C147.655 52.3428 148.698 54.928 150.779 57.1397C152.348 58.8078 154.368 59.8452 156.845 60.256L156.364 61.9199L157.438 61.8826C157.962 61.8826 158.35 61.9781 158.591 62.1731C158.836 62.3681 158.955 62.6337 158.955 62.9739C158.955 63.3889 158.796 63.725 158.477 63.9781C158.158 64.2312 157.671 64.3599 157.017 64.3599C156.134 64.3599 155.231 64.2105 154.307 63.9117L153.616 66.4263C155.206 67.0239 156.625 67.3226 157.884 67.3226C159.434 67.3226 160.644 66.945 161.519 66.194C162.39 65.4429 162.827 64.5383 162.827 63.4885C162.827 62.8121 162.582 62.1938 162.087 61.6295C161.592 61.0652 160.918 60.6875 160.059 60.4925L160.071 60.4386C163.845 60.2892 166.797 58.8161 168.919 56.0152L164.781 53.1395C163.473 54.7661 161.645 55.5795 159.295 55.5795C157.398 55.5795 155.865 55.0068 154.696 53.8657C153.526 52.7246 152.946 51.2474 152.946 49.4423C152.946 47.6373 153.551 46.0646 154.765 44.8737C155.975 43.6869 157.565 43.0935 159.528 43.0935L159.524 43.0977Z" fill="#14163A"/>
<path d="M186.593 41.0088C185.667 40.0522 184.656 39.3347 183.56 38.8564C182.468 38.3781 181.299 38.139 180.052 38.139C177.345 38.139 175.043 39.1781 173.151 41.2604C171.259 43.3427 170.309 46.0105 170.309 49.2679C170.309 52.5254 171.288 55.0365 173.244 57.1477C175.201 59.2589 177.519 60.3186 180.203 60.3186C181.396 60.3186 182.505 60.1 183.528 59.6712C184.551 59.2382 185.57 58.529 186.589 57.5477V59.7784H191.802V38.6874H186.589V41.013L186.593 41.0088ZM185.204 53.7377C184.124 54.8963 182.769 55.4736 181.133 55.4736C179.496 55.4736 178.214 54.884 177.13 53.7088C176.046 52.5337 175.502 51.0327 175.502 49.2102C175.502 47.3877 176.034 45.9198 177.101 44.7611C178.169 43.6024 179.505 43.0252 181.116 43.0252C182.728 43.0252 184.129 43.5942 185.204 44.7322C186.28 45.8703 186.821 47.3547 186.821 49.1896C186.821 51.0245 186.28 52.579 185.204 53.7377Z" fill="#14163A"/>
<path d="M186.593 41.0088C185.667 40.0522 184.656 39.3347 183.56 38.8564C182.468 38.3781 181.299 38.139 180.052 38.139C177.345 38.139 175.043 39.1781 173.151 41.2604C171.259 43.3427 170.309 46.0105 170.309 49.2679C170.309 52.5254 171.288 55.0365 173.244 57.1477C175.201 59.2589 177.519 60.3186 180.203 60.3186C181.396 60.3186 182.505 60.1 183.528 59.6712C184.551 59.2382 185.57 58.529 186.589 57.5477V59.7784H191.802V38.6874H186.589V41.013L186.593 41.0088ZM185.204 53.7377C184.124 54.8963 182.769 55.4736 181.133 55.4736C179.496 55.4736 178.214 54.884 177.13 53.7088C176.046 52.5337 175.502 51.0327 175.502 49.2102C175.502 47.3877 176.034 45.9198 177.101 44.7611C178.169 43.6024 179.505 43.0252 181.116 43.0252C182.728 43.0252 184.129 43.5942 185.204 44.7322C186.28 45.8703 186.821 47.3547 186.821 49.1896C186.821 51.0245 186.28 52.579 185.204 53.7377Z" fill="#14163A"/>
<path d="M199.934 31.1349H194.706V60.3186H199.934V31.1349Z" fill="#14163A"/>
<path d="M199.934 31.1349H194.706V60.3186H199.934V31.1349Z" fill="#14163A"/>
<path d="M218.943 39.3063L213.605 51.7042L208.251 39.3063H202.838L211.87 60.3186H215.315L224.33 39.3063H218.943Z" fill="#14163A"/>
<path d="M218.943 39.3063L213.605 51.7042L208.251 39.3063H202.838L211.87 60.3186H215.315L224.33 39.3063H218.943Z" fill="#14163A"/>
<path d="M234.924 38.1431C231.886 38.1431 229.365 39.2069 227.352 41.3305C225.339 43.454 224.33 46.13 224.33 49.3463C224.33 52.5625 225.338 55.1025 227.36 57.1889C229.381 59.2754 231.995 60.3186 235.204 60.3186C237.274 60.3186 239.062 59.9392 240.567 59.1846C242.072 58.4301 243.365 57.2632 244.446 55.6839L240.119 53.5892C238.739 54.9706 237.089 55.6633 235.172 55.6633C233.567 55.6633 232.247 55.2221 231.21 54.3356C230.174 53.449 229.537 52.2574 229.301 50.7606H245.802L245.823 49.7504C245.823 46.262 244.814 43.454 242.793 41.3263C240.772 39.1987 238.15 38.139 234.928 38.139L234.924 38.1431ZM229.525 46.596C230.101 45.2889 230.73 44.3776 231.41 43.8622C232.491 43.0375 233.748 42.6211 235.18 42.6211C236.501 42.6211 237.658 42.9881 238.658 43.7261C239.659 44.4642 240.327 45.4208 240.667 46.596H229.525Z" fill="#14163A"/>
<path d="M234.924 38.1431C231.886 38.1431 229.365 39.2069 227.352 41.3305C225.339 43.454 224.33 46.13 224.33 49.3463C224.33 52.5625 225.338 55.1025 227.36 57.1889C229.381 59.2754 231.995 60.3186 235.204 60.3186C237.274 60.3186 239.062 59.9392 240.567 59.1846C242.072 58.4301 243.365 57.2632 244.446 55.6839L240.119 53.5892C238.739 54.9706 237.089 55.6633 235.172 55.6633C233.567 55.6633 232.247 55.2221 231.21 54.3356C230.174 53.449 229.537 52.2574 229.301 50.7606H245.802L245.823 49.7504C245.823 46.262 244.814 43.454 242.793 41.3263C240.772 39.1987 238.15 38.139 234.928 38.139L234.924 38.1431ZM229.525 46.596C230.101 45.2889 230.73 44.3776 231.41 43.8622C232.491 43.0375 233.748 42.6211 235.18 42.6211C236.501 42.6211 237.658 42.9881 238.658 43.7261C239.659 44.4642 240.327 45.4208 240.667 46.596H229.525Z" fill="#14163A"/>
<path d="M256.687 46.9811L254.731 46.0119C253.882 45.5995 253.354 45.2737 253.137 45.0345C252.921 44.7953 252.813 44.5355 252.813 44.2509C252.813 43.8756 252.984 43.5622 253.321 43.3106C253.658 43.0591 254.128 42.9312 254.727 42.9312C255.821 42.9312 257.04 43.5911 258.384 44.9108L261.692 41.6321C260.843 40.5062 259.811 39.6443 258.592 39.0422C257.373 38.44 256.071 38.139 254.69 38.139C252.668 38.139 251.008 38.7287 249.714 39.9123C248.416 41.096 247.767 42.5188 247.767 44.1891C247.767 46.7749 249.489 48.9277 252.929 50.6475L254.731 51.5383C256.283 52.3136 257.057 53.1096 257.057 53.922C257.057 54.3633 256.84 54.751 256.412 55.085C255.983 55.4232 255.413 55.5882 254.71 55.5882C254.057 55.5882 253.312 55.3655 252.472 54.9201C251.632 54.4747 250.899 53.889 250.271 53.1673L246.984 56.7141C248.836 59.1184 251.316 60.3186 254.419 60.3186C256.753 60.3186 258.613 59.6917 260.002 58.438C261.392 57.1842 262.087 55.6212 262.087 53.7447C262.087 52.3342 261.7 51.1094 260.934 50.0618C260.165 49.0143 258.75 47.9874 256.691 46.977L256.687 46.9811Z" fill="#14163A"/>
<path d="M256.687 46.9811L254.731 46.0119C253.882 45.5995 253.354 45.2737 253.137 45.0345C252.921 44.7953 252.813 44.5355 252.813 44.2509C252.813 43.8756 252.984 43.5622 253.321 43.3106C253.658 43.0591 254.128 42.9312 254.727 42.9312C255.821 42.9312 257.04 43.5911 258.384 44.9108L261.692 41.6321C260.843 40.5062 259.811 39.6443 258.592 39.0422C257.373 38.44 256.071 38.139 254.69 38.139C252.668 38.139 251.008 38.7287 249.714 39.9123C248.416 41.096 247.767 42.5188 247.767 44.1891C247.767 46.7749 249.489 48.9277 252.929 50.6475L254.731 51.5383C256.283 52.3136 257.057 53.1096 257.057 53.922C257.057 54.3633 256.84 54.751 256.412 55.085C255.983 55.4232 255.413 55.5882 254.71 55.5882C254.057 55.5882 253.312 55.3655 252.472 54.9201C251.632 54.4747 250.899 53.889 250.271 53.1673L246.984 56.7141C248.836 59.1184 251.316 60.3186 254.419 60.3186C256.753 60.3186 258.613 59.6917 260.002 58.438C261.392 57.1842 262.087 55.6212 262.087 53.7447C262.087 52.3342 261.7 51.1094 260.934 50.0618C260.165 49.0143 258.75 47.9874 256.691 46.977L256.687 46.9811Z" fill="#14163A"/>
<path d="M32.0615 35.2814H48.0298C45.952 42.5082 39.7187 48.0012 32.0615 49.0447V59.6199C38.3818 59.0693 44.1349 56.5673 48.7168 52.73V59.7349H59.3623V24.7145H32.0654V35.2814H32.0615Z" fill="#14163A"/>
<path d="M32.0615 35.2814H48.0298C45.952 42.5082 39.7187 48.0012 32.0615 49.0447V59.6199C38.3818 59.0693 44.1349 56.5673 48.7168 52.73V59.7349H59.3623V24.7145H32.0654V35.2814H32.0615Z" fill="#14163A"/>
<path d="M0.113281 29.9675C0.113281 45.5779 11.8589 58.3931 26.8335 59.7349V49.1078C17.5959 47.8156 10.4771 39.74 10.4771 29.9675C10.4771 20.1951 17.5959 12.1195 26.8335 10.8273V0.200195C11.8589 1.542 0.113281 14.3572 0.113281 29.9675Z" fill="#14163A"/>
<path d="M0.113281 29.9675C0.113281 45.5779 11.8589 58.3931 26.8335 59.7349V49.1078C17.5959 47.8156 10.4771 39.74 10.4771 29.9675C10.4771 20.1951 17.5959 12.1195 26.8335 10.8273V0.200195C11.8589 1.542 0.113281 14.3572 0.113281 29.9675Z" fill="#14163A"/>
<path d="M43.4443 16.5431L50.6494 8.81898C45.8034 4.00478 39.3035 0.828135 32.0615 0.200195V10.7644C36.5137 11.3677 40.4848 13.4731 43.4404 16.5431H43.4443Z" fill="#14163A"/>
<path d="M43.4443 16.5431L50.6494 8.81898C45.8034 4.00478 39.3035 0.828135 32.0615 0.200195V10.7644C36.5137 11.3677 40.4848 13.4731 43.4404 16.5431H43.4443Z" fill="#14163A"/>
</svg>
