<svg width="265" height="63" viewBox="0 0 265 63" fill="none" xmlns="http://www.w3.org/2000/svg">
<path d="M30.3135 29.1634C29.9941 29.147 29.6788 29.1347 29.3635 29.1347C27.4512 29.1347 25.6043 29.5416 23.909 31.0131C22.2751 32.3819 22.1359 36.2127 22.1359 37.5815C18.864 42.6455 15.6617 48.8686 15.6617 51.8116C15.6617 52.0829 15.7272 52.3583 16.2759 52.3583C16.4807 52.3583 16.8207 52.2227 16.8207 51.676C16.8207 51.2649 17.0253 47.9808 23.2292 39.0859L27.5248 32.723C27.5248 32.723 27.7951 32.2462 27.7951 31.6954C27.7951 31.3543 27.5249 30.5322 27.0458 30.5322C26.841 30.5322 26.6363 30.598 26.4315 31.009C26.4315 31.009 24.8631 33.2656 22.9548 36.2785C23.2251 34.5686 23.4299 32.4476 24.3185 31.6954C26.1571 30.0554 27.8607 29.9855 30.0433 29.9855C34.7443 30.3966 37.2668 33.8863 37.2668 38.3995C37.2668 48.659 25.2685 53.7928 16.2759 53.7928C11.7797 53.7928 5.85026 52.6995 3.05341 50.3689C2.79542 50.2415 2.66025 47.0436 1.07141 47.0436C0.964942 47.0436 0.854411 47.0559 0.735657 47.0847C0.465389 47.1504 0.326172 47.2902 0.326172 47.5615C0.326172 50.8457 6.05087 53.242 8.43823 53.6531C11.0303 54.4053 13.8231 54.8163 16.6159 54.8163C26.022 54.8163 39.2446 49.3413 39.2446 38.3953C39.2446 32.649 35.0883 29.4306 30.3135 29.1593V29.1634Z" fill="#14163A"/>
<path d="M30.3135 29.1634C29.9941 29.147 29.6788 29.1347 29.3635 29.1347C27.4512 29.1347 25.6043 29.5416 23.909 31.0131C22.2751 32.3819 22.1359 36.2127 22.1359 37.5815C18.864 42.6455 15.6617 48.8686 15.6617 51.8116C15.6617 52.0829 15.7272 52.3583 16.2759 52.3583C16.4807 52.3583 16.8207 52.2227 16.8207 51.676C16.8207 51.2649 17.0253 47.9808 23.2292 39.0859L27.5248 32.723C27.5248 32.723 27.7951 32.2462 27.7951 31.6954C27.7951 31.3543 27.5249 30.5322 27.0458 30.5322C26.841 30.5322 26.6363 30.598 26.4315 31.009C26.4315 31.009 24.8631 33.2656 22.9548 36.2785C23.2251 34.5686 23.4299 32.4476 24.3185 31.6954C26.1571 30.0554 27.8607 29.9855 30.0433 29.9855C34.7443 30.3966 37.2668 33.8863 37.2668 38.3995C37.2668 48.659 25.2685 53.7928 16.2759 53.7928C11.7797 53.7928 5.85026 52.6995 3.05341 50.3689C2.79542 50.2415 2.66025 47.0436 1.07141 47.0436C0.964942 47.0436 0.854411 47.0559 0.735657 47.0847C0.465389 47.1504 0.326172 47.2902 0.326172 47.5615C0.326172 50.8457 6.05087 53.242 8.43823 53.6531C11.0303 54.4053 13.8231 54.8163 16.6159 54.8163C26.022 54.8163 39.2446 49.3413 39.2446 38.3953C39.2446 32.649 35.0883 29.4306 30.3135 29.1593V29.1634Z" fill="#14163A"/>
<path d="M48.5386 41.6833C48.5386 40.2895 47.9443 39.6617 47.152 39.6617C45.4365 39.6617 42.7346 42.4492 41.4787 43.8429C42.2037 42.6585 43.7884 40.8462 43.7884 40.0133C43.7884 39.804 43.6576 39.7371 43.4595 39.6659C43.3803 39.6492 43.3011 39.6408 43.2219 39.6408C41.1142 39.6408 38.8955 44.8014 36.669 49.8364C36.3402 50.5312 36.3402 51.159 36.3402 51.5776C36.3402 52.1342 36.4709 52.4816 36.669 52.4816C37.1286 52.4816 37.2633 51.6445 38.2498 49.9034C40.2267 46.35 43.0633 42.7966 46.4269 40.8462C46.5972 40.7374 46.8786 40.6285 47.1083 40.6285C47.3183 40.6285 47.4808 40.7206 47.4808 40.9885C47.2827 42.4534 46.3595 43.9141 46.1614 44.3996C46.0307 44.747 45.9001 45.6552 46.4904 45.6552C46.8192 45.6552 48.5346 44.8893 48.5346 41.6833H48.5386Z" fill="#14163A"/>
<path d="M48.5386 41.6833C48.5386 40.2895 47.9443 39.6617 47.152 39.6617C45.4365 39.6617 42.7346 42.4492 41.4787 43.8429C42.2037 42.6585 43.7884 40.8462 43.7884 40.0133C43.7884 39.804 43.6576 39.7371 43.4595 39.6659C43.3803 39.6492 43.3011 39.6408 43.2219 39.6408C41.1142 39.6408 38.8955 44.8014 36.669 49.8364C36.3402 50.5312 36.3402 51.159 36.3402 51.5776C36.3402 52.1342 36.4709 52.4816 36.669 52.4816C37.1286 52.4816 37.2633 51.6445 38.2498 49.9034C40.2267 46.35 43.0633 42.7966 46.4269 40.8462C46.5972 40.7374 46.8786 40.6285 47.1083 40.6285C47.3183 40.6285 47.4808 40.7206 47.4808 40.9885C47.2827 42.4534 46.3595 43.9141 46.1614 44.3996C46.0307 44.747 45.9001 45.6552 46.4904 45.6552C46.8192 45.6552 48.5346 44.8893 48.5346 41.6833H48.5386Z" fill="#14163A"/>
<path d="M60.2743 39.6408C58.747 39.6408 57.8857 41.1593 57.2197 42.1965C57.4869 40.6407 56.6814 39.6657 55.6646 39.6657C55.4173 39.6657 55.1581 39.7238 54.8949 39.8441C54.8949 39.8441 52.9051 40.1884 49.1846 44.9555C49.1846 44.9555 46.796 48.063 46.796 50.4818C46.796 51.1042 46.8597 52.3447 48.1238 52.3447C48.5226 52.3447 48.9852 52.2783 49.6512 51.8634C49.6512 51.8634 52.4664 50.0918 53.9339 48.648C53.6308 49.623 53.567 50.2288 53.567 50.9631C53.567 50.9631 53.6308 52.4816 55.0265 52.4816C55.0265 52.4152 56.155 52.826 60.0031 49.3741C60.0031 49.3741 60.4657 48.8223 60.4657 48.5443C60.4657 48.4779 60.4019 48.4074 60.3341 48.4074C59.8037 48.4074 56.2866 51.5854 55.1581 51.5854C54.9587 51.5854 54.6278 51.5191 54.6278 50.9631C54.6278 50.4072 54.8271 48.7518 60.5375 40.7402C60.6013 40.6739 60.7369 40.3254 60.7369 40.0515C60.7369 39.8482 60.6692 39.6408 60.2704 39.6408H60.2743ZM50.3171 50.3449C49.2045 51.0793 48.6104 51.3241 48.3472 51.3241C48.3113 51.3241 48.2833 51.3199 48.2634 51.3116C48.064 51.2411 48.064 50.9673 48.064 50.8303C48.064 48.8264 50.8514 45.7894 50.8514 45.7894C51.6489 44.8933 54.6357 41.3003 55.7642 41.3003C56.4262 41.3003 56.494 42.267 56.494 42.8894C56.494 46.2043 50.5842 50.1416 50.321 50.3449H50.3171Z" fill="#14163A"/>
<path d="M60.2743 39.6408C58.747 39.6408 57.8857 41.1593 57.2197 42.1965C57.4869 40.6407 56.6814 39.6657 55.6646 39.6657C55.4173 39.6657 55.1581 39.7238 54.8949 39.8441C54.8949 39.8441 52.9051 40.1884 49.1846 44.9555C49.1846 44.9555 46.796 48.063 46.796 50.4818C46.796 51.1042 46.8597 52.3447 48.1238 52.3447C48.5226 52.3447 48.9852 52.2783 49.6512 51.8634C49.6512 51.8634 52.4664 50.0918 53.9339 48.648C53.6308 49.623 53.567 50.2288 53.567 50.9631C53.567 50.9631 53.6308 52.4816 55.0265 52.4816C55.0265 52.4152 56.155 52.826 60.0031 49.3741C60.0031 49.3741 60.4657 48.8223 60.4657 48.5443C60.4657 48.4779 60.4019 48.4074 60.3341 48.4074C59.8037 48.4074 56.2866 51.5854 55.1581 51.5854C54.9587 51.5854 54.6278 51.5191 54.6278 50.9631C54.6278 50.4072 54.8271 48.7518 60.5375 40.7402C60.6013 40.6739 60.7369 40.3254 60.7369 40.0515C60.7369 39.8482 60.6692 39.6408 60.2704 39.6408H60.2743ZM50.3171 50.3449C49.2045 51.0793 48.6104 51.3241 48.3472 51.3241C48.3113 51.3241 48.2833 51.3199 48.2634 51.3116C48.064 51.2411 48.064 50.9673 48.064 50.8303C48.064 48.8264 50.8514 45.7894 50.8514 45.7894C51.6489 44.8933 54.6357 41.3003 55.7642 41.3003C56.4262 41.3003 56.494 42.267 56.494 42.8894C56.494 46.2043 50.5842 50.1416 50.321 50.3449H50.3171Z" fill="#14163A"/>
<path d="M61.8466 51.8979C61.4454 51.8979 61.2725 53.1192 61.3278 53.6198C61.3728 54.0643 61.4697 54.2326 61.5907 54.2326C61.94 54.2326 62.4795 52.8301 62.4795 52.6143C62.4795 52.1871 62.1924 51.8979 61.8466 51.8979Z" fill="#14163A"/>
<path d="M61.8466 51.8979C61.4454 51.8979 61.2725 53.1192 61.3278 53.6198C61.3728 54.0643 61.4697 54.2326 61.5907 54.2326C61.94 54.2326 62.4795 52.8301 62.4795 52.6143C62.4795 52.1871 62.1924 51.8979 61.8466 51.8979Z" fill="#14163A"/>
<path d="M96.4415 37.8274C96.5073 37.8898 96.5772 37.8898 96.713 37.8898C97.3956 37.8898 98.4936 36.5905 98.4936 35.5527C98.4936 35.1665 98.288 34.9714 98.0165 34.9714C97.264 34.9714 96.1701 36.3994 96.1701 37.3084C96.1701 37.5659 96.2359 37.761 96.4415 37.8274Z" fill="#14163A"/>
<path d="M96.4415 37.8274C96.5073 37.8898 96.5772 37.8898 96.713 37.8898C97.3956 37.8898 98.4936 36.5905 98.4936 35.5527C98.4936 35.1665 98.288 34.9714 98.0165 34.9714C97.264 34.9714 96.1701 36.3994 96.1701 37.3084C96.1701 37.5659 96.2359 37.761 96.4415 37.8274Z" fill="#14163A"/>
<path d="M94.0906 49.8761C92.9353 50.7318 91.4384 51.7108 90.7997 51.7108C90.7753 51.7108 90.7509 51.7108 90.7306 51.7067C90.5272 51.7067 90.1896 51.6409 90.1896 51.1596C90.1896 51.0238 90.1896 50.8881 90.2546 50.6824C90.2546 50.6824 90.7265 48.4897 96.1448 40.9573C96.2099 40.8915 96.4133 40.5459 96.4133 40.2744C96.4133 40.0029 96.2791 39.863 95.9415 39.863C95.1971 39.863 94.18 40.4801 93.7733 40.9573C91.6987 43.9728 90.1204 46.7619 89.4492 49.004C88.4689 49.8308 85.9428 51.7067 84.9706 51.7067C84.7021 51.7067 84.4296 51.6409 84.4296 51.1596C84.4296 50.6125 84.5638 48.8312 91.6052 39.3118L96.4133 33.355C96.4133 33.355 96.751 32.8078 96.751 32.1908C96.751 31.9192 96.6127 31.2322 96.1408 31.2322C96.0066 31.2322 95.8032 31.2981 95.5306 31.5737C95.1767 31.5737 86.1055 42.4836 83.8479 48.7448C81.2364 49.7486 75.3501 53.3482 71.9698 53.3482C70.481 53.3482 68.2477 52.3197 68.2477 49.2384C68.2477 45.1987 73.8004 40.6118 78.5394 39.789C78.8078 40.2004 79.959 40.8833 80.976 40.8833C81.1793 40.8833 82.4648 40.8174 82.4648 39.789C82.4648 39.1061 81.7204 38.8305 80.8417 38.8305C80.0282 38.8305 79.5563 38.8305 78.9462 38.8963C78.2709 37.3906 79.2837 35.7451 80.3007 34.7208C82.1271 35.3378 84.2261 36.7736 86.5326 36.7736C88.0214 36.7736 91.1374 35.9508 91.1374 33.4866C91.1374 31.3639 88.9041 30.7468 87.5496 30.7468C84.7062 30.7468 81.8627 31.8411 79.6295 33.4167C75.4274 31.4996 70.6884 29.7183 66.0145 29.7183C60.3928 29.7183 58.8267 31.08 56.6708 34.0337C60.161 30.644 61.2918 30.4588 65.9495 30.5411C70.2817 30.6152 74.7522 32.1825 78.881 34.0337C77.4614 35.128 76.4444 37.115 77.7299 39.032C73.1942 39.7149 66.4905 43.0718 66.4905 48.8929C66.4905 52.5213 69.0654 54.2326 71.9739 54.2326C75.7203 54.2326 81.1306 51.3242 83.5672 49.6251C83.4248 50.1599 83.3434 50.6495 83.3434 51.0814C83.3434 51.0814 83.2132 52.5912 84.7305 52.5912C84.7631 52.5912 84.7956 52.5912 84.8322 52.5912C84.8485 52.5912 84.8729 52.5912 84.9177 52.5912C85.2309 52.5912 86.3617 52.4513 89.1929 50.0694C89.1319 50.4232 89.0994 50.7647 89.0994 51.0814C89.0994 51.0814 89.0343 52.5172 90.5882 52.5871H90.6085C90.8078 52.5871 91.894 52.5377 94.4201 50.5055C94.3835 50.4479 94.3428 50.3862 94.3102 50.3286C94.2207 50.1682 94.1435 50.016 94.0865 49.8638L94.0906 49.8761ZM80.6017 39.5504C81.1874 39.5504 81.8465 39.645 81.7244 39.9247C81.6837 40.0358 81.4803 40.0811 81.22 40.0811C80.683 40.0811 79.8979 39.8795 79.7596 39.6491C79.8166 39.5915 80.1909 39.5463 80.5977 39.5463L80.6017 39.5504ZM86.1259 31.6436C86.1909 31.6436 86.3007 31.6436 86.4471 31.6436C87.5007 31.6436 90.3238 31.7506 90.3238 33.4948C90.3238 35.2391 87.9523 35.959 86.3292 35.959C84.5679 35.959 83.0099 34.8647 81.1834 34.1777C81.1183 34.1777 81.0492 34.1119 80.98 34.1119C82.3346 32.8778 84.2303 31.9192 86.1259 31.6477V31.6436ZM89.2051 50.0448C89.258 49.7362 89.3394 49.4112 89.437 49.078C89.3394 49.4112 89.2621 49.7362 89.2051 50.0448Z" fill="#14163A"/>
<path d="M94.0906 49.8761C92.9353 50.7318 91.4384 51.7108 90.7997 51.7108C90.7753 51.7108 90.7509 51.7108 90.7306 51.7067C90.5272 51.7067 90.1896 51.6409 90.1896 51.1596C90.1896 51.0238 90.1896 50.8881 90.2546 50.6824C90.2546 50.6824 90.7265 48.4897 96.1448 40.9573C96.2099 40.8915 96.4133 40.5459 96.4133 40.2744C96.4133 40.0029 96.2791 39.863 95.9415 39.863C95.1971 39.863 94.18 40.4801 93.7733 40.9573C91.6987 43.9728 90.1204 46.7619 89.4492 49.004C88.4689 49.8308 85.9428 51.7067 84.9706 51.7067C84.7021 51.7067 84.4296 51.6409 84.4296 51.1596C84.4296 50.6125 84.5638 48.8312 91.6052 39.3118L96.4133 33.355C96.4133 33.355 96.751 32.8078 96.751 32.1908C96.751 31.9192 96.6127 31.2322 96.1408 31.2322C96.0066 31.2322 95.8032 31.2981 95.5306 31.5737C95.1767 31.5737 86.1055 42.4836 83.8479 48.7448C81.2364 49.7486 75.3501 53.3482 71.9698 53.3482C70.481 53.3482 68.2477 52.3197 68.2477 49.2384C68.2477 45.1987 73.8004 40.6118 78.5394 39.789C78.8078 40.2004 79.959 40.8833 80.976 40.8833C81.1793 40.8833 82.4648 40.8174 82.4648 39.789C82.4648 39.1061 81.7204 38.8305 80.8417 38.8305C80.0282 38.8305 79.5563 38.8305 78.9462 38.8963C78.2709 37.3906 79.2837 35.7451 80.3007 34.7208C82.1271 35.3378 84.2261 36.7736 86.5326 36.7736C88.0214 36.7736 91.1374 35.9508 91.1374 33.4866C91.1374 31.3639 88.9041 30.7468 87.5496 30.7468C84.7062 30.7468 81.8627 31.8411 79.6295 33.4167C75.4274 31.4996 70.6884 29.7183 66.0145 29.7183C60.3928 29.7183 58.8267 31.08 56.6708 34.0337C60.161 30.644 61.2918 30.4588 65.9495 30.5411C70.2817 30.6152 74.7522 32.1825 78.881 34.0337C77.4614 35.128 76.4444 37.115 77.7299 39.032C73.1942 39.7149 66.4905 43.0718 66.4905 48.8929C66.4905 52.5213 69.0654 54.2326 71.9739 54.2326C75.7203 54.2326 81.1306 51.3242 83.5672 49.6251C83.4248 50.1599 83.3434 50.6495 83.3434 51.0814C83.3434 51.0814 83.2132 52.5912 84.7305 52.5912C84.7631 52.5912 84.7956 52.5912 84.8322 52.5912C84.8485 52.5912 84.8729 52.5912 84.9177 52.5912C85.2309 52.5912 86.3617 52.4513 89.1929 50.0694C89.1319 50.4232 89.0994 50.7647 89.0994 51.0814C89.0994 51.0814 89.0343 52.5172 90.5882 52.5871H90.6085C90.8078 52.5871 91.894 52.5377 94.4201 50.5055C94.3835 50.4479 94.3428 50.3862 94.3102 50.3286C94.2207 50.1682 94.1435 50.016 94.0865 49.8638L94.0906 49.8761ZM80.6017 39.5504C81.1874 39.5504 81.8465 39.645 81.7244 39.9247C81.6837 40.0358 81.4803 40.0811 81.22 40.0811C80.683 40.0811 79.8979 39.8795 79.7596 39.6491C79.8166 39.5915 80.1909 39.5463 80.5977 39.5463L80.6017 39.5504ZM86.1259 31.6436C86.1909 31.6436 86.3007 31.6436 86.4471 31.6436C87.5007 31.6436 90.3238 31.7506 90.3238 33.4948C90.3238 35.2391 87.9523 35.959 86.3292 35.959C84.5679 35.959 83.0099 34.8647 81.1834 34.1777C81.1183 34.1777 81.0492 34.1119 80.98 34.1119C82.3346 32.8778 84.2303 31.9192 86.1259 31.6477V31.6436ZM89.2051 50.0448C89.258 49.7362 89.3394 49.4112 89.437 49.078C89.3394 49.4112 89.2621 49.7362 89.2051 50.0448Z" fill="#14163A"/>
<path d="M112.993 37.2222C114.321 37.2222 114.88 36.9742 116.418 36.5345C117.956 38.2217 119.007 38.4734 119.566 38.4734C120.125 38.4734 119.843 38.3495 119.986 38.2255C118.658 37.6017 118.448 36.6623 117.746 35.535C117.469 35.0916 117.187 34.9714 116.91 34.9714C116.633 34.9714 116.422 35.0954 116.422 35.0954C115.792 35.3434 112.435 36.9103 112.435 36.9704C112.435 37.0944 112.502 37.2184 112.993 37.2184V37.2222Z" fill="#14163A"/>
<path d="M112.993 37.2222C114.321 37.2222 114.88 36.9742 116.418 36.5345C117.956 38.2217 119.007 38.4734 119.566 38.4734C120.125 38.4734 119.843 38.3495 119.986 38.2255C118.658 37.6017 118.448 36.6623 117.746 35.535C117.469 35.0916 117.187 34.9714 116.91 34.9714C116.633 34.9714 116.422 35.0954 116.422 35.0954C115.792 35.3434 112.435 36.9103 112.435 36.9704C112.435 37.0944 112.502 37.2184 112.993 37.2184V37.2222Z" fill="#14163A"/>
<path d="M116.805 49.7662C116.858 49.6313 116.91 49.4963 116.967 49.3614C115.675 50.2856 113.918 51.6024 113.175 51.6024C112.973 51.6024 112.638 51.5369 112.638 50.989C112.638 50.441 112.84 48.8093 118.622 40.9126C118.687 40.8472 118.824 40.5037 118.824 40.2338C118.824 40.0293 118.756 39.8248 118.352 39.8248C116.805 39.8248 115.933 41.3215 115.259 42.3439C115.529 40.8104 114.714 39.8493 113.684 39.8493C113.434 39.8493 113.171 39.9066 112.905 40.0252C112.905 40.0252 110.89 40.3646 107.122 45.0634C107.122 45.0634 105.192 47.5089 104.781 49.7294C104.425 49.8317 104.066 49.9012 103.751 49.9012C103.71 49.9012 103.666 49.9012 103.626 49.8971C105.439 47.104 104.768 40.0252 103.157 39.6858C102.984 39.6572 102.838 39.6408 102.717 39.6408C101.857 39.6408 102.212 40.381 102.156 40.4382C99.7372 44.454 98.7278 45.4069 97.8557 46.5642C97.5205 46.4292 97.1167 46.3597 96.8461 46.3597C95.4369 46.3597 94.4275 47.5866 94.4275 48.8093C94.4275 49.1733 94.488 49.4759 94.6051 49.7785C94.6657 49.9298 94.7384 50.0811 94.8273 50.2406C94.8636 50.3019 94.8999 50.3592 94.9362 50.4164C95.7922 51.7332 97.2458 52.4203 98.7237 52.4203C98.7883 52.4203 98.857 52.4203 98.9256 52.4162C100.27 52.3507 101.413 52.4816 103.093 50.6454C103.226 50.7109 103.428 50.7109 103.561 50.7109C103.965 50.7109 104.353 50.6332 104.704 50.5146C104.704 51.128 104.776 52.3467 106.048 52.3467C106.452 52.3467 106.921 52.2812 107.595 51.8723C107.595 51.8723 110.446 50.1261 111.932 48.703C111.625 49.664 111.56 50.261 111.56 50.9849C111.56 50.9849 111.625 52.4816 113.038 52.4816C113.038 52.4244 113.87 52.7147 116.531 50.6863C116.583 50.4042 116.664 50.0975 116.797 49.758L116.805 49.7662ZM95.3036 49.0833C95.3036 48.1304 96.1758 47.1776 96.9147 47.1776C97.048 47.1776 97.1167 47.243 97.2499 47.243C96.826 47.7174 96.3696 48.2204 95.9739 48.6825C95.8367 48.8093 95.6025 49.0056 95.3077 49.2428C95.2997 49.1937 95.2996 49.1446 95.2996 49.0833H95.3036ZM98.9983 51.5329C97.6941 51.5329 96.1314 50.8254 95.5499 49.9134C95.5338 49.8848 95.5177 49.8603 95.5015 49.8357C95.5904 49.7744 95.6873 49.7008 95.7842 49.6272C95.6873 49.7008 95.5944 49.7744 95.5056 49.8357C95.5217 49.8644 95.5378 49.8889 95.554 49.9134C95.7316 49.7621 95.9214 49.5986 96.1112 49.4268C96.1112 49.4268 96.1637 49.3655 96.2364 49.2714C96.7855 48.8216 97.4034 48.2531 97.9929 47.6561C99.067 48.4044 100.412 49.4268 101.688 50.1056C101.15 50.9235 100.274 51.5329 98.9983 51.5329ZM102.224 49.3573C101.082 48.8134 99.8058 47.791 98.5945 46.9731C98.7277 46.9077 98.7964 46.7687 98.9297 46.6337C100.206 45.2719 101.417 43.4317 102.56 41.7346C103.097 41.8 103.432 47.2471 102.224 49.3573ZM108.273 50.3755C107.143 51.0953 106.541 51.3406 106.279 51.3406C106.242 51.3406 106.214 51.3366 106.194 51.3284C105.992 51.263 105.992 50.989 105.992 50.854C105.992 50.4573 106.105 50.0239 106.287 49.5781C106.287 49.5781 106.287 49.5781 106.287 49.574C106.444 49.4186 106.529 49.2878 106.529 49.2182C106.529 49.1569 106.529 49.1528 106.476 49.1528C107.284 47.5089 108.814 45.8853 108.814 45.8853C109.622 45.002 112.646 41.4606 113.789 41.4606C114.459 41.4606 114.528 42.4134 114.528 43.0268C114.528 46.2943 108.544 50.1752 108.277 50.3755H108.273Z" fill="#14163A"/>
<path d="M116.805 49.7662C116.858 49.6313 116.91 49.4963 116.967 49.3614C115.675 50.2856 113.918 51.6024 113.175 51.6024C112.973 51.6024 112.638 51.5369 112.638 50.989C112.638 50.441 112.84 48.8093 118.622 40.9126C118.687 40.8472 118.824 40.5037 118.824 40.2338C118.824 40.0293 118.756 39.8248 118.352 39.8248C116.805 39.8248 115.933 41.3215 115.259 42.3439C115.529 40.8104 114.714 39.8493 113.684 39.8493C113.434 39.8493 113.171 39.9066 112.905 40.0252C112.905 40.0252 110.89 40.3646 107.122 45.0634C107.122 45.0634 105.192 47.5089 104.781 49.7294C104.425 49.8317 104.066 49.9012 103.751 49.9012C103.71 49.9012 103.666 49.9012 103.626 49.8971C105.439 47.104 104.768 40.0252 103.157 39.6858C102.984 39.6572 102.838 39.6408 102.717 39.6408C101.857 39.6408 102.212 40.381 102.156 40.4382C99.7372 44.454 98.7278 45.4069 97.8557 46.5642C97.5205 46.4292 97.1167 46.3597 96.8461 46.3597C95.4369 46.3597 94.4275 47.5866 94.4275 48.8093C94.4275 49.1733 94.488 49.4759 94.6051 49.7785C94.6657 49.9298 94.7384 50.0811 94.8273 50.2406C94.8636 50.3019 94.8999 50.3592 94.9362 50.4164C95.7922 51.7332 97.2458 52.4203 98.7237 52.4203C98.7883 52.4203 98.857 52.4203 98.9256 52.4162C100.27 52.3507 101.413 52.4816 103.093 50.6454C103.226 50.7109 103.428 50.7109 103.561 50.7109C103.965 50.7109 104.353 50.6332 104.704 50.5146C104.704 51.128 104.776 52.3467 106.048 52.3467C106.452 52.3467 106.921 52.2812 107.595 51.8723C107.595 51.8723 110.446 50.1261 111.932 48.703C111.625 49.664 111.56 50.261 111.56 50.9849C111.56 50.9849 111.625 52.4816 113.038 52.4816C113.038 52.4244 113.87 52.7147 116.531 50.6863C116.583 50.4042 116.664 50.0975 116.797 49.758L116.805 49.7662ZM95.3036 49.0833C95.3036 48.1304 96.1758 47.1776 96.9147 47.1776C97.048 47.1776 97.1167 47.243 97.2499 47.243C96.826 47.7174 96.3696 48.2204 95.9739 48.6825C95.8367 48.8093 95.6025 49.0056 95.3077 49.2428C95.2997 49.1937 95.2996 49.1446 95.2996 49.0833H95.3036ZM98.9983 51.5329C97.6941 51.5329 96.1314 50.8254 95.5499 49.9134C95.5338 49.8848 95.5177 49.8603 95.5015 49.8357C95.5904 49.7744 95.6873 49.7008 95.7842 49.6272C95.6873 49.7008 95.5944 49.7744 95.5056 49.8357C95.5217 49.8644 95.5378 49.8889 95.554 49.9134C95.7316 49.7621 95.9214 49.5986 96.1112 49.4268C96.1112 49.4268 96.1637 49.3655 96.2364 49.2714C96.7855 48.8216 97.4034 48.2531 97.9929 47.6561C99.067 48.4044 100.412 49.4268 101.688 50.1056C101.15 50.9235 100.274 51.5329 98.9983 51.5329ZM102.224 49.3573C101.082 48.8134 99.8058 47.791 98.5945 46.9731C98.7277 46.9077 98.7964 46.7687 98.9297 46.6337C100.206 45.2719 101.417 43.4317 102.56 41.7346C103.097 41.8 103.432 47.2471 102.224 49.3573ZM108.273 50.3755C107.143 51.0953 106.541 51.3406 106.279 51.3406C106.242 51.3406 106.214 51.3366 106.194 51.3284C105.992 51.263 105.992 50.989 105.992 50.854C105.992 50.4573 106.105 50.0239 106.287 49.5781C106.287 49.5781 106.287 49.5781 106.287 49.574C106.444 49.4186 106.529 49.2878 106.529 49.2182C106.529 49.1569 106.529 49.1528 106.476 49.1528C107.284 47.5089 108.814 45.8853 108.814 45.8853C109.622 45.002 112.646 41.4606 113.789 41.4606C114.459 41.4606 114.528 42.4134 114.528 43.0268C114.528 46.2943 108.544 50.1752 108.277 50.3755H108.273Z" fill="#14163A"/>
<path d="M179.339 17.6038C179.363 17.5914 179.392 17.5706 179.417 17.5623C179.857 17.3585 180.194 17.3834 180.736 17.7036C180.543 17.3335 180.292 17.0008 179.972 16.7097L181.069 16.9925C181.069 16.9925 180.584 16.3978 179.894 16.1441C179.203 15.8863 178.258 15.2459 178.258 15.2459C177.423 14.8217 176.17 15.5786 177.349 16.718L178.385 17.6538C178.488 18.2609 178.768 18.8307 179.207 19.3713C179.084 18.8223 179.018 18.3025 179.043 17.8242C179.137 17.7328 179.228 17.6662 179.322 17.6163C188.562 24.5447 187.403 42.3896 162.229 54.0588C156.73 56.4459 152.315 56.9325 148.37 56.9325C144.424 56.9325 140.503 56.0342 135.37 55.0652C137.421 52.0876 140.499 45.442 143.923 40.8051C143.988 40.7386 144.128 40.3892 144.128 40.1148C144.128 39.9027 144.062 39.6989 143.791 39.6989C142.012 39.6989 141.124 41.2917 140.573 42.3979V42.1234C140.573 41.4996 140.437 39.7696 138.728 39.7696C138.522 39.7696 138.317 39.8361 138.045 39.9068C138.045 39.9068 135.994 40.252 132.16 45.0303C132.16 45.0303 130.499 47.1305 129.903 49.2223C128.609 50.1372 126.307 51.6759 125.867 51.6759C125.596 51.6759 125.321 51.6094 125.321 50.6362C125.321 50.4283 125.456 48.9769 130.59 41.8448C130.656 41.7782 130.725 41.4996 130.725 41.1544C130.721 40.4392 130.458 39.6781 129.18 39.6781C128.851 39.6781 128.457 39.728 127.984 39.8403C125.317 40.9465 123.126 42.6807 121.211 44.7559C122.168 43.371 124.223 41.0172 124.223 40.1189C124.223 39.911 124.158 39.7031 123.882 39.7031C121.552 39.7031 119.024 44.3608 117.002 49.3969C116.949 49.5342 116.891 49.6714 116.838 49.8087C116.702 50.1538 116.616 50.4657 116.566 50.7527C116.513 51.0396 116.501 51.2975 116.501 51.5387C116.501 52.0918 116.636 52.4369 116.842 52.4369C117.388 52.4369 117.594 51.3973 118.552 49.8045C120.808 46.0658 124.232 42.2607 128.198 40.7344C128.403 40.6679 128.609 40.5972 128.814 40.5972C128.95 40.8051 128.609 41.2875 128.198 41.8448C125.802 45.5127 124.162 48.2824 124.162 50.5655C124.162 51.9504 124.984 52.5742 125.736 52.5742C125.707 52.5742 125.715 52.5908 125.773 52.5908C125.991 52.5908 126.952 52.3746 129.706 50.3035C129.698 50.3909 129.698 50.4824 129.698 50.5697C129.698 51.4014 129.834 52.4369 131.338 52.4369C131.679 52.4369 132.09 52.2997 132.706 51.9545C132.706 51.9545 135.649 50.1538 137.154 48.7024C136.015 50.9939 134.938 52.9609 133.734 54.7242C132.365 54.4497 130.927 54.2418 129.562 54.2418C126.825 54.2418 122.107 54.7242 122.107 58.1884C122.107 60.197 124.638 61.2367 126.007 61.2367C129.632 61.2367 132.369 59.0908 134.901 55.8387C140.031 56.9449 143.931 57.706 147.967 57.706C152.315 57.706 156.972 57.3317 162.644 54.5994C162.681 54.5828 162.714 54.5662 162.751 54.5495C162.751 54.5495 162.755 54.5495 162.759 54.5495C188.11 42.1317 189.043 24.6861 179.339 17.6288V17.6038ZM133.327 50.42C132.098 51.181 131.547 51.389 131.276 51.389C131.071 51.389 131.071 51.0438 131.071 50.9066C131.071 48.8979 133.944 45.8537 133.944 45.8537C134.766 45.022 137.844 41.3541 139.007 41.3541C139.759 41.4206 139.689 42.9468 139.689 43.3627C138.049 47.7252 133.327 50.4241 133.327 50.4241V50.42ZM125.871 60.3176C124.708 60.3176 123.064 59.6938 123.064 58.1011C123.064 55.61 127.1 54.9862 129.361 54.9862C130.66 54.9862 131.893 55.2607 133.122 55.4021C131.342 57.9638 128.88 60.3176 125.871 60.3176Z" fill="#14163A"/>
<path d="M179.339 17.6038C179.363 17.5914 179.392 17.5706 179.417 17.5623C179.857 17.3585 180.194 17.3834 180.736 17.7036C180.543 17.3335 180.292 17.0008 179.972 16.7097L181.069 16.9925C181.069 16.9925 180.584 16.3978 179.894 16.1441C179.203 15.8863 178.258 15.2459 178.258 15.2459C177.423 14.8217 176.17 15.5786 177.349 16.718L178.385 17.6538C178.488 18.2609 178.768 18.8307 179.207 19.3713C179.084 18.8223 179.018 18.3025 179.043 17.8242C179.137 17.7328 179.228 17.6662 179.322 17.6163C188.562 24.5447 187.403 42.3896 162.229 54.0588C156.73 56.4459 152.315 56.9325 148.37 56.9325C144.424 56.9325 140.503 56.0342 135.37 55.0652C137.421 52.0876 140.499 45.442 143.923 40.8051C143.988 40.7386 144.128 40.3892 144.128 40.1148C144.128 39.9027 144.062 39.6989 143.791 39.6989C142.012 39.6989 141.124 41.2917 140.573 42.3979V42.1234C140.573 41.4996 140.437 39.7696 138.728 39.7696C138.522 39.7696 138.317 39.8361 138.045 39.9068C138.045 39.9068 135.994 40.252 132.16 45.0303C132.16 45.0303 130.499 47.1305 129.903 49.2223C128.609 50.1372 126.307 51.6759 125.867 51.6759C125.596 51.6759 125.321 51.6094 125.321 50.6362C125.321 50.4283 125.456 48.9769 130.59 41.8448C130.656 41.7782 130.725 41.4996 130.725 41.1544C130.721 40.4392 130.458 39.6781 129.18 39.6781C128.851 39.6781 128.457 39.728 127.984 39.8403C125.317 40.9465 123.126 42.6807 121.211 44.7559C122.168 43.371 124.223 41.0172 124.223 40.1189C124.223 39.911 124.158 39.7031 123.882 39.7031C121.552 39.7031 119.024 44.3608 117.002 49.3969C116.949 49.5342 116.891 49.6714 116.838 49.8087C116.702 50.1538 116.616 50.4657 116.566 50.7527C116.513 51.0396 116.501 51.2975 116.501 51.5387C116.501 52.0918 116.636 52.4369 116.842 52.4369C117.388 52.4369 117.594 51.3973 118.552 49.8045C120.808 46.0658 124.232 42.2607 128.198 40.7344C128.403 40.6679 128.609 40.5972 128.814 40.5972C128.95 40.8051 128.609 41.2875 128.198 41.8448C125.802 45.5127 124.162 48.2824 124.162 50.5655C124.162 51.9504 124.984 52.5742 125.736 52.5742C125.707 52.5742 125.715 52.5908 125.773 52.5908C125.991 52.5908 126.952 52.3746 129.706 50.3035C129.698 50.3909 129.698 50.4824 129.698 50.5697C129.698 51.4014 129.834 52.4369 131.338 52.4369C131.679 52.4369 132.09 52.2997 132.706 51.9545C132.706 51.9545 135.649 50.1538 137.154 48.7024C136.015 50.9939 134.938 52.9609 133.734 54.7242C132.365 54.4497 130.927 54.2418 129.562 54.2418C126.825 54.2418 122.107 54.7242 122.107 58.1884C122.107 60.197 124.638 61.2367 126.007 61.2367C129.632 61.2367 132.369 59.0908 134.901 55.8387C140.031 56.9449 143.931 57.706 147.967 57.706C152.315 57.706 156.972 57.3317 162.644 54.5994C162.681 54.5828 162.714 54.5662 162.751 54.5495C162.751 54.5495 162.755 54.5495 162.759 54.5495C188.11 42.1317 189.043 24.6861 179.339 17.6288V17.6038ZM133.327 50.42C132.098 51.181 131.547 51.389 131.276 51.389C131.071 51.389 131.071 51.0438 131.071 50.9066C131.071 48.8979 133.944 45.8537 133.944 45.8537C134.766 45.022 137.844 41.3541 139.007 41.3541C139.759 41.4206 139.689 42.9468 139.689 43.3627C138.049 47.7252 133.327 50.4241 133.327 50.4241V50.42ZM125.871 60.3176C124.708 60.3176 123.064 59.6938 123.064 58.1011C123.064 55.61 127.1 54.9862 129.361 54.9862C130.66 54.9862 131.893 55.2607 133.122 55.4021C131.342 57.9638 128.88 60.3176 125.871 60.3176Z" fill="#14163A"/>
<path d="M143.219 49.0864C146.273 47.6519 152.236 45.3254 150.57 40.7383C150.274 39.9532 149.649 39.6408 148.969 39.6408C148.528 39.6408 148.065 39.7723 147.657 39.9861C144.673 41.3548 140.168 47.9232 140.997 51.0019C141.318 52.1034 142.106 52.4816 143.044 52.4816C144.548 52.4816 146.44 51.5074 147.382 51.0019C148.632 50.2826 149.415 49.7523 150.286 48.8974C150.54 48.1452 150.907 47.319 151.353 46.4476C151.049 46.6983 150.72 47.0559 150.503 47.3765C149.253 48.6096 148.84 49.0166 146.965 50.1839C145.982 50.7964 144.073 51.5979 142.994 51.5979C142.627 51.5979 142.352 51.5033 142.248 51.2773C142.11 50.7306 142.181 50.0441 142.456 49.292C142.731 49.2262 142.939 49.1563 143.219 49.0864ZM148.073 41.9056C148.569 41.511 149.103 41.1904 149.44 41.1904C149.574 41.1904 149.678 41.2397 149.736 41.3589C150.57 44.639 146.131 46.8997 142.935 48.1986C144.115 45.8022 146.056 43.2744 148.069 41.9056H148.073Z" fill="#14163A"/>
<path d="M143.219 49.0864C146.273 47.6519 152.236 45.3254 150.57 40.7383C150.274 39.9532 149.649 39.6408 148.969 39.6408C148.528 39.6408 148.065 39.7723 147.657 39.9861C144.673 41.3548 140.168 47.9232 140.997 51.0019C141.318 52.1034 142.106 52.4816 143.044 52.4816C144.548 52.4816 146.44 51.5074 147.382 51.0019C148.632 50.2826 149.415 49.7523 150.286 48.8974C150.54 48.1452 150.907 47.319 151.353 46.4476C151.049 46.6983 150.72 47.0559 150.503 47.3765C149.253 48.6096 148.84 49.0166 146.965 50.1839C145.982 50.7964 144.073 51.5979 142.994 51.5979C142.627 51.5979 142.352 51.5033 142.248 51.2773C142.11 50.7306 142.181 50.0441 142.456 49.292C142.731 49.2262 142.939 49.1563 143.219 49.0864ZM148.073 41.9056C148.569 41.511 149.103 41.1904 149.44 41.1904C149.574 41.1904 149.678 41.2397 149.736 41.3589C150.57 44.639 146.131 46.8997 142.935 48.1986C144.115 45.8022 146.056 43.2744 148.069 41.9056H148.073Z" fill="#14163A"/>
<path d="M163.157 50.5686C163.157 50.5686 163.161 50.5437 163.165 50.5312C163.165 50.5146 163.173 50.4979 163.177 50.4854C163.397 49.5456 164.424 47.2209 169.156 40.7084C169.221 40.6419 169.36 40.2926 169.36 40.0181C169.356 39.8143 169.287 39.6064 168.879 39.6064C167.318 39.6064 166.438 41.1285 165.757 42.1681C166.03 40.6086 165.207 39.6314 164.168 39.6314C163.915 39.6314 163.65 39.6896 163.381 39.8102C163.381 39.8102 161.347 40.1553 157.544 44.9336C157.544 44.9336 155.857 47.0878 155.287 49.2046C155.287 49.2046 155.287 49.2129 155.287 49.2171C154.129 50.1403 152.091 51.5875 151.239 51.5875C150.97 51.5875 150.697 51.521 150.697 51.0344C150.697 50.4813 150.832 48.6806 157.887 39.0575L162.704 33.0357C162.704 33.0357 163.043 32.4826 163.043 31.8588C163.043 31.576 162.904 30.8857 162.431 30.8857C162.297 30.8857 162.093 30.9522 161.82 31.2309C161.502 31.2309 154.215 40.0306 151.056 46.4183C150.62 47.2999 150.261 48.14 150.013 48.8968C149.756 49.6745 149.613 50.369 149.613 50.9554C149.613 50.9554 149.483 52.4816 151.007 52.4816C151.04 52.4816 151.072 52.4816 151.109 52.4816C151.125 52.4816 151.15 52.4816 151.194 52.4816C151.496 52.4816 152.548 52.3527 155.115 50.2359C155.111 50.3149 155.107 50.3898 155.107 50.4688C155.107 51.0926 155.172 52.3361 156.464 52.3361C156.872 52.3361 157.345 52.2695 158.025 51.8536C158.025 51.8536 160.903 50.0779 162.403 48.6307C162.093 49.608 162.028 50.2151 162.028 50.9512C162.028 50.9512 162.093 52.4733 163.52 52.4733C163.52 52.4608 163.548 52.465 163.605 52.4608C163.52 52.44 162.977 52.2404 163.116 50.8639C163.12 50.7849 163.128 50.6934 163.153 50.5728L163.157 50.5686ZM158.706 50.3316C157.569 51.0677 156.958 51.313 156.693 51.313C156.656 51.313 156.627 51.3089 156.607 51.3006C156.403 51.2299 156.403 50.9554 156.403 50.8181C156.403 48.8095 159.252 45.7654 159.252 45.7654C160.067 44.8671 163.12 41.2657 164.273 41.2657C164.95 41.2657 165.019 42.2347 165.019 42.8585C165.019 46.1812 158.979 50.1278 158.71 50.3316H158.706Z" fill="#14163A"/>
<path d="M163.157 50.5686C163.157 50.5686 163.161 50.5437 163.165 50.5312C163.165 50.5146 163.173 50.4979 163.177 50.4854C163.397 49.5456 164.424 47.2209 169.156 40.7084C169.221 40.6419 169.36 40.2926 169.36 40.0181C169.356 39.8143 169.287 39.6064 168.879 39.6064C167.318 39.6064 166.438 41.1285 165.757 42.1681C166.03 40.6086 165.207 39.6314 164.168 39.6314C163.915 39.6314 163.65 39.6896 163.381 39.8102C163.381 39.8102 161.347 40.1553 157.544 44.9336C157.544 44.9336 155.857 47.0878 155.287 49.2046C155.287 49.2046 155.287 49.2129 155.287 49.2171C154.129 50.1403 152.091 51.5875 151.239 51.5875C150.97 51.5875 150.697 51.521 150.697 51.0344C150.697 50.4813 150.832 48.6806 157.887 39.0575L162.704 33.0357C162.704 33.0357 163.043 32.4826 163.043 31.8588C163.043 31.576 162.904 30.8857 162.431 30.8857C162.297 30.8857 162.093 30.9522 161.82 31.2309C161.502 31.2309 154.215 40.0306 151.056 46.4183C150.62 47.2999 150.261 48.14 150.013 48.8968C149.756 49.6745 149.613 50.369 149.613 50.9554C149.613 50.9554 149.483 52.4816 151.007 52.4816C151.04 52.4816 151.072 52.4816 151.109 52.4816C151.125 52.4816 151.15 52.4816 151.194 52.4816C151.496 52.4816 152.548 52.3527 155.115 50.2359C155.111 50.3149 155.107 50.3898 155.107 50.4688C155.107 51.0926 155.172 52.3361 156.464 52.3361C156.872 52.3361 157.345 52.2695 158.025 51.8536C158.025 51.8536 160.903 50.0779 162.403 48.6307C162.093 49.608 162.028 50.2151 162.028 50.9512C162.028 50.9512 162.093 52.4733 163.52 52.4733C163.52 52.4608 163.548 52.465 163.605 52.4608C163.52 52.44 162.977 52.2404 163.116 50.8639C163.12 50.7849 163.128 50.6934 163.153 50.5728L163.157 50.5686ZM158.706 50.3316C157.569 51.0677 156.958 51.313 156.693 51.313C156.656 51.313 156.627 51.3089 156.607 51.3006C156.403 51.2299 156.403 50.9554 156.403 50.8181C156.403 48.8095 159.252 45.7654 159.252 45.7654C160.067 44.8671 163.12 41.2657 164.273 41.2657C164.95 41.2657 165.019 42.2347 165.019 42.8585C165.019 46.1812 158.979 50.1278 158.71 50.3316H158.706Z" fill="#14163A"/>
<path d="M198.055 51.8012C197.85 51.8012 197.579 51.6675 197.579 51.1285C197.579 50.7232 197.645 48.8347 203.792 38.9868L208.094 32.7133C208.365 32.2432 208.434 30.5533 207.618 30.5533C207.413 30.5533 207.278 30.7559 206.732 31.4975C206.65 30.6019 206.265 30.302 205.785 30.302C205.506 30.302 205.195 30.4033 204.891 30.5573C197.723 35.4813 193.425 42.7679 188.234 49.244C187.824 49.783 187.143 50.7962 187.003 50.7962C187.344 49.5804 188.709 46.2086 193.216 38.9909L196.083 34.1358C196.288 33.5279 196.423 31.9109 195.402 31.9109C195.336 31.9109 195.267 32.381 192.601 35.8906C186.593 43.1732 180.176 51.473 171.031 54.4395C170.6 54.5651 170.174 54.6138 169.759 54.63H169.755L167.036 54.7759C167.787 55.1447 168.706 55.4 169.649 55.4C169.792 55.4 169.936 55.3919 170.079 55.3838C170.42 55.3838 170.83 55.3189 171.17 55.25C179.224 52.6199 184.822 46.549 190.009 40.4093C187.619 44.5227 185.777 48.7739 185.777 51.473C185.777 51.8093 185.843 52.1457 186.323 52.1457C186.868 52.1457 187.619 51.3352 188.919 49.7182C194.036 43.3758 198.543 35.8906 205.232 31.3719C205.416 31.2584 205.56 31.2098 205.67 31.2098C206.093 31.2098 206.048 31.9028 206.048 32.381C203.452 35.9554 196.423 45.8722 196.423 50.6624C196.423 50.8651 196.423 51.1325 196.489 51.3352C196.489 51.3352 196.694 52.6847 197.924 52.6847C198.195 52.6847 198.605 52.6199 199.015 52.4172C199.814 52.0606 201.418 50.8894 202.603 49.8722C202.615 49.5844 202.656 49.2765 202.722 48.9603C201.205 50.0221 198.207 51.8053 198.055 51.8053V51.8012Z" fill="#14163A"/>
<path d="M198.055 51.8012C197.85 51.8012 197.579 51.6675 197.579 51.1285C197.579 50.7232 197.645 48.8347 203.792 38.9868L208.094 32.7133C208.365 32.2432 208.434 30.5533 207.618 30.5533C207.413 30.5533 207.278 30.7559 206.732 31.4975C206.65 30.6019 206.265 30.302 205.785 30.302C205.506 30.302 205.195 30.4033 204.891 30.5573C197.723 35.4813 193.425 42.7679 188.234 49.244C187.824 49.783 187.143 50.7962 187.003 50.7962C187.344 49.5804 188.709 46.2086 193.216 38.9909L196.083 34.1358C196.288 33.5279 196.423 31.9109 195.402 31.9109C195.336 31.9109 195.267 32.381 192.601 35.8906C186.593 43.1732 180.176 51.473 171.031 54.4395C170.6 54.5651 170.174 54.6138 169.759 54.63H169.755L167.036 54.7759C167.787 55.1447 168.706 55.4 169.649 55.4C169.792 55.4 169.936 55.3919 170.079 55.3838C170.42 55.3838 170.83 55.3189 171.17 55.25C179.224 52.6199 184.822 46.549 190.009 40.4093C187.619 44.5227 185.777 48.7739 185.777 51.473C185.777 51.8093 185.843 52.1457 186.323 52.1457C186.868 52.1457 187.619 51.3352 188.919 49.7182C194.036 43.3758 198.543 35.8906 205.232 31.3719C205.416 31.2584 205.56 31.2098 205.67 31.2098C206.093 31.2098 206.048 31.9028 206.048 32.381C203.452 35.9554 196.423 45.8722 196.423 50.6624C196.423 50.8651 196.423 51.1325 196.489 51.3352C196.489 51.3352 196.694 52.6847 197.924 52.6847C198.195 52.6847 198.605 52.6199 199.015 52.4172C199.814 52.0606 201.418 50.8894 202.603 49.8722C202.615 49.5844 202.656 49.2765 202.722 48.9603C201.205 50.0221 198.207 51.8053 198.055 51.8053V51.8012Z" fill="#14163A"/>
<path d="M263.968 49.1032C263.771 49.1032 262.251 49.8518 261.224 49.8518C261.183 49.8518 261.137 49.8518 261.096 49.8477C262.941 47.0692 262.259 40.0273 260.62 39.6896C260.439 39.6571 260.291 39.6408 260.168 39.6408C259.293 39.6408 259.654 40.3771 259.597 40.4341C257.329 44.1157 256.277 45.21 255.43 46.2596C255.332 46.3166 255.221 46.3939 255.106 46.4874C254.79 46.3817 254.436 46.3247 254.194 46.3247C252.756 46.3247 251.733 47.5451 251.733 48.7615C251.733 49.03 251.766 49.266 251.835 49.4978C251.54 49.7013 251.194 49.9209 250.775 50.1854C249.806 50.7915 247.924 51.5848 246.86 51.5848C246.498 51.5848 246.227 51.4912 246.124 51.2675C245.989 50.7264 246.059 50.047 246.33 49.3026C246.601 49.2375 246.806 49.1683 247.082 49.0992C250.093 47.6794 255.973 45.3768 254.329 40.8368C254.038 40.0598 253.421 39.7506 252.752 39.7506C252.316 39.7506 251.86 39.8808 251.457 40.0924C249.074 41.1907 245.709 45.6616 244.949 48.9405C244.949 48.9405 244.949 48.9446 244.949 48.9486C243.828 49.7989 241.346 51.5482 240.582 51.5482C240.561 51.5482 240.541 51.5482 240.52 51.5441C240.315 51.5441 239.974 51.479 239.974 50.5271C239.974 49.986 240.59 48.3588 245.307 41.9271C245.372 41.862 245.442 41.5894 245.442 41.2518C245.442 40.5765 245.101 39.8279 243.392 39.8279C241.408 39.8279 239.563 40.5032 237.989 41.6545C238.125 41.3169 238.195 40.9792 238.195 40.7066C238.191 40.0435 237.796 39.6489 237.554 39.6489C237.447 39.6489 237.373 39.7262 237.373 39.893C237.373 41.9922 234.024 44.0913 234.024 46.1254C234.024 46.3898 234.082 46.5891 234.168 46.7478C233.959 46.9553 233.761 47.1912 233.609 47.4109C232.377 48.6313 231.97 49.0341 230.121 50.1894C229.152 50.7956 227.27 51.5888 226.206 51.5888C225.844 51.5888 225.573 51.4953 225.47 51.2715C225.335 50.7305 225.404 50.0511 225.676 49.3066C225.947 49.2375 226.152 49.1683 226.428 49.1032C229.439 47.6835 235.319 45.3809 233.675 40.8409C233.388 40.0639 232.771 39.7547 232.102 39.7547C231.666 39.7547 231.21 39.8849 230.807 40.0964C228.437 41.1908 225.084 45.6291 224.307 48.9039C224.307 48.9039 224.307 48.908 224.307 48.912C223.124 49.746 220.417 51.5441 219.94 51.5441C219.669 51.5441 219.393 51.479 219.393 50.5271C219.393 50.3237 219.529 48.9039 224.661 41.9271C224.727 41.862 224.796 41.5894 224.796 41.2518C224.792 40.552 224.533 39.8076 223.252 39.8076C222.923 39.8076 222.528 39.8564 222.056 39.9662C219.389 41.0484 217.199 42.7448 215.285 44.7748C216.242 43.4201 218.297 41.1175 218.297 40.2388C218.297 40.0354 218.231 39.832 217.956 39.832C215.918 39.832 213.728 43.3224 211.858 47.4963C210.691 48.6517 210.26 49.0626 208.452 50.1894C207.483 50.7956 205.601 51.5888 204.537 51.5888C204.175 51.5888 203.904 51.4953 203.801 51.2715C203.666 50.7305 203.735 50.0511 204.007 49.3066C204.278 49.2416 204.483 49.1724 204.759 49.1032C207.77 47.6835 213.65 45.3809 212.006 40.8409C211.714 40.0639 211.098 39.7588 210.429 39.7588C209.993 39.7588 209.537 39.8889 209.134 40.1005C206.718 41.2111 203.284 45.7999 202.593 49.091C202.528 49.4083 202.487 49.7135 202.474 50.0064C202.458 50.3644 202.486 50.702 202.569 50.999C202.885 52.0892 203.661 52.4635 204.586 52.4635C206.069 52.4635 207.935 51.4994 208.863 50.999C209.722 50.5027 210.359 50.0999 210.954 49.6118C210.942 49.6443 210.926 49.6768 210.913 49.7135C210.642 50.3888 210.572 50.9339 210.572 51.4058C210.572 51.9468 210.708 52.2845 210.913 52.2845C211.46 52.2845 211.665 51.2675 212.622 49.7094C214.878 46.0521 218.301 42.3298 222.266 40.8368C222.471 40.7717 222.676 40.7026 222.882 40.7026C223.017 40.906 222.676 41.3779 222.266 41.923C219.87 45.5111 218.231 48.2205 218.231 50.4539C218.231 51.8085 219.053 52.4188 219.804 52.4188C219.776 52.4188 219.784 52.435 219.841 52.435C220.071 52.435 221.107 52.2031 224.151 49.9169C224.127 50.3074 224.151 50.6735 224.242 50.999C224.558 52.0892 225.335 52.4635 226.259 52.4635C227.742 52.4635 229.608 51.4994 230.536 50.999C232.176 50.0511 232.997 49.4409 234.296 47.952C234.472 47.7282 234.653 47.4475 234.809 47.179C234.809 47.179 234.809 47.179 234.813 47.179C234.916 47.1994 235.019 47.2075 235.117 47.2075C235.253 47.2075 235.869 47.2075 235.528 46.5973C235.598 43.4811 240.795 40.7717 243.462 40.7066C240.726 45.5151 241.547 43.7537 237.443 50.3237C237.172 49.986 236.761 49.5792 236.144 49.5792C235.257 49.5792 234.846 50.1894 234.846 50.7305C234.846 51.4749 235.323 52.016 236.144 52.016C236.28 52.016 236.416 52.016 236.555 51.9509C234.711 55.2664 233.408 58.6552 233.408 61.1612C233.408 61.8365 233.614 62.9877 234.982 62.9877C238.059 62.9877 239.152 58.5209 239.152 56.2143C239.152 54.9288 239.082 53.5741 238.536 52.1503C238.671 51.9468 238.877 51.6784 239.012 51.4058C239.078 51.8777 239.489 52.3537 240.38 52.4228C240.401 52.4228 240.422 52.4228 240.446 52.4228C241.214 52.4228 242.932 51.4221 244.797 49.9494C244.777 50.3277 244.805 50.6776 244.892 50.9949C245.208 52.0852 245.985 52.4594 246.909 52.4594C248.392 52.4594 250.258 51.4953 251.186 50.9949C251.581 50.7671 251.93 50.5556 252.246 50.3521C253.117 51.6702 254.596 52.3537 256.108 52.3537C256.178 52.3537 256.244 52.3537 256.314 52.3496C257.682 52.2845 258.845 52.4147 260.554 50.5881C260.69 50.6532 260.895 50.6532 261.031 50.6532C262.67 50.6532 264.042 49.4328 264.042 49.1643C264.042 49.1209 264.02 49.0992 263.976 49.0992L263.968 49.1032ZM251.864 41.9922C252.353 41.6016 252.879 41.2843 253.212 41.2843C253.343 41.2843 253.446 41.3331 253.503 41.4511C254.321 44.6975 249.945 46.9349 246.798 48.2204C247.961 45.8487 249.876 43.3469 251.86 41.9922H251.864ZM231.21 41.9922C231.699 41.6016 232.225 41.2843 232.558 41.2843C232.689 41.2843 232.792 41.3331 232.849 41.4511C233.667 44.6975 229.295 46.9349 226.144 48.2204C227.307 45.8487 229.221 43.3469 231.206 41.9922H231.21ZM209.533 41.9922C210.022 41.6016 210.548 41.2843 210.88 41.2843C211.012 41.2843 211.115 41.3331 211.172 41.4511C211.99 44.6975 207.614 46.9349 204.467 48.2204C205.63 45.8487 207.544 43.3469 209.529 41.9922H209.533ZM236.416 51.1088C236.313 51.1088 236.206 51.0925 236.066 51.0641C235.861 50.999 235.795 50.8607 235.795 50.7264C235.795 50.5922 235.861 50.523 236.066 50.523C236.338 50.523 236.613 50.6573 236.888 50.9949C236.691 51.0763 236.56 51.1088 236.416 51.1088ZM235.109 62.1009C234.838 62.1009 234.633 61.9666 234.633 61.4256C234.633 59.5298 236.342 56.076 237.915 53.2324C238.121 54.1803 238.256 55.1973 238.256 56.2143C238.256 57.9758 237.229 62.1049 235.109 62.1049V62.1009ZM254.596 47.2075C254.568 47.2075 254.547 47.1993 254.522 47.1953C254.547 47.1993 254.572 47.2034 254.596 47.2034V47.2075ZM252.616 49.0381C252.616 48.9975 252.616 48.9608 252.62 48.9242C252.686 48.013 253.532 47.1383 254.259 47.1383C254.329 47.1383 254.383 47.1546 254.432 47.1749C254.37 47.2563 254.309 47.3336 254.259 47.4109C253.59 48.074 253.167 48.493 252.62 48.9242C252.62 48.9608 252.616 48.9975 252.616 49.0341V49.0381ZM252.821 49.7785C252.994 49.6606 253.187 49.5141 253.384 49.3595C253.183 49.5182 252.99 49.6646 252.821 49.7826V49.7785ZM256.375 51.4709C255.069 51.4709 253.508 50.7915 252.895 49.9006C253.491 49.4572 254.017 48.973 254.642 48.2855C254.88 48.0699 255.114 47.8421 255.348 47.6143C256.441 48.3588 257.809 49.3758 259.108 50.0511C258.561 50.8647 257.67 51.4709 256.371 51.4709H256.375ZM259.658 49.3066C258.495 48.7656 257.197 47.7486 255.965 46.9349C256.1 46.8699 256.17 46.7315 256.306 46.5973C257.604 45.2426 258.837 43.4119 259.999 41.7237C260.546 41.7888 260.887 47.2075 259.658 49.3066Z" fill="#14163A"/>
<path d="M263.968 49.1032C263.771 49.1032 262.251 49.8518 261.224 49.8518C261.183 49.8518 261.137 49.8518 261.096 49.8477C262.941 47.0692 262.259 40.0273 260.62 39.6896C260.439 39.6571 260.291 39.6408 260.168 39.6408C259.293 39.6408 259.654 40.3771 259.597 40.4341C257.329 44.1157 256.277 45.21 255.43 46.2596C255.332 46.3166 255.221 46.3939 255.106 46.4874C254.79 46.3817 254.436 46.3247 254.194 46.3247C252.756 46.3247 251.733 47.5451 251.733 48.7615C251.733 49.03 251.766 49.266 251.835 49.4978C251.54 49.7013 251.194 49.9209 250.775 50.1854C249.806 50.7915 247.924 51.5848 246.86 51.5848C246.498 51.5848 246.227 51.4912 246.124 51.2675C245.989 50.7264 246.059 50.047 246.33 49.3026C246.601 49.2375 246.806 49.1683 247.082 49.0992C250.093 47.6794 255.973 45.3768 254.329 40.8368C254.038 40.0598 253.421 39.7506 252.752 39.7506C252.316 39.7506 251.86 39.8808 251.457 40.0924C249.074 41.1907 245.709 45.6616 244.949 48.9405C244.949 48.9405 244.949 48.9446 244.949 48.9486C243.828 49.7989 241.346 51.5482 240.582 51.5482C240.561 51.5482 240.541 51.5482 240.52 51.5441C240.315 51.5441 239.974 51.479 239.974 50.5271C239.974 49.986 240.59 48.3588 245.307 41.9271C245.372 41.862 245.442 41.5894 245.442 41.2518C245.442 40.5765 245.101 39.8279 243.392 39.8279C241.408 39.8279 239.563 40.5032 237.989 41.6545C238.125 41.3169 238.195 40.9792 238.195 40.7066C238.191 40.0435 237.796 39.6489 237.554 39.6489C237.447 39.6489 237.373 39.7262 237.373 39.893C237.373 41.9922 234.024 44.0913 234.024 46.1254C234.024 46.3898 234.082 46.5891 234.168 46.7478C233.959 46.9553 233.761 47.1912 233.609 47.4109C232.377 48.6313 231.97 49.0341 230.121 50.1894C229.152 50.7956 227.27 51.5888 226.206 51.5888C225.844 51.5888 225.573 51.4953 225.47 51.2715C225.335 50.7305 225.404 50.0511 225.676 49.3066C225.947 49.2375 226.152 49.1683 226.428 49.1032C229.439 47.6835 235.319 45.3809 233.675 40.8409C233.388 40.0639 232.771 39.7547 232.102 39.7547C231.666 39.7547 231.21 39.8849 230.807 40.0964C228.437 41.1908 225.084 45.6291 224.307 48.9039C224.307 48.9039 224.307 48.908 224.307 48.912C223.124 49.746 220.417 51.5441 219.94 51.5441C219.669 51.5441 219.393 51.479 219.393 50.5271C219.393 50.3237 219.529 48.9039 224.661 41.9271C224.727 41.862 224.796 41.5894 224.796 41.2518C224.792 40.552 224.533 39.8076 223.252 39.8076C222.923 39.8076 222.528 39.8564 222.056 39.9662C219.389 41.0484 217.199 42.7448 215.285 44.7748C216.242 43.4201 218.297 41.1175 218.297 40.2388C218.297 40.0354 218.231 39.832 217.956 39.832C215.918 39.832 213.728 43.3224 211.858 47.4963C210.691 48.6517 210.26 49.0626 208.452 50.1894C207.483 50.7956 205.601 51.5888 204.537 51.5888C204.175 51.5888 203.904 51.4953 203.801 51.2715C203.666 50.7305 203.735 50.0511 204.007 49.3066C204.278 49.2416 204.483 49.1724 204.759 49.1032C207.77 47.6835 213.65 45.3809 212.006 40.8409C211.714 40.0639 211.098 39.7588 210.429 39.7588C209.993 39.7588 209.537 39.8889 209.134 40.1005C206.718 41.2111 203.284 45.7999 202.593 49.091C202.528 49.4083 202.487 49.7135 202.474 50.0064C202.458 50.3644 202.486 50.702 202.569 50.999C202.885 52.0892 203.661 52.4635 204.586 52.4635C206.069 52.4635 207.935 51.4994 208.863 50.999C209.722 50.5027 210.359 50.0999 210.954 49.6118C210.942 49.6443 210.926 49.6768 210.913 49.7135C210.642 50.3888 210.572 50.9339 210.572 51.4058C210.572 51.9468 210.708 52.2845 210.913 52.2845C211.46 52.2845 211.665 51.2675 212.622 49.7094C214.878 46.0521 218.301 42.3298 222.266 40.8368C222.471 40.7717 222.676 40.7026 222.882 40.7026C223.017 40.906 222.676 41.3779 222.266 41.923C219.87 45.5111 218.231 48.2205 218.231 50.4539C218.231 51.8085 219.053 52.4188 219.804 52.4188C219.776 52.4188 219.784 52.435 219.841 52.435C220.071 52.435 221.107 52.2031 224.151 49.9169C224.127 50.3074 224.151 50.6735 224.242 50.999C224.558 52.0892 225.335 52.4635 226.259 52.4635C227.742 52.4635 229.608 51.4994 230.536 50.999C232.176 50.0511 232.997 49.4409 234.296 47.952C234.472 47.7282 234.653 47.4475 234.809 47.179C234.809 47.179 234.809 47.179 234.813 47.179C234.916 47.1994 235.019 47.2075 235.117 47.2075C235.253 47.2075 235.869 47.2075 235.528 46.5973C235.598 43.4811 240.795 40.7717 243.462 40.7066C240.726 45.5151 241.547 43.7537 237.443 50.3237C237.172 49.986 236.761 49.5792 236.144 49.5792C235.257 49.5792 234.846 50.1894 234.846 50.7305C234.846 51.4749 235.323 52.016 236.144 52.016C236.28 52.016 236.416 52.016 236.555 51.9509C234.711 55.2664 233.408 58.6552 233.408 61.1612C233.408 61.8365 233.614 62.9877 234.982 62.9877C238.059 62.9877 239.152 58.5209 239.152 56.2143C239.152 54.9288 239.082 53.5741 238.536 52.1503C238.671 51.9468 238.877 51.6784 239.012 51.4058C239.078 51.8777 239.489 52.3537 240.38 52.4228C240.401 52.4228 240.422 52.4228 240.446 52.4228C241.214 52.4228 242.932 51.4221 244.797 49.9494C244.777 50.3277 244.805 50.6776 244.892 50.9949C245.208 52.0852 245.985 52.4594 246.909 52.4594C248.392 52.4594 250.258 51.4953 251.186 50.9949C251.581 50.7671 251.93 50.5556 252.246 50.3521C253.117 51.6702 254.596 52.3537 256.108 52.3537C256.178 52.3537 256.244 52.3537 256.314 52.3496C257.682 52.2845 258.845 52.4147 260.554 50.5881C260.69 50.6532 260.895 50.6532 261.031 50.6532C262.67 50.6532 264.042 49.4328 264.042 49.1643C264.042 49.1209 264.02 49.0992 263.976 49.0992L263.968 49.1032ZM251.864 41.9922C252.353 41.6016 252.879 41.2843 253.212 41.2843C253.343 41.2843 253.446 41.3331 253.503 41.4511C254.321 44.6975 249.945 46.9349 246.798 48.2204C247.961 45.8487 249.876 43.3469 251.86 41.9922H251.864ZM231.21 41.9922C231.699 41.6016 232.225 41.2843 232.558 41.2843C232.689 41.2843 232.792 41.3331 232.849 41.4511C233.667 44.6975 229.295 46.9349 226.144 48.2204C227.307 45.8487 229.221 43.3469 231.206 41.9922H231.21ZM209.533 41.9922C210.022 41.6016 210.548 41.2843 210.88 41.2843C211.012 41.2843 211.115 41.3331 211.172 41.4511C211.99 44.6975 207.614 46.9349 204.467 48.2204C205.63 45.8487 207.544 43.3469 209.529 41.9922H209.533ZM236.416 51.1088C236.313 51.1088 236.206 51.0925 236.066 51.0641C235.861 50.999 235.795 50.8607 235.795 50.7264C235.795 50.5922 235.861 50.523 236.066 50.523C236.338 50.523 236.613 50.6573 236.888 50.9949C236.691 51.0763 236.56 51.1088 236.416 51.1088ZM235.109 62.1009C234.838 62.1009 234.633 61.9666 234.633 61.4256C234.633 59.5298 236.342 56.076 237.915 53.2324C238.121 54.1803 238.256 55.1973 238.256 56.2143C238.256 57.9758 237.229 62.1049 235.109 62.1049V62.1009ZM254.596 47.2075C254.568 47.2075 254.547 47.1993 254.522 47.1953C254.547 47.1993 254.572 47.2034 254.596 47.2034V47.2075ZM252.616 49.0381C252.616 48.9975 252.616 48.9608 252.62 48.9242C252.686 48.013 253.532 47.1383 254.259 47.1383C254.329 47.1383 254.383 47.1546 254.432 47.1749C254.37 47.2563 254.309 47.3336 254.259 47.4109C253.59 48.074 253.167 48.493 252.62 48.9242C252.62 48.9608 252.616 48.9975 252.616 49.0341V49.0381ZM252.821 49.7785C252.994 49.6606 253.187 49.5141 253.384 49.3595C253.183 49.5182 252.99 49.6646 252.821 49.7826V49.7785ZM256.375 51.4709C255.069 51.4709 253.508 50.7915 252.895 49.9006C253.491 49.4572 254.017 48.973 254.642 48.2855C254.88 48.0699 255.114 47.8421 255.348 47.6143C256.441 48.3588 257.809 49.3758 259.108 50.0511C258.561 50.8647 257.67 51.4709 256.371 51.4709H256.375ZM259.658 49.3066C258.495 48.7656 257.197 47.7486 255.965 46.9349C256.1 46.8699 256.17 46.7315 256.306 46.5973C257.604 45.2426 258.837 43.4119 259.999 41.7237C260.546 41.7888 260.887 47.2075 259.658 49.3066Z" fill="#14163A"/>
<path d="M175.767 5.20406C176.393 3.63474 177.163 2.27131 178.073 1.11834C176.706 1.49352 175.597 3.255 175.767 5.20406Z" fill="#14163A"/>
<path d="M175.767 5.20406C176.393 3.63474 177.163 2.27131 178.073 1.11834C176.706 1.49352 175.597 3.255 175.767 5.20406Z" fill="#14163A"/>
<path d="M167.617 5.18525C168.914 5.14028 170.269 5.34261 171.683 5.78773C170.477 4.44788 168.659 4.28152 167.617 5.18525Z" fill="#14163A"/>
<path d="M167.617 5.18525C168.914 5.14028 170.269 5.34261 171.683 5.78773C170.477 4.44788 168.659 4.28152 167.617 5.18525Z" fill="#14163A"/>
<path d="M175.77 13.3755L176.33 13.1251L173.6 5.20467C172.191 3.42278 170.582 3.0013 168.779 3.93607C170.415 4.04039 171.84 4.49108 172.915 5.55938L175.77 13.3755Z" fill="#14163A"/>
<path d="M175.77 13.3755L176.33 13.1251L173.6 5.20467C172.191 3.42278 170.582 3.0013 168.779 3.93607C170.415 4.04039 171.84 4.49108 172.915 5.55938L175.77 13.3755Z" fill="#14163A"/>
<path d="M177.492 12.5214L174.812 4.86481C175.106 3.20158 175.998 1.80463 177.181 0.534668C175.312 1.06313 173.964 2.23068 174.008 5.11471L176.854 12.7918L177.492 12.5214Z" fill="#14163A"/>
<path d="M177.492 12.5214L174.812 4.86481C175.106 3.20158 175.998 1.80463 177.181 0.534668C175.312 1.06313 173.964 2.23068 174.008 5.11471L176.854 12.7918L177.492 12.5214Z" fill="#14163A"/>
<path d="M186.786 6.95507C188.188 6.48629 189.546 6.24189 190.852 6.21384C189.763 5.46058 187.939 5.70499 186.786 6.95507Z" fill="#14163A"/>
<path d="M186.786 6.95507C188.188 6.48629 189.546 6.24189 190.852 6.21384C189.763 5.46058 187.939 5.70499 186.786 6.95507Z" fill="#14163A"/>
<path d="M180.977 1.11834C181.872 2.09406 182.647 3.26005 183.297 4.62038C183.372 2.89163 182.269 1.3815 180.977 1.11834Z" fill="#14163A"/>
<path d="M180.977 1.11834C181.872 2.09406 182.647 3.26005 183.297 4.62038C183.372 2.89163 182.269 1.3815 180.977 1.11834Z" fill="#14163A"/>
<path d="M184.973 5.64177C185.303 3.41615 184.476 1.91235 182.49 1.11834C183.577 2.44168 184.254 3.83319 184.221 5.33699L180.397 12.5191L180.986 12.7918L184.977 5.63774L184.973 5.64177Z" fill="#14163A"/>
<path d="M184.973 5.64177C185.303 3.41615 184.476 1.91235 182.49 1.11834C183.577 2.44168 184.254 3.83319 184.221 5.33699L180.397 12.5191L180.986 12.7918L184.977 5.63774L184.973 5.64177Z" fill="#14163A"/>
<path d="M182.183 13.3715L186.068 6.46048C187.495 5.60506 189.125 5.36235 190.852 5.41806C189.218 4.37961 187.45 4.13691 185.346 6.03078L181.558 13.0771L182.183 13.3755V13.3715Z" fill="#14163A"/>
<path d="M182.183 13.3715L186.068 6.46048C187.495 5.60506 189.125 5.36235 190.852 5.41806C189.218 4.37961 187.45 4.13691 185.346 6.03078L181.558 13.0771L182.183 13.3755V13.3715Z" fill="#14163A"/>
<path d="M192.014 16.2938C193.155 16.9717 194.125 17.7499 194.918 18.6285C194.773 17.4415 193.53 16.3405 192.014 16.2938Z" fill="#14163A"/>
<path d="M192.014 16.2938C193.155 16.9717 194.125 17.7499 194.918 18.6285C194.773 17.4415 193.53 16.3405 192.014 16.2938Z" fill="#14163A"/>
<path d="M192.319 8.12243C192.217 9.4521 191.921 10.814 191.433 12.2081C192.568 11.1243 192.888 9.28689 192.319 8.12243Z" fill="#14163A"/>
<path d="M192.319 8.12243C192.217 9.4521 191.921 10.814 191.433 12.2081C192.568 11.1243 192.888 9.28689 192.319 8.12243Z" fill="#14163A"/>
<path d="M191.354 13.1948L183.301 15.1279L183.474 15.7102L191.614 13.9129C193.548 12.7174 194.171 11.1763 193.49 9.28977C193.176 10.8929 192.548 12.2554 191.358 13.1909L191.354 13.1948Z" fill="#14163A"/>
<path d="M191.354 13.1948L183.301 15.1279L183.474 15.7102L191.614 13.9129C193.548 12.7174 194.171 11.1763 193.49 9.28977C193.176 10.8929 192.548 12.2554 191.358 13.1909L191.354 13.1948Z" fill="#14163A"/>
<path d="M183.882 16.3378L184.071 16.9679L192.053 15.3257C193.677 15.7878 194.963 16.7884 196.08 18.0449C195.787 16.2308 194.79 14.8293 191.904 14.5428L183.882 16.3416V16.3378Z" fill="#14163A"/>
<path d="M183.882 16.3378L184.071 16.9679L192.053 15.3257C193.677 15.7878 194.963 16.7884 196.08 18.0449C195.787 16.2308 194.79 14.8293 191.904 14.5428L183.882 16.3416V16.3378Z" fill="#14163A"/>
<path d="M188.022 26.8C188.316 28.2477 188.292 29.6096 187.948 30.8857C189.396 29.9647 189.568 28.1502 188.022 26.8Z" fill="#14163A"/>
<path d="M188.022 26.8C188.316 28.2477 188.292 29.6096 187.948 30.8857C189.396 29.9647 189.568 28.1502 188.022 26.8Z" fill="#14163A"/>
<path d="M190.852 23.7822C192.614 24.1752 194.389 23.3574 194.918 22.1306C193.732 22.8373 192.377 23.3891 190.852 23.7822Z" fill="#14163A"/>
<path d="M190.852 23.7822C192.614 24.1752 194.389 23.3574 194.918 22.1306C193.732 22.8373 192.377 23.3891 190.852 23.7822Z" fill="#14163A"/>
<path d="M194.918 23.6675C193.366 24.5055 191.823 24.918 190.296 24.575L183.688 19.2122L183.301 19.755L189.846 25.2828C192.051 26.0688 193.741 25.5303 194.918 23.6675Z" fill="#14163A"/>
<path d="M194.918 23.6675C193.366 24.5055 191.823 24.918 190.296 24.575L183.688 19.2122L183.301 19.755L189.846 25.2828C192.051 26.0688 193.741 25.5303 194.918 23.6675Z" fill="#14163A"/>
<path d="M189.396 25.4055L183.129 20.3796L182.72 20.9344L188.835 26.0287C189.42 27.5807 189.352 29.2131 188.979 30.8857C190.309 29.4905 190.873 27.8179 189.396 25.4055Z" fill="#14163A"/>
<path d="M189.396 25.4055L183.129 20.3796L182.72 20.9344L188.835 26.0287C189.42 27.5807 189.352 29.2131 188.979 30.8857C190.309 29.4905 190.873 27.8179 189.396 25.4055Z" fill="#14163A"/>
<path d="M176.33 29.1347C175.019 30.1263 173.662 30.8845 172.264 31.4095C173.744 31.722 175.606 30.7887 176.33 29.1347Z" fill="#14163A"/>
<path d="M176.33 29.1347C175.019 30.1263 173.662 30.8845 172.264 31.4095C173.744 31.722 175.606 30.7887 176.33 29.1347Z" fill="#14163A"/>
<path d="M183.882 32.604C182.471 32.0528 181.113 31.2841 179.816 30.302C180.462 31.8742 182.335 32.8291 183.882 32.604Z" fill="#14163A"/>
<path d="M183.882 32.604C182.471 32.0528 181.113 31.2841 179.816 30.302C180.462 31.8742 182.335 32.8291 183.882 32.604Z" fill="#14163A"/>
<path d="M179.103 21.5469L178.073 30.2023C178.609 32.5503 179.969 33.7524 182.139 33.8041C180.615 32.8821 179.441 31.7447 178.901 30.2239L179.762 21.6029L179.103 21.5469Z" fill="#14163A"/>
<path d="M179.103 21.5469L178.073 30.2023C178.609 32.5503 179.969 33.7524 182.139 33.8041C180.615 32.8821 179.441 31.7447 178.901 30.2239L179.762 21.6029L179.103 21.5469Z" fill="#14163A"/>
<path d="M176.901 29.7132C175.891 31.0756 174.465 31.9147 172.845 32.5045C174.748 32.9074 176.473 32.4879 177.733 29.8627L178.654 21.6009L177.963 21.5469L176.901 29.7132Z" fill="#14163A"/>
<path d="M176.901 29.7132C175.891 31.0756 174.465 31.9147 172.845 32.5045C174.748 32.9074 176.473 32.4879 177.733 29.8627L178.654 21.6009L177.963 21.5469L176.901 29.7132Z" fill="#14163A"/>
<path d="M167.036 22.5666C165.516 22.2041 164.162 21.6711 162.97 20.9632C163.545 22.2596 165.324 23.0612 167.036 22.5666Z" fill="#14163A"/>
<path d="M167.036 22.5666C165.516 22.2041 164.162 21.6711 162.97 20.9632C163.545 22.2596 165.324 23.0612 167.036 22.5666Z" fill="#14163A"/>
<path d="M168.779 30.8857C168.588 29.438 168.539 27.8785 168.63 26.2163C167.972 27.807 168.102 29.8758 168.779 30.8857Z" fill="#14163A"/>
<path d="M168.779 30.8857C168.588 29.438 168.539 27.8785 168.63 26.2163C167.972 27.807 168.102 29.8758 168.779 30.8857Z" fill="#14163A"/>
<path d="M174.822 20.3796L167.64 24.8192C166.176 26.6856 166.069 28.5132 167.322 30.302C167.112 28.5046 167.281 26.8667 168.114 25.5003L175.169 20.9442L174.818 20.3796H174.822Z" fill="#14163A"/>
<path d="M174.822 20.3796L167.64 24.8192C166.176 26.6856 166.069 28.5132 167.322 30.302C167.112 28.5046 167.281 26.8667 168.114 25.5003L175.169 20.9442L174.818 20.3796H174.822Z" fill="#14163A"/>
<path d="M167.507 24.3294L174.588 20.352L174.204 19.7959L167.111 23.615C165.412 23.6227 163.862 23.0164 162.39 22.1167C163.251 23.7849 164.658 24.8584 167.507 24.3294Z" fill="#14163A"/>
<path d="M167.507 24.3294L174.588 20.352L174.204 19.7959L167.111 23.615C165.412 23.6227 163.862 23.0164 162.39 22.1167C163.251 23.7849 164.658 24.8584 167.507 24.3294Z" fill="#14163A"/>
<path d="M143.831 15.1265C144.443 13.5638 145.207 12.2044 146.125 11.0408C144.712 11.4475 143.606 13.2136 143.831 15.1265Z" fill="#14163A"/>
<path d="M143.831 15.1265C144.443 13.5638 145.207 12.2044 146.125 11.0408C144.712 11.4475 143.606 13.2136 143.831 15.1265Z" fill="#14163A"/>
<path d="M138.574 16.8775C137.166 15.4869 135.092 15.3659 133.927 16.3696C135.402 16.2769 136.949 16.4462 138.574 16.8775Z" fill="#14163A"/>
<path d="M138.574 16.8775C137.166 15.4869 135.092 15.3659 133.927 16.3696C135.402 16.2769 136.949 16.4462 138.574 16.8775Z" fill="#14163A"/>
<path d="M143.679 25.6285L144.383 25.3112L140.666 15.9464C138.816 13.8672 136.763 13.4204 134.508 14.602C136.581 14.6688 138.41 15.1573 139.805 16.3931L143.679 25.6326V25.6285Z" fill="#14163A"/>
<path d="M143.679 25.6285L144.383 25.3112L140.666 15.9464C138.816 13.8672 136.763 13.4204 134.508 14.602C136.581 14.6688 138.41 15.1573 139.805 16.3931L143.679 25.6326V25.6285Z" fill="#14163A"/>
<path d="M145.33 25.049L146.125 24.6924L142.492 15.3112C142.803 13.2396 143.883 11.4823 145.325 9.87345C142.99 10.5908 141.335 12.0808 141.488 15.6508L145.33 25.049Z" fill="#14163A"/>
<path d="M145.33 25.049L146.125 24.6924L142.492 15.3112C142.803 13.2396 143.883 11.4823 145.325 9.87345C142.99 10.5908 141.335 12.0808 141.488 15.6508L145.33 25.049Z" fill="#14163A"/>
<path d="M152.515 11.0408C151.241 11.7651 150.916 13.3158 152.037 14.5428C151.942 13.286 152.101 12.1187 152.515 11.0408Z" fill="#14163A"/>
<path d="M152.515 11.0408C151.241 11.7651 150.916 13.3158 152.037 14.5428C151.942 13.286 152.101 12.1187 152.515 11.0408Z" fill="#14163A"/>
<path d="M146.125 17.4612C147.156 16.9864 148.316 16.6428 149.61 16.4305C148.178 16.029 146.652 16.554 146.125 17.4612Z" fill="#14163A"/>
<path d="M146.125 17.4612C147.156 16.9864 148.316 16.6428 149.61 16.4305C148.178 16.029 146.652 16.554 146.125 17.4612Z" fill="#14163A"/>
<path d="M149.979 16.0077L155.067 20.3796L155.419 19.9996L150.392 15.5093C148.632 14.7902 147.207 15.0843 146.125 16.3918C147.45 15.8688 148.745 15.6563 149.975 16.0077H149.979Z" fill="#14163A"/>
<path d="M149.979 16.0077L155.067 20.3796L155.419 19.9996L150.392 15.5093C148.632 14.7902 147.207 15.0843 146.125 16.3918C147.45 15.8688 148.745 15.6563 149.975 16.0077H149.979Z" fill="#14163A"/>
<path d="M155.624 19.7959L156 19.3796L151.261 14.9265C150.88 13.653 151.041 12.351 151.46 11.0408C150.263 12.0694 149.684 13.3673 150.754 15.3877L155.624 19.7959Z" fill="#14163A"/>
<path d="M155.624 19.7959L156 19.3796L151.261 14.9265C150.88 13.653 151.041 12.351 151.46 11.0408C150.263 12.0694 149.684 13.3673 150.754 15.3877L155.624 19.7959Z" fill="#14163A"/>
<path d="M165.927 15.2512C159.976 16.0858 157.501 23.9005 146.125 21.6541C158.6 24.1372 159.992 16.1481 166.114 15.3093C166.836 15.5418 167.574 15.8699 168.333 16.3017C167.647 15.8989 166.974 15.5543 166.308 15.2886C167.055 15.2055 167.866 15.2221 168.779 15.3799C167.822 15.1723 166.958 15.1391 166.154 15.2263C162.487 13.8186 159.051 14.5453 155.586 17.78C158.499 15.5917 161.972 14.047 165.931 15.2512H165.927Z" fill="#14163A"/>
<path d="M165.927 15.2512C159.976 16.0858 157.501 23.9005 146.125 21.6541C158.6 24.1372 159.992 16.1481 166.114 15.3093C166.836 15.5418 167.574 15.8699 168.333 16.3017C167.647 15.8989 166.974 15.5543 166.308 15.2886C167.055 15.2055 167.866 15.2221 168.779 15.3799C167.822 15.1723 166.958 15.1391 166.154 15.2263C162.487 13.8186 159.051 14.5453 155.586 17.78C158.499 15.5917 161.972 14.047 165.931 15.2512H165.927Z" fill="#14163A"/>
</svg>
