<svg width="258" height="133" viewBox="0 0 258 133" fill="none" xmlns="http://www.w3.org/2000/svg">
<path d="M111.143 78.462H123.562V70.6218H111.143V63.9513H124.348V56.0327H101.694V92.2204H111.143V78.462Z" fill="#14163A"/>
<path d="M111.143 78.462H123.562V70.6218H111.143V63.9513H124.348V56.0327H101.694V92.2204H111.143V78.462Z" fill="#14163A"/>
<path d="M158.615 92.2204L147.986 56.0327H135.269L124.929 92.2204H134.805L136.816 83.8296H146.032L148.308 92.2204H158.62H158.615ZM138.082 76.6748L139.617 70.206C140.134 68.1517 140.663 65.1716 141.188 63.0387H141.294C141.848 65.1716 142.523 68.1269 143.064 70.1647L144.718 76.6748H138.082Z" fill="#14163A"/>
<path d="M158.615 92.2204L147.986 56.0327H135.269L124.929 92.2204H134.805L136.816 83.8296H146.032L148.308 92.2204H158.62H158.615ZM138.082 76.6748L139.617 70.206C140.134 68.1517 140.663 65.1716 141.188 63.0387H141.294C141.848 65.1716 142.523 68.1269 143.064 70.1647L144.718 76.6748H138.082Z" fill="#14163A"/>
<path d="M179.479 83.9486C180.508 88.3695 181.436 91.1787 181.977 92.2204H191.729C191.041 90.8343 189.866 85.6136 188.796 81.9637C187.885 78.8469 186.603 76.5544 184.239 75.5291V75.3445C187.014 74.3193 190.342 71.1369 190.342 66.6626C190.342 63.148 189.113 60.5889 186.827 58.8296C184.146 56.7914 180.232 56.0327 174.776 56.0327C170.008 56.0327 165.964 56.3771 163.267 56.8037V92.2163H172.713V78.7525H174.259C177.204 78.7525 178.515 79.6466 179.479 83.9486ZM172.713 71.8545V63.3571C173.189 63.2382 174.141 63.1439 175.935 63.1439C179.104 63.1726 180.862 64.7023 180.862 67.3926C180.862 70.0829 178.788 71.8545 175.195 71.8545H172.709H172.713Z" fill="#14163A"/>
<path d="M179.479 83.9486C180.508 88.3695 181.436 91.1787 181.977 92.2204H191.729C191.041 90.8343 189.866 85.6136 188.796 81.9637C187.885 78.8469 186.603 76.5544 184.239 75.5291V75.3445C187.014 74.3193 190.342 71.1369 190.342 66.6626C190.342 63.148 189.113 60.5889 186.827 58.8296C184.146 56.7914 180.232 56.0327 174.776 56.0327C170.008 56.0327 165.964 56.3771 163.267 56.8037V92.2163H172.713V78.7525H174.259C177.204 78.7525 178.515 79.6466 179.479 83.9486ZM172.713 71.8545V63.3571C173.189 63.2382 174.141 63.1439 175.935 63.1439C179.104 63.1726 180.862 64.7023 180.862 67.3926C180.862 70.0829 178.788 71.8545 175.195 71.8545H172.709H172.713Z" fill="#14163A"/>
<path d="M211.984 55.449C200.934 55.449 194.053 63.8066 194.053 74.3414C194.053 84.8761 200.196 92.8041 211.382 92.8041C222.568 92.8041 229.486 85.3967 229.486 73.7671C229.486 64.0792 223.586 55.4531 211.984 55.4531V55.449ZM211.852 85.1282C207.237 85.1282 204.279 80.9679 204.279 74.1678C204.279 67.3678 207.237 63.1249 211.798 63.1249C216.359 63.1249 219.264 67.847 219.264 74.0728C219.264 80.2987 216.548 85.1282 211.852 85.1282Z" fill="#14163A"/>
<path d="M211.984 55.449C200.934 55.449 194.053 63.8066 194.053 74.3414C194.053 84.8761 200.196 92.8041 211.382 92.8041C222.568 92.8041 229.486 85.3967 229.486 73.7671C229.486 64.0792 223.586 55.4531 211.984 55.4531V55.449ZM211.852 85.1282C207.237 85.1282 204.279 80.9679 204.279 74.1678C204.279 67.3678 207.237 63.1249 211.798 63.1249C216.359 63.1249 219.264 67.847 219.264 74.0728C219.264 80.2987 216.548 85.1282 211.852 85.1282Z" fill="#14163A"/>
<path d="M257.949 84.0993H244.246V56.0327H234.714V92.2204H257.949V84.0993Z" fill="#14163A"/>
<path d="M257.949 84.0993H244.246V56.0327H234.714V92.2204H257.949V84.0993Z" fill="#14163A"/>
<path d="M105.68 99.3156C105.231 98.878 104.525 98.6408 103.567 98.6408C102.781 98.6408 102.165 98.7144 101.694 98.8044V106.812H102.666V103.561C102.891 103.626 103.156 103.634 103.453 103.634C104.402 103.634 105.235 103.34 105.756 102.747C106.14 102.326 106.341 101.745 106.341 101.013C106.341 100.281 106.086 99.7042 105.68 99.3156ZM103.472 102.8C103.153 102.8 102.883 102.776 102.666 102.71V99.5569C102.837 99.516 103.157 99.4751 103.586 99.4751C104.654 99.4751 105.364 99.9986 105.364 101.074C105.364 102.15 104.65 102.804 103.472 102.804V102.8Z" fill="#14163A"/>
<path d="M105.68 99.3156C105.231 98.878 104.525 98.6408 103.567 98.6408C102.781 98.6408 102.165 98.7144 101.694 98.8044V106.812H102.666V103.561C102.891 103.626 103.156 103.634 103.453 103.634C104.402 103.634 105.235 103.34 105.756 102.747C106.14 102.326 106.341 101.745 106.341 101.013C106.341 100.281 106.086 99.7042 105.68 99.3156ZM103.472 102.8C103.153 102.8 102.883 102.776 102.666 102.71V99.5569C102.837 99.516 103.157 99.4751 103.586 99.4751C104.654 99.4751 105.364 99.9986 105.364 101.074C105.364 102.15 104.65 102.804 103.472 102.804V102.8Z" fill="#14163A"/>
<path d="M113.253 102.943V102.915C114.091 102.62 114.767 101.913 114.767 100.849C114.767 100.215 114.532 99.6633 114.139 99.3075C113.637 98.8535 112.913 98.6408 111.817 98.6408C111.105 98.6408 110.352 98.7103 109.826 98.8167V106.812H110.862V103.299H111.841C112.78 103.332 113.213 103.761 113.452 104.87C113.67 105.884 113.852 106.575 113.978 106.812H115.054C114.892 106.497 114.702 105.72 114.439 104.587C114.245 103.749 113.872 103.164 113.261 102.947L113.253 102.943ZM111.914 102.502H110.854V99.5406C111.028 99.4956 111.376 99.4465 111.877 99.4465C112.97 99.4465 113.723 99.9046 113.723 100.96C113.723 101.888 113.018 102.498 111.91 102.498L111.914 102.502Z" fill="#14163A"/>
<path d="M113.253 102.943V102.915C114.091 102.62 114.767 101.913 114.767 100.849C114.767 100.215 114.532 99.6633 114.139 99.3075C113.637 98.8535 112.913 98.6408 111.817 98.6408C111.105 98.6408 110.352 98.7103 109.826 98.8167V106.812H110.862V103.299H111.841C112.78 103.332 113.213 103.761 113.452 104.87C113.67 105.884 113.852 106.575 113.978 106.812H115.054C114.892 106.497 114.702 105.72 114.439 104.587C114.245 103.749 113.872 103.164 113.261 102.947L113.253 102.943ZM111.914 102.502H110.854V99.5406C111.028 99.4956 111.376 99.4465 111.877 99.4465C112.97 99.4465 113.723 99.9046 113.723 100.96C113.723 101.888 113.018 102.498 111.91 102.498L111.914 102.502Z" fill="#14163A"/>
<path d="M121.206 98.6408C119 98.6408 117.377 100.289 117.377 102.796C117.377 105.303 118.9 106.812 121.093 106.812C123.287 106.812 124.929 105.363 124.929 102.649C124.929 100.297 123.461 98.6408 121.206 98.6408ZM121.151 105.982C119.467 105.982 118.507 104.465 118.507 102.772C118.507 101.08 119.391 99.4711 121.164 99.4711C122.936 99.4711 123.799 101.116 123.799 102.693C123.799 104.489 122.848 105.982 121.151 105.982Z" fill="#14163A"/>
<path d="M121.206 98.6408C119 98.6408 117.377 100.289 117.377 102.796C117.377 105.303 118.9 106.812 121.093 106.812C123.287 106.812 124.929 105.363 124.929 102.649C124.929 100.297 123.461 98.6408 121.206 98.6408ZM121.151 105.982C119.467 105.982 118.507 104.465 118.507 102.772C118.507 101.08 119.391 99.4711 121.164 99.4711C122.936 99.4711 123.799 101.116 123.799 102.693C123.799 104.489 122.848 105.982 121.151 105.982Z" fill="#14163A"/>
<path d="M126.671 99.5313H129.061V106.812H130.082V99.5313H132.48V98.6408H126.671V99.5313Z" fill="#14163A"/>
<path d="M126.671 99.5313H129.061V106.812H130.082V99.5313H132.48V98.6408H126.671V99.5313Z" fill="#14163A"/>
<path d="M135.877 102.982H139.072V102.108H135.877V99.519H139.264V98.6408H134.804V106.812H139.451V105.934H135.877V102.982Z" fill="#14163A"/>
<path d="M135.877 102.982H139.072V102.108H135.877V99.519H139.264V98.6408H134.804V106.812H139.451V105.934H135.877V102.982Z" fill="#14163A"/>
<path d="M142.355 98.6408H143.189L144.679 96.8898H143.436L142.355 98.6408Z" fill="#14163A"/>
<path d="M142.355 98.6408H143.189L144.679 96.8898H143.436L142.355 98.6408Z" fill="#14163A"/>
<path d="M143.517 98.6408H142.936V106.812H143.517V98.6408Z" fill="#14163A"/>
<path d="M143.517 98.6408H142.936V106.812H143.517V98.6408Z" fill="#14163A"/>
<path d="M152.358 102.067C152.358 103.333 152.38 104.33 152.478 105.423L152.453 105.435C152.049 104.59 151.556 103.732 150.935 102.772L148.211 98.6408H147.002V106.812H148.036V103.316C148.036 101.964 148.018 100.978 147.954 99.9436L147.992 99.9313C148.417 100.822 148.988 101.754 149.575 102.669L152.277 106.812H153.392V98.6408H152.358V102.067Z" fill="#14163A"/>
<path d="M152.358 102.067C152.358 103.333 152.38 104.33 152.478 105.423L152.453 105.435C152.049 104.59 151.556 103.732 150.935 102.772L148.211 98.6408H147.002V106.812H148.036V103.316C148.036 101.964 148.018 100.978 147.954 99.9436L147.992 99.9313C148.417 100.822 148.988 101.754 149.575 102.669L152.277 106.812H153.392V98.6408H152.358V102.067Z" fill="#14163A"/>
<path d="M159.128 98.6408L156.296 106.812H157.41L158.271 104.244H161.225L162.115 106.812H163.267L160.422 98.6408H159.128ZM158.489 103.419L159.309 101.053C159.472 100.554 159.603 100.055 159.721 99.5767H159.749C159.871 100.047 159.998 100.533 160.178 101.069L161.002 103.419H158.485H158.489Z" fill="#14163A"/>
<path d="M159.128 98.6408L156.296 106.812H157.41L158.271 104.244H161.225L162.115 106.812H163.267L160.422 98.6408H159.128ZM158.489 103.419L159.309 101.053C159.472 100.554 159.603 100.055 159.721 99.5767H159.749C159.871 100.047 159.998 100.533 160.178 101.069L161.002 103.419H158.485H158.489Z" fill="#14163A"/>
<path d="M168.281 102.193C167.22 101.77 166.755 101.406 166.755 100.671C166.755 100.131 167.154 99.4879 168.207 99.4879C168.897 99.4879 169.412 99.7157 169.656 99.8635L169.931 99.0244C169.598 98.8286 169.017 98.6408 168.239 98.6408C166.744 98.6408 165.749 99.5559 165.749 100.791C165.749 101.897 166.527 102.581 167.778 103.036C168.812 103.436 169.23 103.867 169.23 104.603C169.23 105.406 168.634 105.953 167.619 105.953C166.938 105.953 166.291 105.725 165.85 105.442L165.59 106.297C166 106.58 166.81 106.812 167.549 106.812C169.369 106.812 170.237 105.741 170.237 104.527C170.237 103.312 169.582 102.721 168.277 102.193H168.281Z" fill="#14163A"/>
<path d="M168.281 102.193C167.22 101.77 166.755 101.406 166.755 100.671C166.755 100.131 167.154 99.4879 168.207 99.4879C168.897 99.4879 169.412 99.7157 169.656 99.8635L169.931 99.0244C169.598 98.8286 169.017 98.6408 168.239 98.6408C166.744 98.6408 165.749 99.5559 165.749 100.791C165.749 101.897 166.527 102.581 167.778 103.036C168.812 103.436 169.23 103.867 169.23 104.603C169.23 105.406 168.634 105.953 167.619 105.953C166.938 105.953 166.291 105.725 165.85 105.442L165.59 106.297C166 106.58 166.81 106.812 167.549 106.812C169.369 106.812 170.237 105.741 170.237 104.527C170.237 103.312 169.582 102.721 168.277 102.193H168.281Z" fill="#14163A"/>
<path d="M178.857 102.982H182.057V102.108H178.857V99.519H182.244V98.6408H177.788V106.812H182.435V105.934H178.857V102.982Z" fill="#14163A"/>
<path d="M178.857 102.982H182.057V102.108H178.857V99.519H182.244V98.6408H177.788V106.812H182.435V105.934H178.857V102.982Z" fill="#14163A"/>
<path d="M192.998 103.357H194.716V105.745C194.463 105.867 193.975 105.96 193.259 105.96C191.271 105.96 189.981 104.759 189.981 102.727C189.981 100.694 191.331 99.5097 193.392 99.5097C194.248 99.5097 194.814 99.6592 195.268 99.8532L195.542 99.0086C195.178 98.8429 194.399 98.6408 193.417 98.6408C190.573 98.6408 188.829 100.391 188.825 102.779C188.825 104.024 189.275 105.091 190.007 105.753C190.834 106.505 191.897 106.812 193.182 106.812C194.326 106.812 195.303 106.546 195.795 106.372V102.529H192.998V103.357Z" fill="#14163A"/>
<path d="M192.998 103.357H194.716V105.745C194.463 105.867 193.975 105.96 193.259 105.96C191.271 105.96 189.981 104.759 189.981 102.727C189.981 100.694 191.331 99.5097 193.392 99.5097C194.248 99.5097 194.814 99.6592 195.268 99.8532L195.542 99.0086C195.178 98.8429 194.399 98.6408 193.417 98.6408C190.573 98.6408 188.829 100.391 188.825 102.779C188.825 104.024 189.275 105.091 190.007 105.753C190.834 106.505 191.897 106.812 193.182 106.812C194.326 106.812 195.303 106.546 195.795 106.372V102.529H192.998V103.357Z" fill="#14163A"/>
<path d="M202.233 98.6408C200.197 98.6408 198.7 100.289 198.7 102.796C198.7 105.303 200.104 106.812 202.129 106.812C204.153 106.812 205.67 105.363 205.67 102.649C205.67 100.297 204.315 98.6408 202.233 98.6408ZM202.183 105.982C200.628 105.982 199.743 104.465 199.743 102.772C199.743 101.08 200.559 99.4711 202.194 99.4711C203.83 99.4711 204.627 101.116 204.627 102.693C204.627 104.489 203.749 105.982 202.183 105.982Z" fill="#14163A"/>
<path d="M202.233 98.6408C200.197 98.6408 198.7 100.289 198.7 102.796C198.7 105.303 200.104 106.812 202.129 106.812C204.153 106.812 205.67 105.363 205.67 102.649C205.67 100.297 204.315 98.6408 202.233 98.6408ZM202.183 105.982C200.628 105.982 199.743 104.465 199.743 102.772C199.743 101.08 200.559 99.4711 202.194 99.4711C203.83 99.4711 204.627 101.116 204.627 102.693C204.627 104.489 203.749 105.982 202.183 105.982Z" fill="#14163A"/>
<path d="M212.582 102.943V102.915C213.42 102.62 214.096 101.913 214.096 100.849C214.096 100.215 213.861 99.6633 213.469 99.3075C212.967 98.8535 212.243 98.6408 211.146 98.6408C210.434 98.6408 209.681 98.7103 209.155 98.8167V106.812H210.191V103.299H211.17C212.109 103.332 212.542 103.761 212.781 104.87C212.999 105.884 213.181 106.575 213.307 106.812H214.383C214.221 106.497 214.031 105.72 213.768 104.587C213.574 103.749 213.202 103.164 212.591 102.947L212.582 102.943ZM211.243 102.502H210.183V99.5406C210.357 99.4956 210.705 99.4465 211.207 99.4465C212.3 99.4465 213.052 99.9046 213.052 100.96C213.052 101.888 212.348 102.498 211.239 102.498L211.243 102.502Z" fill="#14163A"/>
<path d="M212.582 102.943V102.915C213.42 102.62 214.096 101.913 214.096 100.849C214.096 100.215 213.861 99.6633 213.469 99.3075C212.967 98.8535 212.243 98.6408 211.146 98.6408C210.434 98.6408 209.681 98.7103 209.155 98.8167V106.812H210.191V103.299H211.17C212.109 103.332 212.542 103.761 212.781 104.87C212.999 105.884 213.181 106.575 213.307 106.812H214.383C214.221 106.497 214.031 105.72 213.768 104.587C213.574 103.749 213.202 103.164 212.591 102.947L212.582 102.943ZM211.243 102.502H210.183V99.5406C210.357 99.4956 210.705 99.4465 211.207 99.4465C212.3 99.4465 213.052 99.9046 213.052 100.96C213.052 101.888 212.348 102.498 211.239 102.498L211.243 102.502Z" fill="#14163A"/>
<path d="M219.425 98.6408C218.632 98.6408 217.903 98.7097 217.288 98.8151V106.723C217.797 106.784 218.393 106.812 219.115 106.812C220.621 106.812 221.822 106.403 222.559 105.653C223.281 104.911 223.677 103.845 223.677 102.528C223.677 101.211 223.273 100.303 222.575 99.6541C221.896 98.9975 220.864 98.6449 219.425 98.6449V98.6408ZM219.307 105.973C218.923 105.973 218.55 105.965 218.299 105.925V99.5771C218.566 99.5204 218.958 99.4717 219.476 99.4717C221.594 99.4717 222.633 100.667 222.622 102.568C222.622 104.741 221.46 105.981 219.311 105.973H219.307Z" fill="#14163A"/>
<path d="M219.425 98.6408C218.632 98.6408 217.903 98.7097 217.288 98.8151V106.723C217.797 106.784 218.393 106.812 219.115 106.812C220.621 106.812 221.822 106.403 222.559 105.653C223.281 104.911 223.677 103.845 223.677 102.528C223.677 101.211 223.273 100.303 222.575 99.6541C221.896 98.9975 220.864 98.6449 219.425 98.6449V98.6408ZM219.307 105.973C218.923 105.973 218.55 105.965 218.299 105.925V99.5771C218.566 99.5204 218.958 99.4717 219.476 99.4717C221.594 99.4717 222.633 100.667 222.622 102.568C222.622 104.741 221.46 105.981 219.311 105.973H219.307Z" fill="#14163A"/>
<path d="M231.847 103.406C231.847 105.174 231.015 105.961 229.737 105.961C228.568 105.961 227.707 105.198 227.707 103.406V98.6408H226.582V103.377C226.582 105.875 227.92 106.812 229.689 106.812C231.57 106.812 232.971 105.802 232.971 103.333V98.6408H231.847V103.406Z" fill="#14163A"/>
<path d="M231.847 103.406C231.847 105.174 231.015 105.961 229.737 105.961C228.568 105.961 227.707 105.198 227.707 103.406V98.6408H226.582V103.377C226.582 105.875 227.92 106.812 229.689 106.812C231.57 106.812 232.971 105.802 232.971 103.333V98.6408H231.847V103.406Z" fill="#14163A"/>
<path d="M239.887 102.943V102.915C240.725 102.62 241.401 101.913 241.401 100.849C241.401 100.215 241.166 99.6633 240.77 99.3075C240.268 98.8535 239.544 98.6408 238.447 98.6408C237.735 98.6408 236.983 98.7103 236.457 98.8167V106.812H237.492V103.299H238.471C239.41 103.332 239.843 103.761 240.082 104.87C240.301 105.884 240.482 106.575 240.608 106.812H241.684C241.522 106.497 241.332 105.72 241.069 104.587C240.875 103.749 240.502 103.164 239.891 102.947L239.887 102.943ZM238.548 102.502H237.488V99.5406C237.662 99.4956 238.01 99.4465 238.512 99.4465C239.604 99.4465 240.357 99.9046 240.357 100.96C240.357 101.888 239.653 102.498 238.544 102.498L238.548 102.502Z" fill="#14163A"/>
<path d="M239.887 102.943V102.915C240.725 102.62 241.401 101.913 241.401 100.849C241.401 100.215 241.166 99.6633 240.77 99.3075C240.268 98.8535 239.544 98.6408 238.447 98.6408C237.735 98.6408 236.983 98.7103 236.457 98.8167V106.812H237.492V103.299H238.471C239.41 103.332 239.843 103.761 240.082 104.87C240.301 105.884 240.482 106.575 240.608 106.812H241.684C241.522 106.497 241.332 105.72 241.069 104.587C240.875 103.749 240.502 103.164 239.891 102.947L239.887 102.943ZM238.548 102.502H237.488V99.5406C237.662 99.4956 238.01 99.4465 238.512 99.4465C239.604 99.4465 240.357 99.9046 240.357 100.96C240.357 101.888 239.653 102.498 238.544 102.498L238.548 102.502Z" fill="#14163A"/>
<path d="M246.602 98.6408L244.008 106.812H245.031L245.821 104.244H248.526L249.342 106.812H250.397L247.791 98.6408H246.602ZM246.017 103.419L246.768 101.053C246.918 100.554 247.037 100.055 247.145 99.5767H247.171C247.283 100.047 247.398 100.533 247.564 101.069L248.318 103.419H246.013H246.017Z" fill="#14163A"/>
<path d="M246.602 98.6408L244.008 106.812H245.031L245.821 104.244H248.526L249.342 106.812H250.397L247.791 98.6408H246.602ZM246.017 103.419L246.768 101.053C246.918 100.554 247.037 100.055 247.145 99.5767H247.171C247.283 100.047 247.398 100.533 247.564 101.069L248.318 103.419H246.013H246.017Z" fill="#14163A"/>
<path d="M255.993 102.193C254.932 101.77 254.468 101.406 254.468 100.671C254.468 100.131 254.867 99.4879 255.92 99.4879C256.609 99.4879 257.124 99.7157 257.368 99.8635L257.643 99.0244C257.31 98.8286 256.729 98.6408 255.95 98.6408C254.455 98.6408 253.46 99.5559 253.46 100.791C253.46 101.897 254.239 102.581 255.49 103.036C256.524 103.436 256.942 103.867 256.942 104.603C256.942 105.406 256.346 105.953 255.331 105.953C254.65 105.953 254.003 105.725 253.561 105.442L253.302 106.297C253.712 106.58 254.522 106.812 255.261 106.812C257.081 106.812 257.949 105.741 257.949 104.527C257.949 103.312 257.294 102.721 255.989 102.193H255.993Z" fill="#14163A"/>
<path d="M255.993 102.193C254.932 101.77 254.468 101.406 254.468 100.671C254.468 100.131 254.867 99.4879 255.92 99.4879C256.609 99.4879 257.124 99.7157 257.368 99.8635L257.643 99.0244C257.31 98.8286 256.729 98.6408 255.95 98.6408C254.455 98.6408 253.46 99.5559 253.46 100.791C253.46 101.897 254.239 102.581 255.49 103.036C256.524 103.436 256.942 103.867 256.942 104.603C256.942 105.406 256.346 105.953 255.331 105.953C254.65 105.953 254.003 105.725 253.561 105.442L253.302 106.297C253.712 106.58 254.522 106.812 255.261 106.812C257.081 106.812 257.949 105.741 257.949 104.527C257.949 103.312 257.294 102.721 255.989 102.193H255.993Z" fill="#14163A"/>
<path d="M27.2505 32.1171H31.0127V44.686H22.895C21.9298 44.686 21.2707 45.6718 21.6347 46.5711L23.0132 50.0072C23.2217 50.5269 23.7208 50.8652 24.2729 50.8652H31.0127L29.708 69.6297C29.6344 70.7105 29.7124 71.7953 29.9619 72.8513C30.7226 76.0853 32.4933 81.9263 34.2641 87.5445C36.6034 94.9571 38.9467 101.986 38.9795 102.143C41.1838 100.975 43.2901 99.4946 45.2695 97.7044L45.6543 97.3579C47.8913 95.3366 50.2018 93.2411 52.2343 91.026C54.8231 88.1963 57.3219 85.1727 59.7348 82.2439L60.8105 80.9404C61.6571 79.9133 62.4832 78.8367 63.2929 77.7601L61.4277 50.8693H68.1679C68.72 50.8693 69.2191 50.5311 69.4277 50.0113L70.8061 46.5752C71.1701 45.6718 70.5115 44.6901 69.5464 44.6901H61.4277V32.1213H65.1943C65.681 32.1213 66.0781 31.7253 66.0781 31.2303V28.8831C66.0781 28.3923 65.681 27.9921 65.1943 27.9921H62.4956C61.5263 20.1629 55.1664 14.0291 47.2773 13.4969V1.188C47.2773 0.598123 46.8561 0.0618748 46.2754 0.00412498C46.2345 0.00412498 46.1979 0 46.1611 0C45.5436 0 45.0444 0.503248 45.0444 1.12612V13.4969C37.1553 14.0291 30.8005 20.167 29.8271 27.9921H27.2461C26.7594 27.9921 26.3632 28.3923 26.3632 28.8831V31.2303C26.3632 31.7211 26.7594 32.1213 27.2461 32.1213L27.2505 32.1171ZM52.0341 37.0382C52.0341 36.2875 52.635 35.6811 53.3794 35.6811H54.4223C55.1667 35.6811 55.7675 36.2875 55.7675 37.0382V39.769C55.7675 40.5197 55.1667 41.1261 54.4223 41.1261H53.3794C52.635 41.1261 52.0341 40.5197 52.0341 39.769V37.0382ZM44.3535 37.0382C44.3535 36.2875 44.9544 35.6811 45.6987 35.6811H46.7417C47.486 35.6811 48.0874 36.2875 48.0874 37.0382V39.769C48.0874 40.5197 47.486 41.1261 46.7417 41.1261H45.6987C44.9544 41.1261 44.3535 40.5197 44.3535 39.769V37.0382ZM36.6689 37.0382C36.6689 36.2875 37.2698 35.6811 38.0141 35.6811H39.0576C39.8019 35.6811 40.4028 36.2875 40.4028 37.0382V39.769C40.4028 40.5197 39.8019 41.1261 39.0576 41.1261H38.0141C37.2698 41.1261 36.6689 40.5197 36.6689 39.769V37.0382Z" fill="#14163A"/>
<path d="M27.2505 32.1171H31.0127V44.686H22.895C21.9298 44.686 21.2707 45.6718 21.6347 46.5711L23.0132 50.0072C23.2217 50.5269 23.7208 50.8652 24.2729 50.8652H31.0127L29.708 69.6297C29.6344 70.7105 29.7124 71.7953 29.9619 72.8513C30.7226 76.0853 32.4933 81.9263 34.2641 87.5445C36.6034 94.9571 38.9467 101.986 38.9795 102.143C41.1838 100.975 43.2901 99.4946 45.2695 97.7044L45.6543 97.3579C47.8913 95.3366 50.2018 93.2411 52.2343 91.026C54.8231 88.1963 57.3219 85.1727 59.7348 82.2439L60.8105 80.9404C61.6571 79.9133 62.4832 78.8367 63.2929 77.7601L61.4277 50.8693H68.1679C68.72 50.8693 69.2191 50.5311 69.4277 50.0113L70.8061 46.5752C71.1701 45.6718 70.5115 44.6901 69.5464 44.6901H61.4277V32.1213H65.1943C65.681 32.1213 66.0781 31.7253 66.0781 31.2303V28.8831C66.0781 28.3923 65.681 27.9921 65.1943 27.9921H62.4956C61.5263 20.1629 55.1664 14.0291 47.2773 13.4969V1.188C47.2773 0.598123 46.8561 0.0618748 46.2754 0.00412498C46.2345 0.00412498 46.1979 0 46.1611 0C45.5436 0 45.0444 0.503248 45.0444 1.12612V13.4969C37.1553 14.0291 30.8005 20.167 29.8271 27.9921H27.2461C26.7594 27.9921 26.3632 28.3923 26.3632 28.8831V31.2303C26.3632 31.7211 26.7594 32.1213 27.2461 32.1213L27.2505 32.1171ZM52.0341 37.0382C52.0341 36.2875 52.635 35.6811 53.3794 35.6811H54.4223C55.1667 35.6811 55.7675 36.2875 55.7675 37.0382V39.769C55.7675 40.5197 55.1667 41.1261 54.4223 41.1261H53.3794C52.635 41.1261 52.0341 40.5197 52.0341 39.769V37.0382ZM44.3535 37.0382C44.3535 36.2875 44.9544 35.6811 45.6987 35.6811H46.7417C47.486 35.6811 48.0874 36.2875 48.0874 37.0382V39.769C48.0874 40.5197 47.486 41.1261 46.7417 41.1261H45.6987C44.9544 41.1261 44.3535 40.5197 44.3535 39.769V37.0382ZM36.6689 37.0382C36.6689 36.2875 37.2698 35.6811 38.0141 35.6811H39.0576C39.8019 35.6811 40.4028 36.2875 40.4028 37.0382V39.769C40.4028 40.5197 39.8019 41.1261 39.0576 41.1261H38.0141C37.2698 41.1261 36.6689 40.5197 36.6689 39.769V37.0382Z" fill="#14163A"/>
<path d="M92.0727 63.7213C90.993 61.5528 89.4902 59.6771 88.3037 58.2836C86.8175 56.5398 85.0356 54.9773 82.9131 53.5386C80.3841 51.568 77.4982 49.8159 74.3042 48.3359L73.3066 50.6445C82.1292 54.7341 90.7258 62.2248 91.6372 71.9953C91.7644 75.3387 91.2311 78.7315 90.0405 82.0791C89.9009 82.4748 89.7609 82.8747 89.6255 83.2705L89.5971 83.3571C89.0388 84.9772 88.46 86.6551 87.6635 88.2052C86.1815 91.0869 84.5188 93.9479 82.7124 96.7142C81.3494 98.8043 79.8058 100.754 77.9008 103.034C76.1396 105.149 74.2798 107.14 72.5268 108.995C70.6794 110.949 68.7004 113.027 66.6025 115.006C64.558 116.935 62.4353 118.753 60.0747 120.757C59.1304 121.557 58.1206 122.303 57.1435 123.024L56.2939 123.651C55.8916 123.952 55.5259 124.146 55.1728 124.249C54.9142 124.327 54.5775 124.335 54.3271 124.278L53.1079 123.989C53.387 123.383 53.7527 122.81 54.1591 122.266C56.5978 118.997 59.1429 115.81 61.602 112.557C65.1491 107.862 68.3843 102.98 70.8886 97.6459C72.3338 94.5704 73.3929 91.429 73.3354 88.7535C73.3765 83.5755 71.5124 80.1332 67.8134 77.6349C67.3865 77.3464 67.1318 77.3793 66.7993 77.8534C65.8427 79.2098 64.8906 80.5661 63.8232 81.84C60.543 85.7605 57.3363 89.7594 53.8755 93.5233C51.6626 95.9268 49.2035 98.1241 46.769 100.317C43.8295 102.968 40.5285 105.091 36.7802 106.509C32.4531 108.146 28.3765 107.598 24.5009 105.215C22.0787 103.727 20.1083 101.764 18.4087 99.5257C15.7196 95.9927 13.4209 92.2164 11.5283 88.2258C9.3483 83.6415 7.3694 78.9624 5.30026 74.3245C4.69266 72.9682 4.28592 71.5129 3.4443 70.2679C3.40325 70.2102 3.31316 69.9917 3.19821 69.7073C2.98062 69.1548 2.87815 68.5612 2.92331 67.9716C3.94556 54.4414 13.9049 43.1414 27.3584 40.6555C27.8921 40.5566 28.4385 40.47 28.9804 40.3999L28.6645 37.9388C28.0815 38.013 27.49 38.1078 26.9111 38.215C12.0535 40.9606 1.13288 53.6334 0.406217 68.6725C0.0777825 69.3939 -0.0371684 70.272 0.0942054 71.2532C0.37748 73.4011 0.66949 75.3923 0.989713 77.3422C1.76564 82.0708 2.76721 86.3995 4.05221 90.5798C4.88151 93.2759 5.77217 96.1411 6.77389 98.9362C7.37329 100.606 8.0676 102.222 8.73678 103.788C8.97079 104.337 9.20443 104.885 9.43844 105.433C11.4214 110.158 13.5559 114.161 15.9658 117.673C18.7205 121.689 21.3808 124.649 24.3408 126.986C29.0292 130.692 33.9149 132.494 39.2807 132.494C39.9663 132.494 40.6683 132.461 41.3662 132.403C46.1326 131.983 50.1399 130.074 53.4243 128.26C54.0155 127.934 57.1349 126.145 57.7754 125.667L58.6176 125.044C59.6276 124.298 60.6702 123.531 61.6801 122.674C64.0695 120.646 66.2165 118.807 68.3061 116.836C70.4533 114.812 72.4609 112.706 74.333 110.727C76.1147 108.843 78.0036 106.819 79.81 104.65C81.7683 102.3 83.3652 100.284 84.7939 98.0952C86.6455 95.2548 88.3569 92.3195 89.8759 89.3595C90.7545 87.6528 91.3624 85.8883 91.9536 84.1692L91.978 84.095C92.1135 83.7034 92.2451 83.3158 92.3847 82.9283C92.8938 81.5019 93.2878 80.0672 93.5752 78.6285H93.6001C93.9942 76.9135 94.1664 75.1903 94.1377 73.4794C94.1459 72.9105 94.1457 72.3457 94.1211 71.7768C93.9979 68.9157 93.3083 66.2072 92.0766 63.7295L92.0727 63.7213Z" fill="#14163A"/>
<path d="M92.0727 63.7213C90.993 61.5528 89.4902 59.6771 88.3037 58.2836C86.8175 56.5398 85.0356 54.9773 82.9131 53.5386C80.3841 51.568 77.4982 49.8159 74.3042 48.3359L73.3066 50.6445C82.1292 54.7341 90.7258 62.2248 91.6372 71.9953C91.7644 75.3387 91.2311 78.7315 90.0405 82.0791C89.9009 82.4748 89.7609 82.8747 89.6255 83.2705L89.5971 83.3571C89.0388 84.9772 88.46 86.6551 87.6635 88.2052C86.1815 91.0869 84.5188 93.9479 82.7124 96.7142C81.3494 98.8043 79.8058 100.754 77.9008 103.034C76.1396 105.149 74.2798 107.14 72.5268 108.995C70.6794 110.949 68.7004 113.027 66.6025 115.006C64.558 116.935 62.4353 118.753 60.0747 120.757C59.1304 121.557 58.1206 122.303 57.1435 123.024L56.2939 123.651C55.8916 123.952 55.5259 124.146 55.1728 124.249C54.9142 124.327 54.5775 124.335 54.3271 124.278L53.1079 123.989C53.387 123.383 53.7527 122.81 54.1591 122.266C56.5978 118.997 59.1429 115.81 61.602 112.557C65.1491 107.862 68.3843 102.98 70.8886 97.6459C72.3338 94.5704 73.3929 91.429 73.3354 88.7535C73.3765 83.5755 71.5124 80.1332 67.8134 77.6349C67.3865 77.3464 67.1318 77.3793 66.7993 77.8534C65.8427 79.2098 64.8906 80.5661 63.8232 81.84C60.543 85.7605 57.3363 89.7594 53.8755 93.5233C51.6626 95.9268 49.2035 98.1241 46.769 100.317C43.8295 102.968 40.5285 105.091 36.7802 106.509C32.4531 108.146 28.3765 107.598 24.5009 105.215C22.0787 103.727 20.1083 101.764 18.4087 99.5257C15.7196 95.9927 13.4209 92.2164 11.5283 88.2258C9.3483 83.6415 7.3694 78.9624 5.30026 74.3245C4.69266 72.9682 4.28592 71.5129 3.4443 70.2679C3.40325 70.2102 3.31316 69.9917 3.19821 69.7073C2.98062 69.1548 2.87815 68.5612 2.92331 67.9716C3.94556 54.4414 13.9049 43.1414 27.3584 40.6555C27.8921 40.5566 28.4385 40.47 28.9804 40.3999L28.6645 37.9388C28.0815 38.013 27.49 38.1078 26.9111 38.215C12.0535 40.9606 1.13288 53.6334 0.406217 68.6725C0.0777825 69.3939 -0.0371684 70.272 0.0942054 71.2532C0.37748 73.4011 0.66949 75.3923 0.989713 77.3422C1.76564 82.0708 2.76721 86.3995 4.05221 90.5798C4.88151 93.2759 5.77217 96.1411 6.77389 98.9362C7.37329 100.606 8.0676 102.222 8.73678 103.788C8.97079 104.337 9.20443 104.885 9.43844 105.433C11.4214 110.158 13.5559 114.161 15.9658 117.673C18.7205 121.689 21.3808 124.649 24.3408 126.986C29.0292 130.692 33.9149 132.494 39.2807 132.494C39.9663 132.494 40.6683 132.461 41.3662 132.403C46.1326 131.983 50.1399 130.074 53.4243 128.26C54.0155 127.934 57.1349 126.145 57.7754 125.667L58.6176 125.044C59.6276 124.298 60.6702 123.531 61.6801 122.674C64.0695 120.646 66.2165 118.807 68.3061 116.836C70.4533 114.812 72.4609 112.706 74.333 110.727C76.1147 108.843 78.0036 106.819 79.81 104.65C81.7683 102.3 83.3652 100.284 84.7939 98.0952C86.6455 95.2548 88.3569 92.3195 89.8759 89.3595C90.7545 87.6528 91.3624 85.8883 91.9536 84.1692L91.978 84.095C92.1135 83.7034 92.2451 83.3158 92.3847 82.9283C92.8938 81.5019 93.2878 80.0672 93.5752 78.6285H93.6001C93.9942 76.9135 94.1664 75.1903 94.1377 73.4794C94.1459 72.9105 94.1457 72.3457 94.1211 71.7768C93.9979 68.9157 93.3083 66.2072 92.0766 63.7295L92.0727 63.7213Z" fill="#14163A"/>
</svg>
