<svg width="262" height="50" viewBox="0 0 262 50" fill="none" xmlns="http://www.w3.org/2000/svg">
<path d="M59.9762 4.42272L55.4852 4.44792L55.5223 11.1552L60.0133 11.13L59.9762 4.42272Z" fill="#14163A"/>
<path d="M59.9762 4.42272L55.4852 4.44792L55.5223 11.1552L60.0133 11.13L59.9762 4.42272Z" fill="#14163A"/>
<path d="M26.9273 25.0361L26.9517 29.4299L43.5687 29.3347C43.1987 31.5751 42.6175 33.6456 41.8287 35.5465C41.0359 37.4473 39.9055 39.1534 38.4337 40.6691C36.9618 42.1848 35.0672 43.3774 32.7455 44.2554C30.4239 45.1292 27.6387 45.5764 24.3819 45.593C18.4213 45.6261 13.8757 43.9199 10.7491 40.4703C7.62244 37.0207 6.04077 32.1548 6.00824 25.8685C5.97572 19.7106 7.61831 14.8571 10.9401 11.3081C14.2619 7.75908 18.9662 5.96596 25.0528 5.93283C29.322 5.90798 32.973 6.84802 36.0062 8.74469C39.0393 10.6455 41.0114 13.4657 41.9181 17.2051L46.9923 17.1762C46.6833 15.0269 45.9556 13.006 44.8009 11.1176C43.6503 9.22921 42.1171 7.55617 40.2062 6.10675C38.2952 4.6532 36.0591 3.5268 33.4976 2.72341C30.9361 1.92002 28.1105 1.5266 25.0245 1.54316C21.3489 1.56387 18.0108 2.17677 15.0142 3.37771C12.0177 4.57866 9.47239 6.28482 7.36628 8.49208C5.26422 10.6993 3.66238 13.2834 2.55646 16.2361C1.45054 19.1929 0.909911 22.4148 0.93024 25.9016C0.950569 29.5169 1.48302 32.8091 2.53607 35.7742C3.58913 38.7393 5.13417 41.2903 7.17524 43.4354C9.2163 45.5764 11.7167 47.208 14.6848 48.3344C17.6488 49.4567 21.0155 50.0116 24.7764 49.9868C29.131 49.9619 32.7618 49.1544 35.6729 47.5683C38.58 45.9822 41.2108 43.4561 43.5568 39.9982H43.6827L44.3656 48.7154L47.9804 48.6947L47.8502 24.9243L26.923 25.0444L26.9273 25.0361Z" fill="#14163A"/>
<path d="M26.9273 25.0361L26.9517 29.4299L43.5687 29.3347C43.1987 31.5751 42.6175 33.6456 41.8287 35.5465C41.0359 37.4473 39.9055 39.1534 38.4337 40.6691C36.9618 42.1848 35.0672 43.3774 32.7455 44.2554C30.4239 45.1292 27.6387 45.5764 24.3819 45.593C18.4213 45.6261 13.8757 43.9199 10.7491 40.4703C7.62244 37.0207 6.04077 32.1548 6.00824 25.8685C5.97572 19.7106 7.61831 14.8571 10.9401 11.3081C14.2619 7.75908 18.9662 5.96596 25.0528 5.93283C29.322 5.90798 32.973 6.84802 36.0062 8.74469C39.0393 10.6455 41.0114 13.4657 41.9181 17.2051L46.9923 17.1762C46.6833 15.0269 45.9556 13.006 44.8009 11.1176C43.6503 9.22921 42.1171 7.55617 40.2062 6.10675C38.2952 4.6532 36.0591 3.5268 33.4976 2.72341C30.9361 1.92002 28.1105 1.5266 25.0245 1.54316C21.3489 1.56387 18.0108 2.17677 15.0142 3.37771C12.0177 4.57866 9.47239 6.28482 7.36628 8.49208C5.26422 10.6993 3.66238 13.2834 2.55646 16.2361C1.45054 19.1929 0.909911 22.4148 0.93024 25.9016C0.950569 29.5169 1.48302 32.8091 2.53607 35.7742C3.58913 38.7393 5.13417 41.2903 7.17524 43.4354C9.2163 45.5764 11.7167 47.208 14.6848 48.3344C17.6488 49.4567 21.0155 50.0116 24.7764 49.9868C29.131 49.9619 32.7618 49.1544 35.6729 47.5683C38.58 45.9822 41.2108 43.4561 43.5568 39.9982H43.6827L44.3656 48.7154L47.9804 48.6947L47.8502 24.9243L26.923 25.0444L26.9273 25.0361Z" fill="#14163A"/>
<path d="M60.0441 16.6343L55.5531 16.6595L55.7294 48.3719L60.2203 48.3467L60.0441 16.6343Z" fill="#14163A"/>
<path d="M60.0441 16.6343L55.5531 16.6595L55.7294 48.3719L60.2203 48.3467L60.0441 16.6343Z" fill="#14163A"/>
<path d="M107.843 6.96833C105.522 4.93498 102.883 3.42343 99.9298 2.4254C96.9766 1.4315 93.8478 0.942827 90.5397 0.959392C87.2316 0.975957 84.1073 1.5019 81.1622 2.52893C78.2212 3.55595 75.5981 5.10063 73.2975 7.15882C70.9969 9.21701 69.1981 11.7804 67.901 14.8449C66.6039 17.9095 65.9634 21.4005 65.9879 25.3181C66.0083 29.2357 66.6857 32.7226 68.0155 35.7706C69.3494 38.8185 71.1726 41.3612 73.4977 43.3946C75.8187 45.4279 78.4578 46.9395 81.411 47.9375C84.3643 48.9314 87.4969 49.42 90.8051 49.4035C94.1132 49.3869 97.2377 48.861 100.183 47.834C103.124 46.8069 105.746 45.2622 108.047 43.2041C110.348 41.1459 112.147 38.5825 113.444 35.5179C114.741 32.4534 115.381 28.9624 115.361 25.0448C115.341 21.1272 114.664 17.6403 113.33 14.5923C112 11.5444 110.172 9.00167 107.847 6.96833H107.843ZM108.72 33.8987C107.672 36.4249 106.232 38.5079 104.396 40.1561C102.561 41.8043 100.481 43.0219 98.1515 43.8087C95.8223 44.5997 93.3667 44.9972 90.7765 45.0138C88.1904 45.0262 85.7266 44.6452 83.3893 43.8625C81.052 43.0798 78.9553 41.883 77.1034 40.2804C75.2515 38.6777 73.7831 36.6154 72.7103 34.1058C71.6375 31.5921 71.0908 28.6559 71.0704 25.2974C71.05 21.9389 71.5682 18.9986 72.6124 16.4724C73.6607 13.9463 75.1008 11.8633 76.9364 10.215C78.772 8.56684 80.8562 7.34931 83.1813 6.56248C85.5104 5.77565 87.9658 5.37394 90.556 5.35738C93.1422 5.34081 95.6062 5.71767 97.9435 6.47966C100.281 7.24164 102.377 8.43432 104.229 10.0618C106.081 11.6893 107.55 13.7558 108.622 16.2695C109.695 18.7832 110.242 21.7194 110.262 25.0779C110.278 28.4365 109.765 31.3767 108.72 33.9029V33.8987Z" fill="#14163A"/>
<path d="M107.843 6.96833C105.522 4.93498 102.883 3.42343 99.9298 2.4254C96.9766 1.4315 93.8478 0.942827 90.5397 0.959392C87.2316 0.975957 84.1073 1.5019 81.1622 2.52893C78.2212 3.55595 75.5981 5.10063 73.2975 7.15882C70.9969 9.21701 69.1981 11.7804 67.901 14.8449C66.6039 17.9095 65.9634 21.4005 65.9879 25.3181C66.0083 29.2357 66.6857 32.7226 68.0155 35.7706C69.3494 38.8185 71.1726 41.3612 73.4977 43.3946C75.8187 45.4279 78.4578 46.9395 81.411 47.9375C84.3643 48.9314 87.4969 49.42 90.8051 49.4035C94.1132 49.3869 97.2377 48.861 100.183 47.834C103.124 46.8069 105.746 45.2622 108.047 43.2041C110.348 41.1459 112.147 38.5825 113.444 35.5179C114.741 32.4534 115.381 28.9624 115.361 25.0448C115.341 21.1272 114.664 17.6403 113.33 14.5923C112 11.5444 110.172 9.00167 107.847 6.96833H107.843ZM108.72 33.8987C107.672 36.4249 106.232 38.5079 104.396 40.1561C102.561 41.8043 100.481 43.0219 98.1515 43.8087C95.8223 44.5997 93.3667 44.9972 90.7765 45.0138C88.1904 45.0262 85.7266 44.6452 83.3893 43.8625C81.052 43.0798 78.9553 41.883 77.1034 40.2804C75.2515 38.6777 73.7831 36.6154 72.7103 34.1058C71.6375 31.5921 71.0908 28.6559 71.0704 25.2974C71.05 21.9389 71.5682 18.9986 72.6124 16.4724C73.6607 13.9463 75.1008 11.8633 76.9364 10.215C78.772 8.56684 80.8562 7.34931 83.1813 6.56248C85.5104 5.77565 87.9658 5.37394 90.556 5.35738C93.1422 5.34081 95.6062 5.71767 97.9435 6.47966C100.281 7.24164 102.377 8.43432 104.229 10.0618C106.081 11.6893 107.55 13.7558 108.622 16.2695C109.695 18.7832 110.242 21.7194 110.262 25.0779C110.278 28.4365 109.765 31.3767 108.72 33.9029V33.8987Z" fill="#14163A"/>
<path d="M164.11 44.5408C163.23 44.545 162.597 44.2842 162.216 43.7545C161.831 43.2248 161.636 42.3061 161.628 40.9984L161.539 24.3248C161.522 21.1383 160.395 18.7753 158.164 17.2358C155.934 15.6963 152.276 14.939 147.19 14.968C142.104 14.9969 138.446 15.9281 136.212 17.7572C133.981 19.5864 132.692 22.2805 132.351 25.8395L136.435 25.8147C136.581 23.3192 137.502 21.5273 139.201 20.4348C140.896 19.3422 143.528 18.7877 147.093 18.767C150.775 18.7463 153.423 19.2015 155.029 20.1326C156.635 21.0638 157.447 22.6736 157.459 24.9621C157.463 25.8188 157.345 26.4727 157.11 26.9279C156.875 27.379 156.396 27.7473 155.674 28.037C154.957 28.3267 153.906 28.5584 152.523 28.7281C151.144 28.8978 149.153 29.0716 146.549 29.2537C144.388 29.3902 142.465 29.593 140.786 29.8661C139.107 30.1393 137.518 30.6193 136.017 31.3021C134.521 31.985 133.312 32.9823 132.4 34.2942C131.487 35.6061 131.033 37.2863 131.045 39.3306C131.053 41.048 131.422 42.5172 132.152 43.738C132.878 44.9588 133.848 45.9437 135.052 46.6928C136.257 47.4418 137.562 47.9881 138.966 48.3233C140.369 48.6627 141.792 48.8282 143.232 48.8199C145.633 48.8075 147.697 48.5799 149.417 48.1412C151.136 47.7026 152.543 47.1397 153.642 46.461C154.742 45.7824 155.577 45.1243 156.157 44.487C156.733 43.8497 157.28 43.1421 157.796 42.364H157.917C157.921 43.1379 157.974 43.8456 158.079 44.4746C158.185 45.1078 158.396 45.6913 158.72 46.2169C159.045 46.7466 159.535 47.1728 160.2 47.4956C160.861 47.8184 161.713 47.9798 162.755 47.9715C163.635 47.9674 164.815 47.8184 166.3 47.5205C166.381 47.4791 166.438 47.4584 166.478 47.4584L166.462 44.396C165.42 44.4829 164.641 44.5284 164.118 44.5326L164.11 44.5408ZM156.396 39.6534C155.642 40.9032 154.628 41.9502 153.35 42.7944C152.073 43.6387 150.666 44.2801 149.125 44.7188C147.588 45.1575 146.055 45.3809 144.534 45.3892C141.853 45.4058 139.675 44.9257 138.008 43.9573C136.342 42.9848 135.502 41.3336 135.49 39.0078C135.478 37.1704 136.163 35.7881 137.538 34.8611C138.913 33.9342 140.944 33.3382 143.625 33.0817L144.647 32.9534C149.169 32.5188 152.223 32.1629 153.805 31.8898C155.382 31.6167 156.615 31.1904 157.491 30.611L157.52 35.4529C157.528 37.0048 157.154 38.4077 156.4 39.6575L156.396 39.6534Z" fill="#14163A"/>
<path d="M164.11 44.5408C163.23 44.545 162.597 44.2842 162.216 43.7545C161.831 43.2248 161.636 42.3061 161.628 40.9984L161.539 24.3248C161.522 21.1383 160.395 18.7753 158.164 17.2358C155.934 15.6963 152.276 14.939 147.19 14.968C142.104 14.9969 138.446 15.9281 136.212 17.7572C133.981 19.5864 132.692 22.2805 132.351 25.8395L136.435 25.8147C136.581 23.3192 137.502 21.5273 139.201 20.4348C140.896 19.3422 143.528 18.7877 147.093 18.767C150.775 18.7463 153.423 19.2015 155.029 20.1326C156.635 21.0638 157.447 22.6736 157.459 24.9621C157.463 25.8188 157.345 26.4727 157.11 26.9279C156.875 27.379 156.396 27.7473 155.674 28.037C154.957 28.3267 153.906 28.5584 152.523 28.7281C151.144 28.8978 149.153 29.0716 146.549 29.2537C144.388 29.3902 142.465 29.593 140.786 29.8661C139.107 30.1393 137.518 30.6193 136.017 31.3021C134.521 31.985 133.312 32.9823 132.4 34.2942C131.487 35.6061 131.033 37.2863 131.045 39.3306C131.053 41.048 131.422 42.5172 132.152 43.738C132.878 44.9588 133.848 45.9437 135.052 46.6928C136.257 47.4418 137.562 47.9881 138.966 48.3233C140.369 48.6627 141.792 48.8282 143.232 48.8199C145.633 48.8075 147.697 48.5799 149.417 48.1412C151.136 47.7026 152.543 47.1397 153.642 46.461C154.742 45.7824 155.577 45.1243 156.157 44.487C156.733 43.8497 157.28 43.1421 157.796 42.364H157.917C157.921 43.1379 157.974 43.8456 158.079 44.4746C158.185 45.1078 158.396 45.6913 158.72 46.2169C159.045 46.7466 159.535 47.1728 160.2 47.4956C160.861 47.8184 161.713 47.9798 162.755 47.9715C163.635 47.9674 164.815 47.8184 166.3 47.5205C166.381 47.4791 166.438 47.4584 166.478 47.4584L166.462 44.396C165.42 44.4829 164.641 44.5284 164.118 44.5326L164.11 44.5408ZM156.396 39.6534C155.642 40.9032 154.628 41.9502 153.35 42.7944C152.073 43.6387 150.666 44.2801 149.125 44.7188C147.588 45.1575 146.055 45.3809 144.534 45.3892C141.853 45.4058 139.675 44.9257 138.008 43.9573C136.342 42.9848 135.502 41.3336 135.49 39.0078C135.478 37.1704 136.163 35.7881 137.538 34.8611C138.913 33.9342 140.944 33.3382 143.625 33.0817L144.647 32.9534C149.169 32.5188 152.223 32.1629 153.805 31.8898C155.382 31.6167 156.615 31.1904 157.491 30.611L157.52 35.4529C157.528 37.0048 157.154 38.4077 156.4 39.6575L156.396 39.6534Z" fill="#14163A"/>
<path d="M195.411 32.3138C193.414 31.0967 189.877 30.1569 184.803 29.4904C182.309 29.1758 180.313 28.8818 178.822 28.6045C177.33 28.3271 176.173 28.0166 175.346 27.673C174.518 27.3294 173.944 26.8947 173.618 26.3648C173.292 25.8349 173.129 25.1435 173.125 24.2824C173.116 23.2185 173.357 22.3284 173.834 21.6122C174.31 20.8919 174.975 20.3288 175.814 19.9148C176.658 19.5009 177.611 19.2111 178.675 19.0413C179.743 18.8716 180.896 18.7847 182.143 18.7764C185.521 18.7557 188.031 19.2235 189.665 20.1715C191.299 21.1237 192.403 22.8459 192.982 25.334L197.085 25.3091C196.784 21.8358 195.451 19.24 193.088 17.5137C190.724 15.7915 187.069 14.9428 182.118 14.9677C177.693 14.9925 174.335 15.8702 172.053 17.6007C169.767 19.3311 168.634 21.6246 168.651 24.4894C168.667 27.3087 169.661 29.3786 171.641 30.6993C173.622 32.0157 177.045 32.9058 181.919 33.3695C184.372 33.6013 186.377 33.8663 187.929 34.1643C189.478 34.4624 190.7 34.8226 191.588 35.249C192.477 35.6754 193.092 36.1722 193.438 36.7393C193.785 37.3106 193.96 38.0227 193.964 38.8838C193.976 41.1318 193.088 42.7132 191.303 43.6198C189.518 44.5306 186.935 44.9943 183.553 45.015C179.531 45.0398 176.658 44.5223 174.942 43.4667C173.227 42.4151 172.159 40.5605 171.743 37.9068L167.64 37.9316C167.66 41.6492 169.042 44.4023 171.788 46.1866C174.535 47.9708 178.463 48.8485 183.573 48.8195C188.442 48.7905 192.138 47.8839 194.665 46.0913C197.191 44.2988 198.442 41.8107 198.426 38.6189C198.41 35.634 197.403 33.5351 195.406 32.3221L195.411 32.3138Z" fill="#14163A"/>
<path d="M195.411 32.3138C193.414 31.0967 189.877 30.1569 184.803 29.4904C182.309 29.1758 180.313 28.8818 178.822 28.6045C177.33 28.3271 176.173 28.0166 175.346 27.673C174.518 27.3294 173.944 26.8947 173.618 26.3648C173.292 25.8349 173.129 25.1435 173.125 24.2824C173.116 23.2185 173.357 22.3284 173.834 21.6122C174.31 20.8919 174.975 20.3288 175.814 19.9148C176.658 19.5009 177.611 19.2111 178.675 19.0413C179.743 18.8716 180.896 18.7847 182.143 18.7764C185.521 18.7557 188.031 19.2235 189.665 20.1715C191.299 21.1237 192.403 22.8459 192.982 25.334L197.085 25.3091C196.784 21.8358 195.451 19.24 193.088 17.5137C190.724 15.7915 187.069 14.9428 182.118 14.9677C177.693 14.9925 174.335 15.8702 172.053 17.6007C169.767 19.3311 168.634 21.6246 168.651 24.4894C168.667 27.3087 169.661 29.3786 171.641 30.6993C173.622 32.0157 177.045 32.9058 181.919 33.3695C184.372 33.6013 186.377 33.8663 187.929 34.1643C189.478 34.4624 190.7 34.8226 191.588 35.249C192.477 35.6754 193.092 36.1722 193.438 36.7393C193.785 37.3106 193.96 38.0227 193.964 38.8838C193.976 41.1318 193.088 42.7132 191.303 43.6198C189.518 44.5306 186.935 44.9943 183.553 45.015C179.531 45.0398 176.658 44.5223 174.942 43.4667C173.227 42.4151 172.159 40.5605 171.743 37.9068L167.64 37.9316C167.66 41.6492 169.042 44.4023 171.788 46.1866C174.535 47.9708 178.463 48.8485 183.573 48.8195C188.442 48.7905 192.138 47.8839 194.665 46.0913C197.191 44.2988 198.442 41.8107 198.426 38.6189C198.41 35.634 197.403 33.5351 195.406 32.3221L195.411 32.3138Z" fill="#14163A"/>
<path d="M125.599 4.06191L121.107 4.08712L121.351 47.9954L125.842 47.9702L125.599 4.06191Z" fill="#14163A"/>
<path d="M125.599 4.06191L121.107 4.08712L121.351 47.9954L125.842 47.9702L125.599 4.06191Z" fill="#14163A"/>
<path d="M235.756 24.0386C234.714 21.7149 233.334 19.8917 231.61 18.5772C229.891 17.2628 227.999 16.3268 225.937 15.7774C223.878 15.2239 221.738 14.9553 219.52 14.9676C216.698 14.9838 214.198 15.4396 212.026 16.3349C209.853 17.2302 208.064 18.4552 206.663 20.0097C205.258 21.5643 204.212 23.3386 203.518 25.3286C202.823 27.3227 202.48 29.4429 202.493 31.6934C202.505 33.7445 202.819 35.7385 203.432 37.6838C204.049 39.629 205.037 41.4034 206.397 43.0027C207.757 44.602 209.55 45.8799 211.772 46.8322C213.998 47.7844 216.641 48.2524 219.704 48.2361C222.204 48.2239 224.421 47.9065 226.353 47.2961C228.285 46.6816 229.927 45.8595 231.271 44.8259C232.615 43.7922 233.722 42.6324 234.579 41.3423C235.437 40.0523 236.107 38.6605 236.581 37.171L232.104 37.1955C231.312 39.6494 229.952 41.4766 228.02 42.6731C226.092 43.8695 223.311 44.48 219.684 44.4962C215.812 44.5166 212.732 43.4097 210.441 41.1714C208.149 38.9332 206.994 36.1252 206.977 32.7515L237.345 32.5806C237.324 29.2069 236.797 26.3542 235.756 24.0304V24.0386ZM206.961 29.3819C207.194 27.5343 207.717 25.9228 208.537 24.5513C209.358 23.1799 210.359 22.0689 211.544 21.2184C212.728 20.3679 214.035 19.7371 215.464 19.326C216.894 18.915 218.356 18.7075 219.847 18.6993C223.115 18.6831 225.859 19.4685 228.085 21.0637C229.302 21.9387 230.315 23.0497 231.128 24.3926C231.941 25.7356 232.517 27.3471 232.848 29.2354L206.957 29.3778L206.961 29.3819Z" fill="#14163A"/>
<path d="M235.756 24.0386C234.714 21.7149 233.334 19.8917 231.61 18.5772C229.891 17.2628 227.999 16.3268 225.937 15.7774C223.878 15.2239 221.738 14.9553 219.52 14.9676C216.698 14.9838 214.198 15.4396 212.026 16.3349C209.853 17.2302 208.064 18.4552 206.663 20.0097C205.258 21.5643 204.212 23.3386 203.518 25.3286C202.823 27.3227 202.48 29.4429 202.493 31.6934C202.505 33.7445 202.819 35.7385 203.432 37.6838C204.049 39.629 205.037 41.4034 206.397 43.0027C207.757 44.602 209.55 45.8799 211.772 46.8322C213.998 47.7844 216.641 48.2524 219.704 48.2361C222.204 48.2239 224.421 47.9065 226.353 47.2961C228.285 46.6816 229.927 45.8595 231.271 44.8259C232.615 43.7922 233.722 42.6324 234.579 41.3423C235.437 40.0523 236.107 38.6605 236.581 37.171L232.104 37.1955C231.312 39.6494 229.952 41.4766 228.02 42.6731C226.092 43.8695 223.311 44.48 219.684 44.4962C215.812 44.5166 212.732 43.4097 210.441 41.1714C208.149 38.9332 206.994 36.1252 206.977 32.7515L237.345 32.5806C237.324 29.2069 236.797 26.3542 235.756 24.0304V24.0386ZM206.961 29.3819C207.194 27.5343 207.717 25.9228 208.537 24.5513C209.358 23.1799 210.359 22.0689 211.544 21.2184C212.728 20.3679 214.035 19.7371 215.464 19.326C216.894 18.915 218.356 18.7075 219.847 18.6993C223.115 18.6831 225.859 19.4685 228.085 21.0637C229.302 21.9387 230.315 23.0497 231.128 24.3926C231.941 25.7356 232.517 27.3471 232.848 29.2354L206.957 29.3778L206.961 29.3819Z" fill="#14163A"/>
<path d="M259.075 14.3835C257.316 14.3918 255.764 14.6383 254.426 15.123C253.089 15.6076 251.958 16.2511 251.046 17.0616C250.13 17.8721 249.373 18.7537 248.781 19.7063C248.185 20.6588 247.65 21.695 247.176 22.8105H247.055L247.014 15.4489L242.572 15.4739L242.747 47.6529L247.188 47.6278L247.099 31.2292C247.087 29.0441 247.387 27.1514 247.999 25.5596C248.611 23.9678 249.434 22.6935 250.471 21.7409C251.509 20.7842 252.643 20.0864 253.883 19.6478C255.119 19.2091 256.38 18.9835 257.66 18.9751C259.022 18.9667 260.38 19.0837 261.741 19.3219L261.717 14.6174C260.833 14.4587 259.954 14.3793 259.075 14.3877V14.3835Z" fill="#14163A"/>
<path d="M259.075 14.3835C257.316 14.3918 255.764 14.6383 254.426 15.123C253.089 15.6076 251.958 16.2511 251.046 17.0616C250.13 17.8721 249.373 18.7537 248.781 19.7063C248.185 20.6588 247.65 21.695 247.176 22.8105H247.055L247.014 15.4489L242.572 15.4739L242.747 47.6529L247.188 47.6278L247.099 31.2292C247.087 29.0441 247.387 27.1514 247.999 25.5596C248.611 23.9678 249.434 22.6935 250.471 21.7409C251.509 20.7842 252.643 20.0864 253.883 19.6478C255.119 19.2091 256.38 18.9835 257.66 18.9751C259.022 18.9667 260.38 19.0837 261.741 19.3219L261.717 14.6174C260.833 14.4587 259.954 14.3793 259.075 14.3877V14.3835Z" fill="#14163A"/>
</svg>
