<svg width="230" height="74" viewBox="0 0 230 74" fill="none" xmlns="http://www.w3.org/2000/svg">
<path d="M41.2835 27.25C42.0799 27.7855 43.1403 27.8305 43.9854 27.3644L55.1059 21.2405C56.6824 20.3739 56.7718 18.2521 55.2725 17.271L30.9065 1.29075C30.0411 0.722507 28.8913 0.730684 28.034 1.3071L3.36735 17.9578C1.84778 18.9839 2.01842 21.1629 3.67614 21.9682L14.9917 27.4585C15.8368 27.8673 16.8525 27.7896 17.6123 27.2582L27.774 20.1613C28.6434 19.5562 29.8217 19.544 30.7034 20.1368L41.2795 27.25H41.2835Z" fill="#14163A"/>
<path d="M41.2835 27.25C42.0799 27.7855 43.1403 27.8305 43.9854 27.3644L55.1059 21.2405C56.6824 20.3739 56.7718 18.2521 55.2725 17.271L30.9065 1.29075C30.0411 0.722507 28.8913 0.730684 28.034 1.3071L3.36735 17.9578C1.84778 18.9839 2.01842 21.1629 3.67614 21.9682L14.9917 27.4585C15.8368 27.8673 16.8525 27.7896 17.6123 27.2582L27.774 20.1613C28.6434 19.5562 29.8217 19.544 30.7034 20.1368L41.2795 27.25H41.2835Z" fill="#14163A"/>
<path d="M58.4638 38.3356L46.3992 32.6335C45.4393 32.1821 44.2825 32.3643 43.5359 33.089L35.8607 40.5014C34.7203 41.6029 34.9992 43.4332 36.4227 44.1827L45.0824 48.7503L31.8979 57.1565C31.2047 57.5996 30.7862 58.3409 30.7862 59.1359V71.4389C30.7862 73.3355 33.0055 74.4743 34.6792 73.4349L58.6894 58.5686C59.3991 58.1297 59.8299 57.376 59.8299 56.5727V40.431C59.8299 39.5448 59.3007 38.7332 58.4638 38.3356Z" fill="#14163A"/>
<path d="M58.4638 38.3356L46.3992 32.6335C45.4393 32.1821 44.2825 32.3643 43.5359 33.089L35.8607 40.5014C34.7203 41.6029 34.9992 43.4332 36.4227 44.1827L45.0824 48.7503L31.8979 57.1565C31.2047 57.5996 30.7862 58.3409 30.7862 59.1359V71.4389C30.7862 73.3355 33.0055 74.4743 34.6792 73.4349L58.6894 58.5686C59.3991 58.1297 59.8299 57.376 59.8299 56.5727V40.431C59.8299 39.5448 59.3007 38.7332 58.4638 38.3356Z" fill="#14163A"/>
<path d="M27.9524 56.8612L16.0068 49.1605C15.3217 48.7191 14.9074 47.985 14.9074 47.1971V30.8305C14.9074 29.9437 14.3823 29.127 13.5455 28.7187L3.67558 23.9011C2.00188 23.0844 0 24.2311 0 26.0129V54.671C0 55.4382 0.393812 56.16 1.05427 56.6055L25.0645 72.7989C26.73 73.9208 29.0436 72.7989 29.0436 70.8644V58.8245C29.0436 58.0409 28.6334 57.3067 27.9442 56.8612H27.9524Z" fill="#14163A"/>
<path d="M27.9524 56.8612L16.0068 49.1605C15.3217 48.7191 14.9074 47.985 14.9074 47.1971V30.8305C14.9074 29.9437 14.3823 29.127 13.5455 28.7187L3.67558 23.9011C2.00188 23.0844 0 24.2311 0 26.0129V54.671C0 55.4382 0.393812 56.16 1.05427 56.6055L25.0645 72.7989C26.73 73.9208 29.0436 72.7989 29.0436 70.8644V58.8245C29.0436 58.0409 28.6334 57.3067 27.9442 56.8612H27.9524Z" fill="#14163A"/>
<path d="M97.8946 32.9717H86.2227L80.7413 59.237H86.5873L88.3821 50.1145H95.2532C102.262 50.1145 106.881 47.1408 106.881 40.8973C106.881 35.8466 103.169 32.9717 97.8946 32.9717ZM95.1235 45.3558H89.399L91.0155 37.6975H96.3632C99.5273 37.6975 100.885 38.9807 100.889 41.1729C100.893 44.1959 98.6927 45.3558 95.1235 45.3558Z" fill="#14163A"/>
<path d="M97.8946 32.9717H86.2227L80.7413 59.237H86.5873L88.3821 50.1145H95.2532C102.262 50.1145 106.881 47.1408 106.881 40.8973C106.881 35.8466 103.169 32.9717 97.8946 32.9717ZM95.1235 45.3558H89.399L91.0155 37.6975H96.3632C99.5273 37.6975 100.885 38.9807 100.889 41.1729C100.893 44.1959 98.6927 45.3558 95.1235 45.3558Z" fill="#14163A"/>
<path d="M198.07 43.3057C200.601 43.3057 201.394 44.4682 201.529 45.6307H207.371C207.273 43.3016 205.436 39.3921 198.23 39.3921C192.466 39.3921 189.471 42.2135 189.471 45.8334C189.471 48.2287 190.679 50.2145 196.435 51.5384C199.565 52.2458 200.502 52.7794 200.502 53.9337C200.502 55.3444 198.797 55.7829 197.293 55.7829C194.886 55.7829 193.62 54.9597 193.365 53.2718H187.622C187.811 57.777 191.693 59.8207 196.899 59.8207C203.094 59.8207 206.529 57.144 206.529 53.1435C206.529 50.2311 204.923 48.3984 199.228 47.0373C196.418 46.3712 195.457 45.8831 195.457 44.8902C195.457 43.6615 196.833 43.3016 198.07 43.3016V43.3057Z" fill="#14163A"/>
<path d="M198.07 43.3057C200.601 43.3057 201.394 44.4682 201.529 45.6307H207.371C207.273 43.3016 205.436 39.3921 198.23 39.3921C192.466 39.3921 189.471 42.2135 189.471 45.8334C189.471 48.2287 190.679 50.2145 196.435 51.5384C199.565 52.2458 200.502 52.7794 200.502 53.9337C200.502 55.3444 198.797 55.7829 197.293 55.7829C194.886 55.7829 193.62 54.9597 193.365 53.2718H187.622C187.811 57.777 191.693 59.8207 196.899 59.8207C203.094 59.8207 206.529 57.144 206.529 53.1435C206.529 50.2311 204.923 48.3984 199.228 47.0373C196.418 46.3712 195.457 45.8831 195.457 44.8902C195.457 43.6615 196.833 43.3016 198.07 43.3016V43.3057Z" fill="#14163A"/>
<path d="M180.725 39.3921C177.056 39.3921 175.137 41.1036 174.089 42.4398C174.222 41.7799 174.411 40.4726 174.468 39.9158H168.871C168.589 41.417 168.254 43.1573 167.923 44.7905L164.968 59.237H170.637L172.516 49.9084C173.282 46.1638 174.939 44.0646 177.794 44.0646C180.649 44.0646 180.786 45.9576 180.338 48.168L178.072 59.237H183.774L186.169 47.702C187.35 41.8912 184.818 39.3921 180.721 39.3921H180.725Z" fill="#14163A"/>
<path d="M180.725 39.3921C177.056 39.3921 175.137 41.1036 174.089 42.4398C174.222 41.7799 174.411 40.4726 174.468 39.9158H168.871C168.589 41.417 168.254 43.1573 167.923 44.7905L164.968 59.237H170.637L172.516 49.9084C173.282 46.1638 174.939 44.0646 177.794 44.0646C180.649 44.0646 180.786 45.9576 180.338 48.168L178.072 59.237H183.774L186.169 47.702C187.35 41.8912 184.818 39.3921 180.721 39.3921H180.725Z" fill="#14163A"/>
<path d="M220.325 39.3921C212.198 39.3921 208.533 45.6584 208.533 50.9899C208.533 55.8127 211.32 59.8207 217.736 59.8207C223.767 59.8207 226.905 56.8467 228.199 53.5461H222.159C221.376 54.6835 220.42 55.3784 218.193 55.3784C215.423 55.3784 214.268 53.6702 214.268 51.5069C214.268 51.3622 214.272 51.0644 214.276 50.9651H228.954C229.337 49.7325 229.445 48.8143 229.445 47.6644C229.445 43.1353 226.699 39.3962 220.321 39.3962L220.325 39.3921ZM223.875 47.2756H215.13C215.711 45.1165 217.282 43.5407 220.024 43.5407C222.613 43.5407 223.879 44.8477 223.879 46.8827C223.879 47.0357 223.875 47.2094 223.875 47.2798V47.2756Z" fill="#14163A"/>
<path d="M220.325 39.3921C212.198 39.3921 208.533 45.6584 208.533 50.9899C208.533 55.8127 211.32 59.8207 217.736 59.8207C223.767 59.8207 226.905 56.8467 228.199 53.5461H222.159C221.376 54.6835 220.42 55.3784 218.193 55.3784C215.423 55.3784 214.268 53.6702 214.268 51.5069C214.268 51.3622 214.272 51.0644 214.276 50.9651H228.954C229.337 49.7325 229.445 48.8143 229.445 47.6644C229.445 43.1353 226.699 39.3962 220.321 39.3962L220.325 39.3921ZM223.875 47.2756H215.13C215.711 45.1165 217.282 43.5407 220.024 43.5407C222.613 43.5407 223.879 44.8477 223.879 46.8827C223.879 47.0357 223.875 47.2094 223.875 47.2798V47.2756Z" fill="#14163A"/>
<path d="M118.778 39.4003C111.593 39.4003 109.453 42.7217 108.783 45.5508H114.771C115.252 44.1652 116.394 43.4166 118.645 43.4166C121.517 43.4166 122.283 44.7484 121.923 46.3409L121.84 46.7214C120.495 46.7545 118.385 46.7876 116.874 46.9365C111.974 47.3956 106.3 48.5702 106.3 54.1624C106.3 56.6027 107.823 59.8207 112.864 59.8207C116.357 59.8207 118.405 58.6791 119.692 56.9584C119.56 57.5623 119.427 58.6791 119.419 59.2954H125.139C125.217 58.4598 125.565 56.6854 126.136 54.0714L127.552 47.4618C128.408 43.5324 127.303 39.3921 118.778 39.3921V39.4003ZM120.992 50.6425C120.16 53.968 118.24 55.4404 115.045 55.4404C113.203 55.4404 112.309 54.6422 112.309 53.5254C112.309 51.387 114.966 50.8617 117.019 50.659C118.236 50.5432 119.634 50.4729 121.046 50.4398L120.996 50.6466L120.992 50.6425Z" fill="#14163A"/>
<path d="M118.778 39.4003C111.593 39.4003 109.453 42.7217 108.783 45.5508H114.771C115.252 44.1652 116.394 43.4166 118.645 43.4166C121.517 43.4166 122.283 44.7484 121.923 46.3409L121.84 46.7214C120.495 46.7545 118.385 46.7876 116.874 46.9365C111.974 47.3956 106.3 48.5702 106.3 54.1624C106.3 56.6027 107.823 59.8207 112.864 59.8207C116.357 59.8207 118.405 58.6791 119.692 56.9584C119.56 57.5623 119.427 58.6791 119.419 59.2954H125.139C125.217 58.4598 125.565 56.6854 126.136 54.0714L127.552 47.4618C128.408 43.5324 127.303 39.3921 118.778 39.3921V39.4003ZM120.992 50.6425C120.16 53.968 118.24 55.4404 115.045 55.4404C113.203 55.4404 112.309 54.6422 112.309 53.5254C112.309 51.387 114.966 50.8617 117.019 50.659C118.236 50.5432 119.634 50.4729 121.046 50.4398L120.996 50.6466L120.992 50.6425Z" fill="#14163A"/>
<path d="M138.235 44.1307H142.562L143.475 39.9006H139.148L140.44 34.139H134.545L133.252 39.9006H129.867L128.954 44.1307H132.339L130.305 53.4467C129.521 57.1526 130.759 59.237 135.383 59.237C136.771 59.237 138.155 59.0977 139.214 58.7988L140.09 54.7039C139.556 54.8185 138.568 54.8677 137.984 54.8677C136.158 54.8677 136.071 54.0855 136.433 52.4516L138.23 44.1266L138.235 44.1307Z" fill="#14163A"/>
<path d="M138.235 44.1307H142.562L143.475 39.9006H139.148L140.44 34.139H134.545L133.252 39.9006H129.867L128.954 44.1307H132.339L130.305 53.4467C129.521 57.1526 130.759 59.237 135.383 59.237C136.771 59.237 138.155 59.0977 139.214 58.7988L140.09 54.7039C139.556 54.8185 138.568 54.8677 137.984 54.8677C136.158 54.8677 136.071 54.0855 136.433 52.4516L138.23 44.1266L138.235 44.1307Z" fill="#14163A"/>
<path d="M154.688 39.3921C146.561 39.3921 142.895 45.6584 142.895 50.9899C142.895 55.8127 145.682 59.8207 152.099 59.8207C158.132 59.8207 161.27 56.8467 162.565 53.5461H156.519C155.736 54.6835 154.779 55.3784 152.552 55.3784C149.781 55.3784 148.627 53.6702 148.627 51.5069C148.627 51.3622 148.631 51.0644 148.635 50.9651H163.315C163.699 49.7325 163.806 48.8143 163.806 47.6644C163.806 43.1353 161.06 39.3962 154.68 39.3962L154.688 39.3921ZM158.239 47.2756H149.493C150.074 45.1165 151.645 43.5407 154.387 43.5407C156.977 43.5407 158.243 44.8477 158.243 46.8827C158.243 47.0357 158.239 47.2094 158.239 47.2798V47.2756Z" fill="#14163A"/>
<path d="M154.688 39.3921C146.561 39.3921 142.895 45.6584 142.895 50.9899C142.895 55.8127 145.682 59.8207 152.099 59.8207C158.132 59.8207 161.27 56.8467 162.565 53.5461H156.519C155.736 54.6835 154.779 55.3784 152.552 55.3784C149.781 55.3784 148.627 53.6702 148.627 51.5069C148.627 51.3622 148.631 51.0644 148.635 50.9651H163.315C163.699 49.7325 163.806 48.8143 163.806 47.6644C163.806 43.1353 161.06 39.3962 154.68 39.3962L154.688 39.3921ZM158.239 47.2756H149.493C150.074 45.1165 151.645 43.5407 154.387 43.5407C156.977 43.5407 158.243 44.8477 158.243 46.8827C158.243 47.0357 158.239 47.2094 158.239 47.2798V47.2756Z" fill="#14163A"/>
<path d="M89.3234 25.3798C90.4649 25.3798 91.2663 25.0846 91.9075 24.7354L92.5994 20.6156H89.8668C89.7104 21.0271 89.6127 21.4803 89.6361 21.9833H91.0083L90.7034 23.8291C90.375 23.9455 89.988 24.012 89.5267 24.012C88.2287 24.012 87.4625 23.1099 87.4625 21.6881C87.4625 19.3767 88.7604 18.0215 90.3633 18.0215C91.0787 18.0215 91.626 18.2293 92.0404 18.6035C92.4783 18.3457 92.7793 17.8801 92.9396 17.3771C92.5017 16.9655 91.7003 16.6288 90.6682 16.6288C88.045 16.6288 85.9691 18.6409 85.9691 21.8586C85.9691 24.091 87.2318 25.3839 89.3195 25.3839L89.3234 25.3798Z" fill="#14163A"/>
<path d="M89.3234 25.3798C90.4649 25.3798 91.2663 25.0846 91.9075 24.7354L92.5994 20.6156H89.8668C89.7104 21.0271 89.6127 21.4803 89.6361 21.9833H91.0083L90.7034 23.8291C90.375 23.9455 89.988 24.012 89.5267 24.012C88.2287 24.012 87.4625 23.1099 87.4625 21.6881C87.4625 19.3767 88.7604 18.0215 90.3633 18.0215C91.0787 18.0215 91.626 18.2293 92.0404 18.6035C92.4783 18.3457 92.7793 17.8801 92.9396 17.3771C92.5017 16.9655 91.7003 16.6288 90.6682 16.6288C88.045 16.6288 85.9691 18.6409 85.9691 21.8586C85.9691 24.091 87.2318 25.3839 89.3195 25.3839L89.3234 25.3798Z" fill="#14163A"/>
<path d="M95.0348 25.3121L95.6022 22.2742C95.9349 22.2862 96.2762 22.2982 96.5962 22.2982C97.0739 23.3401 97.6712 24.2822 98.5286 25.336C98.648 25.36 98.8315 25.36 98.9936 25.36C99.4159 25.36 99.8553 25.324 100.188 25.2362C99.3007 24.1943 98.6395 23.1924 98.0807 22.1106C99.4458 21.7393 100.491 20.7573 100.491 19.2204C100.491 18.0069 99.5908 17.2125 97.5901 17.2125C96.7028 17.2125 95.7771 17.3123 94.9922 17.472L93.5204 25.3081C93.7721 25.356 94.011 25.3839 94.2627 25.3839C94.5144 25.3839 94.7661 25.36 95.0306 25.3081L95.0348 25.3121ZM96.3103 18.4939C96.6815 18.458 97.0398 18.434 97.4109 18.434C98.4433 18.434 98.9339 18.8292 98.9339 19.5118C98.9339 20.3661 98.3921 21.1006 97.0142 21.1006C96.6303 21.1006 96.2336 21.1006 95.8368 21.0766L96.3146 18.4979L96.3103 18.4939Z" fill="#14163A"/>
<path d="M95.0348 25.3121L95.6022 22.2742C95.9349 22.2862 96.2762 22.2982 96.5962 22.2982C97.0739 23.3401 97.6712 24.2822 98.5286 25.336C98.648 25.36 98.8315 25.36 98.9936 25.36C99.4159 25.36 99.8553 25.324 100.188 25.2362C99.3007 24.1943 98.6395 23.1924 98.0807 22.1106C99.4458 21.7393 100.491 20.7573 100.491 19.2204C100.491 18.0069 99.5908 17.2125 97.5901 17.2125C96.7028 17.2125 95.7771 17.3123 94.9922 17.472L93.5204 25.3081C93.7721 25.356 94.011 25.3839 94.2627 25.3839C94.5144 25.3839 94.7661 25.36 95.0306 25.3081L95.0348 25.3121ZM96.3103 18.4939C96.6815 18.458 97.0398 18.434 97.4109 18.434C98.4433 18.434 98.9339 18.8292 98.9339 19.5118C98.9339 20.3661 98.3921 21.1006 97.0142 21.1006C96.6303 21.1006 96.2336 21.1006 95.8368 21.0766L96.3146 18.4979L96.3103 18.4939Z" fill="#14163A"/>
<path d="M103.923 25.3839C106.223 25.3839 107.327 24.1934 107.716 22.1288L108.623 17.2876C108.389 17.2402 108.142 17.2125 107.908 17.2125C107.661 17.2125 107.427 17.2362 107.168 17.2876L106.286 22.0418C106.064 23.2442 105.558 24.0668 104.157 24.0668C102.756 24.0668 102.405 23.2679 102.652 21.9666L103.522 17.2876C103.262 17.2402 103.028 17.2125 102.782 17.2125C102.535 17.2125 102.288 17.2362 102.029 17.2876L101.159 21.9785C100.77 24.1539 101.678 25.38 103.923 25.38V25.3839Z" fill="#14163A"/>
<path d="M103.923 25.3839C106.223 25.3839 107.327 24.1934 107.716 22.1288L108.623 17.2876C108.389 17.2402 108.142 17.2125 107.908 17.2125C107.661 17.2125 107.427 17.2362 107.168 17.2876L106.286 22.0418C106.064 23.2442 105.558 24.0668 104.157 24.0668C102.756 24.0668 102.405 23.2679 102.652 21.9666L103.522 17.2876C103.262 17.2402 103.028 17.2125 102.782 17.2125C102.535 17.2125 102.288 17.2362 102.029 17.2876L101.159 21.9785C100.77 24.1539 101.678 25.38 103.923 25.38V25.3839Z" fill="#14163A"/>
<path d="M110.69 25.3124L111.184 22.6217C111.523 22.6575 111.9 22.6694 112.327 22.6694C114.68 22.6694 116.174 21.3976 116.174 19.4342C116.174 18.063 115.237 17.2125 113.143 17.2125C112.193 17.2125 111.364 17.3238 110.661 17.4828L109.204 25.3084C109.451 25.3561 109.685 25.3839 109.945 25.3839C110.205 25.3839 110.426 25.3601 110.686 25.3084L110.69 25.3124ZM111.955 18.4843C112.294 18.4605 112.633 18.4366 112.968 18.4366C114.073 18.4366 114.634 18.8817 114.634 19.6727C114.634 20.6464 114.01 21.4612 112.541 21.4612C112.114 21.4612 111.749 21.4373 111.423 21.4135L111.955 18.4883V18.4843Z" fill="#14163A"/>
<path d="M110.69 25.3124L111.184 22.6217C111.523 22.6575 111.9 22.6694 112.327 22.6694C114.68 22.6694 116.174 21.3976 116.174 19.4342C116.174 18.063 115.237 17.2125 113.143 17.2125C112.193 17.2125 111.364 17.3238 110.661 17.4828L109.204 25.3084C109.451 25.3561 109.685 25.3839 109.945 25.3839C110.205 25.3839 110.426 25.3601 110.686 25.3084L110.69 25.3124ZM111.955 18.4843C112.294 18.4605 112.633 18.4366 112.968 18.4366C114.073 18.4366 114.634 18.8817 114.634 19.6727C114.634 20.6464 114.01 21.4612 112.541 21.4612C112.114 21.4612 111.749 21.4373 111.423 21.4135L111.955 18.4883V18.4843Z" fill="#14163A"/>
<path d="M119.66 25.3839C122.432 25.3839 124.307 23.3273 124.307 20.1592C124.307 17.9985 122.934 16.6288 120.795 16.6288C118.049 16.6288 116.174 18.7354 116.174 21.8661C116.174 24.0267 117.573 25.3839 119.66 25.3839ZM120.596 18.0027C121.93 18.0027 122.683 18.8811 122.683 20.3174C122.683 22.4364 121.718 24.0142 119.873 24.0142C118.581 24.0142 117.798 23.1233 117.798 21.712C117.798 19.593 118.776 18.0027 120.596 18.0027Z" fill="#14163A"/>
<path d="M119.66 25.3839C122.432 25.3839 124.307 23.3273 124.307 20.1592C124.307 17.9985 122.934 16.6288 120.795 16.6288C118.049 16.6288 116.174 18.7354 116.174 21.8661C116.174 24.0267 117.573 25.3839 119.66 25.3839ZM120.596 18.0027C121.93 18.0027 122.683 18.8811 122.683 20.3174C122.683 22.4364 121.718 24.0142 119.873 24.0142C118.581 24.0142 117.798 23.1233 117.798 21.712C117.798 19.593 118.776 18.0027 120.596 18.0027Z" fill="#14163A"/>
</svg>
