<svg width="107" height="74" viewBox="0 0 107 74" fill="none" xmlns="http://www.w3.org/2000/svg">
<path d="M57.3787 23.0298C57.4242 22.8858 57.447 22.7507 57.447 22.6247C57.447 22.2061 57.1602 21.9675 56.3681 21.9675C55.3438 21.9675 54.8385 22.4086 54.5426 23.7185H55.8719C56.9508 23.7185 57.2148 23.552 57.3787 23.0298Z" fill="#14163A"/>
<path d="M57.3787 23.0298C57.4242 22.8858 57.447 22.7507 57.447 22.6247C57.447 22.2061 57.1602 21.9675 56.3681 21.9675C55.3438 21.9675 54.8385 22.4086 54.5426 23.7185H55.8719C56.9508 23.7185 57.2148 23.552 57.3787 23.0298Z" fill="#14163A"/>
<path d="M0.521484 13.1457V60.5154C5.53461 63.0316 27.4661 73.3308 53.3686 73.3308C79.2711 73.3308 101.227 63.0316 106.24 60.5154V13.1457C101.227 10.5514 79.2957 0.371582 53.3686 0.371582C27.4415 0.371582 5.53461 10.5514 0.521484 13.1457ZM48.6591 5.09497C47.8673 4.30843 47.9288 4.54315 47.3791 4.06546C48.3596 4.08605 49.6846 4.88082 50.2343 5.43264C52.5891 7.77992 50.419 10.4361 49.34 12.458C48.4949 14.0393 47.7565 15.6783 48.6836 17.4285C48.0108 17.2514 47.2847 15.9583 47.1001 15.2953C46.5135 13.1869 47.5637 11.6056 48.4498 9.85953C49.2621 8.25349 49.4877 8.30703 49.4877 6.57745C49.4877 6.02564 49.016 5.445 48.6591 5.09497ZM42.2388 19.9693C42.37 19.8622 42.5177 19.8087 42.6818 19.8087C42.8459 19.8087 42.9977 19.8622 43.129 19.9693C43.2602 20.0764 43.3259 20.2164 43.3259 20.3852C43.3259 20.5541 43.2602 20.6941 43.129 20.8011C42.9977 20.9082 42.8459 20.9617 42.6818 20.9617C42.5177 20.9617 42.37 20.9082 42.2388 20.8011C42.1034 20.6941 42.0378 20.5582 42.0378 20.3852C42.0378 20.2123 42.1034 20.0764 42.2388 19.9693ZM43.1372 21.5506L42.0993 26.8917H41.0367L42.0706 21.5506H43.1372ZM40.0768 19.191H41.1393C41.1393 19.191 40.4788 22.5225 40.2819 23.5643L39.6419 26.8711H38.5753L40.0768 19.191ZM33.5253 21.3736C33.6812 20.5994 34.0011 20.0105 34.4729 19.6069C34.9488 19.2034 35.5724 18.9892 36.3354 18.9686C37.1108 18.948 37.6564 19.1333 37.9723 19.5204C38.2882 19.9117 38.3661 20.4882 38.2102 21.2459L37.082 26.867H36.0688L36.7661 23.3914L34.1037 23.4655L33.4227 26.867H32.4176L33.5253 21.3736ZM24.6641 53.663H6.23615L15.5527 18.9645H22.1657L14.3384 48.8532H26.0548L24.6641 53.663ZM45.4222 39.3241C44.9915 41.2637 43.8182 42.9767 41.9023 44.4551C39.9906 45.9376 37.9066 46.6789 35.6544 46.6789C34.8175 46.6789 34.0175 46.5677 33.2422 46.3535C33.9888 50.9122 38.682 49.1538 41.0696 46.7242L39.4491 52.9218C38.1527 53.7536 36.762 54.1696 35.2811 54.1696C33.9847 54.1696 32.6884 53.8484 31.392 53.2018C28.5532 51.8141 27.1296 49.162 27.1296 45.2417C27.1296 43.1456 27.626 41.0783 28.6147 39.044C29.6936 36.8244 31.1911 35.0413 33.1069 33.7029C35.0186 32.3605 36.9467 31.6892 38.8953 31.6892C39.9743 31.6892 40.9793 31.9034 41.9023 32.3357C44.3433 33.1676 45.5617 35.0207 45.5617 37.8869C45.5617 38.4099 45.5166 38.8917 45.4222 39.3241ZM45.2499 23.5849L44.6059 26.8917H43.5433L44.212 23.4326C44.4909 21.9212 45.3197 21.3859 46.8417 21.3859C47.6006 21.3859 48.1872 21.5795 48.5359 21.9665C48.979 21.5547 49.6148 21.3859 50.4681 21.3859C51.7522 21.3859 52.5358 21.9336 52.5358 23.0496C52.5358 23.202 52.5153 23.379 52.4866 23.5767L51.8424 26.8917H50.7758L51.4199 23.5767C51.4486 23.412 51.4692 23.2431 51.4692 23.132C51.4692 22.5101 51.1082 22.2836 50.4477 22.2836C49.4221 22.2836 49.0692 22.5431 48.8723 23.5849L48.2324 26.8917H47.1534L47.7934 23.5767C47.8262 23.412 47.8467 23.2431 47.8467 23.132C47.8467 22.5101 47.4816 22.2836 46.8211 22.2836C45.7955 22.2836 45.4469 22.5431 45.2499 23.5849ZM59.3499 52.1147C57.4997 53.453 55.6167 54.1243 53.7009 54.1243C52.5891 54.1243 51.5553 53.8937 50.5995 53.4324C47.695 52.0117 46.2468 49.2979 46.2468 45.2911C46.2468 43.1291 46.7556 41.0166 47.7729 38.9534C48.856 36.7009 50.3205 34.9054 52.1748 33.5629C54.025 32.2204 55.908 31.5492 57.8238 31.5492C58.9355 31.5492 59.9693 31.7963 60.9252 32.2905C63.8256 33.6782 65.2778 36.3755 65.2778 40.3865C65.2778 42.5444 64.7691 44.6569 63.7517 46.7242C62.6687 48.9767 61.2041 50.7722 59.3499 52.1147ZM93.9905 23.5232C94.729 22.9549 95.6273 22.6543 96.6735 22.6213C97.7237 22.5925 98.6221 22.8313 99.3605 23.3379C100.103 23.8485 100.472 24.4868 100.472 25.2569C100.472 26.0269 100.103 26.6982 99.3605 27.2706C98.6221 27.843 97.7237 28.1436 96.6735 28.1724C95.6273 28.2054 94.729 27.9665 93.9905 27.4559C93.248 26.9494 92.8787 26.307 92.8787 25.5369C92.8787 24.7668 93.248 24.0956 93.9905 23.5232ZM98.1585 31.7345L92.4152 53.7083H86.0236L91.767 31.7345H98.1585ZM86.6718 37.6562C86.6718 40.3947 83.7878 49.3556 82.9345 52.5718C82.6473 53.6548 82.5202 54.1902 82.7992 55.3432C83.3079 57.4269 85.2277 57.6534 86.6266 56.2533L88.0174 60.4166C86.5651 61.9568 84.4811 62.7927 81.7653 62.9163C79.9726 62.9163 78.508 62.2821 77.3635 61.0179C75.3533 58.8847 75.5543 56.3356 76.2517 53.663L80.0957 38.9987C80.1572 38.8422 80.1901 38.6899 80.1901 38.5375C80.1901 38.2287 80.0957 37.9692 79.9275 37.7468H79.9234C79.8044 37.5904 79.6526 37.4462 79.4475 37.3309C79.2342 37.1456 78.984 37.055 78.7091 37.055C73.5155 37.055 71.7473 50.5622 70.9268 53.663H64.5394L70.2786 31.8292H76.6702L76.301 33.3076C80.5839 30.7874 86.6718 31.1992 86.6718 37.6562ZM74.5451 25.994C75.4763 26.0269 75.5789 26.0146 76.2435 26.0146C77.1009 26.0146 77.4743 25.9199 77.544 25.4669C77.5563 25.3928 77.5563 25.3639 77.5563 25.3104C77.5563 25.0345 77.4005 24.8862 76.9984 24.775L75.9933 24.4868C75.3 24.2891 74.8856 23.9473 74.8856 23.2349C74.8856 23.1114 74.8979 22.9672 74.9266 22.8107C75.0825 21.9954 75.7348 21.53 77.1009 21.53C77.9296 21.53 78.3645 21.5383 79.107 21.5712L78.7747 22.4607C77.868 22.4278 77.5851 22.4278 76.9984 22.4278C76.2928 22.4278 76.0261 22.5431 75.9318 22.926C75.9195 22.9755 75.9113 23.0496 75.9113 23.1196C75.9113 23.3584 76.0548 23.4614 76.3748 23.5561L77.265 23.8114C78.2578 24.112 78.6311 24.4868 78.6311 25.1457C78.6311 25.2692 78.6106 25.4463 78.5819 25.611C78.426 26.4387 77.7532 26.9123 76.2107 26.9123C75.4559 26.9123 74.939 26.9247 74.2128 26.8917L74.5451 25.994ZM68.97 24.0503C69.3228 22.1889 70.1186 21.3859 71.8129 21.3859C73.1913 21.3859 73.9749 21.9007 73.9749 23.3379C73.9749 23.6591 73.9339 23.9885 73.86 24.3921C73.5113 26.2534 72.7155 27.0564 71.0171 27.0564C69.6428 27.0564 68.8551 26.5417 68.8551 25.1045C68.8551 24.7833 68.8961 24.4538 68.97 24.0503ZM64.9948 24.878L65.9055 20.204L66.9926 20.0928L66.7136 21.5506H68.4695L68.129 22.4483H66.5372L66.0409 25.0015C66.0081 25.1992 65.9875 25.3433 65.9875 25.4463C65.9875 25.8581 66.1845 26.0146 66.6932 26.0146H67.8418L67.5095 26.8917H66.5578C65.3968 26.8917 64.9209 26.3852 64.9209 25.5163C64.9209 25.3227 64.9537 25.1168 64.9948 24.878ZM63.9486 23.0496C63.9486 23.202 63.9281 23.379 63.8953 23.5767L63.2554 26.8917H62.1887L62.8287 23.5767C62.8615 23.412 62.882 23.2431 62.882 23.132C62.882 22.5101 62.521 22.2836 61.8564 22.2836C60.8349 22.2836 60.4821 22.5431 60.2852 23.5849L59.6452 26.8917H58.5786L59.2514 23.4326C59.5304 21.9212 60.3591 21.3859 61.877 21.3859C63.161 21.3859 63.9486 21.9336 63.9486 23.0496ZM56.6956 12.3756C56.8761 11.9144 57.0361 11.4491 57.2617 11.0332C58.2422 9.20065 58.9355 8.49234 58.9355 6.57745C58.9355 6.02564 58.4637 5.445 58.1068 5.09497C57.8607 4.84789 57.7746 4.73257 57.471 4.52667L56.8802 4.11076L56.8268 4.06546C58.0206 4.09017 59.756 5.15674 60.3386 6.28096C61.1631 7.8664 60.6134 9.05651 59.9078 10.4649C59.5345 11.2185 59.1078 11.8568 58.7181 12.5898C58.1437 13.677 57.4587 15.0359 57.7336 16.3207C57.8854 17.0373 58.0207 17.0414 58.1315 17.5314C57.5202 17.1196 56.8433 16.1807 56.5848 15.3612C56.2566 14.307 56.3059 13.3599 56.6956 12.3756ZM58.2258 22.7696C58.2258 22.9219 58.2053 23.0908 58.1642 23.2637C57.9468 24.2068 57.3356 24.6597 55.7726 24.6597H54.4269C54.4187 24.7545 54.4064 24.878 54.4064 24.9686C54.4064 25.6728 54.7264 26.0146 55.5961 26.0146C56.4125 26.0146 56.7367 26.0146 57.3766 25.961L57.0361 26.8505C56.5685 26.8917 56.1664 26.9041 55.5018 26.9041C53.8896 26.9041 53.3604 26.1175 53.3604 25.0098C53.3604 24.7133 53.4055 24.3797 53.4753 24.0214C53.9224 21.8183 55.0792 21.3736 56.2812 21.3736C57.6473 21.3736 58.2258 21.9336 58.2258 22.7696ZM52.905 15.7236C52.905 16.6296 53.2619 16.9055 53.4096 17.5314C53.0568 17.2967 52.7204 16.9467 52.4619 16.5678C49.8323 12.7751 54.2136 9.84718 54.2136 6.87807C54.2136 6.14095 53.8198 5.53971 53.4383 5.14438C52.7245 4.40725 52.8681 4.65846 52.265 4.20135C52.0558 4.04487 52.2199 4.16841 52.1009 4.06546C52.9993 4.08605 54.308 4.81082 54.7921 5.29263C58.3612 8.83414 52.905 12.0833 52.905 15.7236Z" fill="#14163A"/>
<path d="M0.521484 13.1457V60.5154C5.53461 63.0316 27.4661 73.3308 53.3686 73.3308C79.2711 73.3308 101.227 63.0316 106.24 60.5154V13.1457C101.227 10.5514 79.2957 0.371582 53.3686 0.371582C27.4415 0.371582 5.53461 10.5514 0.521484 13.1457ZM48.6591 5.09497C47.8673 4.30843 47.9288 4.54315 47.3791 4.06546C48.3596 4.08605 49.6846 4.88082 50.2343 5.43264C52.5891 7.77992 50.419 10.4361 49.34 12.458C48.4949 14.0393 47.7565 15.6783 48.6836 17.4285C48.0108 17.2514 47.2847 15.9583 47.1001 15.2953C46.5135 13.1869 47.5637 11.6056 48.4498 9.85953C49.2621 8.25349 49.4877 8.30703 49.4877 6.57745C49.4877 6.02564 49.016 5.445 48.6591 5.09497ZM42.2388 19.9693C42.37 19.8622 42.5177 19.8087 42.6818 19.8087C42.8459 19.8087 42.9977 19.8622 43.129 19.9693C43.2602 20.0764 43.3259 20.2164 43.3259 20.3852C43.3259 20.5541 43.2602 20.6941 43.129 20.8011C42.9977 20.9082 42.8459 20.9617 42.6818 20.9617C42.5177 20.9617 42.37 20.9082 42.2388 20.8011C42.1034 20.6941 42.0378 20.5582 42.0378 20.3852C42.0378 20.2123 42.1034 20.0764 42.2388 19.9693ZM43.1372 21.5506L42.0993 26.8917H41.0367L42.0706 21.5506H43.1372ZM40.0768 19.191H41.1393C41.1393 19.191 40.4788 22.5225 40.2819 23.5643L39.6419 26.8711H38.5753L40.0768 19.191ZM33.5253 21.3736C33.6812 20.5994 34.0011 20.0105 34.4729 19.6069C34.9488 19.2034 35.5724 18.9892 36.3354 18.9686C37.1108 18.948 37.6564 19.1333 37.9723 19.5204C38.2882 19.9117 38.3661 20.4882 38.2102 21.2459L37.082 26.867H36.0688L36.7661 23.3914L34.1037 23.4655L33.4227 26.867H32.4176L33.5253 21.3736ZM24.6641 53.663H6.23615L15.5527 18.9645H22.1657L14.3384 48.8532H26.0548L24.6641 53.663ZM45.4222 39.3241C44.9915 41.2637 43.8182 42.9767 41.9023 44.4551C39.9906 45.9376 37.9066 46.6789 35.6544 46.6789C34.8175 46.6789 34.0175 46.5677 33.2422 46.3535C33.9888 50.9122 38.682 49.1538 41.0696 46.7242L39.4491 52.9218C38.1527 53.7536 36.762 54.1696 35.2811 54.1696C33.9847 54.1696 32.6884 53.8484 31.392 53.2018C28.5532 51.8141 27.1296 49.162 27.1296 45.2417C27.1296 43.1456 27.626 41.0783 28.6147 39.044C29.6936 36.8244 31.1911 35.0413 33.1069 33.7029C35.0186 32.3605 36.9467 31.6892 38.8953 31.6892C39.9743 31.6892 40.9793 31.9034 41.9023 32.3357C44.3433 33.1676 45.5617 35.0207 45.5617 37.8869C45.5617 38.4099 45.5166 38.8917 45.4222 39.3241ZM45.2499 23.5849L44.6059 26.8917H43.5433L44.212 23.4326C44.4909 21.9212 45.3197 21.3859 46.8417 21.3859C47.6006 21.3859 48.1872 21.5795 48.5359 21.9665C48.979 21.5547 49.6148 21.3859 50.4681 21.3859C51.7522 21.3859 52.5358 21.9336 52.5358 23.0496C52.5358 23.202 52.5153 23.379 52.4866 23.5767L51.8424 26.8917H50.7758L51.4199 23.5767C51.4486 23.412 51.4692 23.2431 51.4692 23.132C51.4692 22.5101 51.1082 22.2836 50.4477 22.2836C49.4221 22.2836 49.0692 22.5431 48.8723 23.5849L48.2324 26.8917H47.1534L47.7934 23.5767C47.8262 23.412 47.8467 23.2431 47.8467 23.132C47.8467 22.5101 47.4816 22.2836 46.8211 22.2836C45.7955 22.2836 45.4469 22.5431 45.2499 23.5849ZM59.3499 52.1147C57.4997 53.453 55.6167 54.1243 53.7009 54.1243C52.5891 54.1243 51.5553 53.8937 50.5995 53.4324C47.695 52.0117 46.2468 49.2979 46.2468 45.2911C46.2468 43.1291 46.7556 41.0166 47.7729 38.9534C48.856 36.7009 50.3205 34.9054 52.1748 33.5629C54.025 32.2204 55.908 31.5492 57.8238 31.5492C58.9355 31.5492 59.9693 31.7963 60.9252 32.2905C63.8256 33.6782 65.2778 36.3755 65.2778 40.3865C65.2778 42.5444 64.7691 44.6569 63.7517 46.7242C62.6687 48.9767 61.2041 50.7722 59.3499 52.1147ZM93.9905 23.5232C94.729 22.9549 95.6273 22.6543 96.6735 22.6213C97.7237 22.5925 98.6221 22.8313 99.3605 23.3379C100.103 23.8485 100.472 24.4868 100.472 25.2569C100.472 26.0269 100.103 26.6982 99.3605 27.2706C98.6221 27.843 97.7237 28.1436 96.6735 28.1724C95.6273 28.2054 94.729 27.9665 93.9905 27.4559C93.248 26.9494 92.8787 26.307 92.8787 25.5369C92.8787 24.7668 93.248 24.0956 93.9905 23.5232ZM98.1585 31.7345L92.4152 53.7083H86.0236L91.767 31.7345H98.1585ZM86.6718 37.6562C86.6718 40.3947 83.7878 49.3556 82.9345 52.5718C82.6473 53.6548 82.5202 54.1902 82.7992 55.3432C83.3079 57.4269 85.2277 57.6534 86.6266 56.2533L88.0174 60.4166C86.5651 61.9568 84.4811 62.7927 81.7653 62.9163C79.9726 62.9163 78.508 62.2821 77.3635 61.0179C75.3533 58.8847 75.5543 56.3356 76.2517 53.663L80.0957 38.9987C80.1572 38.8422 80.1901 38.6899 80.1901 38.5375C80.1901 38.2287 80.0957 37.9692 79.9275 37.7468H79.9234C79.8044 37.5904 79.6526 37.4462 79.4475 37.3309C79.2342 37.1456 78.984 37.055 78.7091 37.055C73.5155 37.055 71.7473 50.5622 70.9268 53.663H64.5394L70.2786 31.8292H76.6702L76.301 33.3076C80.5839 30.7874 86.6718 31.1992 86.6718 37.6562ZM74.5451 25.994C75.4763 26.0269 75.5789 26.0146 76.2435 26.0146C77.1009 26.0146 77.4743 25.9199 77.544 25.4669C77.5563 25.3928 77.5563 25.3639 77.5563 25.3104C77.5563 25.0345 77.4005 24.8862 76.9984 24.775L75.9933 24.4868C75.3 24.2891 74.8856 23.9473 74.8856 23.2349C74.8856 23.1114 74.8979 22.9672 74.9266 22.8107C75.0825 21.9954 75.7348 21.53 77.1009 21.53C77.9296 21.53 78.3645 21.5383 79.107 21.5712L78.7747 22.4607C77.868 22.4278 77.5851 22.4278 76.9984 22.4278C76.2928 22.4278 76.0261 22.5431 75.9318 22.926C75.9195 22.9755 75.9113 23.0496 75.9113 23.1196C75.9113 23.3584 76.0548 23.4614 76.3748 23.5561L77.265 23.8114C78.2578 24.112 78.6311 24.4868 78.6311 25.1457C78.6311 25.2692 78.6106 25.4463 78.5819 25.611C78.426 26.4387 77.7532 26.9123 76.2107 26.9123C75.4559 26.9123 74.939 26.9247 74.2128 26.8917L74.5451 25.994ZM68.97 24.0503C69.3228 22.1889 70.1186 21.3859 71.8129 21.3859C73.1913 21.3859 73.9749 21.9007 73.9749 23.3379C73.9749 23.6591 73.9339 23.9885 73.86 24.3921C73.5113 26.2534 72.7155 27.0564 71.0171 27.0564C69.6428 27.0564 68.8551 26.5417 68.8551 25.1045C68.8551 24.7833 68.8961 24.4538 68.97 24.0503ZM64.9948 24.878L65.9055 20.204L66.9926 20.0928L66.7136 21.5506H68.4695L68.129 22.4483H66.5372L66.0409 25.0015C66.0081 25.1992 65.9875 25.3433 65.9875 25.4463C65.9875 25.8581 66.1845 26.0146 66.6932 26.0146H67.8418L67.5095 26.8917H66.5578C65.3968 26.8917 64.9209 26.3852 64.9209 25.5163C64.9209 25.3227 64.9537 25.1168 64.9948 24.878ZM63.9486 23.0496C63.9486 23.202 63.9281 23.379 63.8953 23.5767L63.2554 26.8917H62.1887L62.8287 23.5767C62.8615 23.412 62.882 23.2431 62.882 23.132C62.882 22.5101 62.521 22.2836 61.8564 22.2836C60.8349 22.2836 60.4821 22.5431 60.2852 23.5849L59.6452 26.8917H58.5786L59.2514 23.4326C59.5304 21.9212 60.3591 21.3859 61.877 21.3859C63.161 21.3859 63.9486 21.9336 63.9486 23.0496ZM56.6956 12.3756C56.8761 11.9144 57.0361 11.4491 57.2617 11.0332C58.2422 9.20065 58.9355 8.49234 58.9355 6.57745C58.9355 6.02564 58.4637 5.445 58.1068 5.09497C57.8607 4.84789 57.7746 4.73257 57.471 4.52667L56.8802 4.11076L56.8268 4.06546C58.0206 4.09017 59.756 5.15674 60.3386 6.28096C61.1631 7.8664 60.6134 9.05651 59.9078 10.4649C59.5345 11.2185 59.1078 11.8568 58.7181 12.5898C58.1437 13.677 57.4587 15.0359 57.7336 16.3207C57.8854 17.0373 58.0207 17.0414 58.1315 17.5314C57.5202 17.1196 56.8433 16.1807 56.5848 15.3612C56.2566 14.307 56.3059 13.3599 56.6956 12.3756ZM58.2258 22.7696C58.2258 22.9219 58.2053 23.0908 58.1642 23.2637C57.9468 24.2068 57.3356 24.6597 55.7726 24.6597H54.4269C54.4187 24.7545 54.4064 24.878 54.4064 24.9686C54.4064 25.6728 54.7264 26.0146 55.5961 26.0146C56.4125 26.0146 56.7367 26.0146 57.3766 25.961L57.0361 26.8505C56.5685 26.8917 56.1664 26.9041 55.5018 26.9041C53.8896 26.9041 53.3604 26.1175 53.3604 25.0098C53.3604 24.7133 53.4055 24.3797 53.4753 24.0214C53.9224 21.8183 55.0792 21.3736 56.2812 21.3736C57.6473 21.3736 58.2258 21.9336 58.2258 22.7696ZM52.905 15.7236C52.905 16.6296 53.2619 16.9055 53.4096 17.5314C53.0568 17.2967 52.7204 16.9467 52.4619 16.5678C49.8323 12.7751 54.2136 9.84718 54.2136 6.87807C54.2136 6.14095 53.8198 5.53971 53.4383 5.14438C52.7245 4.40725 52.8681 4.65846 52.265 4.20135C52.0558 4.04487 52.2199 4.16841 52.1009 4.06546C52.9993 4.08605 54.308 4.81082 54.7921 5.29263C58.3612 8.83414 52.905 12.0833 52.905 15.7236Z" fill="#14163A"/>
<path d="M37.0399 21.3714C37.0883 21.1236 37.1124 20.8927 37.1165 20.6786C37.1165 20.4645 37.0842 20.2797 37.0156 20.1202C36.9511 19.9606 36.8382 19.8388 36.6889 19.7549C36.5356 19.6667 36.3299 19.6289 36.0717 19.6331C35.8135 19.6415 35.5916 19.6919 35.4061 19.7885C35.2205 19.885 35.0632 20.0152 34.9341 20.1789C34.8051 20.3427 34.7002 20.5316 34.6195 20.75C34.5388 20.9641 34.4703 21.1992 34.4219 21.4469L34.2121 22.5512L36.826 22.4798L37.0399 21.3714Z" fill="#14163A"/>
<path d="M37.0399 21.3714C37.0883 21.1236 37.1124 20.8927 37.1165 20.6786C37.1165 20.4645 37.0842 20.2797 37.0156 20.1202C36.9511 19.9606 36.8382 19.8388 36.6889 19.7549C36.5356 19.6667 36.3299 19.6289 36.0717 19.6331C35.8135 19.6415 35.5916 19.6919 35.4061 19.7885C35.2205 19.885 35.0632 20.0152 34.9341 20.1789C34.8051 20.3427 34.7002 20.5316 34.6195 20.75C34.5388 20.9641 34.4703 21.1992 34.4219 21.4469L34.2121 22.5512L36.826 22.4798L37.0399 21.3714Z" fill="#14163A"/>
<path d="M59.3387 37.2595C59.2837 37.2025 59.2202 37.1577 59.1567 37.113C58.8604 36.7547 58.4625 36.5593 57.9546 36.5593C57.2223 36.5593 56.4096 36.9949 55.5165 37.8661C54.6276 38.7331 53.8615 39.8974 53.2266 41.3629C52.5535 42.9179 52.2191 44.3956 52.2191 45.8C52.2191 47.811 52.8245 48.8165 54.035 48.8165C54.7673 48.8165 55.58 48.3891 56.4731 47.5383C57.3662 46.6834 58.1366 45.5029 58.7927 43.9926C59.4445 42.4823 59.7704 41.0291 59.7704 39.6246C59.7704 38.5459 59.5969 37.7602 59.2583 37.2514L59.3387 37.2595Z" fill="#14163A"/>
<path d="M59.3387 37.2595C59.2837 37.2025 59.2202 37.1577 59.1567 37.113C58.8604 36.7547 58.4625 36.5593 57.9546 36.5593C57.2223 36.5593 56.4096 36.9949 55.5165 37.8661C54.6276 38.7331 53.8615 39.8974 53.2266 41.3629C52.5535 42.9179 52.2191 44.3956 52.2191 45.8C52.2191 47.811 52.8245 48.8165 54.035 48.8165C54.7673 48.8165 55.58 48.3891 56.4731 47.5383C57.3662 46.6834 58.1366 45.5029 58.7927 43.9926C59.4445 42.4823 59.7704 41.0291 59.7704 39.6246C59.7704 38.5459 59.5969 37.7602 59.2583 37.2514L59.3387 37.2595Z" fill="#14163A"/>
<path d="M71.4014 26.0532C72.4253 26.0532 72.7361 25.6088 72.999 24.2326C73.0787 23.7666 73.1306 23.4085 73.1306 23.1151C73.1306 22.2393 72.756 21.9675 71.9512 21.9675C70.9273 21.9675 70.6166 22.4119 70.3576 23.7882C70.2739 24.2541 70.2262 24.6122 70.2262 24.9056C70.2262 25.7814 70.5967 26.0532 71.4014 26.0532Z" fill="#14163A"/>
<path d="M71.4014 26.0532C72.4253 26.0532 72.7361 25.6088 72.999 24.2326C73.0787 23.7666 73.1306 23.4085 73.1306 23.1151C73.1306 22.2393 72.756 21.9675 71.9512 21.9675C70.9273 21.9675 70.6166 22.4119 70.3576 23.7882C70.2739 24.2541 70.2262 24.6122 70.2262 24.9056C70.2262 25.7814 70.5967 26.0532 71.4014 26.0532Z" fill="#14163A"/>
<path d="M40.077 37.2654L40.0326 37.233C38.6361 35.5322 36.5009 37.4436 35.5444 38.6625C34.6322 39.8166 33.9945 40.999 33.6312 42.2138C34.2084 42.3353 34.7856 42.3961 35.3627 42.3961C36.8803 42.3961 38.1235 42.0316 39.0962 41.3027C40.1012 40.424 40.6017 39.5452 40.6017 38.6625C40.6017 38.1806 40.4201 37.7149 40.0568 37.2613H40.077V37.2654Z" fill="#14163A"/>
<path d="M40.077 37.2654L40.0326 37.233C38.6361 35.5322 36.5009 37.4436 35.5444 38.6625C34.6322 39.8166 33.9945 40.999 33.6312 42.2138C34.2084 42.3353 34.7856 42.3961 35.3627 42.3961C36.8803 42.3961 38.1235 42.0316 39.0962 41.3027C40.1012 40.424 40.6017 39.5452 40.6017 38.6625C40.6017 38.1806 40.4201 37.7149 40.0568 37.2613H40.077V37.2654Z" fill="#14163A"/>
</svg>
