<svg width="173" height="75" viewBox="0 0 173 75" fill="none" xmlns="http://www.w3.org/2000/svg">
<path d="M41.0579 49.239C41.0579 51.0771 43.1924 52.1902 44.9603 52.2329C45.2382 51.6188 46.7081 44.0018 46.7081 42.6839C46.7081 40.914 43.9857 39.9757 42.1332 39.9757H30.1522C29.1857 39.9757 27.8486 40.8671 27.3815 41.4599C26.5116 42.5517 26.415 42.9995 26.0646 44.6244L24.6349 52.2329C27.0029 52.2329 29.3951 50.9151 29.971 48.4756C30.5509 46.019 30.6274 41.831 32.5766 41.831H41.1908C42.8419 41.831 41.7667 45.2599 41.6298 46.002C41.4727 46.8293 41.0579 48.5097 41.0579 49.2432V49.239Z" fill="#14163A"/>
<path d="M41.0579 49.239C41.0579 51.0771 43.1924 52.1902 44.9603 52.2329C45.2382 51.6188 46.7081 44.0018 46.7081 42.6839C46.7081 40.914 43.9857 39.9757 42.1332 39.9757H30.1522C29.1857 39.9757 27.8486 40.8671 27.3815 41.4599C26.5116 42.5517 26.415 42.9995 26.0646 44.6244L24.6349 52.2329C27.0029 52.2329 29.3951 50.9151 29.971 48.4756C30.5509 46.019 30.6274 41.831 32.5766 41.831H41.1908C42.8419 41.831 41.7667 45.2599 41.6298 46.002C41.4727 46.8293 41.0579 48.5097 41.0579 49.2432V49.239Z" fill="#14163A"/>
<path d="M18.149 44.0578L16.6519 51.1789C16.4724 51.9825 16.0171 52.6493 18.5867 51.9184C19.8868 51.5465 20.7666 50.9951 21.594 49.9992C22.5789 48.8152 23.1611 43.9894 23.6163 42.1172C23.7564 41.5402 24.0059 40.5742 24.054 39.9757C21.0424 39.9757 18.8012 41.2153 18.1446 44.0621L18.149 44.0578Z" fill="#14163A"/>
<path d="M18.149 44.0578L16.6519 51.1789C16.4724 51.9825 16.0171 52.6493 18.5867 51.9184C19.8868 51.5465 20.7666 50.9951 21.594 49.9992C22.5789 48.8152 23.1611 43.9894 23.6163 42.1172C23.7564 41.5402 24.0059 40.5742 24.054 39.9757C21.0424 39.9757 18.8012 41.2153 18.1446 44.0621L18.149 44.0578Z" fill="#14163A"/>
<path d="M107.851 52.2329C108.56 52.2329 108.433 50.4232 106.76 50.3938L99.1736 50.4022C98.4442 50.4064 97.9415 50.5032 97.4841 50.1581C96.3675 49.308 97.0226 47.5361 97.2328 46.4503C98.2835 41.0886 97.3152 41.9598 106.747 41.9598C108.161 41.9598 110.114 42.2796 110.604 40.1333C105.828 40.1333 97.546 39.3084 94.6657 41.4337C93.0875 42.5953 93.2029 43.2013 92.8402 44.7753L92.0161 49.2743C92.0161 51.3365 95.0695 52.2287 97.2493 52.2287H107.851V52.2329Z" fill="#14163A"/>
<path d="M107.851 52.2329C108.56 52.2329 108.433 50.4232 106.76 50.3938L99.1736 50.4022C98.4442 50.4064 97.9415 50.5032 97.4841 50.1581C96.3675 49.308 97.0226 47.5361 97.2328 46.4503C98.2835 41.0886 97.3152 41.9598 106.747 41.9598C108.161 41.9598 110.114 42.2796 110.604 40.1333C105.828 40.1333 97.546 39.3084 94.6657 41.4337C93.0875 42.5953 93.2029 43.2013 92.8402 44.7753L92.0161 49.2743C92.0161 51.3365 95.0695 52.2287 97.2493 52.2287H107.851V52.2329Z" fill="#14163A"/>
<path d="M23.4482 35.3064C22.0508 35.3064 19.4071 36.5355 19.4071 37.8654C19.4071 38.6673 20.5174 38.8084 21.1745 38.8084C24.3621 38.8084 27.1569 35.3064 23.4482 35.3064Z" fill="#14163A"/>
<path d="M23.4482 35.3064C22.0508 35.3064 19.4071 36.5355 19.4071 37.8654C19.4071 38.6673 20.5174 38.8084 21.1745 38.8084C24.3621 38.8084 27.1569 35.3064 23.4482 35.3064Z" fill="#14163A"/>
<path d="M98.9866 46.9527C99.913 46.9527 107.522 47.0401 108.065 46.9011C108.769 46.7144 109.422 46.0709 109.442 45.2288H101.239C100.036 45.2288 99.0816 45.8485 98.9906 46.9527H98.9866Z" fill="#14163A"/>
<path d="M98.9866 46.9527C99.913 46.9527 107.522 47.0401 108.065 46.9011C108.769 46.7144 109.422 46.0709 109.442 45.2288H101.239C100.036 45.2288 99.0816 45.8485 98.9906 46.9527H98.9866Z" fill="#14163A"/>
<path d="M35.8058 43.495C33.8064 43.495 33.6483 47.179 33.1978 49.59C33.0477 50.3825 32.7672 51.4362 32.7672 52.2329C34.5295 52.1907 36.3669 51.3014 37.2205 50.2223C37.8922 49.3751 38.5759 46.0199 38.5759 44.768C38.5759 43.2084 36.8609 43.4993 35.8019 43.4993L35.8058 43.495Z" fill="#14163A"/>
<path d="M35.8058 43.495C33.8064 43.495 33.6483 47.179 33.1978 49.59C33.0477 50.3825 32.7672 51.4362 32.7672 52.2329C34.5295 52.1907 36.3669 51.3014 37.2205 50.2223C37.8922 49.3751 38.5759 46.0199 38.5759 44.768C38.5759 43.2084 36.8609 43.4993 35.8019 43.4993L35.8058 43.495Z" fill="#14163A"/>
<path d="M41.9384 27.8769C41.4089 26.8043 38.5916 26.8632 37.8013 28.2597C37.4575 28.8696 36.9043 32.3609 36.7265 33.2989L36.2524 35.89C38.4928 35.89 40.6779 34.666 41.2904 32.9582C41.563 32.1968 42.3652 28.7476 41.9384 27.8769Z" fill="#14163A"/>
<path d="M41.9384 27.8769C41.4089 26.8043 38.5916 26.8632 37.8013 28.2597C37.4575 28.8696 36.9043 32.3609 36.7265 33.2989L36.2524 35.89C38.4928 35.89 40.6779 34.666 41.2904 32.9582C41.563 32.1968 42.3652 28.7476 41.9384 27.8769Z" fill="#14163A"/>
<path d="M76.4892 42.8716C76.7386 42.3513 77.2742 41.8352 77.9529 41.8352H84.5107C85.0586 41.8352 85.4143 42.1124 85.541 42.6114C85.7781 43.5454 85.3693 43.5667 86.5468 43.554C87.7815 43.5412 89.0121 43.5412 90.2468 43.5412C90.3368 42.428 90.2632 41.6987 88.9958 40.8543C88.2108 40.3297 86.8739 39.9757 85.5983 39.9757H77.2619C75.7001 39.9757 73.7499 40.7818 72.8668 41.5196C71.3745 42.765 71.534 43.716 71.0802 45.9295C70.749 47.5501 69.9763 49.5546 71.1538 50.7658C72.1922 51.832 74.2242 52.2329 75.7574 52.2329H82.7282C84.9114 52.2329 87.0987 51.5548 88.2312 50.4203C89.4087 49.2432 89.3269 48.3007 89.7071 46.3986C89.8052 45.9167 90.1855 45.1063 89.5559 45.1063H77.6667C76.7836 45.1063 77.3723 46.7824 78.3617 46.9488C79.1835 47.0852 82.1476 46.8421 83.2556 46.9744C85.6473 47.2516 84.6007 50.382 82.4461 50.382H76.7059C74.261 50.382 75.4467 47.6311 75.9659 44.9059C76.1131 44.134 76.1785 43.4729 76.4729 42.8673L76.4892 42.8716Z" fill="#14163A"/>
<path d="M76.4892 42.8716C76.7386 42.3513 77.2742 41.8352 77.9529 41.8352H84.5107C85.0586 41.8352 85.4143 42.1124 85.541 42.6114C85.7781 43.5454 85.3693 43.5667 86.5468 43.554C87.7815 43.5412 89.0121 43.5412 90.2468 43.5412C90.3368 42.428 90.2632 41.6987 88.9958 40.8543C88.2108 40.3297 86.8739 39.9757 85.5983 39.9757H77.2619C75.7001 39.9757 73.7499 40.7818 72.8668 41.5196C71.3745 42.765 71.534 43.716 71.0802 45.9295C70.749 47.5501 69.9763 49.5546 71.1538 50.7658C72.1922 51.832 74.2242 52.2329 75.7574 52.2329H82.7282C84.9114 52.2329 87.0987 51.5548 88.2312 50.4203C89.4087 49.2432 89.3269 48.3007 89.7071 46.3986C89.8052 45.9167 90.1855 45.1063 89.5559 45.1063H77.6667C76.7836 45.1063 77.3723 46.7824 78.3617 46.9488C79.1835 47.0852 82.1476 46.8421 83.2556 46.9744C85.6473 47.2516 84.6007 50.382 82.4461 50.382H76.7059C74.261 50.382 75.4467 47.6311 75.9659 44.9059C76.1131 44.134 76.1785 43.4729 76.4729 42.8673L76.4892 42.8716Z" fill="#14163A"/>
<path d="M106.341 35.89H114.673C117.076 35.89 120.374 34.577 120.545 32.5126H115.903C115.822 33.4822 115.041 34.1326 113.991 34.1326H107.71C105.83 34.1326 106.799 31.5389 107.15 29.8017C108.053 25.3375 107.534 26.0324 115.495 26.0324C117.125 26.0324 116.998 27.0626 116.998 27.6524H121.641C121.641 24.9254 119.058 24.275 116.042 24.275C112.185 24.275 108.049 23.8467 105.07 25.3092C102.618 26.5091 102.822 28.1251 102.148 31.4662C101.96 32.3873 101.695 33.1954 102.115 33.9953C102.712 35.1144 104.596 35.89 106.349 35.89H106.341Z" fill="#14163A"/>
<path d="M106.341 35.89H114.673C117.076 35.89 120.374 34.577 120.545 32.5126H115.903C115.822 33.4822 115.041 34.1326 113.991 34.1326H107.71C105.83 34.1326 106.799 31.5389 107.15 29.8017C108.053 25.3375 107.534 26.0324 115.495 26.0324C117.125 26.0324 116.998 27.0626 116.998 27.6524H121.641C121.641 24.9254 119.058 24.275 116.042 24.275C112.185 24.275 108.049 23.8467 105.07 25.3092C102.618 26.5091 102.822 28.1251 102.148 31.4662C101.96 32.3873 101.695 33.1954 102.115 33.9953C102.712 35.1144 104.596 35.89 106.349 35.89H106.341Z" fill="#14163A"/>
<path d="M60.3607 29.5484C59.6168 29.7351 58.9273 30.3786 58.9064 31.2207H67.7073C68.8648 31.2207 69.851 30.5335 69.943 29.4967C68.9651 29.4967 60.9332 29.4093 60.3607 29.5484Z" fill="#14163A"/>
<path d="M60.3607 29.5484C59.6168 29.7351 58.9273 30.3786 58.9064 31.2207H67.7073C68.8648 31.2207 69.851 30.5335 69.943 29.4967C68.9651 29.4967 60.9332 29.4093 60.3607 29.5484Z" fill="#14163A"/>
<path d="M70.7021 24.2761C67.4987 24.2761 59.6326 23.9651 57.0106 24.7649C53.0734 25.9647 53.6382 27.9239 52.8177 31.3253C52.6611 31.9716 52.5168 32.42 52.5168 33.1875C52.5168 34.969 55.4109 35.89 57.0641 35.89H68.7768C68.7768 35.3205 68.7767 34.6862 68.1418 34.355C66.8185 33.6642 58.6226 34.6054 57.8681 33.8864C56.9364 32.9977 57.563 31.3455 57.765 30.3638C57.9217 29.5882 58.0783 28.849 58.2432 27.9966C58.6431 25.9647 59.5831 26.0293 61.8877 26.0293C63.174 26.0293 69.2633 26.2555 70.1579 25.7586C70.4712 25.5849 71.7369 24.2721 70.7103 24.2721L70.7021 24.2761Z" fill="#14163A"/>
<path d="M70.7021 24.2761C67.4987 24.2761 59.6326 23.9651 57.0106 24.7649C53.0734 25.9647 53.6382 27.9239 52.8177 31.3253C52.6611 31.9716 52.5168 32.42 52.5168 33.1875C52.5168 34.969 55.4109 35.89 57.0641 35.89H68.7768C68.7768 35.3205 68.7767 34.6862 68.1418 34.355C66.8185 33.6642 58.6226 34.6054 57.8681 33.8864C56.9364 32.9977 57.563 31.3455 57.765 30.3638C57.9217 29.5882 58.0783 28.849 58.2432 27.9966C58.6431 25.9647 59.5831 26.0293 61.8877 26.0293C63.174 26.0293 69.2633 26.2555 70.1579 25.7586C70.4712 25.5849 71.7369 24.2721 70.7103 24.2721L70.7021 24.2761Z" fill="#14163A"/>
<path d="M66.8836 52.2244C67.1066 51.7811 68.7812 44.0245 68.7812 42.9676C68.7812 41.0327 66.3605 39.9757 64.4426 39.9757H55.6357C53.9935 39.9757 52.1811 40.696 51.0376 41.8382C51.0174 41.8595 50.989 41.8893 50.9687 41.9064C50.9646 41.9106 50.7822 42.1152 50.774 42.128C49.9834 43.0997 49.5212 46.6754 49.2535 48.0818L48.4507 52.2244C49.8577 52.2244 51.2201 51.9687 52.1608 51.4231C54.4476 50.0977 54.1273 44.472 55.0924 42.8227C55.3316 42.4135 55.8263 41.8297 56.4507 41.8297C64.252 41.8297 64.6697 41.0369 63.7695 45.107C62.099 45.107 60.4244 45.107 58.7538 45.107C57.8456 45.107 57.1684 45.0389 56.5845 45.3926C56.0736 45.7037 55.6519 46.2663 55.5019 46.961H63.36C63.3438 47.8176 61.6894 51.7769 66.8836 52.2329V52.2244Z" fill="#14163A"/>
<path d="M66.8836 52.2244C67.1066 51.7811 68.7812 44.0245 68.7812 42.9676C68.7812 41.0327 66.3605 39.9757 64.4426 39.9757H55.6357C53.9935 39.9757 52.1811 40.696 51.0376 41.8382C51.0174 41.8595 50.989 41.8893 50.9687 41.9064C50.9646 41.9106 50.7822 42.1152 50.774 42.128C49.9834 43.0997 49.5212 46.6754 49.2535 48.0818L48.4507 52.2244C49.8577 52.2244 51.2201 51.9687 52.1608 51.4231C54.4476 50.0977 54.1273 44.472 55.0924 42.8227C55.3316 42.4135 55.8263 41.8297 56.4507 41.8297C64.252 41.8297 64.6697 41.0369 63.7695 45.107C62.099 45.107 60.4244 45.107 58.7538 45.107C57.8456 45.107 57.1684 45.0389 56.5845 45.3926C56.0736 45.7037 55.6519 46.2663 55.5019 46.961H63.36C63.3438 47.8176 61.6894 51.7769 66.8836 52.2329V52.2244Z" fill="#14163A"/>
<path d="M98.7996 32.0427C98.9513 31.2512 100.351 24.5439 100.123 24.2991C99.9034 24.0625 98.7958 24.397 98.4014 24.5235C95.1053 25.5843 95.2039 27.8813 94.4642 31.8795L93.7587 35.89C96.2697 35.89 98.2951 34.6457 98.7996 32.0386V32.0427Z" fill="#14163A"/>
<path d="M98.7996 32.0427C98.9513 31.2512 100.351 24.5439 100.123 24.2991C99.9034 24.0625 98.7958 24.397 98.4014 24.5235C95.1053 25.5843 95.2039 27.8813 94.4642 31.8795L93.7587 35.89C96.2697 35.89 98.2951 34.6457 98.7996 32.0386V32.0427Z" fill="#14163A"/>
<path d="M131.913 49.9477C131.954 48.1102 133.155 44.7294 133.155 42.683C133.155 41.016 130.515 39.9757 128.745 39.9757H116.472C113.795 39.9757 112.503 42.2907 112.05 44.6654L110.932 50.3485C110.886 50.5531 110.8 50.988 110.734 51.2992C110.614 51.8663 110.086 52.6379 112.561 51.8918C116.365 50.7407 116.055 47.9951 116.806 44.593C116.946 43.9535 117.169 41.8303 118.683 41.8303H127.371C129.141 41.8303 128.369 44.1624 128.209 44.9767C127.668 47.7692 126.583 50.1908 128.976 51.5678C129.764 52.0197 130.758 52.2329 131.917 52.2329H162.663C163.13 52.2329 163.076 51.9814 163.076 51.5209C163.076 51.2992 162.866 51.1713 162.536 51.1074C162.296 51.0605 161.999 51.0434 161.673 51.0392C151.686 50.9709 141.637 51.0946 131.641 51.0946C131.814 50.3187 131.769 50.519 133.572 50.5233H172.177C172.053 50.2632 172.069 50.3442 172.04 49.952H131.917L131.913 49.9477Z" fill="#14163A"/>
<path d="M131.913 49.9477C131.954 48.1102 133.155 44.7294 133.155 42.683C133.155 41.016 130.515 39.9757 128.745 39.9757H116.472C113.795 39.9757 112.503 42.2907 112.05 44.6654L110.932 50.3485C110.886 50.5531 110.8 50.988 110.734 51.2992C110.614 51.8663 110.086 52.6379 112.561 51.8918C116.365 50.7407 116.055 47.9951 116.806 44.593C116.946 43.9535 117.169 41.8303 118.683 41.8303H127.371C129.141 41.8303 128.369 44.1624 128.209 44.9767C127.668 47.7692 126.583 50.1908 128.976 51.5678C129.764 52.0197 130.758 52.2329 131.917 52.2329H162.663C163.13 52.2329 163.076 51.9814 163.076 51.5209C163.076 51.2992 162.866 51.1713 162.536 51.1074C162.296 51.0605 161.999 51.0434 161.673 51.0392C151.686 50.9709 141.637 51.0946 131.641 51.0946C131.814 50.3187 131.769 50.519 133.572 50.5233H172.177C172.053 50.2632 172.069 50.3442 172.04 49.952H131.917L131.913 49.9477Z" fill="#14163A"/>
<path d="M49.0357 33.1646C49.2319 32.1979 49.4118 31.3043 49.6039 30.3376C49.9964 28.3758 50.8958 26.5033 49.187 25.297C47.7724 24.3019 45.8592 24.2166 43.4431 24.2166L9.1636 24.2247L8.37051 24.8502L31.4197 24.8949C30.8187 25.7113 28.9668 25.4392 27.3193 25.4392H13.1087C13.1414 25.8575 13.2395 26.0931 13.3826 26.3896H29.9153L29.4696 27.5878L27.7281 35.89C29.3961 35.89 30.7901 35.3458 31.7754 34.6147C33.9462 32.9981 33.4311 28.2905 34.5308 26.7633C35.3362 25.6504 37.3394 25.9794 39.2077 25.9794C46.6359 25.9794 46.0595 25.037 44.5919 32.007C44.0236 34.6999 45.9818 35.886 48.4961 35.886C48.5615 35.1183 48.8762 33.9282 49.0316 33.1605L49.0357 33.1646Z" fill="#14163A"/>
<path d="M49.0357 33.1646C49.2319 32.1979 49.4118 31.3043 49.6039 30.3376C49.9964 28.3758 50.8958 26.5033 49.187 25.297C47.7724 24.3019 45.8592 24.2166 43.4431 24.2166L9.1636 24.2247L8.37051 24.8502L31.4197 24.8949C30.8187 25.7113 28.9668 25.4392 27.3193 25.4392H13.1087C13.1414 25.8575 13.2395 26.0931 13.3826 26.3896H29.9153L29.4696 27.5878L27.7281 35.89C29.3961 35.89 30.7901 35.3458 31.7754 34.6147C33.9462 32.9981 33.4311 28.2905 34.5308 26.7633C35.3362 25.6504 37.3394 25.9794 39.2077 25.9794C46.6359 25.9794 46.0595 25.037 44.5919 32.007C44.0236 34.6999 45.9818 35.886 48.4961 35.886C48.5615 35.1183 48.8762 33.9282 49.0316 33.1605L49.0357 33.1646Z" fill="#14163A"/>
<path d="M86.1469 35.7679C88.1014 35.4579 90.1127 34.6286 90.7954 33.1109C91.1326 32.3662 91.2911 30.9853 91.4861 30.1641C92.1403 27.4386 92.8108 25.6431 89.3895 24.6206C87.3741 24.0208 76.6875 24.2663 74.1276 24.2663C73.7091 26.0497 75.3263 26.0216 76.2974 26.0175C77.5977 26.0095 86.2119 25.8364 86.8377 26.2068C87.9795 26.8791 87.0003 29.3106 86.6346 31.1423C85.8585 35.0191 85.5903 34.0932 76.7079 34.0932C77.2686 31.7019 78.0731 29.681 76.3056 28.437C75.2125 27.6681 74.5218 27.6359 73.315 27.6359C73.315 28.3203 73.0996 29.0369 72.9655 29.7092C72.8152 30.4499 72.7217 31.0014 72.5551 31.7261C72.23 33.127 72.0066 34.4917 71.6856 35.8444C73.9976 35.8444 84.8142 35.9853 86.1429 35.7719L86.1469 35.7679Z" fill="#14163A"/>
<path d="M86.1469 35.7679C88.1014 35.4579 90.1127 34.6286 90.7954 33.1109C91.1326 32.3662 91.2911 30.9853 91.4861 30.1641C92.1403 27.4386 92.8108 25.6431 89.3895 24.6206C87.3741 24.0208 76.6875 24.2663 74.1276 24.2663C73.7091 26.0497 75.3263 26.0216 76.2974 26.0175C77.5977 26.0095 86.2119 25.8364 86.8377 26.2068C87.9795 26.8791 87.0003 29.3106 86.6346 31.1423C85.8585 35.0191 85.5903 34.0932 76.7079 34.0932C77.2686 31.7019 78.0731 29.681 76.3056 28.437C75.2125 27.6681 74.5218 27.6359 73.315 27.6359C73.315 28.3203 73.0996 29.0369 72.9655 29.7092C72.8152 30.4499 72.7217 31.0014 72.5551 31.7261C72.23 33.127 72.0066 34.4917 71.6856 35.8444C73.9976 35.8444 84.8142 35.9853 86.1429 35.7719L86.1469 35.7679Z" fill="#14163A"/>
<path d="M123.656 43.4778C120.411 43.4778 120.383 43.4187 119.679 47.1624L118.736 52.2329C120.566 52.1906 122.339 51.3244 123.218 50.2174C123.914 49.3427 125.565 43.4778 123.652 43.4778H123.656Z" fill="#14163A"/>
<path d="M123.656 43.4778C120.411 43.4778 120.383 43.4187 119.679 47.1624L118.736 52.2329C120.566 52.1906 122.339 51.3244 123.218 50.2174C123.914 49.3427 125.565 43.4778 123.652 43.4778H123.656Z" fill="#14163A"/>
<path d="M74.9472 58.0739C74.1235 58.0739 73.3592 58.1461 72.7096 58.2395L71.1047 66.1476C71.6185 66.2071 72.2299 66.2411 72.9686 66.2411C74.5311 66.2411 75.8516 65.8376 76.756 65.0858C77.6561 64.3468 78.2802 63.2723 78.5477 61.96C78.8109 60.6604 78.5817 59.7302 78 59.0719C77.4311 58.4179 76.4418 58.0696 74.9515 58.0696L74.9472 58.0739ZM77.448 61.9982C77.0065 64.1685 75.5501 65.4086 73.3338 65.4086C72.9304 65.4086 72.5483 65.3959 72.2978 65.3492L73.5843 59.004C73.8687 58.9445 74.2848 58.8978 74.8198 58.8978C77.0107 58.8978 77.8387 60.104 77.4438 61.9982H77.448Z" fill="#14163A"/>
<path d="M74.9472 58.0739C74.1235 58.0739 73.3592 58.1461 72.7096 58.2395L71.1047 66.1476C71.6185 66.2071 72.2299 66.2411 72.9686 66.2411C74.5311 66.2411 75.8516 65.8376 76.756 65.0858C77.6561 64.3468 78.2802 63.2723 78.5477 61.96C78.8109 60.6604 78.5817 59.7302 78 59.0719C77.4311 58.4179 76.4418 58.0696 74.9515 58.0696L74.9472 58.0739ZM77.448 61.9982C77.0065 64.1685 75.5501 65.4086 73.3338 65.4086C72.9304 65.4086 72.5483 65.3959 72.2978 65.3492L73.5843 59.004C73.8687 58.9445 74.2848 58.8978 74.8198 58.8978C77.0107 58.8978 77.8387 60.104 77.4438 61.9982H77.448Z" fill="#14163A"/>
<path d="M82.1413 66.2411H83.2386L84.4648 60.4043H83.3675L82.1413 66.2411Z" fill="#14163A"/>
<path d="M82.1413 66.2411H83.2386L84.4648 60.4043H83.3675L82.1413 66.2411Z" fill="#14163A"/>
<path d="M84.3567 58.0696C83.856 58.0696 83.4221 58.3252 83.3219 58.6571C83.2274 58.9776 83.4944 59.237 83.9784 59.237C84.5236 59.237 84.9464 58.9814 85.0242 58.6571C85.1244 58.3252 84.8685 58.0696 84.3567 58.0696Z" fill="#14163A"/>
<path d="M84.3567 58.0696C83.856 58.0696 83.4221 58.3252 83.3219 58.6571C83.2274 58.9776 83.4944 59.237 83.9784 59.237C84.5236 59.237 84.9464 58.9814 85.0242 58.6571C85.1244 58.3252 84.8685 58.0696 84.3567 58.0696Z" fill="#14163A"/>
<path d="M90.7339 60.4043C89.9793 60.4043 89.2157 60.6015 88.6552 60.9013L88.7567 61.5709C89.2334 61.3162 89.8512 61.156 90.4073 61.156C91.6342 61.156 91.5856 61.9857 91.4885 62.4499L91.4621 62.5649C89.1496 62.5525 87.702 63.2919 87.4063 64.6391C87.2298 65.4483 87.6755 66.2411 88.8891 66.2411C89.7453 66.2411 90.4735 65.8467 90.9016 65.4113H90.9369L90.8707 66.1137H91.8637C91.8725 65.7317 91.952 65.2594 92.0579 64.7747L92.5124 62.6881C92.7551 61.5708 92.5654 60.4043 90.7339 60.4043ZM91.1223 64.2325C91.1002 64.3352 91.0472 64.4502 90.9898 64.557C90.7118 65.0294 90.116 65.4894 89.3349 65.4894C88.7788 65.4894 88.3772 65.1772 88.5184 64.52C88.7567 63.4356 90.1469 63.2385 91.3297 63.2631L91.1179 64.2325H91.1223Z" fill="#14163A"/>
<path d="M90.7339 60.4043C89.9793 60.4043 89.2157 60.6015 88.6552 60.9013L88.7567 61.5709C89.2334 61.3162 89.8512 61.156 90.4073 61.156C91.6342 61.156 91.5856 61.9857 91.4885 62.4499L91.4621 62.5649C89.1496 62.5525 87.702 63.2919 87.4063 64.6391C87.2298 65.4483 87.6755 66.2411 88.8891 66.2411C89.7453 66.2411 90.4735 65.8467 90.9016 65.4113H90.9369L90.8707 66.1137H91.8637C91.8725 65.7317 91.952 65.2594 92.0579 64.7747L92.5124 62.6881C92.7551 61.5708 92.5654 60.4043 90.7339 60.4043ZM91.1223 64.2325C91.1002 64.3352 91.0472 64.4502 90.9898 64.557C90.7118 65.0294 90.116 65.4894 89.3349 65.4894C88.7788 65.4894 88.3772 65.1772 88.5184 64.52C88.7567 63.4356 90.1469 63.2385 91.3297 63.2631L91.1179 64.2325H91.1223Z" fill="#14163A"/>
<path d="M101.928 61.3793H101.903C101.752 60.9166 101.316 60.4043 100.326 60.4043C99.0167 60.4043 97.5358 61.4826 97.1456 63.387C96.8268 64.9403 97.5945 66.126 99.0042 66.126C99.8852 66.126 100.586 65.7087 101.01 65.1882H101.035L100.905 65.8161C100.611 67.2331 99.7215 67.7784 98.6643 67.7784C97.9595 67.7784 97.4141 67.5678 97.0826 67.3364L96.6631 68.1131C97.0617 68.4146 97.779 68.5758 98.4629 68.5758C99.1803 68.5758 100.015 68.4146 100.674 67.9024C101.328 67.4149 101.748 66.6258 102.016 65.3369L102.688 62.0774C102.83 61.3917 102.944 60.9414 103.053 60.5324H102.146L101.924 61.3793H101.928ZM101.53 62.7467L101.32 63.7547C101.282 63.9282 101.219 64.1265 101.127 64.3C100.77 64.9486 100.112 65.3452 99.474 65.3452C98.3539 65.3452 97.9804 64.4281 98.207 63.3251C98.4755 62.0237 99.3524 61.2016 100.338 61.2016C101.093 61.2016 101.496 61.6891 101.563 62.2799C101.58 62.4203 101.563 62.5691 101.526 62.7426L101.53 62.7467Z" fill="#14163A"/>
<path d="M101.928 61.3793H101.903C101.752 60.9166 101.316 60.4043 100.326 60.4043C99.0167 60.4043 97.5358 61.4826 97.1456 63.387C96.8268 64.9403 97.5945 66.126 99.0042 66.126C99.8852 66.126 100.586 65.7087 101.01 65.1882H101.035L100.905 65.8161C100.611 67.2331 99.7215 67.7784 98.6643 67.7784C97.9595 67.7784 97.4141 67.5678 97.0826 67.3364L96.6631 68.1131C97.0617 68.4146 97.779 68.5758 98.4629 68.5758C99.1803 68.5758 100.015 68.4146 100.674 67.9024C101.328 67.4149 101.748 66.6258 102.016 65.3369L102.688 62.0774C102.83 61.3917 102.944 60.9414 103.053 60.5324H102.146L101.924 61.3793H101.928ZM101.53 62.7467L101.32 63.7547C101.282 63.9282 101.219 64.1265 101.127 64.3C100.77 64.9486 100.112 65.3452 99.474 65.3452C98.3539 65.3452 97.9804 64.4281 98.207 63.3251C98.4755 62.0237 99.3524 61.2016 100.338 61.2016C101.093 61.2016 101.496 61.6891 101.563 62.2799C101.58 62.4203 101.563 62.5691 101.526 62.7426L101.53 62.7467Z" fill="#14163A"/>
<path d="M110.277 60.4043C109.4 60.4043 108.69 60.9334 108.324 61.4793H108.3L108.425 60.5345H107.571C107.517 61.0048 107.435 61.4877 107.322 62.0798L106.538 66.2411H107.501L108.148 62.8104C108.183 62.634 108.238 62.4577 108.304 62.3275C108.577 61.748 109.162 61.2651 109.794 61.2651C110.702 61.2651 110.874 62.0336 110.702 62.9532L110.082 66.2411H111.045L111.689 62.8314C112.059 60.8746 111.01 60.4043 110.277 60.4043Z" fill="#14163A"/>
<path d="M110.277 60.4043C109.4 60.4043 108.69 60.9334 108.324 61.4793H108.3L108.425 60.5345H107.571C107.517 61.0048 107.435 61.4877 107.322 62.0798L106.538 66.2411H107.501L108.148 62.8104C108.183 62.634 108.238 62.4577 108.304 62.3275C108.577 61.748 109.162 61.2651 109.794 61.2651C110.702 61.2651 110.874 62.0336 110.702 62.9532L110.082 66.2411H111.045L111.689 62.8314C112.059 60.8746 111.01 60.4043 110.277 60.4043Z" fill="#14163A"/>
<path d="M121.06 58.0696H120.008L118.736 59.8207H119.421L121.06 58.0696Z" fill="#14163A"/>
<path d="M121.06 58.0696H120.008L118.736 59.8207H119.421L121.06 58.0696Z" fill="#14163A"/>
<path d="M119.389 60.4043C117.794 60.4043 116.301 61.501 115.91 63.3699C115.541 65.1361 116.509 66.2411 118.07 66.2411C119.462 66.2411 121.129 65.3415 121.562 63.2755C121.918 61.5667 121.044 60.4043 119.389 60.4043ZM120.48 63.3083C120.217 64.5652 119.275 65.4771 118.274 65.4771C117.272 65.4771 116.717 64.5529 116.975 63.333C117.2 62.2732 117.964 61.1642 119.203 61.1642C120.442 61.1642 120.679 62.3636 120.48 63.3083Z" fill="#14163A"/>
<path d="M119.389 60.4043C117.794 60.4043 116.301 61.501 115.91 63.3699C115.541 65.1361 116.509 66.2411 118.07 66.2411C119.462 66.2411 121.129 65.3415 121.562 63.2755C121.918 61.5667 121.044 60.4043 119.389 60.4043ZM120.48 63.3083C120.217 64.5652 119.275 65.4771 118.274 65.4771C117.272 65.4771 116.717 64.5529 116.975 63.333C117.2 62.2732 117.964 61.1642 119.203 61.1642C120.442 61.1642 120.679 62.3636 120.48 63.3083Z" fill="#14163A"/>
<path d="M125.973 62.0396C125.85 62.711 126.177 63.2671 127.016 63.6254C127.644 63.9014 127.855 64.1692 127.766 64.6552C127.681 65.1165 127.302 65.4873 126.633 65.4873C126.177 65.4873 125.735 65.2772 125.497 65.0836L125.126 65.858C125.438 66.0887 125.921 66.2411 126.474 66.2411C127.673 66.2411 128.486 65.5491 128.668 64.5646C128.821 63.7325 128.46 63.2465 127.655 62.8758C127.049 62.5998 126.786 62.3897 126.871 61.9284C126.949 61.5124 127.313 61.1663 127.855 61.1663C128.323 61.1663 128.654 61.3517 128.828 61.4918L129.192 60.7503C128.943 60.565 128.527 60.4043 128.015 60.4043C126.931 60.4043 126.14 61.1458 125.973 62.0478V62.0396Z" fill="#14163A"/>
<path d="M125.973 62.0396C125.85 62.711 126.177 63.2671 127.016 63.6254C127.644 63.9014 127.855 64.1692 127.766 64.6552C127.681 65.1165 127.302 65.4873 126.633 65.4873C126.177 65.4873 125.735 65.2772 125.497 65.0836L125.126 65.858C125.438 66.0887 125.921 66.2411 126.474 66.2411C127.673 66.2411 128.486 65.5491 128.668 64.5646C128.821 63.7325 128.46 63.2465 127.655 62.8758C127.049 62.5998 126.786 62.3897 126.871 61.9284C126.949 61.5124 127.313 61.1663 127.855 61.1663C128.323 61.1663 128.654 61.3517 128.828 61.4918L129.192 60.7503C128.943 60.565 128.527 60.4043 128.015 60.4043C126.931 60.4043 126.14 61.1458 125.973 62.0478V62.0396Z" fill="#14163A"/>
<path d="M136.765 58.6533L135.716 58.9307L135.444 60.3219H134.577L134.42 61.1242H135.287L134.663 64.2865C134.527 64.9693 134.531 65.4857 134.763 65.7972C134.948 66.0832 135.299 66.2411 135.778 66.2411C136.171 66.2411 136.497 66.1813 136.712 66.096L136.819 65.3065C136.683 65.3406 136.48 65.379 136.216 65.379C135.646 65.379 135.531 64.9736 135.671 64.2524L136.286 61.1242H137.748L137.905 60.3219H136.443L136.769 58.6576L136.765 58.6533Z" fill="#14163A"/>
<path d="M136.765 58.6533L135.716 58.9307L135.444 60.3219H134.577L134.42 61.1242H135.287L134.663 64.2865C134.527 64.9693 134.531 65.4857 134.763 65.7972C134.948 66.0832 135.299 66.2411 135.778 66.2411C136.171 66.2411 136.497 66.1813 136.712 66.096L136.819 65.3065C136.683 65.3406 136.48 65.379 136.216 65.379C135.646 65.379 135.531 64.9736 135.671 64.2524L136.286 61.1242H137.748L137.905 60.3219H136.443L136.769 58.6576L136.765 58.6533Z" fill="#14163A"/>
<path d="M143.606 58.0696C143.105 58.0696 142.671 58.3252 142.571 58.6571C142.476 58.9776 142.743 59.237 143.227 59.237C143.773 59.237 144.195 58.9814 144.273 58.6571C144.373 58.3252 144.117 58.0696 143.606 58.0696Z" fill="#14163A"/>
<path d="M143.606 58.0696C143.105 58.0696 142.671 58.3252 142.571 58.6571C142.476 58.9776 142.743 59.237 143.227 59.237C143.773 59.237 144.195 58.9814 144.273 58.6571C144.373 58.3252 144.117 58.0696 143.606 58.0696Z" fill="#14163A"/>
<path d="M141.39 66.2411H142.485L143.714 60.4043H142.619L141.39 66.2411Z" fill="#14163A"/>
<path d="M141.39 66.2411H142.485L143.714 60.4043H142.619L141.39 66.2411Z" fill="#14163A"/>
<path d="M147.277 63.3784C146.918 65.0943 147.816 66.2411 149.565 66.2411C150.344 66.2411 150.998 66.0554 151.302 65.9152L151.285 65.1521C150.96 65.28 150.532 65.4285 149.929 65.4285C148.778 65.4285 148.081 64.6282 148.355 63.333C148.603 62.1615 149.523 61.2128 150.853 61.2128C151.43 61.2128 151.798 61.3407 152.021 61.4809L152.427 60.6931C152.17 60.5528 151.648 60.4043 151.024 60.4043C149.129 60.4043 147.641 61.6542 147.277 63.3825V63.3784Z" fill="#14163A"/>
<path d="M147.277 63.3784C146.918 65.0943 147.816 66.2411 149.565 66.2411C150.344 66.2411 150.998 66.0554 151.302 65.9152L151.285 65.1521C150.96 65.28 150.532 65.4285 149.929 65.4285C148.778 65.4285 148.081 64.6282 148.355 63.333C148.603 62.1615 149.523 61.2128 150.853 61.2128C151.43 61.2128 151.798 61.3407 152.021 61.4809L152.427 60.6931C152.17 60.5528 151.648 60.4043 151.024 60.4043C149.129 60.4043 147.641 61.6542 147.277 63.3825V63.3784Z" fill="#14163A"/>
<path d="M158.889 60.4043C157.294 60.4043 155.8 61.501 155.41 63.3699C155.041 65.1361 156.008 66.2411 157.569 66.2411C158.961 66.2411 160.628 65.3415 161.061 63.2755C161.417 61.5667 160.543 60.4043 158.889 60.4043ZM159.979 63.3083C159.716 64.5652 158.774 65.4771 157.773 65.4771C156.772 65.4771 156.216 64.5529 156.475 63.333C156.699 62.2732 157.463 61.1642 158.702 61.1642C159.941 61.1642 160.179 62.3636 159.979 63.3083Z" fill="#14163A"/>
<path d="M158.889 60.4043C157.294 60.4043 155.8 61.501 155.41 63.3699C155.041 65.1361 156.008 66.2411 157.569 66.2411C158.961 66.2411 160.628 65.3415 161.061 63.2755C161.417 61.5667 160.543 60.4043 158.889 60.4043ZM159.979 63.3083C159.716 64.5652 158.774 65.4771 157.773 65.4771C156.772 65.4771 156.216 64.5529 156.475 63.333C156.699 62.2732 157.463 61.1642 158.702 61.1642C159.941 61.1642 160.179 62.3636 159.979 63.3083Z" fill="#14163A"/>
<path d="M165.593 62.0396C165.453 62.711 165.826 63.2671 166.785 63.6254C167.502 63.9014 167.744 64.1692 167.643 64.6552C167.545 65.1165 167.112 65.4873 166.348 65.4873C165.826 65.4873 165.321 65.2772 165.05 65.0836L164.625 65.858C164.982 66.0887 165.533 66.2411 166.166 66.2411C167.536 66.2411 168.466 65.5491 168.674 64.5646C168.848 63.7325 168.436 63.2465 167.515 62.8758C166.823 62.5998 166.522 62.3897 166.62 61.9284C166.709 61.5124 167.125 61.1663 167.744 61.1663C168.279 61.1663 168.657 61.3517 168.856 61.4918L169.272 60.7503C168.988 60.565 168.512 60.4043 167.927 60.4043C166.688 60.4043 165.784 61.1458 165.593 62.0478V62.0396Z" fill="#14163A"/>
<path d="M165.593 62.0396C165.453 62.711 165.826 63.2671 166.785 63.6254C167.502 63.9014 167.744 64.1692 167.643 64.6552C167.545 65.1165 167.112 65.4873 166.348 65.4873C165.826 65.4873 165.321 65.2772 165.05 65.0836L164.625 65.858C164.982 66.0887 165.533 66.2411 166.166 66.2411C167.536 66.2411 168.466 65.5491 168.674 64.5646C168.848 63.7325 168.436 63.2465 167.515 62.8758C166.823 62.5998 166.522 62.3897 166.62 61.9284C166.709 61.5124 167.125 61.1663 167.744 61.1663C168.279 61.1663 168.657 61.3517 168.856 61.4918L169.272 60.7503C168.988 60.565 168.512 60.4043 167.927 60.4043C166.688 60.4043 165.784 61.1458 165.593 62.0478V62.0396Z" fill="#14163A"/>
<path d="M168.525 54.0002C168.465 53.9413 168.387 53.8869 168.289 53.8462C168.525 53.828 168.718 53.7374 168.864 53.5788C169.01 53.4202 169.079 53.2344 169.079 53.0214C169.079 52.8718 169.036 52.7268 168.95 52.5954C168.864 52.4595 168.748 52.3688 168.602 52.3145C168.456 52.2601 168.22 52.2329 167.898 52.2329H166.949V55.1513H167.395V53.9096H167.657C167.812 53.9096 167.932 53.9413 168.014 54.0093C168.134 54.0999 168.289 54.3265 168.482 54.689L168.727 55.1513H169.272L168.937 54.5803C168.774 54.3084 168.641 54.118 168.529 54.0002H168.525ZM167.936 53.5063H167.395V52.6271H167.902C168.121 52.6271 168.271 52.6453 168.349 52.677C168.43 52.7087 168.491 52.7631 168.538 52.8311C168.585 52.899 168.607 52.9761 168.607 53.0622C168.607 53.1981 168.559 53.3024 168.465 53.3839C168.37 53.4655 168.194 53.5063 167.936 53.5063Z" fill="#14163A"/>
<path d="M168.525 54.0002C168.465 53.9413 168.387 53.8869 168.289 53.8462C168.525 53.828 168.718 53.7374 168.864 53.5788C169.01 53.4202 169.079 53.2344 169.079 53.0214C169.079 52.8718 169.036 52.7268 168.95 52.5954C168.864 52.4595 168.748 52.3688 168.602 52.3145C168.456 52.2601 168.22 52.2329 167.898 52.2329H166.949V55.1513H167.395V53.9096H167.657C167.812 53.9096 167.932 53.9413 168.014 54.0093C168.134 54.0999 168.289 54.3265 168.482 54.689L168.727 55.1513H169.272L168.937 54.5803C168.774 54.3084 168.641 54.118 168.529 54.0002H168.525ZM167.936 53.5063H167.395V52.6271H167.902C168.121 52.6271 168.271 52.6453 168.349 52.677C168.43 52.7087 168.491 52.7631 168.538 52.8311C168.585 52.899 168.607 52.9761 168.607 53.0622C168.607 53.1981 168.559 53.3024 168.465 53.3839C168.37 53.4655 168.194 53.5063 167.936 53.5063Z" fill="#14163A"/>
<path d="M169.25 51.4038C168.877 51.1754 168.497 51.0655 168.108 51.0655C167.72 51.0655 167.34 51.1798 166.967 51.4038C166.594 51.6322 166.307 51.9528 166.098 52.3744C165.888 52.7961 165.787 53.2353 165.787 53.6921C165.787 54.1489 165.888 54.5793 166.094 54.9966C166.299 55.4138 166.587 55.7388 166.955 55.9716C167.324 56.2044 167.709 56.3186 168.112 56.3186C168.516 56.3186 168.9 56.2044 169.269 55.9716C169.638 55.7388 169.925 55.4138 170.127 54.9966C170.333 54.5793 170.434 54.1445 170.434 53.6921C170.434 53.2397 170.329 52.7961 170.123 52.3744C169.918 51.9528 169.626 51.6278 169.254 51.4038H169.25ZM169.789 54.7813C169.619 55.1283 169.382 55.4006 169.071 55.5939C168.761 55.7871 168.442 55.8838 168.108 55.8838C167.775 55.8838 167.452 55.7871 167.146 55.5939C166.839 55.4006 166.598 55.1283 166.427 54.7813C166.257 54.4344 166.171 54.0698 166.171 53.6921C166.171 53.3144 166.257 52.9454 166.431 52.594C166.606 52.2427 166.847 51.9703 167.157 51.7815C167.464 51.5926 167.782 51.496 168.108 51.496C168.435 51.496 168.749 51.5926 169.06 51.7815C169.37 51.9703 169.611 52.2427 169.786 52.594C169.96 52.9454 170.046 53.31 170.046 53.6921C170.046 54.0742 169.96 54.4344 169.789 54.7813Z" fill="#14163A"/>
<path d="M169.25 51.4038C168.877 51.1754 168.497 51.0655 168.108 51.0655C167.72 51.0655 167.34 51.1798 166.967 51.4038C166.594 51.6322 166.307 51.9528 166.098 52.3744C165.888 52.7961 165.787 53.2353 165.787 53.6921C165.787 54.1489 165.888 54.5793 166.094 54.9966C166.299 55.4138 166.587 55.7388 166.955 55.9716C167.324 56.2044 167.709 56.3186 168.112 56.3186C168.516 56.3186 168.9 56.2044 169.269 55.9716C169.638 55.7388 169.925 55.4138 170.127 54.9966C170.333 54.5793 170.434 54.1445 170.434 53.6921C170.434 53.2397 170.329 52.7961 170.123 52.3744C169.918 51.9528 169.626 51.6278 169.254 51.4038H169.25ZM169.789 54.7813C169.619 55.1283 169.382 55.4006 169.071 55.5939C168.761 55.7871 168.442 55.8838 168.108 55.8838C167.775 55.8838 167.452 55.7871 167.146 55.5939C166.839 55.4006 166.598 55.1283 166.427 54.7813C166.257 54.4344 166.171 54.0698 166.171 53.6921C166.171 53.3144 166.257 52.9454 166.431 52.594C166.606 52.2427 166.847 51.9703 167.157 51.7815C167.464 51.5926 167.782 51.496 168.108 51.496C168.435 51.496 168.749 51.5926 169.06 51.7815C169.37 51.9703 169.611 52.2427 169.786 52.594C169.96 52.9454 170.046 53.31 170.046 53.6921C170.046 54.0742 169.96 54.4344 169.789 54.7813Z" fill="#14163A"/>
<path d="M70.594 53.4002C63.9214 65.8511 53.2477 73.9619 37.9492 73.9619C51.8935 72.5734 62.6411 66.7075 68.534 53.4002H32.598C26.7831 60.8916 20.1639 62.4339 12.4366 62.4339C30.2876 82.372 61.3853 78.0027 71.6856 53.4002H70.5899H70.594Z" fill="#14163A"/>
<path d="M70.594 53.4002C63.9214 65.8511 53.2477 73.9619 37.9492 73.9619C51.8935 72.5734 62.6411 66.7075 68.534 53.4002H32.598C26.7831 60.8916 20.1639 62.4339 12.4366 62.4339C30.2876 82.372 61.3853 78.0027 71.6856 53.4002H70.5899H70.594Z" fill="#14163A"/>
<path d="M31.2979 53.9245C31.4071 53.7965 31.5407 53.6804 31.6054 53.4002C31.3343 53.4243 31.0955 53.5083 30.9337 53.6764C24.2733 60.6081 15.2134 60.7561 9.53226 58.555C9.90453 59.2473 11.4745 61.4885 12.2312 61.5286C20.8905 61.9608 26.9116 59.1233 31.2979 53.9245Z" fill="#14163A"/>
<path d="M31.2979 53.9245C31.4071 53.7965 31.5407 53.6804 31.6054 53.4002C31.3343 53.4243 31.0955 53.5083 30.9337 53.6764C24.2733 60.6081 15.2134 60.7561 9.53226 58.555C9.90453 59.2473 11.4745 61.4885 12.2312 61.5286C20.8905 61.9608 26.9116 59.1233 31.2979 53.9245Z" fill="#14163A"/>
<path d="M29.8679 21.6722C30.0128 21.777 30.2061 21.8275 30.4436 21.8819C30.3551 21.4974 30.3108 21.4508 30.2182 21.3576C25.934 17.0238 18.9923 13.9211 11.5796 15.1482C11.181 15.2142 10.8951 15.3152 10.4965 15.4045C9.8482 16.2278 8.64431 17.3889 8.37051 18.3791C14.4666 16.1617 21.0378 15.3113 29.8638 21.6722H29.8679Z" fill="#14163A"/>
<path d="M29.8679 21.6722C30.0128 21.777 30.2061 21.8275 30.4436 21.8819C30.3551 21.4974 30.3108 21.4508 30.2182 21.3576C25.934 17.0238 18.9923 13.9211 11.5796 15.1482C11.181 15.2142 10.8951 15.3152 10.4965 15.4045C9.8482 16.2278 8.64431 17.3889 8.37051 18.3791C14.4666 16.1617 21.0378 15.3113 29.8638 21.6722H29.8679Z" fill="#14163A"/>
<path d="M31.306 21.6791C31.4424 21.8089 31.6242 21.8819 31.9589 21.8819H68.282C70.654 21.8819 56.8272 2.19177 40.6616 2.19177V1.81865C52.2032 1.81865 64.6662 9.97453 69.8027 20.1177C70.1457 20.799 70.4019 21.8778 71.3234 21.8778C71.9433 21.8778 71.6209 21.4763 71.4267 21.1154C65.4142 9.9867 54.3354 0.869629 40.9384 0.869629C28.5332 0.869629 19.2231 5.00233 10.8965 13.9977C10.818 14.0829 10.756 14.1924 10.694 14.4236C19.3182 13.5962 24.3968 15.0116 31.3102 21.675L31.306 21.6791Z" fill="#14163A"/>
<path d="M31.306 21.6791C31.4424 21.8089 31.6242 21.8819 31.9589 21.8819H68.282C70.654 21.8819 56.8272 2.19177 40.6616 2.19177V1.81865C52.2032 1.81865 64.6662 9.97453 69.8027 20.1177C70.1457 20.799 70.4019 21.8778 71.3234 21.8778C71.9433 21.8778 71.6209 21.4763 71.4267 21.1154C65.4142 9.9867 54.3354 0.869629 40.9384 0.869629C28.5332 0.869629 19.2231 5.00233 10.8965 13.9977C10.818 14.0829 10.756 14.1924 10.694 14.4236C19.3182 13.5962 24.3968 15.0116 31.3102 21.675L31.306 21.6791Z" fill="#14163A"/>
<path d="M23.2659 54.2793C23.6117 54.1315 23.9254 53.9631 24.054 53.7824C22.6024 53.9056 18.0704 56.3123 11.9581 53.2362C-2.17266 46.1186 0.537664 24.1418 15.2434 21.1724C16.6951 20.8808 17.5195 20.8438 19.2245 20.8356C21.0341 20.8274 22.1681 21.3695 22.9844 21.3901C22.9562 21.3695 22.912 21.312 22.8999 21.3408L22.1641 20.9958C18.2795 19.6076 13.6068 19.9115 10.0399 21.7556C-9.92165 32.6516 3.70642 62.6413 23.2779 54.2835L23.2659 54.2793Z" fill="#14163A"/>
<path d="M23.2659 54.2793C23.6117 54.1315 23.9254 53.9631 24.054 53.7824C22.6024 53.9056 18.0704 56.3123 11.9581 53.2362C-2.17266 46.1186 0.537664 24.1418 15.2434 21.1724C16.6951 20.8808 17.5195 20.8438 19.2245 20.8356C21.0341 20.8274 22.1681 21.3695 22.9844 21.3901C22.9562 21.3695 22.912 21.312 22.8999 21.3408L22.1641 20.9958C18.2795 19.6076 13.6068 19.9115 10.0399 21.7556C-9.92165 32.6516 3.70642 62.6413 23.2779 54.2835L23.2659 54.2793Z" fill="#14163A"/>
<path d="M31.0245 53.0605C29.9898 53.0605 27.9121 52.8505 27.1812 53.1964C16.4807 60.0311 8.35874 53.8428 6.047 52.2329C6.61775 53.8963 8.25612 57.0543 9.11841 57.6884C17.7289 61.324 26.4339 58.0589 31.0245 53.0605Z" fill="#14163A"/>
<path d="M31.0245 53.0605C29.9898 53.0605 27.9121 52.8505 27.1812 53.1964C16.4807 60.0311 8.35874 53.8428 6.047 52.2329C6.61775 53.8963 8.25612 57.0543 9.11841 57.6884C17.7289 61.324 26.4339 58.0589 31.0245 53.0605Z" fill="#14163A"/>
<path d="M10.4898 21.0592C14.886 18.9704 20.6438 19.2538 24.9293 21.3749C25.3476 21.5814 25.7987 21.9052 26.1719 22.0428C26.9675 22.3424 28.7965 22.1885 29.8628 22.1885C29.6454 21.3952 25.3353 19.1283 24.3224 18.7276C19.2331 16.7198 13.2703 16.5983 8.2876 19.0231C7.35258 19.4764 5.69988 23.2289 5.46612 24.2166C6.92197 23.2532 6.6103 23.1843 9.10779 21.723C9.62041 21.4235 9.9485 21.3182 10.4939 21.0592H10.4898Z" fill="#14163A"/>
<path d="M10.4898 21.0592C14.886 18.9704 20.6438 19.2538 24.9293 21.3749C25.3476 21.5814 25.7987 21.9052 26.1719 22.0428C26.9675 22.3424 28.7965 22.1885 29.8628 22.1885C29.6454 21.3952 25.3353 19.1283 24.3224 18.7276C19.2331 16.7198 13.2703 16.5983 8.2876 19.0231C7.35258 19.4764 5.69988 23.2289 5.46612 24.2166C6.92197 23.2532 6.6103 23.1843 9.10779 21.723C9.62041 21.4235 9.9485 21.3182 10.4939 21.0592H10.4898Z" fill="#14163A"/>
</svg>
