<svg width="175" height="112" viewBox="0 0 175 112" fill="none" xmlns="http://www.w3.org/2000/svg">
<path d="M81.4794 90.3183V77.4775H80.7289V83.3053H72.9398V77.4775H72.1854V90.3183H72.9398V83.9885H80.7289V90.3183H81.4794Z" fill="#14163A"/>
<path d="M81.4794 90.3183V77.4775H80.7289V83.3053H72.9398V77.4775H72.1854V90.3183H72.9398V83.9885H80.7289V90.3183H81.4794Z" fill="#14163A"/>
<path d="M85.7152 89.9449C86.2561 90.1952 86.877 90.3183 87.5785 90.3183C88.2799 90.3183 88.9009 90.1952 89.4418 89.9449C89.9826 89.6947 90.4394 89.361 90.807 88.9399C91.1746 88.5189 91.4572 88.0224 91.6473 87.4543C91.8375 86.8863 91.9349 86.2865 91.9349 85.6509C91.9349 85.0154 91.8375 84.4156 91.6473 83.8555C91.4572 83.2954 91.1788 82.7989 90.807 82.3699C90.4394 81.9408 89.9826 81.6032 89.4418 81.3529C88.9009 81.1027 88.2799 80.9796 87.5785 80.9796C86.877 80.9796 86.2561 81.1027 85.7152 81.3529C85.1743 81.6032 84.7181 81.9408 84.3505 82.3699C83.9828 82.7989 83.6993 83.2914 83.5091 83.8555C83.319 84.4156 83.222 85.0154 83.222 85.6509C83.222 86.2865 83.319 86.8903 83.5091 87.4543C83.6993 88.0224 83.9786 88.5149 84.3505 88.9399C84.7181 89.361 85.1743 89.6987 85.7152 89.9449ZM83.9232 85.647C83.9232 85.1147 84.0039 84.6023 84.1644 84.1097C84.325 83.6171 84.5571 83.1802 84.8656 82.7988C85.1741 82.4175 85.5543 82.1116 86.0106 81.8892C86.467 81.6628 86.9911 81.5516 87.5785 81.5516C88.1658 81.5516 88.6937 81.6628 89.1459 81.8892C89.6022 82.1156 89.9829 82.4175 90.2914 82.7988C90.5998 83.1802 90.832 83.6171 90.9925 84.1097C91.1531 84.6023 91.2338 85.1147 91.2338 85.647C91.2338 86.1792 91.1531 86.6917 90.9925 87.1842C90.832 87.6768 90.5998 88.1137 90.2914 88.4951C89.9829 88.8764 89.6022 89.1823 89.1459 89.4047C88.6895 89.6311 88.1658 89.7424 87.5785 89.7424C86.9911 89.7424 86.4627 89.6311 86.0106 89.4047C85.5543 89.1783 85.1741 88.8764 84.8656 88.4951C84.5571 88.1137 84.325 87.6768 84.1644 87.1842C84.0039 86.6917 83.9232 86.1792 83.9232 85.647Z" fill="#14163A"/>
<path d="M85.7152 89.9449C86.2561 90.1952 86.877 90.3183 87.5785 90.3183C88.2799 90.3183 88.9009 90.1952 89.4418 89.9449C89.9826 89.6947 90.4394 89.361 90.807 88.9399C91.1746 88.5189 91.4572 88.0224 91.6473 87.4543C91.8375 86.8863 91.9349 86.2865 91.9349 85.6509C91.9349 85.0154 91.8375 84.4156 91.6473 83.8555C91.4572 83.2954 91.1788 82.7989 90.807 82.3699C90.4394 81.9408 89.9826 81.6032 89.4418 81.3529C88.9009 81.1027 88.2799 80.9796 87.5785 80.9796C86.877 80.9796 86.2561 81.1027 85.7152 81.3529C85.1743 81.6032 84.7181 81.9408 84.3505 82.3699C83.9828 82.7989 83.6993 83.2914 83.5091 83.8555C83.319 84.4156 83.222 85.0154 83.222 85.6509C83.222 86.2865 83.319 86.8903 83.5091 87.4543C83.6993 88.0224 83.9786 88.5149 84.3505 88.9399C84.7181 89.361 85.1743 89.6987 85.7152 89.9449ZM83.9232 85.647C83.9232 85.1147 84.0039 84.6023 84.1644 84.1097C84.325 83.6171 84.5571 83.1802 84.8656 82.7988C85.1741 82.4175 85.5543 82.1116 86.0106 81.8892C86.467 81.6628 86.9911 81.5516 87.5785 81.5516C88.1658 81.5516 88.6937 81.6628 89.1459 81.8892C89.6022 82.1156 89.9829 82.4175 90.2914 82.7988C90.5998 83.1802 90.832 83.6171 90.9925 84.1097C91.1531 84.6023 91.2338 85.1147 91.2338 85.647C91.2338 86.1792 91.1531 86.6917 90.9925 87.1842C90.832 87.6768 90.5998 88.1137 90.2914 88.4951C89.9829 88.8764 89.6022 89.1823 89.1459 89.4047C88.6895 89.6311 88.1658 89.7424 87.5785 89.7424C86.9911 89.7424 86.4627 89.6311 86.0106 89.4047C85.5543 89.1783 85.1741 88.8764 84.8656 88.4951C84.5571 88.1137 84.325 87.6768 84.1644 87.1842C84.0039 86.6917 83.9232 86.1792 83.9232 85.647Z" fill="#14163A"/>
<path d="M94.2211 89.512C94.5676 89.786 94.969 89.9847 95.4296 90.1197C95.8902 90.2508 96.3931 90.3183 96.934 90.3183C97.3523 90.3183 97.7787 90.2826 98.2181 90.2071C98.6534 90.1316 99.0508 90.0006 99.41 89.8059C99.765 89.6152 100.061 89.365 100.297 89.0512C100.53 88.7374 100.648 88.3401 100.648 87.8516C100.648 87.363 100.564 87.0055 100.39 86.7075C100.217 86.4056 99.9806 86.1594 99.6805 85.9687C99.3805 85.778 99.0211 85.6271 98.6112 85.5159C98.1971 85.4046 97.7582 85.3093 97.2933 85.2299C96.913 85.1504 96.5322 85.067 96.1561 84.9876C95.78 84.9081 95.442 84.8009 95.142 84.6658C94.8419 84.5347 94.5969 84.356 94.411 84.1375C94.2251 83.919 94.1322 83.629 94.1322 83.2676C94.1322 82.9538 94.2164 82.6876 94.3812 82.4692C94.546 82.2507 94.7616 82.0719 95.0194 81.9329C95.2772 81.7939 95.5687 81.6946 95.8983 81.6389C96.2237 81.5794 96.5492 81.5516 96.8661 81.5516C97.2591 81.5516 97.6312 81.5953 97.9735 81.6826C98.3158 81.77 98.616 81.9011 98.8695 82.0838C99.123 82.2626 99.3171 82.4969 99.4608 82.7869C99.6003 83.0769 99.6722 83.4225 99.6722 83.8277H100.373C100.373 83.3192 100.285 82.8862 100.107 82.5248C99.9298 82.1673 99.6845 81.8693 99.3675 81.6389C99.0548 81.4086 98.6833 81.2377 98.2523 81.1345C97.8213 81.0312 97.3605 80.9796 96.8661 80.9796C96.4604 80.9796 96.0549 81.0153 95.6493 81.0908C95.2436 81.1662 94.876 81.2894 94.5507 81.4642C94.2253 81.639 93.9545 81.8733 93.7474 82.1673C93.5361 82.4612 93.4349 82.8306 93.4349 83.2676C93.4349 83.8793 93.5957 84.348 93.9169 84.6658C94.238 84.9836 94.6389 85.2299 95.1249 85.4046C95.6108 85.5794 96.1354 85.7066 96.6932 85.7939C97.2552 85.8813 97.7751 85.9925 98.2611 86.1316C98.7471 86.2706 99.148 86.4692 99.4691 86.7234C99.7903 86.9777 99.9515 87.355 99.9515 87.8516C99.9515 88.2329 99.8538 88.5507 99.6551 88.797C99.4565 89.0472 99.2071 89.2379 98.9071 89.3769C98.6071 89.5159 98.2778 89.6113 97.9271 89.6629C97.5764 89.7145 97.2463 89.7424 96.9379 89.7424C96.5068 89.7424 96.1058 89.6828 95.7382 89.5676C95.3705 89.4524 95.045 89.2816 94.7704 89.0552C94.4915 88.8287 94.2679 88.5586 94.0946 88.2408C93.9213 87.9231 93.8236 87.5536 93.7982 87.1405H93.097C93.1097 87.6609 93.2152 88.1177 93.4095 88.511C93.6081 88.9042 93.8788 89.2379 94.2211 89.508V89.512Z" fill="#14163A"/>
<path d="M94.2211 89.512C94.5676 89.786 94.969 89.9847 95.4296 90.1197C95.8902 90.2508 96.3931 90.3183 96.934 90.3183C97.3523 90.3183 97.7787 90.2826 98.2181 90.2071C98.6534 90.1316 99.0508 90.0006 99.41 89.8059C99.765 89.6152 100.061 89.365 100.297 89.0512C100.53 88.7374 100.648 88.3401 100.648 87.8516C100.648 87.363 100.564 87.0055 100.39 86.7075C100.217 86.4056 99.9806 86.1594 99.6805 85.9687C99.3805 85.778 99.0211 85.6271 98.6112 85.5159C98.1971 85.4046 97.7582 85.3093 97.2933 85.2299C96.913 85.1504 96.5322 85.067 96.1561 84.9876C95.78 84.9081 95.442 84.8009 95.142 84.6658C94.8419 84.5347 94.5969 84.356 94.411 84.1375C94.2251 83.919 94.1322 83.629 94.1322 83.2676C94.1322 82.9538 94.2164 82.6876 94.3812 82.4692C94.546 82.2507 94.7616 82.0719 95.0194 81.9329C95.2772 81.7939 95.5687 81.6946 95.8983 81.6389C96.2237 81.5794 96.5492 81.5516 96.8661 81.5516C97.2591 81.5516 97.6312 81.5953 97.9735 81.6826C98.3158 81.77 98.616 81.9011 98.8695 82.0838C99.123 82.2626 99.3171 82.4969 99.4608 82.7869C99.6003 83.0769 99.6722 83.4225 99.6722 83.8277H100.373C100.373 83.3192 100.285 82.8862 100.107 82.5248C99.9298 82.1673 99.6845 81.8693 99.3675 81.6389C99.0548 81.4086 98.6833 81.2377 98.2523 81.1345C97.8213 81.0312 97.3605 80.9796 96.8661 80.9796C96.4604 80.9796 96.0549 81.0153 95.6493 81.0908C95.2436 81.1662 94.876 81.2894 94.5507 81.4642C94.2253 81.639 93.9545 81.8733 93.7474 82.1673C93.5361 82.4612 93.4349 82.8306 93.4349 83.2676C93.4349 83.8793 93.5957 84.348 93.9169 84.6658C94.238 84.9836 94.6389 85.2299 95.1249 85.4046C95.6108 85.5794 96.1354 85.7066 96.6932 85.7939C97.2552 85.8813 97.7751 85.9925 98.2611 86.1316C98.7471 86.2706 99.148 86.4692 99.4691 86.7234C99.7903 86.9777 99.9515 87.355 99.9515 87.8516C99.9515 88.2329 99.8538 88.5507 99.6551 88.797C99.4565 89.0472 99.2071 89.2379 98.9071 89.3769C98.6071 89.5159 98.2778 89.6113 97.9271 89.6629C97.5764 89.7145 97.2463 89.7424 96.9379 89.7424C96.5068 89.7424 96.1058 89.6828 95.7382 89.5676C95.3705 89.4524 95.045 89.2816 94.7704 89.0552C94.4915 88.8287 94.2679 88.5586 94.0946 88.2408C93.9213 87.9231 93.8236 87.5536 93.7982 87.1405H93.097C93.1097 87.6609 93.2152 88.1177 93.4095 88.511C93.6081 88.9042 93.8788 89.2379 94.2211 89.508V89.512Z" fill="#14163A"/>
<path d="M108.239 90.3484C108.755 90.1084 109.182 89.7732 109.519 89.3428C109.857 88.9166 110.109 88.4076 110.275 87.8158C110.442 87.2241 110.523 86.5744 110.523 85.8626C110.523 85.2129 110.438 84.5922 110.275 84.0004C110.109 83.4087 109.857 82.8914 109.519 82.4445C109.182 81.9976 108.755 81.6417 108.239 81.3768C107.723 81.112 107.113 80.9796 106.414 80.9796C105.915 80.9796 105.475 81.0582 105.089 81.2154C104.703 81.3727 104.374 81.5672 104.101 81.8031C103.829 82.0389 103.61 82.2955 103.443 82.5728C103.277 82.85 103.159 83.1025 103.086 83.3342H103.049V81.1989H102.391V93.8204H103.049V88.5566H103.086C103.358 89.318 103.793 89.8643 104.387 90.2036C104.98 90.5429 105.654 90.7085 106.414 90.7085C107.113 90.7085 107.723 90.5884 108.239 90.3484ZM103.768 88.8214C103.512 88.4283 103.334 87.9772 103.224 87.4641C103.118 86.951 103.066 86.4171 103.066 85.8626C103.066 85.3081 103.126 84.7743 103.244 84.2611C103.362 83.748 103.557 83.2928 103.821 82.8955C104.089 82.4983 104.435 82.1796 104.862 81.9355C105.288 81.6955 105.804 81.5755 106.41 81.5755C107.016 81.5755 107.552 81.6996 107.987 81.9479C108.422 82.1962 108.775 82.519 109.048 82.9245C109.32 83.3301 109.523 83.7852 109.653 84.2984C109.783 84.8115 109.849 85.3329 109.849 85.8626C109.849 86.442 109.779 86.9882 109.645 87.4972C109.507 88.0103 109.3 88.4573 109.023 88.8463C108.743 89.2311 108.39 89.5415 107.955 89.7691C107.52 89.9967 107.008 90.1126 106.414 90.1126C105.772 90.1126 105.236 89.9967 104.801 89.7608C104.366 89.5249 104.024 89.2104 103.768 88.8214Z" fill="#14163A"/>
<path d="M108.239 90.3484C108.755 90.1084 109.182 89.7732 109.519 89.3428C109.857 88.9166 110.109 88.4076 110.275 87.8158C110.442 87.2241 110.523 86.5744 110.523 85.8626C110.523 85.2129 110.438 84.5922 110.275 84.0004C110.109 83.4087 109.857 82.8914 109.519 82.4445C109.182 81.9976 108.755 81.6417 108.239 81.3768C107.723 81.112 107.113 80.9796 106.414 80.9796C105.915 80.9796 105.475 81.0582 105.089 81.2154C104.703 81.3727 104.374 81.5672 104.101 81.8031C103.829 82.0389 103.61 82.2955 103.443 82.5728C103.277 82.85 103.159 83.1025 103.086 83.3342H103.049V81.1989H102.391V93.8204H103.049V88.5566H103.086C103.358 89.318 103.793 89.8643 104.387 90.2036C104.98 90.5429 105.654 90.7085 106.414 90.7085C107.113 90.7085 107.723 90.5884 108.239 90.3484ZM103.768 88.8214C103.512 88.4283 103.334 87.9772 103.224 87.4641C103.118 86.951 103.066 86.4171 103.066 85.8626C103.066 85.3081 103.126 84.7743 103.244 84.2611C103.362 83.748 103.557 83.2928 103.821 82.8955C104.089 82.4983 104.435 82.1796 104.862 81.9355C105.288 81.6955 105.804 81.5755 106.41 81.5755C107.016 81.5755 107.552 81.6996 107.987 81.9479C108.422 82.1962 108.775 82.519 109.048 82.9245C109.32 83.3301 109.523 83.7852 109.653 84.2984C109.783 84.8115 109.849 85.3329 109.849 85.8626C109.849 86.442 109.779 86.9882 109.645 87.4972C109.507 88.0103 109.3 88.4573 109.023 88.8463C108.743 89.2311 108.39 89.5415 107.955 89.7691C107.52 89.9967 107.008 90.1126 106.414 90.1126C105.772 90.1126 105.236 89.9967 104.801 89.7608C104.366 89.5249 104.024 89.2104 103.768 88.8214Z" fill="#14163A"/>
<path d="M112.847 77.4775H112.265V79.2285H112.847V77.4775Z" fill="#14163A"/>
<path d="M112.847 77.4775H112.265V79.2285H112.847V77.4775Z" fill="#14163A"/>
<path d="M112.847 80.9796H112.265V90.3183H112.847V80.9796Z" fill="#14163A"/>
<path d="M112.847 80.9796H112.265V90.3183H112.847V80.9796Z" fill="#14163A"/>
<path d="M116.534 78.0612H115.812V80.9656H114.008V81.5639H115.812V88.0832C115.786 88.615 115.852 89.0347 116.013 89.338C116.169 89.6413 116.382 89.8657 116.647 90.0194C116.912 90.169 117.221 90.2604 117.569 90.2937C117.916 90.3227 118.272 90.3269 118.642 90.302V89.7036C118.299 89.7161 117.999 89.7119 117.738 89.687C117.477 89.6621 117.255 89.5914 117.073 89.4793C116.89 89.3629 116.751 89.1967 116.664 88.9807C116.577 88.7646 116.53 88.4654 116.53 88.0915V81.5722H118.655V80.9739H116.53V78.0695L116.534 78.0612Z" fill="#14163A"/>
<path d="M116.534 78.0612H115.812V80.9656H114.008V81.5639H115.812V88.0832C115.786 88.615 115.852 89.0347 116.013 89.338C116.169 89.6413 116.382 89.8657 116.647 90.0194C116.912 90.169 117.221 90.2604 117.569 90.2937C117.916 90.3227 118.272 90.3269 118.642 90.302V89.7036C118.299 89.7161 117.999 89.7119 117.738 89.687C117.477 89.6621 117.255 89.5914 117.073 89.4793C116.89 89.3629 116.751 89.1967 116.664 88.9807C116.577 88.7646 116.53 88.4654 116.53 88.0915V81.5722H118.655V80.9739H116.53V78.0695L116.534 78.0612Z" fill="#14163A"/>
<path d="M120.028 89.7021C120.552 90.1116 121.291 90.3183 122.247 90.3183C122.679 90.3183 123.074 90.2666 123.434 90.1633C123.794 90.0599 124.118 89.9128 124.406 89.7299C124.689 89.5431 124.934 89.3324 125.13 89.0938C125.33 88.8553 125.477 88.6048 125.585 88.3385H125.621V88.8076C125.621 88.9944 125.637 89.1654 125.665 89.3204C125.693 89.4755 125.749 89.6146 125.833 89.7299C125.913 89.8452 126.033 89.9367 126.193 90.0082C126.349 90.0758 126.561 90.1116 126.829 90.1116C127.017 90.1116 127.197 90.0877 127.369 90.044V89.4874C127.161 89.5232 126.997 89.5391 126.881 89.5391C126.729 89.5391 126.613 89.5073 126.533 89.4437C126.453 89.3801 126.393 89.2966 126.357 89.1932C126.321 89.0899 126.301 88.9746 126.297 88.8474C126.293 88.7201 126.289 88.5929 126.289 88.4657V83.2695C126.289 82.5857 126.041 82.0331 125.545 81.6117C125.05 81.1903 124.262 80.9796 123.179 80.9796C122.095 80.9796 121.259 81.2261 120.671 81.719C120.084 82.212 119.764 82.9515 119.72 83.9334H120.384C120.432 83.1343 120.699 82.538 121.195 82.1444C121.691 81.7508 122.339 81.552 123.142 81.552C123.598 81.552 123.982 81.5998 124.294 81.6912C124.61 81.7826 124.865 81.9099 125.061 82.0729C125.261 82.2359 125.405 82.4187 125.497 82.6294C125.589 82.8362 125.637 83.0628 125.637 83.3053C125.637 83.6194 125.621 83.8778 125.585 84.0885C125.549 84.2992 125.461 84.4662 125.321 84.6014C125.181 84.7365 124.973 84.8399 124.702 84.9154C124.426 84.991 124.054 85.0466 123.574 85.0824L122.542 85.1699C122.183 85.2057 121.807 85.2613 121.415 85.3448C121.024 85.4243 120.671 85.5635 120.348 85.7543C120.028 85.9451 119.764 86.2075 119.552 86.5375C119.34 86.8675 119.236 87.2929 119.236 87.8137C119.236 88.6724 119.5 89.3046 120.024 89.714L120.028 89.7021ZM120.152 86.78C120.316 86.5176 120.528 86.3149 120.787 86.1638C121.051 86.0127 121.343 85.9054 121.671 85.8418C121.999 85.7782 122.322 85.7304 122.65 85.6947L123.77 85.5913C124.178 85.5555 124.546 85.5038 124.878 85.4362C125.21 85.3687 125.457 85.2335 125.621 85.0347V86.7045C125.621 86.8198 125.589 87.0424 125.525 87.3724C125.461 87.7024 125.313 88.0443 125.081 88.3981C124.85 88.7519 124.509 89.066 124.07 89.3363C123.626 89.6107 123.027 89.7458 122.271 89.7458C121.515 89.7458 120.959 89.5868 120.539 89.2688C120.12 88.9507 119.912 88.4617 119.912 87.8018C119.912 87.3843 119.992 87.0464 120.156 86.784L120.152 86.78Z" fill="#14163A"/>
<path d="M120.028 89.7021C120.552 90.1116 121.291 90.3183 122.247 90.3183C122.679 90.3183 123.074 90.2666 123.434 90.1633C123.794 90.0599 124.118 89.9128 124.406 89.7299C124.689 89.5431 124.934 89.3324 125.13 89.0938C125.33 88.8553 125.477 88.6048 125.585 88.3385H125.621V88.8076C125.621 88.9944 125.637 89.1654 125.665 89.3204C125.693 89.4755 125.749 89.6146 125.833 89.7299C125.913 89.8452 126.033 89.9367 126.193 90.0082C126.349 90.0758 126.561 90.1116 126.829 90.1116C127.017 90.1116 127.197 90.0877 127.369 90.044V89.4874C127.161 89.5232 126.997 89.5391 126.881 89.5391C126.729 89.5391 126.613 89.5073 126.533 89.4437C126.453 89.3801 126.393 89.2966 126.357 89.1932C126.321 89.0899 126.301 88.9746 126.297 88.8474C126.293 88.7201 126.289 88.5929 126.289 88.4657V83.2695C126.289 82.5857 126.041 82.0331 125.545 81.6117C125.05 81.1903 124.262 80.9796 123.179 80.9796C122.095 80.9796 121.259 81.2261 120.671 81.719C120.084 82.212 119.764 82.9515 119.72 83.9334H120.384C120.432 83.1343 120.699 82.538 121.195 82.1444C121.691 81.7508 122.339 81.552 123.142 81.552C123.598 81.552 123.982 81.5998 124.294 81.6912C124.61 81.7826 124.865 81.9099 125.061 82.0729C125.261 82.2359 125.405 82.4187 125.497 82.6294C125.589 82.8362 125.637 83.0628 125.637 83.3053C125.637 83.6194 125.621 83.8778 125.585 84.0885C125.549 84.2992 125.461 84.4662 125.321 84.6014C125.181 84.7365 124.973 84.8399 124.702 84.9154C124.426 84.991 124.054 85.0466 123.574 85.0824L122.542 85.1699C122.183 85.2057 121.807 85.2613 121.415 85.3448C121.024 85.4243 120.671 85.5635 120.348 85.7543C120.028 85.9451 119.764 86.2075 119.552 86.5375C119.34 86.8675 119.236 87.2929 119.236 87.8137C119.236 88.6724 119.5 89.3046 120.024 89.714L120.028 89.7021ZM120.152 86.78C120.316 86.5176 120.528 86.3149 120.787 86.1638C121.051 86.0127 121.343 85.9054 121.671 85.8418C121.999 85.7782 122.322 85.7304 122.65 85.6947L123.77 85.5913C124.178 85.5555 124.546 85.5038 124.878 85.4362C125.21 85.3687 125.457 85.2335 125.621 85.0347V86.7045C125.621 86.8198 125.589 87.0424 125.525 87.3724C125.461 87.7024 125.313 88.0443 125.081 88.3981C124.85 88.7519 124.509 89.066 124.07 89.3363C123.626 89.6107 123.027 89.7458 122.271 89.7458C121.515 89.7458 120.959 89.5868 120.539 89.2688C120.12 88.9507 119.912 88.4617 119.912 87.8018C119.912 87.3843 119.992 87.0464 120.156 86.784L120.152 86.78Z" fill="#14163A"/>
<path d="M129.692 77.4775H128.53V90.3183H129.692V77.4775Z" fill="#14163A"/>
<path d="M129.692 77.4775H128.53V90.3183H129.692V77.4775Z" fill="#14163A"/>
<path d="M82.1957 96.9349C81.6737 96.331 81.0372 95.8545 80.285 95.5094C79.5288 95.1644 78.6738 94.9877 77.7162 94.9877C76.7586 94.9877 75.8994 95.1603 75.139 95.5094C74.3787 95.8586 73.7377 96.331 73.2157 96.9349C72.6937 97.5387 72.2948 98.2535 72.0194 99.0709C71.744 99.8925 71.6044 100.767 71.6044 101.7C71.6044 102.632 71.7399 103.512 72.0194 104.329C72.2948 105.151 72.6937 105.861 73.2157 106.465C73.7377 107.069 74.3787 107.545 75.139 107.891C75.8994 108.236 76.7586 108.412 77.7162 108.412C78.6738 108.412 79.5288 108.24 80.285 107.891C81.0413 107.545 81.6778 107.069 82.1957 106.465C82.7176 105.861 83.1166 105.151 83.392 104.329C83.6673 103.507 83.8031 102.632 83.8031 101.7C83.8031 100.767 83.6673 99.8884 83.392 99.0709C83.1166 98.2494 82.7176 97.5387 82.1957 96.9349ZM82.6561 104.037C82.4177 104.769 82.0682 105.405 81.6161 105.947C81.1599 106.494 80.6094 106.925 79.9559 107.25C79.3024 107.574 78.5585 107.734 77.7201 107.734C76.8816 107.734 76.1335 107.574 75.4759 107.25C74.8183 106.925 74.2591 106.494 73.807 105.947C73.3508 105.401 73.0063 104.764 72.7679 104.037C72.5296 103.306 72.41 102.53 72.41 101.704C72.41 100.878 72.5296 100.102 72.7679 99.3708C73.0063 98.6396 73.3549 98.0029 73.807 97.4607C74.2632 96.9143 74.8183 96.483 75.4759 96.1585C76.1335 95.8339 76.8816 95.6737 77.7201 95.6737C78.5585 95.6737 79.3024 95.8339 79.9559 96.1585C80.6094 96.483 81.1599 96.9143 81.6161 97.4607C82.0723 98.007 82.4177 98.6437 82.6561 99.3708C82.8945 100.102 83.014 100.878 83.014 101.704C83.014 102.53 82.8945 103.306 82.6561 104.037Z" fill="#14163A"/>
<path d="M82.1957 96.9349C81.6737 96.331 81.0372 95.8545 80.285 95.5094C79.5288 95.1644 78.6738 94.9877 77.7162 94.9877C76.7586 94.9877 75.8994 95.1603 75.139 95.5094C74.3787 95.8586 73.7377 96.331 73.2157 96.9349C72.6937 97.5387 72.2948 98.2535 72.0194 99.0709C71.744 99.8925 71.6044 100.767 71.6044 101.7C71.6044 102.632 71.7399 103.512 72.0194 104.329C72.2948 105.151 72.6937 105.861 73.2157 106.465C73.7377 107.069 74.3787 107.545 75.139 107.891C75.8994 108.236 76.7586 108.412 77.7162 108.412C78.6738 108.412 79.5288 108.24 80.285 107.891C81.0413 107.545 81.6778 107.069 82.1957 106.465C82.7176 105.861 83.1166 105.151 83.392 104.329C83.6673 103.507 83.8031 102.632 83.8031 101.7C83.8031 100.767 83.6673 99.8884 83.392 99.0709C83.1166 98.2494 82.7176 97.5387 82.1957 96.9349ZM82.6561 104.037C82.4177 104.769 82.0682 105.405 81.6161 105.947C81.1599 106.494 80.6094 106.925 79.9559 107.25C79.3024 107.574 78.5585 107.734 77.7201 107.734C76.8816 107.734 76.1335 107.574 75.4759 107.25C74.8183 106.925 74.2591 106.494 73.807 105.947C73.3508 105.401 73.0063 104.764 72.7679 104.037C72.5296 103.306 72.41 102.53 72.41 101.704C72.41 100.878 72.5296 100.102 72.7679 99.3708C73.0063 98.6396 73.3549 98.0029 73.807 97.4607C74.2632 96.9143 74.8183 96.483 75.4759 96.1585C76.1335 95.8339 76.8816 95.6737 77.7201 95.6737C78.5585 95.6737 79.3024 95.8339 79.9559 96.1585C80.6094 96.483 81.1599 96.9143 81.6161 97.4607C82.0723 98.007 82.4177 98.6437 82.6561 99.3708C82.8945 100.102 83.014 100.878 83.014 101.704C83.014 102.53 82.8945 103.306 82.6561 104.037Z" fill="#14163A"/>
<path d="M86.2157 97.4354C86.2157 96.9267 86.348 96.5848 86.6161 96.4139C86.8842 96.2429 87.2159 96.1575 87.6117 96.1575C87.8245 96.1575 88.1011 96.186 88.4501 96.247V95.6609C88.1011 95.5999 87.8245 95.5714 87.6117 95.5714C87.3266 95.5714 87.0579 95.608 86.8026 95.6772C86.5473 95.7464 86.3261 95.8563 86.1346 95.9987C85.9431 96.1412 85.7902 96.3284 85.6796 96.5604C85.5689 96.7924 85.5135 97.0692 85.5135 97.3866V99.271H83.8031V99.8571H85.5135V108.412H86.2201V99.8571H88.2118V99.271H86.2201V97.4395L86.2157 97.4354Z" fill="#14163A"/>
<path d="M86.2157 97.4354C86.2157 96.9267 86.348 96.5848 86.6161 96.4139C86.8842 96.2429 87.2159 96.1575 87.6117 96.1575C87.8245 96.1575 88.1011 96.186 88.4501 96.247V95.6609C88.1011 95.5999 87.8245 95.5714 87.6117 95.5714C87.3266 95.5714 87.0579 95.608 86.8026 95.6772C86.5473 95.7464 86.3261 95.8563 86.1346 95.9987C85.9431 96.1412 85.7902 96.3284 85.6796 96.5604C85.5689 96.7924 85.5135 97.0692 85.5135 97.3866V99.271H83.8031V99.8571H85.5135V108.412H86.2201V99.8571H88.2118V99.271H86.2201V97.4395L86.2157 97.4354Z" fill="#14163A"/>
<path d="M90.66 96.1551H90.0287V99.0594H88.4501V99.6578H90.0287V106.177C90.0059 106.709 90.0628 107.129 90.2035 107.432C90.3404 107.735 90.5266 107.96 90.7587 108.113C90.9907 108.263 91.2605 108.354 91.5648 108.388C91.8691 108.417 92.181 108.421 92.5043 108.396V107.798C92.2038 107.81 91.9415 107.806 91.7132 107.781C91.485 107.756 91.2915 107.685 91.1317 107.573C90.972 107.457 90.8499 107.291 90.7738 107.075C90.6977 106.858 90.6561 106.559 90.6561 106.185V99.6661H92.516V99.0677H90.6561V96.1634L90.66 96.1551Z" fill="#14163A"/>
<path d="M90.66 96.1551H90.0287V99.0594H88.4501V99.6578H90.0287V106.177C90.0059 106.709 90.0628 107.129 90.2035 107.432C90.3404 107.735 90.5266 107.96 90.7587 108.113C90.9907 108.263 91.2605 108.354 91.5648 108.388C91.8691 108.417 92.181 108.421 92.5043 108.396V107.798C92.2038 107.81 91.9415 107.806 91.7132 107.781C91.485 107.756 91.2915 107.685 91.1317 107.573C90.972 107.457 90.8499 107.291 90.7738 107.075C90.6977 106.858 90.6561 106.559 90.6561 106.185V99.6661H92.516V99.0677H90.6561V96.1634L90.66 96.1551Z" fill="#14163A"/>
<path d="M100.974 107.527C100.895 107.463 100.834 107.38 100.798 107.277C100.762 107.173 100.743 107.058 100.739 106.931C100.731 106.804 100.73 106.677 100.73 106.55V101.36C100.73 100.678 100.483 100.126 99.9872 99.7048C99.4914 99.2839 98.7035 99.0734 97.62 99.0734C96.5365 99.0734 95.7004 99.3196 95.1127 99.812C94.5249 100.304 94.2055 101.043 94.1615 102.024H94.8251C94.873 101.225 95.1413 100.63 95.6371 100.237C96.1329 99.8437 96.7802 99.6452 97.5839 99.6452C98.0396 99.6452 98.4239 99.6928 98.7357 99.7842C99.0516 99.8755 99.3074 100.003 99.5033 100.165C99.6992 100.328 99.8469 100.511 99.9388 100.721C100.031 100.928 100.078 101.154 100.078 101.396C100.078 101.71 100.063 101.968 100.027 102.178C99.9907 102.385 99.9025 102.556 99.7626 102.691C99.6226 102.826 99.4153 102.929 99.1434 103.004C98.8676 103.08 98.4953 103.135 98.0155 103.171L96.9838 103.258C96.6239 103.294 96.2486 103.35 95.8568 103.433C95.465 103.513 95.1133 103.652 94.7894 103.842C94.4696 104.033 94.2054 104.295 93.9935 104.624C93.7816 104.954 93.6776 105.379 93.6776 105.899C93.6776 106.756 93.9414 107.388 94.4652 107.797C94.989 108.206 95.7284 108.412 96.684 108.412C97.1158 108.412 97.5121 108.361 97.8719 108.257C98.2318 108.154 98.5558 108.007 98.8436 107.825C99.1275 107.638 99.3713 107.428 99.5673 107.193C99.7632 106.955 99.9149 106.705 100.023 106.439H100.059V106.907C100.059 107.094 100.075 107.265 100.103 107.42C100.131 107.574 100.187 107.713 100.271 107.829C100.351 107.944 100.47 108.035 100.63 108.106C100.79 108.178 100.999 108.21 101.27 108.21C101.458 108.21 101.638 108.186 101.81 108.142V107.586C101.602 107.622 101.438 107.638 101.322 107.638C101.17 107.638 101.054 107.606 100.974 107.543V107.527ZM100.067 104.795C100.067 104.91 100.035 105.133 99.9711 105.462C99.9071 105.792 99.7591 106.133 99.5272 106.486C99.2953 106.84 98.9549 107.154 98.5111 107.424C98.0673 107.694 97.4679 107.832 96.7123 107.832C95.9566 107.832 95.4006 107.674 94.9808 107.356C94.561 107.038 94.3534 106.55 94.3534 105.891C94.3534 105.474 94.4331 105.136 94.597 104.874C94.761 104.612 94.9729 104.41 95.2328 104.259C95.4967 104.108 95.7887 104.001 96.1166 103.937C96.4444 103.874 96.7682 103.826 97.0961 103.79L98.2157 103.687C98.6235 103.651 98.9913 103.6 99.3231 103.532C99.655 103.465 99.9033 103.33 100.067 103.131V104.795Z" fill="#14163A"/>
<path d="M100.974 107.527C100.895 107.463 100.834 107.38 100.798 107.277C100.762 107.173 100.743 107.058 100.739 106.931C100.731 106.804 100.73 106.677 100.73 106.55V101.36C100.73 100.678 100.483 100.126 99.9872 99.7048C99.4914 99.2839 98.7035 99.0734 97.62 99.0734C96.5365 99.0734 95.7004 99.3196 95.1127 99.812C94.5249 100.304 94.2055 101.043 94.1615 102.024H94.8251C94.873 101.225 95.1413 100.63 95.6371 100.237C96.1329 99.8437 96.7802 99.6452 97.5839 99.6452C98.0396 99.6452 98.4239 99.6928 98.7357 99.7842C99.0516 99.8755 99.3074 100.003 99.5033 100.165C99.6992 100.328 99.8469 100.511 99.9388 100.721C100.031 100.928 100.078 101.154 100.078 101.396C100.078 101.71 100.063 101.968 100.027 102.178C99.9907 102.385 99.9025 102.556 99.7626 102.691C99.6226 102.826 99.4153 102.929 99.1434 103.004C98.8676 103.08 98.4953 103.135 98.0155 103.171L96.9838 103.258C96.6239 103.294 96.2486 103.35 95.8568 103.433C95.465 103.513 95.1133 103.652 94.7894 103.842C94.4696 104.033 94.2054 104.295 93.9935 104.624C93.7816 104.954 93.6776 105.379 93.6776 105.899C93.6776 106.756 93.9414 107.388 94.4652 107.797C94.989 108.206 95.7284 108.412 96.684 108.412C97.1158 108.412 97.5121 108.361 97.8719 108.257C98.2318 108.154 98.5558 108.007 98.8436 107.825C99.1275 107.638 99.3713 107.428 99.5673 107.193C99.7632 106.955 99.9149 106.705 100.023 106.439H100.059V106.907C100.059 107.094 100.075 107.265 100.103 107.42C100.131 107.574 100.187 107.713 100.271 107.829C100.351 107.944 100.47 108.035 100.63 108.106C100.79 108.178 100.999 108.21 101.27 108.21C101.458 108.21 101.638 108.186 101.81 108.142V107.586C101.602 107.622 101.438 107.638 101.322 107.638C101.17 107.638 101.054 107.606 100.974 107.543V107.527ZM100.067 104.795C100.067 104.91 100.035 105.133 99.9711 105.462C99.9071 105.792 99.7591 106.133 99.5272 106.486C99.2953 106.84 98.9549 107.154 98.5111 107.424C98.0673 107.694 97.4679 107.832 96.7123 107.832C95.9566 107.832 95.4006 107.674 94.9808 107.356C94.561 107.038 94.3534 106.55 94.3534 105.891C94.3534 105.474 94.4331 105.136 94.597 104.874C94.761 104.612 94.9729 104.41 95.2328 104.259C95.4967 104.108 95.7887 104.001 96.1166 103.937C96.4444 103.874 96.7682 103.826 97.0961 103.79L98.2157 103.687C98.6235 103.651 98.9913 103.6 99.3231 103.532C99.655 103.465 99.9033 103.33 100.067 103.131V104.795Z" fill="#14163A"/>
<path d="M103.553 95.5714H102.972V108.412H103.553V95.5714Z" fill="#14163A"/>
<path d="M103.553 95.5714H102.972V108.412H103.553V95.5714Z" fill="#14163A"/>
<path d="M117.268 99.833C117.011 99.5771 116.707 99.3903 116.355 99.2644C116.003 99.1384 115.619 99.0775 115.202 99.0775C114.449 99.0775 113.847 99.24 113.385 99.5649C112.926 99.8899 112.559 100.373 112.285 101.011H112.247C112.198 100.775 112.112 100.54 111.977 100.308C111.846 100.077 111.666 99.8696 111.441 99.6868C111.216 99.504 110.942 99.3537 110.619 99.244C110.295 99.1303 109.915 99.0734 109.473 99.0734C109.125 99.0734 108.798 99.1263 108.478 99.2319C108.159 99.3375 107.877 99.4878 107.619 99.6746C107.361 99.8655 107.145 100.085 106.969 100.341C106.789 100.597 106.666 100.865 106.592 101.149H106.556V99.2847H105.876V108.408H106.556V103.014C106.556 102.433 106.645 101.929 106.825 101.507C107.005 101.08 107.234 100.731 107.521 100.459C107.807 100.186 108.123 99.9874 108.471 99.8534C108.814 99.7234 109.15 99.6584 109.473 99.6584C109.616 99.6584 109.809 99.6828 110.054 99.7274C110.3 99.7762 110.537 99.8818 110.77 100.048C111.003 100.215 111.204 100.467 111.38 100.804C111.552 101.141 111.638 101.592 111.638 102.161V108.408H112.317V103.014C112.317 102.469 112.386 101.986 112.53 101.568C112.673 101.149 112.873 100.796 113.127 100.511C113.385 100.227 113.688 100.016 114.04 99.8737C114.392 99.7315 114.776 99.6624 115.194 99.6624C115.325 99.6624 115.513 99.6827 115.758 99.7234C116.004 99.764 116.245 99.8696 116.491 100.044C116.736 100.215 116.945 100.467 117.125 100.8C117.305 101.133 117.395 101.588 117.395 102.165V108.412H118.075V102.181C118.075 101.649 118.005 101.186 117.862 100.796C117.718 100.406 117.518 100.085 117.265 99.829L117.268 99.833Z" fill="#14163A"/>
<path d="M117.268 99.833C117.011 99.5771 116.707 99.3903 116.355 99.2644C116.003 99.1384 115.619 99.0775 115.202 99.0775C114.449 99.0775 113.847 99.24 113.385 99.5649C112.926 99.8899 112.559 100.373 112.285 101.011H112.247C112.198 100.775 112.112 100.54 111.977 100.308C111.846 100.077 111.666 99.8696 111.441 99.6868C111.216 99.504 110.942 99.3537 110.619 99.244C110.295 99.1303 109.915 99.0734 109.473 99.0734C109.125 99.0734 108.798 99.1263 108.478 99.2319C108.159 99.3375 107.877 99.4878 107.619 99.6746C107.361 99.8655 107.145 100.085 106.969 100.341C106.789 100.597 106.666 100.865 106.592 101.149H106.556V99.2847H105.876V108.408H106.556V103.014C106.556 102.433 106.645 101.929 106.825 101.507C107.005 101.08 107.234 100.731 107.521 100.459C107.807 100.186 108.123 99.9874 108.471 99.8534C108.814 99.7234 109.15 99.6584 109.473 99.6584C109.616 99.6584 109.809 99.6828 110.054 99.7274C110.3 99.7762 110.537 99.8818 110.77 100.048C111.003 100.215 111.204 100.467 111.38 100.804C111.552 101.141 111.638 101.592 111.638 102.161V108.408H112.317V103.014C112.317 102.469 112.386 101.986 112.53 101.568C112.673 101.149 112.873 100.796 113.127 100.511C113.385 100.227 113.688 100.016 114.04 99.8737C114.392 99.7315 114.776 99.6624 115.194 99.6624C115.325 99.6624 115.513 99.6827 115.758 99.7234C116.004 99.764 116.245 99.8696 116.491 100.044C116.736 100.215 116.945 100.467 117.125 100.8C117.305 101.133 117.395 101.588 117.395 102.165V108.412H118.075V102.181C118.075 101.649 118.005 101.186 117.862 100.796C117.718 100.406 117.518 100.085 117.265 99.829L117.268 99.833Z" fill="#14163A"/>
<path d="M127.402 100.464C127.034 100.035 126.578 99.6971 126.037 99.4468C125.497 99.1966 124.875 99.0734 124.174 99.0734C123.472 99.0734 122.851 99.1966 122.31 99.4468C121.769 99.6971 121.313 100.035 120.945 100.464C120.578 100.893 120.295 101.385 120.104 101.949C119.914 102.509 119.817 103.109 119.817 103.745C119.817 104.38 119.914 104.984 120.104 105.548C120.295 106.116 120.573 106.609 120.945 107.034C121.313 107.455 121.769 107.793 122.31 108.039C122.851 108.289 123.472 108.412 124.174 108.412C124.875 108.412 125.497 108.289 126.037 108.039C126.578 107.789 127.034 107.455 127.402 107.034C127.769 106.613 128.052 106.116 128.243 105.548C128.433 104.98 128.53 104.38 128.53 103.745C128.53 103.109 128.433 102.509 128.243 101.949C128.052 101.389 127.774 100.893 127.402 100.464ZM127.588 105.278C127.427 105.771 127.195 106.208 126.887 106.589C126.578 106.97 126.198 107.276 125.742 107.499C125.285 107.725 124.761 107.836 124.174 107.836C123.586 107.836 123.058 107.725 122.606 107.499C122.15 107.272 121.769 106.97 121.461 106.589C121.152 106.208 120.92 105.771 120.76 105.278C120.599 104.786 120.518 104.273 120.518 103.741C120.518 103.209 120.599 102.696 120.76 102.204C120.92 101.711 121.152 101.274 121.461 100.893C121.769 100.511 122.15 100.206 122.606 99.9831C123.063 99.7567 123.586 99.6454 124.174 99.6454C124.761 99.6454 125.289 99.7567 125.742 99.9831C126.194 100.209 126.578 100.511 126.887 100.893C127.195 101.274 127.427 101.711 127.588 102.204C127.748 102.696 127.828 103.209 127.828 103.741C127.828 104.273 127.748 104.786 127.588 105.278Z" fill="#14163A"/>
<path d="M127.402 100.464C127.034 100.035 126.578 99.6971 126.037 99.4468C125.497 99.1966 124.875 99.0734 124.174 99.0734C123.472 99.0734 122.851 99.1966 122.31 99.4468C121.769 99.6971 121.313 100.035 120.945 100.464C120.578 100.893 120.295 101.385 120.104 101.949C119.914 102.509 119.817 103.109 119.817 103.745C119.817 104.38 119.914 104.984 120.104 105.548C120.295 106.116 120.573 106.609 120.945 107.034C121.313 107.455 121.769 107.793 122.31 108.039C122.851 108.289 123.472 108.412 124.174 108.412C124.875 108.412 125.497 108.289 126.037 108.039C126.578 107.789 127.034 107.455 127.402 107.034C127.769 106.613 128.052 106.116 128.243 105.548C128.433 104.98 128.53 104.38 128.53 103.745C128.53 103.109 128.433 102.509 128.243 101.949C128.052 101.389 127.774 100.893 127.402 100.464ZM127.588 105.278C127.427 105.771 127.195 106.208 126.887 106.589C126.578 106.97 126.198 107.276 125.742 107.499C125.285 107.725 124.761 107.836 124.174 107.836C123.586 107.836 123.058 107.725 122.606 107.499C122.15 107.272 121.769 106.97 121.461 106.589C121.152 106.208 120.92 105.771 120.76 105.278C120.599 104.786 120.518 104.273 120.518 103.741C120.518 103.209 120.599 102.696 120.76 102.204C120.92 101.711 121.152 101.274 121.461 100.893C121.769 100.511 122.15 100.206 122.606 99.9831C123.063 99.7567 123.586 99.6454 124.174 99.6454C124.761 99.6454 125.289 99.7567 125.742 99.9831C126.194 100.209 126.578 100.511 126.887 100.893C127.195 101.274 127.427 101.711 127.588 102.204C127.748 102.696 127.828 103.209 127.828 103.741C127.828 104.273 127.748 104.786 127.588 105.278Z" fill="#14163A"/>
<path d="M130.853 95.5714H130.273V108.412H130.853V95.5714Z" fill="#14163A"/>
<path d="M130.853 95.5714H130.273V108.412H130.853V95.5714Z" fill="#14163A"/>
<path d="M139.675 100.464C139.332 100.035 138.907 99.6971 138.402 99.4468C137.897 99.1966 137.317 99.0734 136.662 99.0734C136.007 99.0734 135.428 99.1966 134.923 99.4468C134.418 99.6971 133.992 100.035 133.649 100.464C133.306 100.893 133.042 101.385 132.864 101.949C132.687 102.509 132.596 103.109 132.596 103.745C132.596 104.38 132.687 104.984 132.864 105.548C133.042 106.116 133.302 106.609 133.649 107.034C133.992 107.455 134.418 107.793 134.923 108.039C135.428 108.289 136.007 108.412 136.662 108.412C137.317 108.412 137.897 108.289 138.402 108.039C138.907 107.789 139.332 107.455 139.675 107.034C140.018 106.613 140.282 106.116 140.46 105.548C140.637 104.98 140.728 104.38 140.728 103.745C140.728 103.109 140.637 102.509 140.46 101.949C140.282 101.389 140.022 100.893 139.675 100.464ZM139.849 105.278C139.699 105.771 139.482 106.208 139.194 106.589C138.906 106.97 138.551 107.276 138.125 107.499C137.699 107.725 137.21 107.836 136.662 107.836C136.114 107.836 135.621 107.725 135.199 107.499C134.773 107.272 134.418 106.97 134.13 106.589C133.842 106.208 133.625 105.771 133.475 105.278C133.326 104.786 133.251 104.273 133.251 103.741C133.251 103.209 133.326 102.696 133.475 102.204C133.625 101.711 133.842 101.274 134.13 100.893C134.418 100.511 134.773 100.206 135.199 99.9831C135.625 99.7567 136.114 99.6454 136.662 99.6454C137.21 99.6454 137.703 99.7567 138.125 99.9831C138.551 100.209 138.906 100.511 139.194 100.893C139.482 101.274 139.699 101.711 139.849 102.204C139.999 102.696 140.074 103.209 140.074 103.741C140.074 104.273 139.999 104.786 139.849 105.278Z" fill="#14163A"/>
<path d="M139.675 100.464C139.332 100.035 138.907 99.6971 138.402 99.4468C137.897 99.1966 137.317 99.0734 136.662 99.0734C136.007 99.0734 135.428 99.1966 134.923 99.4468C134.418 99.6971 133.992 100.035 133.649 100.464C133.306 100.893 133.042 101.385 132.864 101.949C132.687 102.509 132.596 103.109 132.596 103.745C132.596 104.38 132.687 104.984 132.864 105.548C133.042 106.116 133.302 106.609 133.649 107.034C133.992 107.455 134.418 107.793 134.923 108.039C135.428 108.289 136.007 108.412 136.662 108.412C137.317 108.412 137.897 108.289 138.402 108.039C138.907 107.789 139.332 107.455 139.675 107.034C140.018 106.613 140.282 106.116 140.46 105.548C140.637 104.98 140.728 104.38 140.728 103.745C140.728 103.109 140.637 102.509 140.46 101.949C140.282 101.389 140.022 100.893 139.675 100.464ZM139.849 105.278C139.699 105.771 139.482 106.208 139.194 106.589C138.906 106.97 138.551 107.276 138.125 107.499C137.699 107.725 137.21 107.836 136.662 107.836C136.114 107.836 135.621 107.725 135.199 107.499C134.773 107.272 134.418 106.97 134.13 106.589C133.842 106.208 133.625 105.771 133.475 105.278C133.326 104.786 133.251 104.273 133.251 103.741C133.251 103.209 133.326 102.696 133.475 102.204C133.625 101.711 133.842 101.274 134.13 100.893C134.418 100.511 134.773 100.206 135.199 99.9831C135.625 99.7567 136.114 99.6454 136.662 99.6454C137.21 99.6454 137.703 99.7567 138.125 99.9831C138.551 100.209 138.906 100.511 139.194 100.893C139.482 101.274 139.699 101.711 139.849 102.204C139.999 102.696 140.074 103.209 140.074 103.741C140.074 104.273 139.999 104.786 139.849 105.278Z" fill="#14163A"/>
<path d="M138.119 94.9877L136.081 97.9061H136.711L138.986 94.9877H138.119Z" fill="#14163A"/>
<path d="M138.119 94.9877L136.081 97.9061H136.711L138.986 94.9877H138.119Z" fill="#14163A"/>
<path d="M149.345 101.19H149.307C149.04 100.514 148.595 99.9932 147.972 99.6229C147.348 99.2566 146.666 99.0734 145.925 99.0734C145.272 99.0734 144.694 99.1955 144.19 99.4397C143.687 99.6839 143.267 100.01 142.926 100.417C142.585 100.828 142.327 101.304 142.153 101.849C141.978 102.395 141.89 102.968 141.89 103.575C141.89 104.214 141.973 104.808 142.136 105.353C142.298 105.899 142.548 106.375 142.881 106.786C143.213 107.197 143.633 107.515 144.137 107.747C144.64 107.979 145.235 108.093 145.925 108.093C146.724 108.093 147.406 107.913 147.972 107.559C148.533 107.205 148.982 106.688 149.307 106.013H149.345V108.113C149.345 108.504 149.294 108.894 149.19 109.277C149.086 109.664 148.907 110.005 148.654 110.307C148.4 110.608 148.055 110.856 147.626 111.043C147.198 111.235 146.661 111.328 146.016 111.328C145.63 111.328 145.264 111.287 144.927 111.202C144.586 111.121 144.282 110.986 144.008 110.803C143.733 110.62 143.512 110.384 143.346 110.099C143.176 109.814 143.072 109.472 143.038 109.069H142.348C142.373 109.602 142.485 110.05 142.684 110.412C142.884 110.775 143.146 111.064 143.475 111.283C143.799 111.503 144.182 111.662 144.619 111.764C145.056 111.865 145.521 111.914 146.016 111.914C146.815 111.914 147.473 111.804 147.993 111.585C148.512 111.365 148.92 111.072 149.215 110.705C149.511 110.339 149.719 109.916 149.839 109.436C149.96 108.955 150.022 108.459 150.022 107.95V99.2891H149.348V101.194L149.345 101.19ZM149.12 105.06C148.983 105.528 148.766 105.948 148.483 106.314C148.2 106.68 147.842 106.973 147.418 107.185C146.994 107.397 146.499 107.506 145.929 107.506C145.359 107.506 144.902 107.405 144.486 107.197C144.07 106.99 143.716 106.709 143.433 106.351C143.151 105.996 142.939 105.577 142.797 105.097C142.66 104.617 142.589 104.108 142.589 103.575C142.589 103.091 142.66 102.61 142.797 102.142C142.934 101.674 143.143 101.255 143.417 100.889C143.692 100.522 144.037 100.225 144.452 100.001C144.873 99.7775 145.364 99.6636 145.933 99.6636C146.503 99.6636 146.998 99.7694 147.423 99.9851C147.847 100.197 148.2 100.486 148.487 100.848C148.77 101.21 148.982 101.629 149.124 102.102C149.261 102.578 149.332 103.066 149.332 103.579C149.332 104.092 149.261 104.596 149.124 105.064L149.12 105.06Z" fill="#14163A"/>
<path d="M149.345 101.19H149.307C149.04 100.514 148.595 99.9932 147.972 99.6229C147.348 99.2566 146.666 99.0734 145.925 99.0734C145.272 99.0734 144.694 99.1955 144.19 99.4397C143.687 99.6839 143.267 100.01 142.926 100.417C142.585 100.828 142.327 101.304 142.153 101.849C141.978 102.395 141.89 102.968 141.89 103.575C141.89 104.214 141.973 104.808 142.136 105.353C142.298 105.899 142.548 106.375 142.881 106.786C143.213 107.197 143.633 107.515 144.137 107.747C144.64 107.979 145.235 108.093 145.925 108.093C146.724 108.093 147.406 107.913 147.972 107.559C148.533 107.205 148.982 106.688 149.307 106.013H149.345V108.113C149.345 108.504 149.294 108.894 149.19 109.277C149.086 109.664 148.907 110.005 148.654 110.307C148.4 110.608 148.055 110.856 147.626 111.043C147.198 111.235 146.661 111.328 146.016 111.328C145.63 111.328 145.264 111.287 144.927 111.202C144.586 111.121 144.282 110.986 144.008 110.803C143.733 110.62 143.512 110.384 143.346 110.099C143.176 109.814 143.072 109.472 143.038 109.069H142.348C142.373 109.602 142.485 110.05 142.684 110.412C142.884 110.775 143.146 111.064 143.475 111.283C143.799 111.503 144.182 111.662 144.619 111.764C145.056 111.865 145.521 111.914 146.016 111.914C146.815 111.914 147.473 111.804 147.993 111.585C148.512 111.365 148.92 111.072 149.215 110.705C149.511 110.339 149.719 109.916 149.839 109.436C149.96 108.955 150.022 108.459 150.022 107.95V99.2891H149.348V101.194L149.345 101.19ZM149.12 105.06C148.983 105.528 148.766 105.948 148.483 106.314C148.2 106.68 147.842 106.973 147.418 107.185C146.994 107.397 146.499 107.506 145.929 107.506C145.359 107.506 144.902 107.405 144.486 107.197C144.07 106.99 143.716 106.709 143.433 106.351C143.151 105.996 142.939 105.577 142.797 105.097C142.66 104.617 142.589 104.108 142.589 103.575C142.589 103.091 142.66 102.61 142.797 102.142C142.934 101.674 143.143 101.255 143.417 100.889C143.692 100.522 144.037 100.225 144.452 100.001C144.873 99.7775 145.364 99.6636 145.933 99.6636C146.503 99.6636 146.998 99.7694 147.423 99.9851C147.847 100.197 148.2 100.486 148.487 100.848C148.77 101.21 148.982 101.629 149.124 102.102C149.261 102.578 149.332 103.066 149.332 103.579C149.332 104.092 149.261 104.596 149.124 105.064L149.12 105.06Z" fill="#14163A"/>
<path d="M152.927 95.5714H152.346V97.3224H152.927V95.5714Z" fill="#14163A"/>
<path d="M152.927 95.5714H152.346V97.3224H152.927V95.5714Z" fill="#14163A"/>
<path d="M152.927 99.0734H152.346V108.412H152.927V99.0734Z" fill="#14163A"/>
<path d="M152.927 99.0734H152.346V108.412H152.927V99.0734Z" fill="#14163A"/>
<path d="M161.758 106.191C161.577 106.533 161.348 106.823 161.068 107.069C160.785 107.311 160.465 107.502 160.099 107.641C159.733 107.78 159.335 107.848 158.904 107.848C158.304 107.848 157.787 107.745 157.343 107.534C156.9 107.327 156.53 107.033 156.23 106.656C155.93 106.278 155.708 105.837 155.564 105.328C155.421 104.82 155.351 104.263 155.351 103.659C155.351 103.151 155.429 102.654 155.585 102.173C155.741 101.692 155.967 101.263 156.267 100.89C156.567 100.512 156.936 100.214 157.38 99.9874C157.823 99.7609 158.333 99.6497 158.904 99.6497C159.323 99.6497 159.713 99.7013 160.078 99.8046C160.444 99.908 160.764 100.059 161.039 100.258C161.315 100.456 161.54 100.703 161.713 101.005C161.885 101.307 161.993 101.653 162.026 102.046H162.707C162.658 101.549 162.527 101.112 162.313 100.735C162.1 100.357 161.82 100.047 161.479 99.8046C161.138 99.5622 160.748 99.3794 160.313 99.2562C159.877 99.133 159.405 99.0734 158.904 99.0734C158.222 99.0734 157.618 99.1966 157.092 99.439C156.566 99.6814 156.123 100.011 155.766 100.429C155.409 100.846 155.133 101.331 154.949 101.887C154.764 102.443 154.669 103.031 154.669 103.659C154.669 104.287 154.751 104.883 154.911 105.456C155.072 106.028 155.326 106.537 155.667 106.974C156.008 107.415 156.443 107.764 156.977 108.023C157.511 108.285 158.152 108.412 158.908 108.412C159.397 108.412 159.865 108.337 160.308 108.186C160.752 108.035 161.147 107.82 161.492 107.534C161.837 107.252 162.124 106.902 162.354 106.485C162.58 106.068 162.732 105.595 162.802 105.062H162.119C162.058 105.468 161.939 105.841 161.762 106.183L161.758 106.191Z" fill="#14163A"/>
<path d="M161.758 106.191C161.577 106.533 161.348 106.823 161.068 107.069C160.785 107.311 160.465 107.502 160.099 107.641C159.733 107.78 159.335 107.848 158.904 107.848C158.304 107.848 157.787 107.745 157.343 107.534C156.9 107.327 156.53 107.033 156.23 106.656C155.93 106.278 155.708 105.837 155.564 105.328C155.421 104.82 155.351 104.263 155.351 103.659C155.351 103.151 155.429 102.654 155.585 102.173C155.741 101.692 155.967 101.263 156.267 100.89C156.567 100.512 156.936 100.214 157.38 99.9874C157.823 99.7609 158.333 99.6497 158.904 99.6497C159.323 99.6497 159.713 99.7013 160.078 99.8046C160.444 99.908 160.764 100.059 161.039 100.258C161.315 100.456 161.54 100.703 161.713 101.005C161.885 101.307 161.993 101.653 162.026 102.046H162.707C162.658 101.549 162.527 101.112 162.313 100.735C162.1 100.357 161.82 100.047 161.479 99.8046C161.138 99.5622 160.748 99.3794 160.313 99.2562C159.877 99.133 159.405 99.0734 158.904 99.0734C158.222 99.0734 157.618 99.1966 157.092 99.439C156.566 99.6814 156.123 100.011 155.766 100.429C155.409 100.846 155.133 101.331 154.949 101.887C154.764 102.443 154.669 103.031 154.669 103.659C154.669 104.287 154.751 104.883 154.911 105.456C155.072 106.028 155.326 106.537 155.667 106.974C156.008 107.415 156.443 107.764 156.977 108.023C157.511 108.285 158.152 108.412 158.908 108.412C159.397 108.412 159.865 108.337 160.308 108.186C160.752 108.035 161.147 107.82 161.492 107.534C161.837 107.252 162.124 106.902 162.354 106.485C162.58 106.068 162.732 105.595 162.802 105.062H162.119C162.058 105.468 161.939 105.841 161.762 106.183L161.758 106.191Z" fill="#14163A"/>
<path d="M171.548 100.464C171.181 100.035 170.724 99.6971 170.183 99.4468C169.643 99.1966 169.022 99.0734 168.32 99.0734C167.619 99.0734 166.997 99.1966 166.456 99.4468C165.916 99.6971 165.459 100.035 165.092 100.464C164.724 100.893 164.441 101.385 164.251 101.949C164.061 102.509 163.963 103.109 163.963 103.745C163.963 104.38 164.061 104.984 164.251 105.548C164.441 106.116 164.72 106.609 165.092 107.034C165.459 107.455 165.916 107.793 166.456 108.039C166.997 108.289 167.619 108.412 168.32 108.412C169.022 108.412 169.643 108.289 170.183 108.039C170.724 107.789 171.181 107.455 171.548 107.034C171.916 106.613 172.199 106.116 172.389 105.548C172.579 104.98 172.676 104.38 172.676 103.745C172.676 103.109 172.579 102.509 172.389 101.949C172.199 101.389 171.92 100.893 171.548 100.464ZM171.734 105.278C171.574 105.771 171.341 106.208 171.033 106.589C170.724 106.97 170.344 107.276 169.888 107.499C169.431 107.725 168.908 107.836 168.32 107.836C167.733 107.836 167.204 107.725 166.752 107.499C166.296 107.272 165.916 106.97 165.607 106.589C165.299 106.208 165.066 105.771 164.906 105.278C164.745 104.786 164.665 104.273 164.665 103.741C164.665 103.209 164.745 102.696 164.906 102.204C165.066 101.711 165.299 101.274 165.607 100.893C165.916 100.511 166.296 100.206 166.752 99.9831C167.209 99.7567 167.733 99.6454 168.32 99.6454C168.908 99.6454 169.435 99.7567 169.888 99.9831C170.344 100.209 170.724 100.511 171.033 100.893C171.341 101.274 171.574 101.711 171.734 102.204C171.895 102.696 171.975 103.209 171.975 103.741C171.975 104.273 171.895 104.786 171.734 105.278Z" fill="#14163A"/>
<path d="M171.548 100.464C171.181 100.035 170.724 99.6971 170.183 99.4468C169.643 99.1966 169.022 99.0734 168.32 99.0734C167.619 99.0734 166.997 99.1966 166.456 99.4468C165.916 99.6971 165.459 100.035 165.092 100.464C164.724 100.893 164.441 101.385 164.251 101.949C164.061 102.509 163.963 103.109 163.963 103.745C163.963 104.38 164.061 104.984 164.251 105.548C164.441 106.116 164.72 106.609 165.092 107.034C165.459 107.455 165.916 107.793 166.456 108.039C166.997 108.289 167.619 108.412 168.32 108.412C169.022 108.412 169.643 108.289 170.183 108.039C170.724 107.789 171.181 107.455 171.548 107.034C171.916 106.613 172.199 106.116 172.389 105.548C172.579 104.98 172.676 104.38 172.676 103.745C172.676 103.109 172.579 102.509 172.389 101.949C172.199 101.389 171.92 100.893 171.548 100.464ZM171.734 105.278C171.574 105.771 171.341 106.208 171.033 106.589C170.724 106.97 170.344 107.276 169.888 107.499C169.431 107.725 168.908 107.836 168.32 107.836C167.733 107.836 167.204 107.725 166.752 107.499C166.296 107.272 165.916 106.97 165.607 106.589C165.299 106.208 165.066 105.771 164.906 105.278C164.745 104.786 164.665 104.273 164.665 103.741C164.665 103.209 164.745 102.696 164.906 102.204C165.066 101.711 165.299 101.274 165.607 100.893C165.916 100.511 166.296 100.206 166.752 99.9831C167.209 99.7567 167.733 99.6454 168.32 99.6454C168.908 99.6454 169.435 99.7567 169.888 99.9831C170.344 100.209 170.724 100.511 171.033 100.893C171.341 101.274 171.574 101.711 171.734 102.204C171.895 102.696 171.975 103.209 171.975 103.741C171.975 104.273 171.895 104.786 171.734 105.278Z" fill="#14163A"/>
<path d="M46.1947 66.8778C44.1599 67.0427 42.174 66.9108 40.2543 66.5563L40.3412 66.2059C30.6562 64.4251 22.977 56.3293 22.1219 46.0117C21.6903 40.5541 23.2399 35.3974 26.1791 31.2629L25.826 31.0939C29.5709 25.7805 35.5473 22.0995 42.5233 21.5306C46.0873 21.238 49.5284 21.7903 52.6444 23.0228L54.4657 19.3542C50.7002 17.8043 46.5232 17.0994 42.1864 17.4456C27.4493 18.674 16.4941 31.5968 17.6698 46.3827C18.8948 61.1604 31.7824 72.1458 46.5277 70.971C52.6897 70.4558 58.1732 67.8753 62.4032 63.9923L62.4569 64.0418C63.4435 63.1019 64.3684 62.0797 65.2152 60.9832L62.1239 58.3574C58.3543 63.1143 52.7102 66.3543 46.1947 66.8819V66.8778Z" fill="#14163A"/>
<path d="M46.1947 66.8778C44.1599 67.0427 42.174 66.9108 40.2543 66.5563L40.3412 66.2059C30.6562 64.4251 22.977 56.3293 22.1219 46.0117C21.6903 40.5541 23.2399 35.3974 26.1791 31.2629L25.826 31.0939C29.5709 25.7805 35.5473 22.0995 42.5233 21.5306C46.0873 21.238 49.5284 21.7903 52.6444 23.0228L54.4657 19.3542C50.7002 17.8043 46.5232 17.0994 42.1864 17.4456C27.4493 18.674 16.4941 31.5968 17.6698 46.3827C18.8948 61.1604 31.7824 72.1458 46.5277 70.971C52.6897 70.4558 58.1732 67.8753 62.4032 63.9923L62.4569 64.0418C63.4435 63.1019 64.3684 62.0797 65.2152 60.9832L62.1239 58.3574C58.3543 63.1143 52.7102 66.3543 46.1947 66.8819V66.8778Z" fill="#14163A"/>
<path d="M24.6224 45.5078C25.3607 54.6441 32.1772 61.8191 40.7328 63.3087L40.7694 63.1639C42.3443 63.4411 43.9685 63.5446 45.6337 63.4122C47.75 63.2342 49.76 62.7211 51.6097 61.9308L49.5878 56.4027C48.3163 57.0109 47.1267 57.2675 45.7035 57.4123L45.7157 57.4785C45.5106 57.5075 45.3057 57.5447 45.0965 57.5613C37.6729 58.1695 31.1679 52.5959 30.5609 45.0981C30.1877 40.4679 32.1607 36.1894 35.4706 33.4584C32.2099 36.1894 30.2742 40.4307 30.6351 45.0195C31.2503 52.5007 37.7383 58.0578 45.1537 57.4661C45.3423 57.4537 45.523 57.4371 45.7035 57.4164L45.0472 54.2386C44.9857 54.2469 44.9244 54.251 44.8588 54.2593C39.2152 54.7227 34.2644 50.4814 33.805 44.7795C33.3457 39.0859 37.5499 34.0915 43.1976 33.6281C46.7659 33.3343 50.0548 34.9191 52.1014 37.5632L54.538 35.5936C51.8433 32.0433 47.66 30.0447 42.9105 30.4337C40.2979 30.6489 37.9147 31.6047 35.9584 33.0736C37.9271 31.5716 40.3307 30.5951 42.972 30.3758C45.921 30.1358 48.7266 30.8889 51.0726 32.3412L54.7591 27.62C51.2647 25.2821 46.9959 24.0656 42.4925 24.4256C36.7341 24.9097 31.7872 27.8889 28.5716 32.2047L28.4364 32.1385C25.6925 35.8418 24.2202 40.5383 24.618 45.5119L24.6224 45.5078Z" fill="#14163A"/>
<path d="M24.6224 45.5078C25.3607 54.6441 32.1772 61.8191 40.7328 63.3087L40.7694 63.1639C42.3443 63.4411 43.9685 63.5446 45.6337 63.4122C47.75 63.2342 49.76 62.7211 51.6097 61.9308L49.5878 56.4027C48.3163 57.0109 47.1267 57.2675 45.7035 57.4123L45.7157 57.4785C45.5106 57.5075 45.3057 57.5447 45.0965 57.5613C37.6729 58.1695 31.1679 52.5959 30.5609 45.0981C30.1877 40.4679 32.1607 36.1894 35.4706 33.4584C32.2099 36.1894 30.2742 40.4307 30.6351 45.0195C31.2503 52.5007 37.7383 58.0578 45.1537 57.4661C45.3423 57.4537 45.523 57.4371 45.7035 57.4164L45.0472 54.2386C44.9857 54.2469 44.9244 54.251 44.8588 54.2593C39.2152 54.7227 34.2644 50.4814 33.805 44.7795C33.3457 39.0859 37.5499 34.0915 43.1976 33.6281C46.7659 33.3343 50.0548 34.9191 52.1014 37.5632L54.538 35.5936C51.8433 32.0433 47.66 30.0447 42.9105 30.4337C40.2979 30.6489 37.9147 31.6047 35.9584 33.0736C37.9271 31.5716 40.3307 30.5951 42.972 30.3758C45.921 30.1358 48.7266 30.8889 51.0726 32.3412L54.7591 27.62C51.2647 25.2821 46.9959 24.0656 42.4925 24.4256C36.7341 24.9097 31.7872 27.8889 28.5716 32.2047L28.4364 32.1385C25.6925 35.8418 24.2202 40.5383 24.618 45.5119L24.6224 45.5078Z" fill="#14163A"/>
<path d="M66.8783 42.0672C66.1544 33.0755 60.3875 25.7239 52.6254 22.6342L52.4422 23.0069C49.3995 21.8017 46.0579 21.2343 42.5858 21.5159C35.7888 22.0833 29.9611 25.6949 26.2967 30.9135L28.8036 32.127C32.0262 27.7575 37.0196 24.763 42.8065 24.2826C47.3338 23.9098 51.6115 25.1524 55.1205 27.509L55.0511 27.596C59.8197 30.7975 63.14 36.0989 63.6512 42.3281C64.3301 50.9719 59.382 58.7418 51.9061 61.9433L51.9466 62.051C50.0818 62.8462 48.0783 63.3681 45.9598 63.5462C44.2872 63.687 42.6431 63.6041 41.0604 63.3266L40.3895 66.0188C42.2544 66.3667 44.201 66.4744 46.1844 66.317C52.5602 65.7785 58.0612 62.5604 61.746 57.8596L62.0609 58.1288C65.5003 53.7468 67.3648 48.0851 66.8822 42.063L66.8783 42.0672Z" fill="#14163A"/>
<path d="M66.8783 42.0672C66.1544 33.0755 60.3875 25.7239 52.6254 22.6342L52.4422 23.0069C49.3995 21.8017 46.0579 21.2343 42.5858 21.5159C35.7888 22.0833 29.9611 25.6949 26.2967 30.9135L28.8036 32.127C32.0262 27.7575 37.0196 24.763 42.8065 24.2826C47.3338 23.9098 51.6115 25.1524 55.1205 27.509L55.0511 27.596C59.8197 30.7975 63.14 36.0989 63.6512 42.3281C64.3301 50.9719 59.382 58.7418 51.9061 61.9433L51.9466 62.051C50.0818 62.8462 48.0783 63.3681 45.9598 63.5462C44.2872 63.687 42.6431 63.6041 41.0604 63.3266L40.3895 66.0188C42.2544 66.3667 44.201 66.4744 46.1844 66.317C52.5602 65.7785 58.0612 62.5604 61.746 57.8596L62.0609 58.1288C65.5003 53.7468 67.3648 48.0851 66.8822 42.063L66.8783 42.0672Z" fill="#14163A"/>
<path d="M17.6468 46.1328C16.4498 31.2511 27.4571 18.2115 42.2489 16.9986C46.6009 16.6426 50.78 17.3753 54.5643 18.9359L54.5399 18.9856C57.1889 20.0743 59.632 21.5811 61.7875 23.4273L63.5194 20.8111C57.7195 15.9637 50.1095 13.2978 41.9979 13.956C29.4644 14.9785 19.3745 23.6467 15.8617 35.0346L16.034 35.0884C14.9399 38.6402 14.4628 42.4403 14.7714 46.3729C16.1164 62.662 30.1348 74.791 46.2757 73.8016L46.284 73.9755C46.4692 73.9672 46.6544 73.9506 46.8436 73.9341C53.9269 73.3504 59.8585 70.4817 64.6341 65.9157L62.5321 63.8667C58.3364 67.8696 52.9351 70.3699 46.6005 70.8915C31.8128 72.1002 18.8562 61.0186 17.6468 46.1328Z" fill="#14163A"/>
<path d="M17.6468 46.1328C16.4498 31.2511 27.4571 18.2115 42.2489 16.9986C46.6009 16.6426 50.78 17.3753 54.5643 18.9359L54.5399 18.9856C57.1889 20.0743 59.632 21.5811 61.7875 23.4273L63.5194 20.8111C57.7195 15.9637 50.1095 13.2978 41.9979 13.956C29.4644 14.9785 19.3745 23.6467 15.8617 35.0346L16.034 35.0884C14.9399 38.6402 14.4628 42.4403 14.7714 46.3729C16.1164 62.662 30.1348 74.791 46.2757 73.8016L46.284 73.9755C46.4692 73.9672 46.6544 73.9506 46.8436 73.9341C53.9269 73.3504 59.8585 70.4817 64.6341 65.9157L62.5321 63.8667C58.3364 67.8696 52.9351 70.3699 46.6005 70.8915C31.8128 72.1002 18.8562 61.0186 17.6468 46.1328Z" fill="#14163A"/>
<path d="M14.5506 46.5971C14.2374 42.6585 14.685 38.8354 15.7753 35.2807L12.6713 34.2857C11.459 38.2409 10.9501 42.4851 11.3041 46.8696C12.7605 64.9941 28.2441 78.5317 46.0463 77.4129L45.8671 74.1183C29.8223 75.138 15.8645 62.9339 14.5546 46.5971H14.5506Z" fill="#14163A"/>
<path d="M14.5506 46.5971C14.2374 42.6585 14.685 38.8354 15.7753 35.2807L12.6713 34.2857C11.459 38.2409 10.9501 42.4851 11.3041 46.8696C12.7605 64.9941 28.2441 78.5317 46.0463 77.4129L45.8671 74.1183C29.8223 75.138 15.8645 62.9339 14.5546 46.5971H14.5506Z" fill="#14163A"/>
<path d="M77.4134 25.9811C75.3989 22.3306 72.8044 19.0579 69.7621 16.2902L69.4335 16.5735C62.0538 9.87618 52.0348 6.11893 41.3046 6.97304C33.6166 7.60951 26.6723 10.5209 21.0687 14.9885L23.8851 18.019C28.8268 14.1549 34.9113 11.6337 41.6332 11.0793C55.2043 10.0035 67.5052 17.2018 73.5692 28.4489L77.4047 25.9811H77.4134Z" fill="#14163A"/>
<path d="M77.4134 25.9811C75.3989 22.3306 72.8044 19.0579 69.7621 16.2902L69.4335 16.5735C62.0538 9.87618 52.0348 6.11893 41.3046 6.97304C33.6166 7.60951 26.6723 10.5209 21.0687 14.9885L23.8851 18.019C28.8268 14.1549 34.9113 11.6337 41.6332 11.0793C55.2043 10.0035 67.5052 17.2018 73.5692 28.4489L77.4047 25.9811H77.4134Z" fill="#14163A"/>
<path d="M47.1859 81.4479C49.268 81.275 51.2971 80.925 53.2596 80.4351L53.3954 80.8386C55.4774 80.3158 57.4848 79.6283 59.4061 78.7802L57.4725 74.651C54.1907 76.0837 50.6246 77.0182 46.8563 77.3311C33.5023 78.3891 21.3768 71.4605 15.18 60.551L11.7748 62.9264C18.8002 74.9968 32.3234 82.6212 47.1947 81.4438L47.1859 81.4479Z" fill="#14163A"/>
<path d="M47.1859 81.4479C49.268 81.275 51.2971 80.925 53.2596 80.4351L53.3954 80.8386C55.4774 80.3158 57.4848 79.6283 59.4061 78.7802L57.4725 74.651C54.1907 76.0837 50.6246 77.0182 46.8563 77.3311C33.5023 78.3891 21.3768 71.4605 15.18 60.551L11.7748 62.9264C18.8002 74.9968 32.3234 82.6212 47.1947 81.4438L47.1859 81.4479Z" fill="#14163A"/>
<path d="M41.0917 6.25603C51.9535 5.37135 62.1046 9.18988 69.5677 16.0081L70.4427 15.2386C68.54 13.4939 66.4687 11.9344 64.2577 10.593L64.1717 10.7082C57.4524 6.63459 49.4427 4.55251 41.0096 5.22733C19.6723 7.00081 3.80872 25.6902 5.51012 47.0583C7.28139 68.4223 25.9472 84.3054 47.2928 82.606C48.1476 82.536 48.9864 82.4249 49.8207 82.3015L49.8534 82.429C51.1685 82.2356 52.4631 81.9723 53.7289 81.6514L53.3631 80.5568C51.3782 81.0629 49.3232 81.4045 47.2108 81.5773C32.2352 82.7953 18.5996 75.0883 11.5145 62.9002L11.8675 62.6534C9.15927 57.9954 7.42121 52.675 6.9486 46.9431C5.92529 34.0638 11.5266 22.1967 20.9007 14.6996L20.6053 14.3827C26.2767 9.84413 33.308 6.88971 41.0917 6.25603Z" fill="#14163A"/>
<path d="M41.0917 6.25603C51.9535 5.37135 62.1046 9.18988 69.5677 16.0081L70.4427 15.2386C68.54 13.4939 66.4687 11.9344 64.2577 10.593L64.1717 10.7082C57.4524 6.63459 49.4427 4.55251 41.0096 5.22733C19.6723 7.00081 3.80872 25.6902 5.51012 47.0583C7.28139 68.4223 25.9472 84.3054 47.2928 82.606C48.1476 82.536 48.9864 82.4249 49.8207 82.3015L49.8534 82.429C51.1685 82.2356 52.4631 81.9723 53.7289 81.6514L53.3631 80.5568C51.3782 81.0629 49.3232 81.4045 47.2108 81.5773C32.2352 82.7953 18.5996 75.0883 11.5145 62.9002L11.8675 62.6534C9.15927 57.9954 7.42121 52.675 6.9486 46.9431C5.92529 34.0638 11.5266 22.1967 20.9007 14.6996L20.6053 14.3827C26.2767 9.84413 33.308 6.88971 41.0917 6.25603Z" fill="#14163A"/>
<path d="M5.3153 47.081C3.57594 25.6004 19.526 6.77544 40.9452 5.02284C49.4158 4.33417 57.4673 6.4208 64.2191 10.5239L66.9574 6.97338C59.3421 2.22694 50.2053 -0.206079 40.5834 0.577434C16.7176 2.52384 -1.05405 23.5055 0.882679 47.4398C2.82352 71.374 23.745 89.201 47.6107 87.2546C48.7333 87.1639 49.8392 87.0154 50.933 86.8463L49.8021 82.5164C48.9592 82.6442 48.1083 82.7432 47.2489 82.8133C25.8298 84.5576 7.05486 68.5575 5.31139 47.0769L5.3153 47.081Z" fill="#14163A"/>
<path d="M5.3153 47.081C3.57594 25.6004 19.526 6.77544 40.9452 5.02284C49.4158 4.33417 57.4673 6.4208 64.2191 10.5239L66.9574 6.97338C59.3421 2.22694 50.2053 -0.206079 40.5834 0.577434C16.7176 2.52384 -1.05405 23.5055 0.882679 47.4398C2.82352 71.374 23.745 89.201 47.6107 87.2546C48.7333 87.1639 49.8392 87.0154 50.933 86.8463L49.8021 82.5164C48.9592 82.6442 48.1083 82.7432 47.2489 82.8133C25.8298 84.5576 7.05486 68.5575 5.31139 47.0769L5.3153 47.081Z" fill="#14163A"/>
<path d="M54.1405 43.212C53.976 41.1589 53.214 39.2925 52.0384 37.7791L51.2797 38.3958C49.4542 36.0547 46.5418 34.6467 43.3802 34.8983C38.3692 35.3203 34.6377 39.7591 35.0389 44.835C35.4562 49.9068 39.8496 53.6761 44.8607 53.2704C44.8928 53.2704 44.9291 53.2623 44.9652 53.2582L45.1415 54.1306C50.5698 53.5869 54.5902 48.7382 54.1449 43.212H54.1405Z" fill="#14163A"/>
<path d="M54.1405 43.212C53.976 41.1589 53.214 39.2925 52.0384 37.7791L51.2797 38.3958C49.4542 36.0547 46.5418 34.6467 43.3802 34.8983C38.3692 35.3203 34.6377 39.7591 35.0389 44.835C35.4562 49.9068 39.8496 53.6761 44.8607 53.2704C44.8928 53.2704 44.9291 53.2623 44.9652 53.2582L45.1415 54.1306C50.5698 53.5869 54.5902 48.7382 54.1449 43.212H54.1405Z" fill="#14163A"/>
<path d="M71.6044 72.2244H79.1551V46.4222H79.2582L88.2489 72.2244H94.4637L103.45 46.1665H103.553V72.2244H111.104V35.453H99.7523L91.6381 60.7398H91.535L82.9559 35.453H71.6044V72.2244Z" fill="#14163A"/>
<path d="M71.6044 72.2244H79.1551V46.4222H79.2582L88.2489 72.2244H94.4637L103.45 46.1665H103.553V72.2244H111.104V35.453H99.7523L91.6381 60.7398H91.535L82.9559 35.453H71.6044V72.2244Z" fill="#14163A"/>
<path d="M124.464 45.9591H117.494V72.2244H124.464V45.9591Z" fill="#14163A"/>
<path d="M124.464 45.9591H117.494V72.2244H124.464V45.9591Z" fill="#14163A"/>
<path d="M124.464 35.453H117.494V41.8734H124.464V35.453Z" fill="#14163A"/>
<path d="M124.464 35.453H117.494V41.8734H124.464V35.453Z" fill="#14163A"/>
<path d="M146.442 51.6831C146.932 51.7327 147.347 51.7947 147.699 51.8651V45.0483C147.104 44.8745 146.563 44.7918 146.077 44.7918C145.134 44.7918 144.229 44.9283 143.357 45.2054C142.485 45.4826 141.663 45.8673 140.896 46.3678C140.129 46.8683 139.446 47.4722 138.855 48.1754C138.26 48.8827 137.791 49.6479 137.443 50.4752H137.338V45.5157H130.273V72.2244H137.703V60.1875C137.703 58.9838 137.825 57.8628 138.068 56.8287C138.311 55.7946 138.722 54.8929 139.296 54.1153C139.87 53.3418 140.629 52.7296 141.572 52.2828C142.515 51.8361 143.667 51.6127 145.025 51.6127C145.478 51.6127 145.951 51.6376 146.437 51.6913L146.442 51.6831Z" fill="#14163A"/>
<path d="M146.442 51.6831C146.932 51.7327 147.347 51.7947 147.699 51.8651V45.0483C147.104 44.8745 146.563 44.7918 146.077 44.7918C145.134 44.7918 144.229 44.9283 143.357 45.2054C142.485 45.4826 141.663 45.8673 140.896 46.3678C140.129 46.8683 139.446 47.4722 138.855 48.1754C138.26 48.8827 137.791 49.6479 137.443 50.4752H137.338V45.5157H130.273V72.2244H137.703V60.1875C137.703 58.9838 137.825 57.8628 138.068 56.8287C138.311 55.7946 138.722 54.8929 139.296 54.1153C139.87 53.3418 140.629 52.7296 141.572 52.2828C142.515 51.8361 143.667 51.6127 145.025 51.6127C145.478 51.6127 145.951 51.6376 146.437 51.6913L146.442 51.6831Z" fill="#14163A"/>
<path d="M167.371 70.878C167.456 71.3069 167.566 71.7276 167.7 72.14H175C174.663 71.5915 174.423 70.7666 174.289 69.6695C174.155 68.5725 174.086 67.4218 174.086 66.2175V52.364C174.086 50.7514 173.733 49.4523 173.023 48.4748C172.312 47.4973 171.398 46.7343 170.286 46.1817C169.169 45.6332 167.935 45.262 166.583 45.0764C165.231 44.8867 163.896 44.7918 162.576 44.7918C161.123 44.7918 159.677 44.9403 158.24 45.229C156.802 45.5218 155.512 46.0085 154.363 46.6972C153.214 47.386 152.267 48.2933 151.524 49.4275C150.781 50.5617 150.359 51.9846 150.258 53.7044H157.456C157.59 52.2609 158.065 51.234 158.877 50.6153C159.689 49.9967 160.806 49.6873 162.223 49.6873C162.865 49.6873 163.465 49.7327 164.021 49.8152C164.578 49.9018 165.069 50.0709 165.491 50.3307C165.913 50.5864 166.25 50.9494 166.506 51.4113C166.758 51.8732 166.888 52.5001 166.888 53.292C166.921 54.0467 166.701 54.6241 166.23 55.0159C165.755 55.4119 165.114 55.7129 164.302 55.9191C163.49 56.1254 162.56 56.278 161.513 56.3811C160.465 56.4842 159.401 56.6203 158.317 56.7935C157.233 56.9667 156.161 57.1977 155.098 57.4905C154.034 57.7833 153.087 58.2205 152.259 58.802C151.431 59.3877 150.753 60.1672 150.229 61.1446C149.706 62.1221 149.441 63.3676 149.441 64.8771C149.441 66.2505 149.669 67.4342 150.128 68.4323C150.583 69.4303 151.22 70.2511 152.028 70.9027C152.84 71.5544 153.786 72.0369 154.866 72.3462C155.946 72.6555 157.116 72.8081 158.366 72.8081C159.99 72.8081 161.578 72.5689 163.133 72.0864C164.688 71.6038 166.039 70.7666 167.188 69.5623C167.221 70.0077 167.282 70.4449 167.367 70.8738L167.371 70.878ZM166.892 61.8375C166.892 62.2499 166.847 62.7985 166.766 63.4872C166.681 64.176 166.453 64.8524 166.08 65.5205C165.706 66.1886 165.134 66.766 164.354 67.2445C163.575 67.727 162.479 67.9662 161.057 67.9662C160.481 67.9662 159.925 67.9167 159.385 67.8136C158.845 67.7105 158.37 67.529 157.964 67.2733C157.558 67.0176 157.237 66.6629 157.001 66.2175C156.766 65.7721 156.648 65.2235 156.648 64.5678C156.648 63.8832 156.766 63.314 157.001 62.8686C157.237 62.4232 157.55 62.052 157.939 61.7592C158.329 61.4663 158.784 61.2354 159.307 61.0621C159.831 60.8889 160.363 60.7528 160.903 60.6497C161.476 60.5466 162.052 60.46 162.629 60.394C163.201 60.3239 163.753 60.2414 164.277 60.1383C164.801 60.0352 165.292 59.9073 165.747 59.7506C166.202 59.598 166.584 59.3836 166.888 59.1072V61.8375H166.892Z" fill="#14163A"/>
<path d="M167.371 70.878C167.456 71.3069 167.566 71.7276 167.7 72.14H175C174.663 71.5915 174.423 70.7666 174.289 69.6695C174.155 68.5725 174.086 67.4218 174.086 66.2175V52.364C174.086 50.7514 173.733 49.4523 173.023 48.4748C172.312 47.4973 171.398 46.7343 170.286 46.1817C169.169 45.6332 167.935 45.262 166.583 45.0764C165.231 44.8867 163.896 44.7918 162.576 44.7918C161.123 44.7918 159.677 44.9403 158.24 45.229C156.802 45.5218 155.512 46.0085 154.363 46.6972C153.214 47.386 152.267 48.2933 151.524 49.4275C150.781 50.5617 150.359 51.9846 150.258 53.7044H157.456C157.59 52.2609 158.065 51.234 158.877 50.6153C159.689 49.9967 160.806 49.6873 162.223 49.6873C162.865 49.6873 163.465 49.7327 164.021 49.8152C164.578 49.9018 165.069 50.0709 165.491 50.3307C165.913 50.5864 166.25 50.9494 166.506 51.4113C166.758 51.8732 166.888 52.5001 166.888 53.292C166.921 54.0467 166.701 54.6241 166.23 55.0159C165.755 55.4119 165.114 55.7129 164.302 55.9191C163.49 56.1254 162.56 56.278 161.513 56.3811C160.465 56.4842 159.401 56.6203 158.317 56.7935C157.233 56.9667 156.161 57.1977 155.098 57.4905C154.034 57.7833 153.087 58.2205 152.259 58.802C151.431 59.3877 150.753 60.1672 150.229 61.1446C149.706 62.1221 149.441 63.3676 149.441 64.8771C149.441 66.2505 149.669 67.4342 150.128 68.4323C150.583 69.4303 151.22 70.2511 152.028 70.9027C152.84 71.5544 153.786 72.0369 154.866 72.3462C155.946 72.6555 157.116 72.8081 158.366 72.8081C159.99 72.8081 161.578 72.5689 163.133 72.0864C164.688 71.6038 166.039 70.7666 167.188 69.5623C167.221 70.0077 167.282 70.4449 167.367 70.8738L167.371 70.878ZM166.892 61.8375C166.892 62.2499 166.847 62.7985 166.766 63.4872C166.681 64.176 166.453 64.8524 166.08 65.5205C165.706 66.1886 165.134 66.766 164.354 67.2445C163.575 67.727 162.479 67.9662 161.057 67.9662C160.481 67.9662 159.925 67.9167 159.385 67.8136C158.845 67.7105 158.37 67.529 157.964 67.2733C157.558 67.0176 157.237 66.6629 157.001 66.2175C156.766 65.7721 156.648 65.2235 156.648 64.5678C156.648 63.8832 156.766 63.314 157.001 62.8686C157.237 62.4232 157.55 62.052 157.939 61.7592C158.329 61.4663 158.784 61.2354 159.307 61.0621C159.831 60.8889 160.363 60.7528 160.903 60.6497C161.476 60.5466 162.052 60.46 162.629 60.394C163.201 60.3239 163.753 60.2414 164.277 60.1383C164.801 60.0352 165.292 59.9073 165.747 59.7506C166.202 59.598 166.584 59.3836 166.888 59.1072V61.8375H166.892Z" fill="#14163A"/>
</svg>
