<svg width="186" height="51" viewBox="0 0 186 51" fill="none" xmlns="http://www.w3.org/2000/svg">
<path d="M85.7007 26.0569H89.3922V16.2111L88.8268 11.8622L97.152 26.0569H100.68V7.37939H96.9883V16.3693L97.5536 20.7709L89.7118 7.37939H84.9961C85.4632 8.28812 85.6967 9.39968 85.6967 10.7141V26.0529L85.7007 26.0569Z" fill="#14163A"/>
<path d="M85.7007 26.0569H89.3922V16.2111L88.8268 11.8622L97.152 26.0569H100.68V7.37939H96.9883V16.3693L97.5536 20.7709L89.7118 7.37939H84.9961C85.4632 8.28812 85.6967 9.39968 85.6967 10.7141V26.0529L85.7007 26.0569Z" fill="#14163A"/>
<path d="M108.959 26.6406C111.114 26.6406 112.984 26.0895 114.578 24.9914L114.661 24.7199L113.356 22.6389C112.051 23.5766 110.697 24.0454 109.285 24.0454C107.114 24.0454 105.854 22.9103 105.512 20.6359H114.768C115.057 20.0396 115.201 19.2129 115.201 18.1477C115.201 16.3628 114.603 14.9973 113.41 14.0514C112.216 13.1054 110.693 12.6325 108.848 12.6325C106.73 12.6325 105.033 13.2576 103.757 14.512C102.481 15.7664 101.841 17.4732 101.841 19.6365C101.841 21.7999 102.481 23.5108 103.757 24.7611C105.033 26.0155 106.767 26.6406 108.955 26.6406H108.959ZM108.794 15.1988C109.698 15.1988 110.387 15.4374 110.858 15.9145C111.329 16.3915 111.564 16.9838 111.564 17.6871C111.564 17.9215 111.535 18.1724 111.482 18.4438H105.483C105.755 16.2805 106.858 15.1988 108.794 15.1988Z" fill="#14163A"/>
<path d="M108.959 26.6406C111.114 26.6406 112.984 26.0895 114.578 24.9914L114.661 24.7199L113.356 22.6389C112.051 23.5766 110.697 24.0454 109.285 24.0454C107.114 24.0454 105.854 22.9103 105.512 20.6359H114.768C115.057 20.0396 115.201 19.2129 115.201 18.1477C115.201 16.3628 114.603 14.9973 113.41 14.0514C112.216 13.1054 110.693 12.6325 108.848 12.6325C106.73 12.6325 105.033 13.2576 103.757 14.512C102.481 15.7664 101.841 17.4732 101.841 19.6365C101.841 21.7999 102.481 23.5108 103.757 24.7611C105.033 26.0155 106.767 26.6406 108.955 26.6406H108.959ZM108.794 15.1988C109.698 15.1988 110.387 15.4374 110.858 15.9145C111.329 16.3915 111.564 16.9838 111.564 17.6871C111.564 17.9215 111.535 18.1724 111.482 18.4438H105.483C105.755 16.2805 106.858 15.1988 108.794 15.1988Z" fill="#14163A"/>
<path d="M123.624 12.6325C121.304 12.6325 119.514 13.2476 118.253 14.4779C116.992 15.7082 116.363 17.4298 116.363 19.6345C116.363 21.8391 116.992 23.5607 118.253 24.7952C119.514 26.0255 121.304 26.6406 123.624 26.6406C125.944 26.6406 127.734 26.0255 128.995 24.7952C130.256 23.5648 130.885 21.8432 130.885 19.6345C130.885 17.4257 130.256 15.7082 128.995 14.4779C127.734 13.2476 125.944 12.6325 123.624 12.6325ZM126.233 22.9621C125.617 23.697 124.745 24.0603 123.624 24.0603C122.503 24.0603 121.631 23.6928 121.015 22.9621C120.399 22.2272 120.089 21.1207 120.089 19.6345C120.089 18.1482 120.399 17.0418 121.015 16.3069C121.631 15.572 122.499 15.2087 123.624 15.2087C124.749 15.2087 125.617 15.5761 126.233 16.3069C126.849 17.0418 127.159 18.1482 127.159 19.6345C127.159 21.1207 126.849 22.2272 126.233 22.9621Z" fill="#14163A"/>
<path d="M123.624 12.6325C121.304 12.6325 119.514 13.2476 118.253 14.4779C116.992 15.7082 116.363 17.4298 116.363 19.6345C116.363 21.8391 116.992 23.5607 118.253 24.7952C119.514 26.0255 121.304 26.6406 123.624 26.6406C125.944 26.6406 127.734 26.0255 128.995 24.7952C130.256 23.5648 130.885 21.8432 130.885 19.6345C130.885 17.4257 130.256 15.7082 128.995 14.4779C127.734 13.2476 125.944 12.6325 123.624 12.6325ZM126.233 22.9621C125.617 23.697 124.745 24.0603 123.624 24.0603C122.503 24.0603 121.631 23.6928 121.015 22.9621C120.399 22.2272 120.089 21.1207 120.089 19.6345C120.089 18.1482 120.399 17.0418 121.015 16.3069C121.631 15.572 122.499 15.2087 123.624 15.2087C124.749 15.2087 125.617 15.5761 126.233 16.3069C126.849 17.0418 127.159 18.1482 127.159 19.6345C127.159 21.1207 126.849 22.2272 126.233 22.9621Z" fill="#14163A"/>
<path d="M93.2626 39.0096L93.3967 39.2304H97.6235V43.2311C96.8221 43.7061 95.6873 43.9437 94.2268 43.9437C92.5507 43.9437 91.2448 43.3394 90.3091 42.1351C89.3734 40.9307 88.9056 39.2679 88.9056 37.1467C88.9056 35.0256 89.345 33.292 90.2318 32.1043C91.1146 30.9166 92.449 30.3248 94.2308 30.3248C95.7483 30.3248 97.1924 30.6624 98.5634 31.3375L99.8204 28.4578C98.2135 27.6369 96.3584 27.2243 94.2551 27.2243C91.2935 27.2243 89.0115 28.1286 87.4045 29.9372C85.7976 31.7459 84.9961 34.1504 84.9961 37.1467C84.9961 40.1431 85.8016 42.5476 87.4166 44.3562C89.0317 46.1649 91.3098 47.0692 94.2511 47.0692C95.7116 47.0692 96.9849 46.9067 98.063 46.5774C99.141 46.2482 100.207 45.7106 101.26 44.9605V36.2174H94.4098L93.2584 39.0137L93.2626 39.0096Z" fill="#14163A"/>
<path d="M93.2626 39.0096L93.3967 39.2304H97.6235V43.2311C96.8221 43.7061 95.6873 43.9437 94.2268 43.9437C92.5507 43.9437 91.2448 43.3394 90.3091 42.1351C89.3734 40.9307 88.9056 39.2679 88.9056 37.1467C88.9056 35.0256 89.345 33.292 90.2318 32.1043C91.1146 30.9166 92.449 30.3248 94.2308 30.3248C95.7483 30.3248 97.1924 30.6624 98.5634 31.3375L99.8204 28.4578C98.2135 27.6369 96.3584 27.2243 94.2551 27.2243C91.2935 27.2243 89.0115 28.1286 87.4045 29.9372C85.7976 31.7459 84.9961 34.1504 84.9961 37.1467C84.9961 40.1431 85.8016 42.5476 87.4166 44.3562C89.0317 46.1649 91.3098 47.0692 94.2511 47.0692C95.7116 47.0692 96.9849 46.9067 98.063 46.5774C99.141 46.2482 100.207 45.7106 101.26 44.9605V36.2174H94.4098L93.2584 39.0137L93.2626 39.0096Z" fill="#14163A"/>
<path d="M113.99 34.4799C112.797 33.534 111.274 33.061 109.428 33.061C107.311 33.061 105.614 33.6862 104.338 34.9406C103.062 36.195 102.422 37.9018 102.422 40.0651C102.422 42.2284 103.062 43.9394 104.338 45.1896C105.614 46.444 107.348 47.0692 109.536 47.0692C111.724 47.0692 113.561 46.5181 115.155 45.42L115.237 45.1485L113.933 43.0674C112.628 44.0052 111.274 44.474 109.862 44.474C107.69 44.474 106.431 43.3389 106.088 41.0645H115.349C115.638 40.4682 115.782 39.6415 115.782 38.5763C115.782 36.7913 115.184 35.4259 113.99 34.4799ZM112.062 38.8765H106.064C106.336 36.7132 107.438 35.6315 109.375 35.6315C110.279 35.6315 110.968 35.8701 111.439 36.3471C111.91 36.8242 112.145 37.4165 112.145 38.1198C112.145 38.3542 112.116 38.6051 112.062 38.8765Z" fill="#14163A"/>
<path d="M113.99 34.4799C112.797 33.534 111.274 33.061 109.428 33.061C107.311 33.061 105.614 33.6862 104.338 34.9406C103.062 36.195 102.422 37.9018 102.422 40.0651C102.422 42.2284 103.062 43.9394 104.338 45.1896C105.614 46.444 107.348 47.0692 109.536 47.0692C111.724 47.0692 113.561 46.5181 115.155 45.42L115.237 45.1485L113.933 43.0674C112.628 44.0052 111.274 44.474 109.862 44.474C107.69 44.474 106.431 43.3389 106.088 41.0645H115.349C115.638 40.4682 115.782 39.6415 115.782 38.5763C115.782 36.7913 115.184 35.4259 113.99 34.4799ZM112.062 38.8765H106.064C106.336 36.7132 107.438 35.6315 109.375 35.6315C110.279 35.6315 110.968 35.8701 111.439 36.3471C111.91 36.8242 112.145 37.4165 112.145 38.1198C112.145 38.3542 112.116 38.6051 112.062 38.8765Z" fill="#14163A"/>
<path d="M124.209 33.061C122.68 33.061 121.298 33.6129 120.056 34.7168L119.573 33.41H116.363C116.724 34.2988 116.904 35.5812 116.904 37.2531V46.4855H120.491V36.3725C121.532 35.8571 122.442 35.5974 123.213 35.5974C125.549 35.5974 126.717 37.0299 126.717 39.895V46.4855H130.304V40.0005C130.304 37.7401 129.779 36.0195 128.726 34.8345C127.677 33.6495 126.168 33.061 124.209 33.061Z" fill="#14163A"/>
<path d="M124.209 33.061C122.68 33.061 121.298 33.6129 120.056 34.7168L119.573 33.41H116.363C116.724 34.2988 116.904 35.5812 116.904 37.2531V46.4855H120.491V36.3725C121.532 35.8571 122.442 35.5974 123.213 35.5974C125.549 35.5974 126.717 37.0299 126.717 39.895V46.4855H130.304V40.0005C130.304 37.7401 129.779 36.0195 128.726 34.8345C127.677 33.6495 126.168 33.061 124.209 33.061Z" fill="#14163A"/>
<path d="M143.038 34.4799C141.844 33.534 140.32 33.061 138.474 33.061C136.356 33.061 134.658 33.6862 133.382 34.9406C132.106 36.195 131.466 37.9018 131.466 40.0651C131.466 42.2284 132.106 43.9394 133.382 45.1896C134.658 46.444 136.393 47.0692 138.582 47.0692C140.77 47.0692 142.608 46.5181 144.202 45.42L144.285 45.1485L142.98 43.0674C141.675 44.0052 140.316 44.474 138.908 44.474C136.736 44.474 135.476 43.3389 135.133 41.0645H144.392C144.681 40.4682 144.826 39.6415 144.826 38.5763C144.826 36.7913 144.227 35.4259 143.033 34.4799H143.038ZM141.109 38.8765H135.108C135.381 36.7132 136.484 35.6315 138.421 35.6315C139.325 35.6315 140.015 35.8701 140.485 36.3471C140.956 36.8242 141.192 37.4165 141.192 38.1198C141.192 38.3542 141.163 38.6051 141.109 38.8765Z" fill="#14163A"/>
<path d="M143.038 34.4799C141.844 33.534 140.32 33.061 138.474 33.061C136.356 33.061 134.658 33.6862 133.382 34.9406C132.106 36.195 131.466 37.9018 131.466 40.0651C131.466 42.2284 132.106 43.9394 133.382 45.1896C134.658 46.444 136.393 47.0692 138.582 47.0692C140.77 47.0692 142.608 46.5181 144.202 45.42L144.285 45.1485L142.98 43.0674C141.675 44.0052 140.316 44.474 138.908 44.474C136.736 44.474 135.476 43.3389 135.133 41.0645H144.392C144.681 40.4682 144.826 39.6415 144.826 38.5763C144.826 36.7913 144.227 35.4259 143.033 34.4799H143.038ZM141.109 38.8765H135.108C135.381 36.7132 136.484 35.6315 138.421 35.6315C139.325 35.6315 140.015 35.8701 140.485 36.3471C140.956 36.8242 141.192 37.4165 141.192 38.1198C141.192 38.3542 141.163 38.6051 141.109 38.8765Z" fill="#14163A"/>
<path d="M154.134 36.1698L154.701 33.7164L154.548 33.4428H150.849V29.0831L150.696 28.9753L147.974 29.9285L147.462 33.4428L145.407 33.878V36.1656H147.462V42.6265C147.462 44.2262 147.763 45.3659 148.36 46.0456C148.958 46.7252 149.962 47.0692 151.364 47.0692C151.825 47.0692 152.544 46.9614 153.521 46.7418L154.419 43.8532L154.24 43.5549C153.501 43.7165 152.904 43.7994 152.443 43.7994C151.876 43.7994 151.47 43.6626 151.224 43.3891C150.974 43.1156 150.853 42.6348 150.853 41.9427V36.1656H154.142L154.134 36.1698Z" fill="#14163A"/>
<path d="M154.134 36.1698L154.701 33.7164L154.548 33.4428H150.849V29.0831L150.696 28.9753L147.974 29.9285L147.462 33.4428L145.407 33.878V36.1656H147.462V42.6265C147.462 44.2262 147.763 45.3659 148.36 46.0456C148.958 46.7252 149.962 47.0692 151.364 47.0692C151.825 47.0692 152.544 46.9614 153.521 46.7418L154.419 43.8532L154.24 43.5549C153.501 43.7165 152.904 43.7994 152.443 43.7994C151.876 43.7994 151.47 43.6626 151.224 43.3891C150.974 43.1156 150.853 42.6348 150.853 41.9427V36.1656H154.142L154.134 36.1698Z" fill="#14163A"/>
<path d="M157.868 26.6406C157.206 26.6406 156.708 26.7996 156.369 27.114C156.03 27.4283 155.862 27.8462 155.862 28.3676C155.862 28.889 156.034 29.3106 156.386 29.6434C156.734 29.9762 157.228 30.1427 157.868 30.1427C158.507 30.1427 159.035 29.9726 159.392 29.6323C159.748 29.2921 159.929 28.8705 159.929 28.3676C159.929 27.8647 159.748 27.4505 159.392 27.1288C159.035 26.8033 158.525 26.6443 157.868 26.6443V26.6406Z" fill="#14163A"/>
<path d="M157.868 26.6406C157.206 26.6406 156.708 26.7996 156.369 27.114C156.03 27.4283 155.862 27.8462 155.862 28.3676C155.862 28.889 156.034 29.3106 156.386 29.6434C156.734 29.9762 157.228 30.1427 157.868 30.1427C158.507 30.1427 159.035 29.9726 159.392 29.6323C159.748 29.2921 159.929 28.8705 159.929 28.3676C159.929 27.8647 159.748 27.4505 159.392 27.1288C159.035 26.8033 158.525 26.6443 157.868 26.6443V26.6406Z" fill="#14163A"/>
<path d="M159.929 33.6447H155.862V46.4855H159.929V33.6447Z" fill="#14163A"/>
<path d="M159.929 33.6447H155.862V46.4855H159.929V33.6447Z" fill="#14163A"/>
<path d="M171.994 43.2813C170.792 44.0586 169.493 44.4452 168.093 44.4452C167.048 44.4452 166.233 44.0504 165.64 43.2566C165.047 42.4629 164.753 41.4018 164.753 40.0651C164.753 38.7285 165.044 37.6386 165.628 36.8448C166.213 36.051 167.024 35.6562 168.069 35.6562C169.255 35.6562 170.36 36.0181 171.385 36.7379L171.542 36.7091L172.788 34.4923C171.356 33.5381 169.783 33.061 168.065 33.061C165.818 33.061 164.096 33.7026 162.893 34.9817C161.691 36.2608 161.09 37.9552 161.09 40.0651C161.09 42.175 161.695 43.8694 162.906 45.1485C164.116 46.4276 165.854 47.0692 168.117 47.0692C169.92 47.0692 171.647 46.5386 173.289 45.4734L172.147 43.3101L171.99 43.2813H171.994Z" fill="#14163A"/>
<path d="M171.994 43.2813C170.792 44.0586 169.493 44.4452 168.093 44.4452C167.048 44.4452 166.233 44.0504 165.64 43.2566C165.047 42.4629 164.753 41.4018 164.753 40.0651C164.753 38.7285 165.044 37.6386 165.628 36.8448C166.213 36.051 167.024 35.6562 168.069 35.6562C169.255 35.6562 170.36 36.0181 171.385 36.7379L171.542 36.7091L172.788 34.4923C171.356 33.5381 169.783 33.061 168.065 33.061C165.818 33.061 164.096 33.7026 162.893 34.9817C161.691 36.2608 161.09 37.9552 161.09 40.0651C161.09 42.175 161.695 43.8694 162.906 45.1485C164.116 46.4276 165.854 47.0692 168.117 47.0692C169.92 47.0692 171.647 46.5386 173.289 45.4734L172.147 43.3101L171.99 43.2813H171.994Z" fill="#14163A"/>
<path d="M184.376 40.2127C183.633 39.5932 182.476 39.0651 180.902 38.6285C179.874 38.3375 179.16 38.0714 178.76 37.8344C178.359 37.5974 178.154 37.2772 178.154 36.878C178.154 36.167 178.659 35.8136 179.666 35.8136C180.05 35.8136 180.618 35.9051 181.37 36.088C182.121 36.271 182.677 36.3624 183.044 36.3624C183.466 36.3624 183.729 36.3458 183.842 36.3084L184.694 33.4934L184.531 33.3313C184.368 33.3687 184.101 33.3854 183.733 33.3854C183.257 33.3854 182.597 33.3313 181.754 33.2232C180.91 33.1151 180.217 33.061 179.666 33.061C178.054 33.061 176.818 33.3853 175.958 34.0298C175.097 34.6785 174.667 35.6223 174.667 36.8614C174.667 37.9549 175.018 38.824 175.724 39.4726C176.429 40.1212 177.532 40.6535 179.031 41.0734C179.783 41.273 180.309 41.4227 180.609 41.5266C180.91 41.6264 181.211 41.7969 181.503 42.0339C181.795 42.2709 181.942 42.5536 181.942 42.8821C181.942 43.8468 181.182 44.3333 179.661 44.3333C178.947 44.3333 178.196 44.196 177.411 43.9216C176.621 43.6472 175.966 43.2938 175.436 42.8572L175.214 42.8863L173.87 45.5931C175.243 46.5785 177.118 47.0692 179.499 47.0692C181.386 47.0692 182.852 46.6867 183.908 45.9216C184.961 45.1565 185.487 44.1087 185.487 42.7782C185.487 41.7013 185.115 40.8572 184.376 40.2335V40.2127Z" fill="#14163A"/>
<path d="M184.376 40.2127C183.633 39.5932 182.476 39.0651 180.902 38.6285C179.874 38.3375 179.16 38.0714 178.76 37.8344C178.359 37.5974 178.154 37.2772 178.154 36.878C178.154 36.167 178.659 35.8136 179.666 35.8136C180.05 35.8136 180.618 35.9051 181.37 36.088C182.121 36.271 182.677 36.3624 183.044 36.3624C183.466 36.3624 183.729 36.3458 183.842 36.3084L184.694 33.4934L184.531 33.3313C184.368 33.3687 184.101 33.3854 183.733 33.3854C183.257 33.3854 182.597 33.3313 181.754 33.2232C180.91 33.1151 180.217 33.061 179.666 33.061C178.054 33.061 176.818 33.3853 175.958 34.0298C175.097 34.6785 174.667 35.6223 174.667 36.8614C174.667 37.9549 175.018 38.824 175.724 39.4726C176.429 40.1212 177.532 40.6535 179.031 41.0734C179.783 41.273 180.309 41.4227 180.609 41.5266C180.91 41.6264 181.211 41.7969 181.503 42.0339C181.795 42.2709 181.942 42.5536 181.942 42.8821C181.942 43.8468 181.182 44.3333 179.661 44.3333C178.947 44.3333 178.196 44.196 177.411 43.9216C176.621 43.6472 175.966 43.2938 175.436 42.8572L175.214 42.8863L173.87 45.5931C175.243 46.5785 177.118 47.0692 179.499 47.0692C181.386 47.0692 182.852 46.6867 183.908 45.9216C184.961 45.1565 185.487 44.1087 185.487 42.7782C185.487 41.7013 185.115 40.8572 184.376 40.2335V40.2127Z" fill="#14163A"/>
<path d="M43.7484 44.0411C42.0532 43.7545 40.4034 43.1315 38.77 42.3715C36.2026 41.1753 33.7423 39.5306 31.3518 37.6077C29.5003 36.1166 27.6859 34.5135 25.9291 32.7441C24.5672 31.3736 23.2177 29.9656 21.8723 28.5452C20.0002 26.5723 18.1487 24.5538 16.2766 22.5893C14.7131 20.9529 13.1415 19.3373 11.5533 17.7632C9.78005 16.0022 7.96568 14.3616 6.07306 12.9703C4.9416 12.1396 3.79369 11.3588 2.64166 10.6071C2.11914 10.2665 1.56776 10.0464 1.02466 9.7764C0.958828 9.74317 0.884734 9.73901 0.769531 9.71409C0.839476 9.83869 0.876581 9.9176 0.917725 9.9799C2.55525 12.3556 3.78129 15.2172 4.67822 18.4609C4.81811 18.9635 4.99917 19.2625 5.31598 19.4951C6.51738 20.3631 7.7064 21.2769 8.88312 22.2363C10.9568 23.9308 12.9852 25.7791 14.9847 27.6937C16.4453 29.0934 17.9019 30.5014 19.3666 31.8969C21.5842 34.0109 23.8266 36.0419 26.143 37.8486C27.5707 38.9616 29.0231 39.9875 30.5084 40.8805C32.1953 41.9022 33.9232 42.7121 35.6842 43.3434C37.2929 43.9207 38.9181 44.336 40.5598 44.5395C42.3043 44.7513 44.0529 44.8136 45.8015 44.6101C46.826 44.4897 47.8505 44.3194 48.875 44.1699C48.912 44.1657 48.949 44.1533 48.9819 44.0826C48.6034 44.1242 48.2249 44.1657 47.8505 44.2073C46.4804 44.3609 45.1185 44.2737 43.7525 44.0453L43.7484 44.0411Z" fill="#14163A"/>
<path d="M43.7484 44.0411C42.0532 43.7545 40.4034 43.1315 38.77 42.3715C36.2026 41.1753 33.7423 39.5306 31.3518 37.6077C29.5003 36.1166 27.6859 34.5135 25.9291 32.7441C24.5672 31.3736 23.2177 29.9656 21.8723 28.5452C20.0002 26.5723 18.1487 24.5538 16.2766 22.5893C14.7131 20.9529 13.1415 19.3373 11.5533 17.7632C9.78005 16.0022 7.96568 14.3616 6.07306 12.9703C4.9416 12.1396 3.79369 11.3588 2.64166 10.6071C2.11914 10.2665 1.56776 10.0464 1.02466 9.7764C0.958828 9.74317 0.884734 9.73901 0.769531 9.71409C0.839476 9.83869 0.876581 9.9176 0.917725 9.9799C2.55525 12.3556 3.78129 15.2172 4.67822 18.4609C4.81811 18.9635 4.99917 19.2625 5.31598 19.4951C6.51738 20.3631 7.7064 21.2769 8.88312 22.2363C10.9568 23.9308 12.9852 25.7791 14.9847 27.6937C16.4453 29.0934 17.9019 30.5014 19.3666 31.8969C21.5842 34.0109 23.8266 36.0419 26.143 37.8486C27.5707 38.9616 29.0231 39.9875 30.5084 40.8805C32.1953 41.9022 33.9232 42.7121 35.6842 43.3434C37.2929 43.9207 38.9181 44.336 40.5598 44.5395C42.3043 44.7513 44.0529 44.8136 45.8015 44.6101C46.826 44.4897 47.8505 44.3194 48.875 44.1699C48.912 44.1657 48.949 44.1533 48.9819 44.0826C48.6034 44.1242 48.2249 44.1657 47.8505 44.2073C46.4804 44.3609 45.1185 44.2737 43.7525 44.0453L43.7484 44.0411Z" fill="#14163A"/>
<path d="M62.3521 37.2067C61.1154 37.946 59.8374 38.051 58.5345 37.8086C57.3144 37.5864 56.1853 36.9442 55.0934 36.108C53.5548 34.9325 52.0948 33.5551 50.7009 32.008C48.8108 29.9075 46.9454 27.7505 45.0677 25.6217C43.6242 23.9898 42.1808 22.3578 40.6298 20.9804C39.2691 19.7726 37.8338 18.8678 36.2704 18.5689C35.1413 18.3548 34.0246 18.4881 32.9161 18.9445C31.8284 19.3929 30.811 20.1038 29.8266 20.936C29.1359 21.5217 28.4534 22.1316 27.7668 22.7295C27.6676 22.8143 27.5765 22.9193 27.4897 23.0567C27.7792 22.8789 28.0688 22.681 28.3624 22.5235C30.0789 21.6267 31.7994 21.7156 33.5283 22.4225C34.9676 23.0122 36.3159 23.9574 37.6229 25.0521C39.7406 26.8295 41.7176 28.9623 43.6987 31.087C45.1753 32.6705 46.6559 34.2499 48.178 35.7243C49.6587 37.1583 51.2139 38.3862 52.8849 39.1739C55.0811 40.2121 57.2937 40.4262 59.5148 39.3719C60.2965 39.0002 61.0451 38.4751 61.7689 37.8813C62.1536 37.5662 62.5382 37.2552 62.9229 36.9442C62.9146 36.9199 62.9022 36.8997 62.8939 36.8755C62.7119 36.9846 62.5299 37.0896 62.3479 37.1987L62.3521 37.2067Z" fill="#14163A"/>
<path d="M62.3521 37.2067C61.1154 37.946 59.8374 38.051 58.5345 37.8086C57.3144 37.5864 56.1853 36.9442 55.0934 36.108C53.5548 34.9325 52.0948 33.5551 50.7009 32.008C48.8108 29.9075 46.9454 27.7505 45.0677 25.6217C43.6242 23.9898 42.1808 22.3578 40.6298 20.9804C39.2691 19.7726 37.8338 18.8678 36.2704 18.5689C35.1413 18.3548 34.0246 18.4881 32.9161 18.9445C31.8284 19.3929 30.811 20.1038 29.8266 20.936C29.1359 21.5217 28.4534 22.1316 27.7668 22.7295C27.6676 22.8143 27.5765 22.9193 27.4897 23.0567C27.7792 22.8789 28.0688 22.681 28.3624 22.5235C30.0789 21.6267 31.7994 21.7156 33.5283 22.4225C34.9676 23.0122 36.3159 23.9574 37.6229 25.0521C39.7406 26.8295 41.7176 28.9623 43.6987 31.087C45.1753 32.6705 46.6559 34.2499 48.178 35.7243C49.6587 37.1583 51.2139 38.3862 52.8849 39.1739C55.0811 40.2121 57.2937 40.4262 59.5148 39.3719C60.2965 39.0002 61.0451 38.4751 61.7689 37.8813C62.1536 37.5662 62.5382 37.2552 62.9229 36.9442C62.9146 36.9199 62.9022 36.8997 62.8939 36.8755C62.7119 36.9846 62.5299 37.0896 62.3479 37.1987L62.3521 37.2067Z" fill="#14163A"/>
<path d="M51.3322 41.2965C50.0293 41.0373 48.7709 40.5026 47.549 39.7451C46.1894 38.8985 44.8784 37.8777 43.6241 36.6868C42.0137 35.1556 40.4154 33.592 38.8253 32.0081C37.5102 30.6997 36.2196 29.3265 34.9005 28.0222C33.6583 26.7948 32.3756 25.6768 30.9756 24.9841C29.693 24.3482 28.3901 24.0686 27.0548 24.5466C26.2253 24.8423 25.4565 25.3689 24.7403 26.094C24.1253 26.7178 23.5184 27.37 22.9115 28.01C22.8872 28.0343 22.867 28.0748 22.8427 28.1073C24.0768 27.3376 25.2988 27.5928 26.5126 28.1397C27.6699 28.6582 28.7542 29.4643 29.8022 30.3878C31.3883 31.7853 32.9461 33.2679 34.5281 34.6776C35.8715 35.8766 37.2149 37.0716 38.5865 38.1936C40.0027 39.3521 41.4715 40.3284 42.9807 41.1264C45.3923 42.4064 47.8604 43.1072 50.4055 42.9654C51.7853 42.8885 53.1449 42.5887 54.4801 42.0257C55.3015 41.6813 56.1148 41.2803 56.9281 40.9036C56.9969 40.8712 57.0575 40.8226 57.1141 40.7335C57.0413 40.7578 56.9685 40.7821 56.8956 40.8104C55.0586 41.5639 53.2014 41.6732 51.324 41.2965H51.3322Z" fill="#14163A"/>
<path d="M51.3322 41.2965C50.0293 41.0373 48.7709 40.5026 47.549 39.7451C46.1894 38.8985 44.8784 37.8777 43.6241 36.6868C42.0137 35.1556 40.4154 33.592 38.8253 32.0081C37.5102 30.6997 36.2196 29.3265 34.9005 28.0222C33.6583 26.7948 32.3756 25.6768 30.9756 24.9841C29.693 24.3482 28.3901 24.0686 27.0548 24.5466C26.2253 24.8423 25.4565 25.3689 24.7403 26.094C24.1253 26.7178 23.5184 27.37 22.9115 28.01C22.8872 28.0343 22.867 28.0748 22.8427 28.1073C24.0768 27.3376 25.2988 27.5928 26.5126 28.1397C27.6699 28.6582 28.7542 29.4643 29.8022 30.3878C31.3883 31.7853 32.9461 33.2679 34.5281 34.6776C35.8715 35.8766 37.2149 37.0716 38.5865 38.1936C40.0027 39.3521 41.4715 40.3284 42.9807 41.1264C45.3923 42.4064 47.8604 43.1072 50.4055 42.9654C51.7853 42.8885 53.1449 42.5887 54.4801 42.0257C55.3015 41.6813 56.1148 41.2803 56.9281 40.9036C56.9969 40.8712 57.0575 40.8226 57.1141 40.7335C57.0413 40.7578 56.9685 40.7821 56.8956 40.8104C55.0586 41.5639 53.2014 41.6732 51.324 41.2965H51.3322Z" fill="#14163A"/>
<path d="M15.5328 32.2188C14.7698 31.7429 14.0277 31.1775 13.298 30.5878C11.7512 29.3432 10.2252 28.0336 8.67413 26.8012C7.82357 26.126 6.93555 25.5566 5.99744 24.8896C6.22675 27.0086 6.20994 29.0178 6.13489 31.0677C6.22245 31.1206 6.31422 31.1816 6.40594 31.2386C7.58172 31.9503 8.75337 32.6621 9.92914 33.3657C10.8214 33.9026 11.7094 34.4761 12.6183 34.9438C14.2402 35.7816 15.783 35.4481 17.2256 33.9961C17.7468 33.4674 18.2679 32.9387 18.7766 32.353C18.6432 32.418 18.5056 32.4872 18.3721 32.5523C17.3965 33.02 16.4459 32.7841 15.5286 32.2147L15.5328 32.2188Z" fill="#14163A"/>
<path d="M15.5328 32.2188C14.7698 31.7429 14.0277 31.1775 13.298 30.5878C11.7512 29.3432 10.2252 28.0336 8.67413 26.8012C7.82357 26.126 6.93555 25.5566 5.99744 24.8896C6.22675 27.0086 6.20994 29.0178 6.13489 31.0677C6.22245 31.1206 6.31422 31.1816 6.40594 31.2386C7.58172 31.9503 8.75337 32.6621 9.92914 33.3657C10.8214 33.9026 11.7094 34.4761 12.6183 34.9438C14.2402 35.7816 15.783 35.4481 17.2256 33.9961C17.7468 33.4674 18.2679 32.9387 18.7766 32.353C18.6432 32.418 18.5056 32.4872 18.3721 32.5523C17.3965 33.02 16.4459 32.7841 15.5286 32.2147L15.5328 32.2188Z" fill="#14163A"/>
<path d="M11.3588 37.8636C10.9317 37.7812 10.5047 37.6535 10.0933 37.4598C9.19616 37.0396 8.31078 36.5576 7.42145 36.1126C6.96307 35.8819 6.49678 35.6759 6.03448 35.4616C5.95221 35.4246 5.86604 35.4122 5.79944 35.3957C5.47818 36.7924 5.16864 38.1479 4.83563 39.6146C6.17942 39.9566 7.49975 40.3397 8.83179 40.6075C9.67802 40.7806 10.489 40.3974 11.2294 39.6805C12.0169 38.9183 12.7926 38.1108 13.5488 37.2456C13.4195 37.3362 13.2902 37.4393 13.157 37.5175C12.5732 37.8719 11.9699 37.9748 11.3626 37.8595L11.3588 37.8636Z" fill="#14163A"/>
<path d="M11.3588 37.8636C10.9317 37.7812 10.5047 37.6535 10.0933 37.4598C9.19616 37.0396 8.31078 36.5576 7.42145 36.1126C6.96307 35.8819 6.49678 35.6759 6.03448 35.4616C5.95221 35.4246 5.86604 35.4122 5.79944 35.3957C5.47818 36.7924 5.16864 38.1479 4.83563 39.6146C6.17942 39.9566 7.49975 40.3397 8.83179 40.6075C9.67802 40.7806 10.489 40.3974 11.2294 39.6805C12.0169 38.9183 12.7926 38.1108 13.5488 37.2456C13.4195 37.3362 13.2902 37.4393 13.157 37.5175C12.5732 37.8719 11.9699 37.9748 11.3626 37.8595L11.3588 37.8636Z" fill="#14163A"/>
<path d="M3.38599 43.6945C3.14775 43.6945 3.02008 43.8383 2.89246 44.0979C2.36918 45.1764 1.77786 46.167 1.12695 47.0697C1.00358 47.2414 0.875888 47.4092 0.769531 47.6529C1.07584 47.557 1.38221 47.4771 1.68427 47.3573C2.83717 46.8899 3.94753 46.2429 5.02386 45.4839C6.01511 44.7889 6.98514 44.026 7.96362 43.291C8.087 43.1992 8.2018 43.0873 8.32092 42.9835C7.51261 43.4548 6.67879 43.5666 5.8407 43.6146C5.02388 43.6625 4.20281 43.6985 3.38599 43.6985V43.6945Z" fill="#14163A"/>
<path d="M3.38599 43.6945C3.14775 43.6945 3.02008 43.8383 2.89246 44.0979C2.36918 45.1764 1.77786 46.167 1.12695 47.0697C1.00358 47.2414 0.875888 47.4092 0.769531 47.6529C1.07584 47.557 1.38221 47.4771 1.68427 47.3573C2.83717 46.8899 3.94753 46.2429 5.02386 45.4839C6.01511 44.7889 6.98514 44.026 7.96362 43.291C8.087 43.1992 8.2018 43.0873 8.32092 42.9835C7.51261 43.4548 6.67879 43.5666 5.8407 43.6146C5.02388 43.6625 4.20281 43.6985 3.38599 43.6985V43.6945Z" fill="#14163A"/>
<path d="M65.7159 23.5017C64.5259 22.1756 63.2991 20.9666 62.0316 19.879C60.2017 18.3102 58.3024 17.0427 56.338 16.0596C54.7363 15.2564 53.1101 14.6665 51.4554 14.2984C48.3784 13.6123 45.3095 13.6249 42.2487 14.3946C40.5248 14.8297 38.8294 15.453 37.1707 16.3315C36.649 16.6076 36.1313 16.8921 35.6219 17.2518C35.8909 17.1472 36.1639 17.0385 36.4329 16.9339C38.5563 16.1181 40.6186 16.4988 42.636 17.9253C43.981 18.8791 45.2444 20.0965 46.4344 21.5146C47.7468 23.0792 49.0264 24.7191 50.3265 26.3088C51.6674 27.9486 53.0043 29.6136 54.3737 31.1865C55.5393 32.5252 56.7496 33.7677 58.0579 34.688C60.3035 36.2609 62.5533 36.4701 64.8112 34.9097C66.1113 34.0145 67.2768 32.7762 68.3242 31.2284C68.8418 30.467 69.3553 29.7056 69.8933 28.9066C69.5387 28.3963 69.2086 27.9068 68.8704 27.4425C67.8515 26.0494 66.8041 24.7275 65.7078 23.5059L65.7159 23.5017ZM59.248 27.2793C58.2944 27.2793 57.524 26.3966 57.524 25.3048C57.524 24.2129 58.2944 23.3302 59.248 23.3302C60.2017 23.3302 60.972 24.2129 60.972 25.3048C60.972 26.3966 60.2017 27.2793 59.248 27.2793Z" fill="#14163A"/>
<path d="M65.7159 23.5017C64.5259 22.1756 63.2991 20.9666 62.0316 19.879C60.2017 18.3102 58.3024 17.0427 56.338 16.0596C54.7363 15.2564 53.1101 14.6665 51.4554 14.2984C48.3784 13.6123 45.3095 13.6249 42.2487 14.3946C40.5248 14.8297 38.8294 15.453 37.1707 16.3315C36.649 16.6076 36.1313 16.8921 35.6219 17.2518C35.8909 17.1472 36.1639 17.0385 36.4329 16.9339C38.5563 16.1181 40.6186 16.4988 42.636 17.9253C43.981 18.8791 45.2444 20.0965 46.4344 21.5146C47.7468 23.0792 49.0264 24.7191 50.3265 26.3088C51.6674 27.9486 53.0043 29.6136 54.3737 31.1865C55.5393 32.5252 56.7496 33.7677 58.0579 34.688C60.3035 36.2609 62.5533 36.4701 64.8112 34.9097C66.1113 34.0145 67.2768 32.7762 68.3242 31.2284C68.8418 30.467 69.3553 29.7056 69.8933 28.9066C69.5387 28.3963 69.2086 27.9068 68.8704 27.4425C67.8515 26.0494 66.8041 24.7275 65.7078 23.5059L65.7159 23.5017ZM59.248 27.2793C58.2944 27.2793 57.524 26.3966 57.524 25.3048C57.524 24.2129 58.2944 23.3302 59.248 23.3302C60.2017 23.3302 60.972 24.2129 60.972 25.3048C60.972 26.3966 60.2017 27.2793 59.248 27.2793Z" fill="#14163A"/>
<path d="M77.4447 0.958984H76.283V50.5712H77.4447V0.958984Z" fill="#14163A"/>
<path d="M77.4447 0.958984H76.283V50.5712H77.4447V0.958984Z" fill="#14163A"/>
</svg>
