<svg width="240" height="69" viewBox="0 0 240 69" fill="none" xmlns="http://www.w3.org/2000/svg">
<path d="M61.1971 33.7236C61.3285 33.2025 61.4352 32.7307 61.5133 32.2957C61.7351 31.0935 61.8502 29.9365 61.8502 28.8204C61.8502 26.375 61.3162 24.106 60.2359 21.9478C60.0757 21.6195 59.8909 21.2831 59.6773 20.9302C59.6363 20.8523 59.591 20.7825 59.5499 20.7292C59.1597 20.085 58.7243 19.4736 58.2642 18.9197C58.1492 18.7884 58.0424 18.6653 57.9356 18.5422L57.9478 18.5299L57.6727 18.2386C54.7974 15.1326 50.6897 12.7569 47.7528 11.3126C47.687 11.2839 47.6295 11.247 47.5638 11.2182C47.5638 10.414 47.5146 9.60984 47.4283 8.78512C47.4283 8.78512 47.4283 8.77692 47.4283 8.76871C47.4283 8.76871 47.4201 8.76871 47.4283 8.7605C47.2763 7.39008 47.0339 5.99913 46.6724 4.59178C46.5574 4.12813 46.422 3.65627 46.2865 3.19263C45.9907 2.20789 45.2142 1.31752 44.1585 0.738991C43.1111 0.160458 41.9363 -0.0282826 40.9505 0.234314C40.474 0.361509 40.0101 0.49691 39.546 0.648724C38.1617 1.08365 36.839 1.60064 35.5985 2.21199C35.582 2.21199 35.5779 2.22841 35.5697 2.22841C35.5697 2.22841 35.5618 2.2284 35.5536 2.23661C34.4609 2.7618 33.4257 3.35265 32.4481 4.00093C32.4481 4.00093 32.4355 4.01735 32.4273 4.02145C31.8317 4.41535 31.2609 4.83386 30.7105 5.27699C30.6078 5.25237 30.5093 5.22365 30.4066 5.20314C29.3304 4.93233 27.6997 4.55485 26.0321 4.32508C23.7976 4.02555 21.5302 3.84091 19.2916 3.77526C18.0511 3.73834 16.8313 3.88195 15.6524 4.02145L14.7528 4.11993C12.2225 4.39894 9.88535 5.12518 7.80282 6.27814C6.22552 7.1521 4.89443 8.32147 3.84701 9.75344C3.56769 10.1432 3.2967 10.5741 3.03793 11.0418C2.56556 11.7065 0.400941 15.1203 0.281822 21.64C0.261284 22.9202 0.310378 24.2701 0.450035 25.6529C0.67595 27.2613 0.914262 28.7671 1.13607 30.0021L1.2264 30.5191C1.25926 30.6914 1.29653 30.8679 1.32528 31.0525L1.36605 31.2823C1.24693 31.7254 1.14021 32.1726 1.04574 32.624C0.63909 34.5114 0.433922 36.4357 0.433922 38.3437C0.433922 40.3993 0.671989 42.4303 1.11971 44.4121C1.27991 45.1055 1.46056 45.8031 1.67416 46.4883C1.87132 47.116 2.09319 47.7356 2.33553 48.3429C2.56556 48.9419 2.82839 49.5368 3.1036 50.1318C3.25147 50.419 3.39953 50.7062 3.5433 50.9934C3.66652 51.2355 3.79378 51.4735 3.93343 51.7033C4.05666 51.9371 4.18811 52.1669 4.33187 52.3885C4.59475 52.8357 4.87808 53.2788 5.16561 53.7097H5.17367C5.5721 54.2923 5.99539 54.8626 6.4349 55.4165C6.61974 55.6422 6.80454 55.8679 6.99349 56.0895C7.18655 56.311 7.3795 56.5244 7.56844 56.7377C7.73685 56.9265 7.91794 57.1111 8.09457 57.2958C8.25887 57.464 8.42298 57.6281 8.59139 57.7922C10.4316 59.6058 12.5344 61.1526 14.8182 62.3672C15.6931 62.8349 16.6011 63.2575 17.5294 63.6268C17.5294 63.6268 17.5375 63.6268 17.5457 63.6268C19.5338 64.4105 21.641 64.9726 23.8263 65.2516C24.3397 65.3214 24.8614 65.3788 25.3953 65.4116C25.5925 65.4322 25.7897 65.4363 25.9869 65.4486H25.9991C26.1223 65.4486 26.262 65.4609 26.3934 65.465H26.4347C26.562 65.4732 26.6892 65.4773 26.8206 65.4773H26.8985C27.0669 65.4855 27.2477 65.4896 27.4202 65.4896C27.5147 65.4896 27.6092 65.4896 27.7037 65.4896C27.8269 65.4896 27.9502 65.4814 28.0816 65.4814C28.3445 65.4691 28.6117 65.4609 28.9156 65.4445C28.9444 65.4445 28.9853 65.4445 29.0223 65.4445C29.1825 65.4322 29.3509 65.4198 29.5111 65.4075C30.0286 65.3665 30.5504 65.305 31.0926 65.2393C40.31 63.9509 48.2007 57.8907 51.9632 49.4589C52.1727 49.2086 52.3863 48.9501 52.5958 48.6998L52.7149 48.5521C52.7437 48.5111 52.7765 48.4782 52.8258 48.4208L52.982 48.2321C53.134 48.0433 53.2817 47.8587 53.4378 47.674C55.623 45.0645 57.3236 42.5739 58.638 40.0834C59.858 37.7815 60.6753 35.7751 61.2052 33.7441L61.1971 33.7236ZM4.48397 43.4807C4.48397 43.4807 4.45084 43.4889 4.43441 43.493C4.40566 43.3576 4.37698 43.2263 4.34823 43.0868C4.3318 42.9924 4.31534 42.8981 4.29891 42.7996C4.29891 42.7996 4.29891 42.7914 4.29891 42.7873C4.00317 41.3225 3.86361 39.8331 3.86361 38.3272C3.86361 37.2481 3.94563 36.169 4.08529 35.1063C4.09761 35.0407 4.10588 34.9668 4.1141 34.9012C4.23322 34.9012 4.35236 34.9012 4.46737 34.9012C4.54952 34.893 4.6316 34.893 4.71786 34.893C14.0831 34.893 21.9203 41.6425 23.6619 50.5585C19.9651 45.9836 14.334 43.1607 8.11922 43.1607C7.5606 43.1607 6.99743 43.1853 6.4388 43.2304C6.29915 43.2427 6.15565 43.2509 6.0201 43.2715C5.50255 43.3248 4.99311 43.3986 4.48788 43.4848L4.48397 43.4807ZM22.7418 61.247H22.7049C22.7049 61.247 22.6846 61.247 22.6764 61.247C22.6188 61.2265 22.5735 61.2224 22.5243 61.2101C22.2983 61.165 22.0806 61.1198 21.8629 61.0624C21.678 61.0213 21.493 60.9721 21.3082 60.9229C21.2548 60.9065 21.1933 60.8941 21.1317 60.8777C20.9468 60.8203 20.7579 60.767 20.5731 60.7177C20.5033 60.6972 20.4415 60.6767 20.3717 60.6521C20.1499 60.5864 19.9323 60.5126 19.7105 60.4387C19.6982 60.4387 19.686 60.4387 19.6737 60.4264C19.4436 60.3525 19.2258 60.2705 19.004 60.1843C18.9752 60.1679 18.9629 60.1638 18.9342 60.1515C18.7288 60.0817 18.5358 59.9997 18.3346 59.9135C17.3405 59.4991 16.3668 59.0149 15.4344 58.4774C15.2865 58.3872 15.1471 58.3051 15.0074 58.2148C14.1982 57.7184 13.4179 57.1686 12.6744 56.5777C12.5389 56.4669 12.4074 56.3685 12.2718 56.2536C12.1979 56.1879 12.1197 56.1223 12.0457 56.0566C11.9554 55.9787 11.861 55.9007 11.7706 55.8145C11.594 55.6627 11.4255 55.515 11.253 55.3509C11.0928 55.1991 10.9328 55.0473 10.7767 54.8872H10.7684L10.6903 54.8052C10.5547 54.678 10.4314 54.5467 10.3082 54.4195C10.2548 54.3621 10.2015 54.3087 10.1563 54.2595C9.99614 54.0953 9.844 53.923 9.69613 53.7507C9.53593 53.5784 9.38433 53.3978 9.24056 53.2214C9.21181 53.1968 9.19527 53.1722 9.18295 53.1517C9.05561 52.9998 8.93239 52.8439 8.80917 52.688C8.75988 52.6347 8.73501 52.5895 8.69393 52.5362C8.5666 52.3721 8.44349 52.2038 8.30795 52.0397C8.29152 52.0151 8.28323 51.9905 8.25448 51.9618C8.11893 51.7689 7.99163 51.5843 7.86019 51.3955C7.72053 51.1863 7.57664 50.977 7.4493 50.7678C7.31375 50.5626 7.18674 50.3452 7.05941 50.1277C6.9444 49.9307 6.82925 49.7297 6.71835 49.5327C6.68548 49.463 6.64032 49.385 6.60335 49.3112C6.52531 49.1594 6.43506 48.9993 6.35702 48.8434C6.32826 48.7942 6.29952 48.7532 6.28719 48.6998C6.18861 48.507 6.09387 48.3141 6.0035 48.1213C5.89671 47.9038 5.80232 47.6905 5.70785 47.473V47.4648C5.70785 47.4648 5.69555 47.4402 5.68734 47.432H5.6954C6.21295 47.3458 6.73466 47.2966 7.26864 47.2719C7.4083 47.2596 7.55607 47.2555 7.70394 47.2514C7.83538 47.2514 7.97118 47.2514 8.10262 47.2514C15.3114 47.2514 21.5465 52.052 23.4237 58.9985C23.4771 59.1503 23.5141 59.3063 23.547 59.4581C23.7072 60.1146 23.8263 60.7793 23.9002 61.4563C23.5059 61.3947 23.1156 61.3332 22.7254 61.2511L22.7418 61.247ZM26.4386 31.5736C26.2414 31.5367 26.0567 31.4997 25.8678 31.4505C24.8943 31.2412 23.966 30.9622 23.087 30.6094C20.2569 29.518 17.9236 27.7536 16.2108 25.4149C13.9968 22.3663 13.0437 18.6284 13.4381 14.4966C13.4545 14.2668 13.4876 14.0412 13.5123 13.8114C13.7382 13.8565 13.9723 13.8975 14.1859 13.9591C17.5828 14.7141 20.4293 16.2814 22.5611 18.5586C22.9883 19.0018 23.3787 19.4736 23.7442 19.9742C26.0814 23.1869 27.0056 27.1792 26.4347 31.5777L26.4386 31.5736ZM24.9886 11.9855C24.4998 12.8636 24.0727 13.7704 23.7113 14.6977C22.7378 13.9099 21.6742 13.2328 20.5282 12.6543C20.5282 12.6543 20.5197 12.6543 20.5074 12.6379C19.7475 12.2481 18.9383 11.9076 18.0963 11.6203H18.0838C18.0838 11.6203 18.0838 11.6203 18.0838 11.6121C17.1144 11.2839 16.1041 11.0172 15.0526 10.812C14.7034 10.7505 14.3418 10.6931 13.9845 10.6397C13.2451 10.5289 12.4032 10.7669 11.6844 11.2921C10.9656 11.8091 10.4767 12.5353 10.3453 13.2616C10.2796 13.6226 10.2303 13.9755 10.1851 14.3366C10.0537 15.387 9.98374 16.4333 10.0084 17.4467V17.4672C10.0084 17.4672 10.0084 17.4754 10.0084 17.4877C10.0207 18.3822 10.0947 19.2439 10.2262 20.0973V20.1178C10.6533 22.8505 11.6681 25.3533 13.2618 27.5444C14.416 29.1241 15.8125 30.4699 17.439 31.5654C19.7064 33.1081 22.4091 34.1544 25.461 34.6632V43.411C25.461 43.411 25.461 43.4109 25.461 43.4027C23.9043 40.4239 21.7274 37.8226 19.1068 35.7628C15.1307 32.6486 10.1398 30.7981 4.71786 30.7981H4.46737C4.20859 30.7981 3.94978 30.8063 3.691 30.8186L3.67879 30.7653C3.65415 30.6053 3.62527 30.4452 3.59652 30.2893C3.57187 30.1293 3.53909 29.9652 3.51034 29.8134L3.47347 29.5918C3.26399 28.4265 3.03797 27.0069 2.80795 25.3738C2.68472 24.0978 2.6312 22.8587 2.65585 21.6852C2.75443 16.2035 4.41792 13.2534 4.87386 12.5558L5.0013 12.3384L5.1617 12.1004C5.36708 11.7352 5.57229 11.4152 5.77767 11.1362C6.61561 9.98732 7.68768 9.04771 8.96102 8.34198C10.7601 7.34083 12.7976 6.70897 15.0116 6.46688C15.295 6.43816 15.5743 6.40534 15.8577 6.36841L15.9356 6.3602C17.1597 6.21249 18.1826 6.10171 19.2259 6.12633C21.3454 6.18377 23.5264 6.36431 25.7198 6.65973C26.5947 6.77872 27.5314 6.94695 28.5911 7.18903C27.1823 8.6169 25.9827 10.2253 24.9928 11.9855H24.9886ZM29.2813 23.191C28.8583 21.7057 28.2542 20.2983 27.4574 18.9854C27.8763 17.3811 28.5007 15.8424 29.3099 14.3817C30.5422 12.1866 32.1482 10.2745 34.1034 8.67434C34.2307 8.56766 34.3582 8.46919 34.4937 8.36251C34.9866 7.96041 35.5123 7.59112 36.0504 7.25057C36.2024 7.14799 36.3503 7.05362 36.5023 6.96335C37.9358 6.06888 39.5049 5.32212 41.2054 4.73128C41.5053 4.6205 41.8008 4.53023 42.0965 4.42355C42.1746 4.73538 42.2526 5.0349 42.3101 5.34674C42.5977 6.6269 42.7704 7.90296 42.8443 9.15439C42.8566 9.30621 42.8607 9.45802 42.8648 9.60984C42.8895 10.1638 42.8935 10.7259 42.8812 11.2716C42.873 11.4152 42.8647 11.5629 42.8565 11.7065C42.6963 14.8413 41.8501 17.7996 40.3426 20.4953C38.0835 24.545 34.5101 27.6428 29.8973 29.5877C30.0452 27.331 29.8276 25.1933 29.273 23.1869L29.2813 23.191ZM48.952 47.4566C48.952 47.4566 48.9399 47.4894 48.9317 47.5099C48.8414 47.7356 48.7385 47.9531 48.6358 48.1705C48.5989 48.2403 48.5661 48.3264 48.5291 48.4003C48.4429 48.5644 48.369 48.7285 48.2786 48.8886C48.2663 48.9132 48.2538 48.9501 48.2374 48.9788C48.1265 49.1881 48.0113 49.3973 47.8922 49.6148C47.7977 49.783 47.7077 49.9554 47.5968 50.1236C47.5064 50.2754 47.416 50.4354 47.3175 50.5872C47.2764 50.6611 47.2351 50.7349 47.1817 50.8047C47.1119 50.9196 47.0382 51.0427 46.952 51.1535C46.8822 51.2724 46.8081 51.3873 46.7301 51.494C46.6808 51.5597 46.6395 51.6294 46.5902 51.691C46.5409 51.7566 46.4957 51.8264 46.4464 51.892C46.3889 51.9782 46.3315 52.0602 46.2699 52.1382C46.2288 52.2038 46.1756 52.2613 46.1305 52.3269C46.0113 52.4869 45.888 52.647 45.7647 52.8029C45.7442 52.8234 45.7279 52.8562 45.7032 52.8726C45.6046 53.0039 45.4978 53.127 45.3951 53.2501C45.2801 53.3855 45.169 53.5291 45.0499 53.6563C44.9267 53.7958 44.8037 53.9394 44.6764 54.0707C44.5613 54.202 44.4339 54.3292 44.3106 54.4564C44.0847 54.6944 43.8629 54.9201 43.6287 55.1457C43.4603 55.3058 43.2878 55.4658 43.107 55.6258C43.107 55.6381 43.0906 55.6463 43.0865 55.6504C42.8976 55.8145 42.7088 55.9828 42.5157 56.1428L42.5033 56.151C42.3266 56.3028 42.1503 56.4505 41.9654 56.5941C41.7477 56.7664 41.5297 56.9388 41.2996 57.1029C41.1189 57.2424 40.9341 57.3737 40.7452 57.5091C40.0305 58.0015 39.283 58.461 38.5108 58.8672C38.5108 58.8754 38.4986 58.8754 38.4945 58.8836C38.478 58.8919 38.4574 58.9042 38.441 58.9083C38.3013 58.9903 38.1577 59.0642 38.0098 59.1339C37.8127 59.2406 37.6153 59.3432 37.4058 59.4376C37.1881 59.5442 36.9582 59.6427 36.7364 59.7412C36.5064 59.8479 36.2804 59.9381 36.0462 60.0284C35.8326 60.1187 35.5985 60.2048 35.3685 60.2869C35.3562 60.2951 35.3481 60.2992 35.3399 60.2992C35.1838 60.3607 35.0236 60.4141 34.8634 60.4674C34.7566 60.5003 34.6579 60.5372 34.5511 60.5741C34.432 60.6151 34.3007 60.6521 34.1693 60.689C34.0419 60.73 33.9062 60.767 33.7789 60.8039C33.6023 60.8572 33.4298 60.8983 33.245 60.9475C33.2285 60.9557 33.2082 60.9598 33.1917 60.968C32.9658 61.0254 32.7438 61.0829 32.5138 61.1239C32.4809 61.1362 32.4521 61.1444 32.4151 61.1485C32.3699 61.1609 32.3207 61.1691 32.2755 61.1773C32.2303 61.1855 32.1851 61.1978 32.1358 61.2019C31.7579 61.2839 31.3676 61.3578 30.9815 61.4152C31.0514 60.7546 31.1707 60.09 31.3267 59.4499C31.3637 59.294 31.4007 59.1421 31.4459 58.9862C33.3313 52.0438 39.5705 47.2432 46.7711 47.2432C47.5104 47.2432 48.2292 47.2925 48.9644 47.395C48.9562 47.4114 48.9521 47.4279 48.9398 47.4484L48.952 47.4566ZM50.2459 43.4479C49.1081 43.2509 47.9501 43.1525 46.7835 43.1525C40.577 43.1525 34.9454 45.9754 31.2445 50.5503C32.9861 41.6343 40.8192 34.8848 50.1844 34.8848C50.3076 34.8848 50.435 34.8848 50.5582 34.893C50.7225 36.0172 50.8087 37.1661 50.8087 38.3231C50.8087 40.0546 50.6158 41.7738 50.242 43.4479H50.2459ZM53.8692 43.2263C54.165 41.6138 54.3087 39.9808 54.3087 38.3313C54.3087 36.3824 54.1033 34.4498 53.7008 32.5788C53.5858 32.0372 53.4504 31.5038 53.3026 30.9786L52.4974 30.8925C51.7868 30.8268 51.043 30.7899 50.2872 30.7899H50.1844C44.6269 30.7899 39.5212 32.7307 35.504 35.9885C33.0559 37.9826 31.0062 40.4485 29.5111 43.255V34.417C33.4174 33.2641 36.7856 31.4792 39.5377 29.1241C41.6243 27.3515 43.3537 25.259 44.6764 22.8833C46.2372 20.0973 47.1696 17.0569 47.4571 13.8401C51.1868 15.7809 54.0581 17.8242 55.9969 19.925L56.1778 20.1178C56.2641 20.2204 56.3501 20.3189 56.4322 20.4132C56.8512 20.922 57.2127 21.4267 57.533 21.9601L57.6112 22.0914C57.8165 22.4401 57.9726 22.7233 58.1041 22.9859C59.439 25.6611 59.7922 28.5701 59.1761 31.8567C59.1063 32.2547 59.0117 32.6732 58.8885 33.1287C58.4202 34.9463 57.6686 36.7968 56.5267 38.9591C55.7873 40.3665 54.9125 41.7656 53.8651 43.2222L53.8692 43.2263Z" fill="#14163A"/>
<path d="M61.1971 33.7236C61.3285 33.2025 61.4352 32.7307 61.5133 32.2957C61.7351 31.0935 61.8502 29.9365 61.8502 28.8204C61.8502 26.375 61.3162 24.106 60.2359 21.9478C60.0757 21.6195 59.8909 21.2831 59.6773 20.9302C59.6363 20.8523 59.591 20.7825 59.5499 20.7292C59.1597 20.085 58.7243 19.4736 58.2642 18.9197C58.1492 18.7884 58.0424 18.6653 57.9356 18.5422L57.9478 18.5299L57.6727 18.2386C54.7974 15.1326 50.6897 12.7569 47.7528 11.3126C47.687 11.2839 47.6295 11.247 47.5638 11.2182C47.5638 10.414 47.5146 9.60984 47.4283 8.78512C47.4283 8.78512 47.4283 8.77692 47.4283 8.76871C47.4283 8.76871 47.4201 8.76871 47.4283 8.7605C47.2763 7.39008 47.0339 5.99913 46.6724 4.59178C46.5574 4.12813 46.422 3.65627 46.2865 3.19263C45.9907 2.20789 45.2142 1.31752 44.1585 0.738991C43.1111 0.160458 41.9363 -0.0282826 40.9505 0.234314C40.474 0.361509 40.0101 0.49691 39.546 0.648724C38.1617 1.08365 36.839 1.60064 35.5985 2.21199C35.582 2.21199 35.5779 2.22841 35.5697 2.22841C35.5697 2.22841 35.5618 2.2284 35.5536 2.23661C34.4609 2.7618 33.4257 3.35265 32.4481 4.00093C32.4481 4.00093 32.4355 4.01735 32.4273 4.02145C31.8317 4.41535 31.2609 4.83386 30.7105 5.27699C30.6078 5.25237 30.5093 5.22365 30.4066 5.20314C29.3304 4.93233 27.6997 4.55485 26.0321 4.32508C23.7976 4.02555 21.5302 3.84091 19.2916 3.77526C18.0511 3.73834 16.8313 3.88195 15.6524 4.02145L14.7528 4.11993C12.2225 4.39894 9.88535 5.12518 7.80282 6.27814C6.22552 7.1521 4.89443 8.32147 3.84701 9.75344C3.56769 10.1432 3.2967 10.5741 3.03793 11.0418C2.56556 11.7065 0.400941 15.1203 0.281822 21.64C0.261284 22.9202 0.310378 24.2701 0.450035 25.6529C0.67595 27.2613 0.914262 28.7671 1.13607 30.0021L1.2264 30.5191C1.25926 30.6914 1.29653 30.8679 1.32528 31.0525L1.36605 31.2823C1.24693 31.7254 1.14021 32.1726 1.04574 32.624C0.63909 34.5114 0.433922 36.4357 0.433922 38.3437C0.433922 40.3993 0.671989 42.4303 1.11971 44.4121C1.27991 45.1055 1.46056 45.8031 1.67416 46.4883C1.87132 47.116 2.09319 47.7356 2.33553 48.3429C2.56556 48.9419 2.82839 49.5368 3.1036 50.1318C3.25147 50.419 3.39953 50.7062 3.5433 50.9934C3.66652 51.2355 3.79378 51.4735 3.93343 51.7033C4.05666 51.9371 4.18811 52.1669 4.33187 52.3885C4.59475 52.8357 4.87808 53.2788 5.16561 53.7097H5.17367C5.5721 54.2923 5.99539 54.8626 6.4349 55.4165C6.61974 55.6422 6.80454 55.8679 6.99349 56.0895C7.18655 56.311 7.3795 56.5244 7.56844 56.7377C7.73685 56.9265 7.91794 57.1111 8.09457 57.2958C8.25887 57.464 8.42298 57.6281 8.59139 57.7922C10.4316 59.6058 12.5344 61.1526 14.8182 62.3672C15.6931 62.8349 16.6011 63.2575 17.5294 63.6268C17.5294 63.6268 17.5375 63.6268 17.5457 63.6268C19.5338 64.4105 21.641 64.9726 23.8263 65.2516C24.3397 65.3214 24.8614 65.3788 25.3953 65.4116C25.5925 65.4322 25.7897 65.4363 25.9869 65.4486H25.9991C26.1223 65.4486 26.262 65.4609 26.3934 65.465H26.4347C26.562 65.4732 26.6892 65.4773 26.8206 65.4773H26.8985C27.0669 65.4855 27.2477 65.4896 27.4202 65.4896C27.5147 65.4896 27.6092 65.4896 27.7037 65.4896C27.8269 65.4896 27.9502 65.4814 28.0816 65.4814C28.3445 65.4691 28.6117 65.4609 28.9156 65.4445C28.9444 65.4445 28.9853 65.4445 29.0223 65.4445C29.1825 65.4322 29.3509 65.4198 29.5111 65.4075C30.0286 65.3665 30.5504 65.305 31.0926 65.2393C40.31 63.9509 48.2007 57.8907 51.9632 49.4589C52.1727 49.2086 52.3863 48.9501 52.5958 48.6998L52.7149 48.5521C52.7437 48.5111 52.7765 48.4782 52.8258 48.4208L52.982 48.2321C53.134 48.0433 53.2817 47.8587 53.4378 47.674C55.623 45.0645 57.3236 42.5739 58.638 40.0834C59.858 37.7815 60.6753 35.7751 61.2052 33.7441L61.1971 33.7236ZM4.48397 43.4807C4.48397 43.4807 4.45084 43.4889 4.43441 43.493C4.40566 43.3576 4.37698 43.2263 4.34823 43.0868C4.3318 42.9924 4.31534 42.8981 4.29891 42.7996C4.29891 42.7996 4.29891 42.7914 4.29891 42.7873C4.00317 41.3225 3.86361 39.8331 3.86361 38.3272C3.86361 37.2481 3.94563 36.169 4.08529 35.1063C4.09761 35.0407 4.10588 34.9668 4.1141 34.9012C4.23322 34.9012 4.35236 34.9012 4.46737 34.9012C4.54952 34.893 4.6316 34.893 4.71786 34.893C14.0831 34.893 21.9203 41.6425 23.6619 50.5585C19.9651 45.9836 14.334 43.1607 8.11922 43.1607C7.5606 43.1607 6.99743 43.1853 6.4388 43.2304C6.29915 43.2427 6.15565 43.2509 6.0201 43.2715C5.50255 43.3248 4.99311 43.3986 4.48788 43.4848L4.48397 43.4807ZM22.7418 61.247H22.7049C22.7049 61.247 22.6846 61.247 22.6764 61.247C22.6188 61.2265 22.5735 61.2224 22.5243 61.2101C22.2983 61.165 22.0806 61.1198 21.8629 61.0624C21.678 61.0213 21.493 60.9721 21.3082 60.9229C21.2548 60.9065 21.1933 60.8941 21.1317 60.8777C20.9468 60.8203 20.7579 60.767 20.5731 60.7177C20.5033 60.6972 20.4415 60.6767 20.3717 60.6521C20.1499 60.5864 19.9323 60.5126 19.7105 60.4387C19.6982 60.4387 19.686 60.4387 19.6737 60.4264C19.4436 60.3525 19.2258 60.2705 19.004 60.1843C18.9752 60.1679 18.9629 60.1638 18.9342 60.1515C18.7288 60.0817 18.5358 59.9997 18.3346 59.9135C17.3405 59.4991 16.3668 59.0149 15.4344 58.4774C15.2865 58.3872 15.1471 58.3051 15.0074 58.2148C14.1982 57.7184 13.4179 57.1686 12.6744 56.5777C12.5389 56.4669 12.4074 56.3685 12.2718 56.2536C12.1979 56.1879 12.1197 56.1223 12.0457 56.0566C11.9554 55.9787 11.861 55.9007 11.7706 55.8145C11.594 55.6627 11.4255 55.515 11.253 55.3509C11.0928 55.1991 10.9328 55.0473 10.7767 54.8872H10.7684L10.6903 54.8052C10.5547 54.678 10.4314 54.5467 10.3082 54.4195C10.2548 54.3621 10.2015 54.3087 10.1563 54.2595C9.99614 54.0953 9.844 53.923 9.69613 53.7507C9.53593 53.5784 9.38433 53.3978 9.24056 53.2214C9.21181 53.1968 9.19527 53.1722 9.18295 53.1517C9.05561 52.9998 8.93239 52.8439 8.80917 52.688C8.75988 52.6347 8.73501 52.5895 8.69393 52.5362C8.5666 52.3721 8.44349 52.2038 8.30795 52.0397C8.29152 52.0151 8.28323 51.9905 8.25448 51.9618C8.11893 51.7689 7.99163 51.5843 7.86019 51.3955C7.72053 51.1863 7.57664 50.977 7.4493 50.7678C7.31375 50.5626 7.18674 50.3452 7.05941 50.1277C6.9444 49.9307 6.82925 49.7297 6.71835 49.5327C6.68548 49.463 6.64032 49.385 6.60335 49.3112C6.52531 49.1594 6.43506 48.9993 6.35702 48.8434C6.32826 48.7942 6.29952 48.7532 6.28719 48.6998C6.18861 48.507 6.09387 48.3141 6.0035 48.1213C5.89671 47.9038 5.80232 47.6905 5.70785 47.473V47.4648C5.70785 47.4648 5.69555 47.4402 5.68734 47.432H5.6954C6.21295 47.3458 6.73466 47.2966 7.26864 47.2719C7.4083 47.2596 7.55607 47.2555 7.70394 47.2514C7.83538 47.2514 7.97118 47.2514 8.10262 47.2514C15.3114 47.2514 21.5465 52.052 23.4237 58.9985C23.4771 59.1503 23.5141 59.3063 23.547 59.4581C23.7072 60.1146 23.8263 60.7793 23.9002 61.4563C23.5059 61.3947 23.1156 61.3332 22.7254 61.2511L22.7418 61.247ZM26.4386 31.5736C26.2414 31.5367 26.0567 31.4997 25.8678 31.4505C24.8943 31.2412 23.966 30.9622 23.087 30.6094C20.2569 29.518 17.9236 27.7536 16.2108 25.4149C13.9968 22.3663 13.0437 18.6284 13.4381 14.4966C13.4545 14.2668 13.4876 14.0412 13.5123 13.8114C13.7382 13.8565 13.9723 13.8975 14.1859 13.9591C17.5828 14.7141 20.4293 16.2814 22.5611 18.5586C22.9883 19.0018 23.3787 19.4736 23.7442 19.9742C26.0814 23.1869 27.0056 27.1792 26.4347 31.5777L26.4386 31.5736ZM24.9886 11.9855C24.4998 12.8636 24.0727 13.7704 23.7113 14.6977C22.7378 13.9099 21.6742 13.2328 20.5282 12.6543C20.5282 12.6543 20.5197 12.6543 20.5074 12.6379C19.7475 12.2481 18.9383 11.9076 18.0963 11.6203H18.0838C18.0838 11.6203 18.0838 11.6203 18.0838 11.6121C17.1144 11.2839 16.1041 11.0172 15.0526 10.812C14.7034 10.7505 14.3418 10.6931 13.9845 10.6397C13.2451 10.5289 12.4032 10.7669 11.6844 11.2921C10.9656 11.8091 10.4767 12.5353 10.3453 13.2616C10.2796 13.6226 10.2303 13.9755 10.1851 14.3366C10.0537 15.387 9.98374 16.4333 10.0084 17.4467V17.4672C10.0084 17.4672 10.0084 17.4754 10.0084 17.4877C10.0207 18.3822 10.0947 19.2439 10.2262 20.0973V20.1178C10.6533 22.8505 11.6681 25.3533 13.2618 27.5444C14.416 29.1241 15.8125 30.4699 17.439 31.5654C19.7064 33.1081 22.4091 34.1544 25.461 34.6632V43.411C25.461 43.411 25.461 43.4109 25.461 43.4027C23.9043 40.4239 21.7274 37.8226 19.1068 35.7628C15.1307 32.6486 10.1398 30.7981 4.71786 30.7981H4.46737C4.20859 30.7981 3.94978 30.8063 3.691 30.8186L3.67879 30.7653C3.65415 30.6053 3.62527 30.4452 3.59652 30.2893C3.57187 30.1293 3.53909 29.9652 3.51034 29.8134L3.47347 29.5918C3.26399 28.4265 3.03797 27.0069 2.80795 25.3738C2.68472 24.0978 2.6312 22.8587 2.65585 21.6852C2.75443 16.2035 4.41792 13.2534 4.87386 12.5558L5.0013 12.3384L5.1617 12.1004C5.36708 11.7352 5.57229 11.4152 5.77767 11.1362C6.61561 9.98732 7.68768 9.04771 8.96102 8.34198C10.7601 7.34083 12.7976 6.70897 15.0116 6.46688C15.295 6.43816 15.5743 6.40534 15.8577 6.36841L15.9356 6.3602C17.1597 6.21249 18.1826 6.10171 19.2259 6.12633C21.3454 6.18377 23.5264 6.36431 25.7198 6.65973C26.5947 6.77872 27.5314 6.94695 28.5911 7.18903C27.1823 8.6169 25.9827 10.2253 24.9928 11.9855H24.9886ZM29.2813 23.191C28.8583 21.7057 28.2542 20.2983 27.4574 18.9854C27.8763 17.3811 28.5007 15.8424 29.3099 14.3817C30.5422 12.1866 32.1482 10.2745 34.1034 8.67434C34.2307 8.56766 34.3582 8.46919 34.4937 8.36251C34.9866 7.96041 35.5123 7.59112 36.0504 7.25057C36.2024 7.14799 36.3503 7.05362 36.5023 6.96335C37.9358 6.06888 39.5049 5.32212 41.2054 4.73128C41.5053 4.6205 41.8008 4.53023 42.0965 4.42355C42.1746 4.73538 42.2526 5.0349 42.3101 5.34674C42.5977 6.6269 42.7704 7.90296 42.8443 9.15439C42.8566 9.30621 42.8607 9.45802 42.8648 9.60984C42.8895 10.1638 42.8935 10.7259 42.8812 11.2716C42.873 11.4152 42.8647 11.5629 42.8565 11.7065C42.6963 14.8413 41.8501 17.7996 40.3426 20.4953C38.0835 24.545 34.5101 27.6428 29.8973 29.5877C30.0452 27.331 29.8276 25.1933 29.273 23.1869L29.2813 23.191ZM48.952 47.4566C48.952 47.4566 48.9399 47.4894 48.9317 47.5099C48.8414 47.7356 48.7385 47.9531 48.6358 48.1705C48.5989 48.2403 48.5661 48.3264 48.5291 48.4003C48.4429 48.5644 48.369 48.7285 48.2786 48.8886C48.2663 48.9132 48.2538 48.9501 48.2374 48.9788C48.1265 49.1881 48.0113 49.3973 47.8922 49.6148C47.7977 49.783 47.7077 49.9554 47.5968 50.1236C47.5064 50.2754 47.416 50.4354 47.3175 50.5872C47.2764 50.6611 47.2351 50.7349 47.1817 50.8047C47.1119 50.9196 47.0382 51.0427 46.952 51.1535C46.8822 51.2724 46.8081 51.3873 46.7301 51.494C46.6808 51.5597 46.6395 51.6294 46.5902 51.691C46.5409 51.7566 46.4957 51.8264 46.4464 51.892C46.3889 51.9782 46.3315 52.0602 46.2699 52.1382C46.2288 52.2038 46.1756 52.2613 46.1305 52.3269C46.0113 52.4869 45.888 52.647 45.7647 52.8029C45.7442 52.8234 45.7279 52.8562 45.7032 52.8726C45.6046 53.0039 45.4978 53.127 45.3951 53.2501C45.2801 53.3855 45.169 53.5291 45.0499 53.6563C44.9267 53.7958 44.8037 53.9394 44.6764 54.0707C44.5613 54.202 44.4339 54.3292 44.3106 54.4564C44.0847 54.6944 43.8629 54.9201 43.6287 55.1457C43.4603 55.3058 43.2878 55.4658 43.107 55.6258C43.107 55.6381 43.0906 55.6463 43.0865 55.6504C42.8976 55.8145 42.7088 55.9828 42.5157 56.1428L42.5033 56.151C42.3266 56.3028 42.1503 56.4505 41.9654 56.5941C41.7477 56.7664 41.5297 56.9388 41.2996 57.1029C41.1189 57.2424 40.9341 57.3737 40.7452 57.5091C40.0305 58.0015 39.283 58.461 38.5108 58.8672C38.5108 58.8754 38.4986 58.8754 38.4945 58.8836C38.478 58.8919 38.4574 58.9042 38.441 58.9083C38.3013 58.9903 38.1577 59.0642 38.0098 59.1339C37.8127 59.2406 37.6153 59.3432 37.4058 59.4376C37.1881 59.5442 36.9582 59.6427 36.7364 59.7412C36.5064 59.8479 36.2804 59.9381 36.0462 60.0284C35.8326 60.1187 35.5985 60.2048 35.3685 60.2869C35.3562 60.2951 35.3481 60.2992 35.3399 60.2992C35.1838 60.3607 35.0236 60.4141 34.8634 60.4674C34.7566 60.5003 34.6579 60.5372 34.5511 60.5741C34.432 60.6151 34.3007 60.6521 34.1693 60.689C34.0419 60.73 33.9062 60.767 33.7789 60.8039C33.6023 60.8572 33.4298 60.8983 33.245 60.9475C33.2285 60.9557 33.2082 60.9598 33.1917 60.968C32.9658 61.0254 32.7438 61.0829 32.5138 61.1239C32.4809 61.1362 32.4521 61.1444 32.4151 61.1485C32.3699 61.1609 32.3207 61.1691 32.2755 61.1773C32.2303 61.1855 32.1851 61.1978 32.1358 61.2019C31.7579 61.2839 31.3676 61.3578 30.9815 61.4152C31.0514 60.7546 31.1707 60.09 31.3267 59.4499C31.3637 59.294 31.4007 59.1421 31.4459 58.9862C33.3313 52.0438 39.5705 47.2432 46.7711 47.2432C47.5104 47.2432 48.2292 47.2925 48.9644 47.395C48.9562 47.4114 48.9521 47.4279 48.9398 47.4484L48.952 47.4566ZM50.2459 43.4479C49.1081 43.2509 47.9501 43.1525 46.7835 43.1525C40.577 43.1525 34.9454 45.9754 31.2445 50.5503C32.9861 41.6343 40.8192 34.8848 50.1844 34.8848C50.3076 34.8848 50.435 34.8848 50.5582 34.893C50.7225 36.0172 50.8087 37.1661 50.8087 38.3231C50.8087 40.0546 50.6158 41.7738 50.242 43.4479H50.2459ZM53.8692 43.2263C54.165 41.6138 54.3087 39.9808 54.3087 38.3313C54.3087 36.3824 54.1033 34.4498 53.7008 32.5788C53.5858 32.0372 53.4504 31.5038 53.3026 30.9786L52.4974 30.8925C51.7868 30.8268 51.043 30.7899 50.2872 30.7899H50.1844C44.6269 30.7899 39.5212 32.7307 35.504 35.9885C33.0559 37.9826 31.0062 40.4485 29.5111 43.255V34.417C33.4174 33.2641 36.7856 31.4792 39.5377 29.1241C41.6243 27.3515 43.3537 25.259 44.6764 22.8833C46.2372 20.0973 47.1696 17.0569 47.4571 13.8401C51.1868 15.7809 54.0581 17.8242 55.9969 19.925L56.1778 20.1178C56.2641 20.2204 56.3501 20.3189 56.4322 20.4132C56.8512 20.922 57.2127 21.4267 57.533 21.9601L57.6112 22.0914C57.8165 22.4401 57.9726 22.7233 58.1041 22.9859C59.439 25.6611 59.7922 28.5701 59.1761 31.8567C59.1063 32.2547 59.0117 32.6732 58.8885 33.1287C58.4202 34.9463 57.6686 36.7968 56.5267 38.9591C55.7873 40.3665 54.9125 41.7656 53.8651 43.2222L53.8692 43.2263Z" fill="#14163A"/>
<path d="M66.5846 33.9712H70.0802C70.4488 33.9712 70.7486 33.6728 70.7486 33.3038V27.2849C70.7486 26.916 71.0485 26.6175 71.4171 26.6175H74.6129C80.4459 26.6175 83.3424 23.977 83.3424 18.7001V17.9249C83.3424 12.6811 80.4418 10.0406 74.6129 10.0406H66.5846C66.2159 10.0406 65.9161 10.3391 65.9161 10.708V33.3038C65.9161 33.6728 66.2159 33.9712 66.5846 33.9712ZM70.7445 15.1434C70.7445 14.7745 71.0443 14.476 71.4129 14.476H74.8682C77.3473 14.476 78.5096 15.4958 78.5096 17.9249V18.7001C78.5096 21.1997 77.4161 22.1821 74.8682 22.1821H71.4129C71.0443 22.1821 70.7445 21.8836 70.7445 21.5147V15.1434Z" fill="#14163A"/>
<path d="M66.5846 33.9712H70.0802C70.4488 33.9712 70.7486 33.6728 70.7486 33.3038V27.2849C70.7486 26.916 71.0485 26.6175 71.4171 26.6175H74.6129C80.4459 26.6175 83.3424 23.977 83.3424 18.7001V17.9249C83.3424 12.6811 80.4418 10.0406 74.6129 10.0406H66.5846C66.2159 10.0406 65.9161 10.3391 65.9161 10.708V33.3038C65.9161 33.6728 66.2159 33.9712 66.5846 33.9712ZM70.7445 15.1434C70.7445 14.7745 71.0443 14.476 71.4129 14.476H74.8682C77.3473 14.476 78.5096 15.4958 78.5096 17.9249V18.7001C78.5096 21.1997 77.4161 22.1821 74.8682 22.1821H71.4129C71.0443 22.1821 70.7445 21.8836 70.7445 21.5147V15.1434Z" fill="#14163A"/>
<path d="M96.7845 33.6229H98.9298C99.3031 33.6229 99.6068 33.3278 99.6068 32.9631V22.2829C99.6068 20.0576 99.0528 18.4224 97.974 17.4101C96.8992 16.4019 94.9384 15.8773 92.0997 15.8773C90.4055 15.8773 88.6868 16.0495 86.8941 16.4224C86.5824 16.488 86.3607 16.7626 86.3607 17.0699V19.1887C86.3607 19.615 86.7671 19.9264 87.1937 19.8281C88.4818 19.5289 89.9748 19.3896 91.71 19.3896C94.0934 19.3896 95.1026 20.1887 95.1026 22.2789V22.7461C95.1026 23.1805 94.6801 23.4919 94.2494 23.3813C93.1664 23.1067 91.985 22.9756 90.6969 22.9756C87.4028 22.9756 85.085 24.7132 85.085 28.0205V28.6476C85.085 32.1598 86.9106 33.9712 90.2088 33.9712C91.7636 33.9712 93.2154 33.4303 94.565 32.3237C94.8645 32.0778 95.3119 32.1311 95.5416 32.4385L96.2349 33.3565C96.3621 33.5245 96.5632 33.627 96.7806 33.627L96.7845 33.6229ZM95.1026 29.0328C95.1026 29.2664 94.9754 29.4918 94.7662 29.6066C93.8924 30.0738 92.9941 30.3197 92.0711 30.3197C90.4056 30.3197 89.5892 29.6926 89.5892 28.4427V28.0943C89.5892 26.9468 90.6025 26.2173 92.1327 26.2173C93.0228 26.2173 93.868 26.3361 94.6351 26.5943C94.914 26.6886 95.1026 26.9386 95.1026 27.2255V29.0369V29.0328Z" fill="#14163A"/>
<path d="M96.7845 33.6229H98.9298C99.3031 33.6229 99.6068 33.3278 99.6068 32.9631V22.2829C99.6068 20.0576 99.0528 18.4224 97.974 17.4101C96.8992 16.4019 94.9384 15.8773 92.0997 15.8773C90.4055 15.8773 88.6868 16.0495 86.8941 16.4224C86.5824 16.488 86.3607 16.7626 86.3607 17.0699V19.1887C86.3607 19.615 86.7671 19.9264 87.1937 19.8281C88.4818 19.5289 89.9748 19.3896 91.71 19.3896C94.0934 19.3896 95.1026 20.1887 95.1026 22.2789V22.7461C95.1026 23.1805 94.6801 23.4919 94.2494 23.3813C93.1664 23.1067 91.985 22.9756 90.6969 22.9756C87.4028 22.9756 85.085 24.7132 85.085 28.0205V28.6476C85.085 32.1598 86.9106 33.9712 90.2088 33.9712C91.7636 33.9712 93.2154 33.4303 94.565 32.3237C94.8645 32.0778 95.3119 32.1311 95.5416 32.4385L96.2349 33.3565C96.3621 33.5245 96.5632 33.627 96.7806 33.627L96.7845 33.6229ZM95.1026 29.0328C95.1026 29.2664 94.9754 29.4918 94.7662 29.6066C93.8924 30.0738 92.9941 30.3197 92.0711 30.3197C90.4056 30.3197 89.5892 29.6926 89.5892 28.4427V28.0943C89.5892 26.9468 90.6025 26.2173 92.1327 26.2173C93.0228 26.2173 93.868 26.3361 94.6351 26.5943C94.914 26.6886 95.1026 26.9386 95.1026 27.2255V29.0369V29.0328Z" fill="#14163A"/>
<path d="M102.598 19.6431H103.164C103.534 19.6431 103.836 19.9402 103.836 20.3075V27.8388C103.836 29.9064 104.194 31.4126 104.907 32.4278C105.587 33.443 106.979 33.9712 109.084 33.9712C109.935 33.9712 110.851 33.8969 111.841 33.7236C112.158 33.67 112.386 33.3894 112.386 33.0675V30.8555C112.386 30.4511 112.024 30.1457 111.62 30.1994C111.14 30.2613 110.725 30.2943 110.379 30.2943C108.693 30.2943 108.306 29.5597 108.306 27.843V20.3116C108.306 19.9443 108.608 19.6472 108.978 19.6472H111.714C112.085 19.6472 112.386 19.3501 112.386 18.9828V16.775C112.386 16.4077 112.085 16.1106 111.714 16.1106H108.978C108.608 16.1106 108.306 15.8134 108.306 15.4462V11.8724C108.306 11.5051 108.005 11.208 107.634 11.208H105.68C105.375 11.208 105.11 11.4102 105.033 11.7032L103.909 15.8547C103.864 16.0239 103.754 16.1683 103.604 16.255L102.26 17.0432C102.057 17.1629 101.93 17.3816 101.93 17.6168V18.991C101.93 19.3583 102.232 19.6555 102.602 19.6555L102.598 19.6431Z" fill="#14163A"/>
<path d="M102.598 19.6431H103.164C103.534 19.6431 103.836 19.9402 103.836 20.3075V27.8388C103.836 29.9064 104.194 31.4126 104.907 32.4278C105.587 33.443 106.979 33.9712 109.084 33.9712C109.935 33.9712 110.851 33.8969 111.841 33.7236C112.158 33.67 112.386 33.3894 112.386 33.0675V30.8555C112.386 30.4511 112.024 30.1457 111.62 30.1994C111.14 30.2613 110.725 30.2943 110.379 30.2943C108.693 30.2943 108.306 29.5597 108.306 27.843V20.3116C108.306 19.9443 108.608 19.6472 108.978 19.6472H111.714C112.085 19.6472 112.386 19.3501 112.386 18.9828V16.775C112.386 16.4077 112.085 16.1106 111.714 16.1106H108.978C108.608 16.1106 108.306 15.8134 108.306 15.4462V11.8724C108.306 11.5051 108.005 11.208 107.634 11.208H105.68C105.375 11.208 105.11 11.4102 105.033 11.7032L103.909 15.8547C103.864 16.0239 103.754 16.1683 103.604 16.255L102.26 17.0432C102.057 17.1629 101.93 17.3816 101.93 17.6168V18.991C101.93 19.3583 102.232 19.6555 102.602 19.6555L102.598 19.6431Z" fill="#14163A"/>
<path d="M127.997 32.7745V30.6106C127.997 30.1967 127.609 29.8811 127.196 29.9631C125.48 30.2992 123.965 30.4549 122.67 30.4549C119.855 30.4549 118.945 29.3238 118.773 27.2624C118.74 26.8812 119.055 26.5575 119.447 26.5575H127.976C128.348 26.5575 128.65 26.2624 128.65 25.8976V23.1846C128.65 20.8895 128.132 19.0781 127.09 17.7912C126.053 16.5044 124.198 15.8773 121.502 15.8773C116.596 15.8773 114.129 18.4183 114.129 23.4633V26.3853C114.129 28.5779 114.549 30.1762 115.754 31.6393C116.923 33.1024 119.263 33.9712 122.543 33.9712C124.022 33.9712 125.664 33.7991 127.466 33.4262C127.776 33.3606 128.001 33.0901 128.001 32.7786L127.997 32.7745ZM121.502 19.3896C123.581 19.3896 124.296 20.5371 124.296 22.6272C124.296 22.992 123.994 23.287 123.622 23.287H119.415C119.043 23.287 118.74 22.992 118.74 22.6272C118.74 20.5412 119.423 19.3896 121.502 19.3896Z" fill="#14163A"/>
<path d="M127.997 32.7745V30.6106C127.997 30.1967 127.609 29.8811 127.196 29.9631C125.48 30.2992 123.965 30.4549 122.67 30.4549C119.855 30.4549 118.945 29.3238 118.773 27.2624C118.74 26.8812 119.055 26.5575 119.447 26.5575H127.976C128.348 26.5575 128.65 26.2624 128.65 25.8976V23.1846C128.65 20.8895 128.132 19.0781 127.09 17.7912C126.053 16.5044 124.198 15.8773 121.502 15.8773C116.596 15.8773 114.129 18.4183 114.129 23.4633V26.3853C114.129 28.5779 114.549 30.1762 115.754 31.6393C116.923 33.1024 119.263 33.9712 122.543 33.9712C124.022 33.9712 125.664 33.7991 127.466 33.4262C127.776 33.3606 128.001 33.0901 128.001 32.7786L127.997 32.7745ZM121.502 19.3896C123.581 19.3896 124.296 20.5371 124.296 22.6272C124.296 22.992 123.994 23.287 123.622 23.287H119.415C119.043 23.287 118.74 22.992 118.74 22.6272C118.74 20.5412 119.423 19.3896 121.502 19.3896Z" fill="#14163A"/>
<path d="M142.252 33.9712H145.399C145.773 33.9712 146.076 33.6704 146.076 33.2985V21.0214C146.076 17.5823 144.477 15.8773 141.313 15.8773C139.552 15.8773 137.968 16.4331 136.565 17.5697C136.265 17.8121 135.818 17.7536 135.592 17.4402L134.924 16.5125C134.796 16.337 134.591 16.2325 134.374 16.2325H132.232C131.858 16.2325 131.555 16.5334 131.555 16.9053V33.2943C131.555 33.6662 131.858 33.9671 132.232 33.9671H135.346C135.72 33.9671 136.023 33.6662 136.023 33.2943V21.1885C136.023 20.9503 136.146 20.7288 136.351 20.6077C137.353 20.031 138.35 19.7427 139.318 19.7427C140.886 19.7427 141.571 20.2734 141.571 21.6941V33.2943C141.571 33.6662 141.875 33.9671 142.248 33.9671L142.252 33.9712Z" fill="#14163A"/>
<path d="M142.252 33.9712H145.399C145.773 33.9712 146.076 33.6704 146.076 33.2985V21.0214C146.076 17.5823 144.477 15.8773 141.313 15.8773C139.552 15.8773 137.968 16.4331 136.565 17.5697C136.265 17.8121 135.818 17.7536 135.592 17.4402L134.924 16.5125C134.796 16.337 134.591 16.2325 134.374 16.2325H132.232C131.858 16.2325 131.555 16.5334 131.555 16.9053V33.2943C131.555 33.6662 131.858 33.9671 132.232 33.9671H135.346C135.72 33.9671 136.023 33.6662 136.023 33.2943V21.1885C136.023 20.9503 136.146 20.7288 136.351 20.6077C137.353 20.031 138.35 19.7427 139.318 19.7427C140.886 19.7427 141.571 20.2734 141.571 21.6941V33.2943C141.571 33.6662 141.875 33.9671 142.248 33.9671L142.252 33.9712Z" fill="#14163A"/>
<path d="M162.341 28.4029V27.776C162.341 25.4119 160.999 23.9163 159.328 23.3591C156.908 22.5929 153.797 22.5232 153.797 21.0974V20.7491C153.797 19.8436 154.681 19.3929 156.48 19.3929C157.735 19.3929 159.238 19.5527 161.008 19.8887C161.427 19.9706 161.814 19.6551 161.814 19.2413V17.0533C161.814 16.7501 161.608 16.4838 161.304 16.41C159.76 16.0453 158.032 15.8773 156.118 15.8773C151.664 15.8773 149.179 17.6515 149.179 20.7491V21.5153C149.179 28.3005 157.723 26.0019 157.723 28.4726V28.8209C157.723 29.8985 156.739 30.4557 154.743 30.4557C153.163 30.4557 151.508 30.3 149.804 29.9681C149.38 29.8862 148.981 30.1935 148.981 30.6155V32.7953C148.981 33.0985 149.191 33.3689 149.495 33.4386C151.101 33.8032 153.023 33.9712 155.233 33.9712C159.979 33.9712 162.337 32.1274 162.337 28.407L162.341 28.4029Z" fill="#14163A"/>
<path d="M162.341 28.4029V27.776C162.341 25.4119 160.999 23.9163 159.328 23.3591C156.908 22.5929 153.797 22.5232 153.797 21.0974V20.7491C153.797 19.8436 154.681 19.3929 156.48 19.3929C157.735 19.3929 159.238 19.5527 161.008 19.8887C161.427 19.9706 161.814 19.6551 161.814 19.2413V17.0533C161.814 16.7501 161.608 16.4838 161.304 16.41C159.76 16.0453 158.032 15.8773 156.118 15.8773C151.664 15.8773 149.179 17.6515 149.179 20.7491V21.5153C149.179 28.3005 157.723 26.0019 157.723 28.4726V28.8209C157.723 29.8985 156.739 30.4557 154.743 30.4557C153.163 30.4557 151.508 30.3 149.804 29.9681C149.38 29.8862 148.981 30.1935 148.981 30.6155V32.7953C148.981 33.0985 149.191 33.3689 149.495 33.4386C151.101 33.8032 153.023 33.9712 155.233 33.9712C159.979 33.9712 162.337 32.1274 162.337 28.407L162.341 28.4029Z" fill="#14163A"/>
<path d="M172.337 15.8773C167.233 15.8773 164.664 18.4183 164.664 23.4633V26.3853C164.664 28.5779 165.102 30.1762 166.354 31.6393C167.572 33.1024 170.004 33.9712 173.416 33.9712C174.956 33.9712 176.662 33.7991 178.536 33.4262C178.859 33.3606 179.09 33.0901 179.09 32.7786V30.6147C179.09 30.2008 178.689 29.8852 178.256 29.9672C176.472 30.3033 174.894 30.459 173.548 30.459C170.62 30.459 169.674 29.3279 169.492 27.2665C169.459 26.8853 169.785 26.5616 170.194 26.5616H179.065C179.453 26.5616 179.767 26.2665 179.767 25.9017V23.1887C179.767 20.8936 179.226 19.0822 178.144 17.7953C177.062 16.5085 175.138 15.8814 172.334 15.8814L172.337 15.8773ZM174.543 23.2911H170.165C169.777 23.2911 169.463 22.9961 169.463 22.6313C169.463 20.5453 170.173 19.3937 172.337 19.3937C174.502 19.3937 175.245 20.5412 175.245 22.6313C175.245 22.9961 174.931 23.2911 174.543 23.2911Z" fill="#14163A"/>
<path d="M172.337 15.8773C167.233 15.8773 164.664 18.4183 164.664 23.4633V26.3853C164.664 28.5779 165.102 30.1762 166.354 31.6393C167.572 33.1024 170.004 33.9712 173.416 33.9712C174.956 33.9712 176.662 33.7991 178.536 33.4262C178.859 33.3606 179.09 33.0901 179.09 32.7786V30.6147C179.09 30.2008 178.689 29.8852 178.256 29.9672C176.472 30.3033 174.894 30.459 173.548 30.459C170.62 30.459 169.674 29.3279 169.492 27.2665C169.459 26.8853 169.785 26.5616 170.194 26.5616H179.065C179.453 26.5616 179.767 26.2665 179.767 25.9017V23.1887C179.767 20.8936 179.226 19.0822 178.144 17.7953C177.062 16.5085 175.138 15.8814 172.334 15.8814L172.337 15.8773ZM174.543 23.2911H170.165C169.777 23.2911 169.463 22.9961 169.463 22.6313C169.463 20.5453 170.173 19.3937 172.337 19.3937C174.502 19.3937 175.245 20.5412 175.245 22.6313C175.245 22.9961 174.931 23.2911 174.543 23.2911Z" fill="#14163A"/>
<path d="M69.7911 37.3682C69.7103 37.0835 69.4479 36.8896 69.1532 36.8896H63.8433C63.5486 36.8896 63.2862 37.0835 63.2054 37.3682L56.6483 59.9703C56.5271 60.3952 56.8459 60.8202 57.286 60.8202H60.7828C61.0816 60.8202 61.34 60.6222 61.4207 60.3375L62.6361 56.03C62.7168 55.7453 62.9795 55.5472 63.2743 55.5472H69.7183C70.0171 55.5472 70.2755 55.7453 70.3563 56.03L71.5716 60.3375C71.6524 60.6222 71.9148 60.8202 72.2096 60.8202H75.7064C76.1505 60.8202 76.4697 60.3952 76.3446 59.9703L69.7869 37.3682H69.7911ZM64.9176 51.1407C64.4774 51.1407 64.1582 50.7198 64.2794 50.2949L65.8746 44.667C66.0563 44.0234 66.9727 44.0234 67.1544 44.667L68.7494 50.2949C68.8705 50.7198 68.5515 51.1407 68.1114 51.1407H64.9176Z" fill="#14163A"/>
<path d="M69.7911 37.3682C69.7103 37.0835 69.4479 36.8896 69.1532 36.8896H63.8433C63.5486 36.8896 63.2862 37.0835 63.2054 37.3682L56.6483 59.9703C56.5271 60.3952 56.8459 60.8202 57.286 60.8202H60.7828C61.0816 60.8202 61.34 60.6222 61.4207 60.3375L62.6361 56.03C62.7168 55.7453 62.9795 55.5472 63.2743 55.5472H69.7183C70.0171 55.5472 70.2755 55.7453 70.3563 56.03L71.5716 60.3375C71.6524 60.6222 71.9148 60.8202 72.2096 60.8202H75.7064C76.1505 60.8202 76.4697 60.3952 76.3446 59.9703L69.7869 37.3682H69.7911ZM64.9176 51.1407C64.4774 51.1407 64.1582 50.7198 64.2794 50.2949L65.8746 44.667C66.0563 44.0234 66.9727 44.0234 67.1544 44.667L68.7494 50.2949C68.8705 50.7198 68.5515 51.1407 68.1114 51.1407H64.9176Z" fill="#14163A"/>
<path d="M92.5269 43.0827H90.3675C90.1444 43.0827 89.9382 43.1875 89.8077 43.3594L89.109 44.2901C88.8733 44.6045 88.4145 44.659 88.1073 44.4075C86.7224 43.2797 85.2827 42.7263 83.7674 42.7263C80.0002 42.7263 78.1146 45.2124 78.1146 50.1804V53.4463C78.1146 58.4142 80.0002 60.9003 83.7674 60.9003C85.0807 60.9003 86.3393 60.4853 87.5516 59.6384C88.0146 59.3156 88.6585 59.6217 88.6585 60.175V61.2525C88.6585 63.9147 87.8674 65.4072 84.5589 65.4072C83.1699 65.4072 81.6375 65.252 80.0001 64.9166C79.5707 64.8286 79.171 65.1514 79.171 65.5749V67.7759C79.171 68.0903 79.3983 68.3712 79.714 68.4383C81.5155 68.8156 83.1571 68.9916 84.6893 68.9916C91.6977 68.9916 93.2171 65.3736 93.2171 61.2525V43.7535C93.2171 43.3803 92.9058 43.0785 92.5228 43.0785L92.5269 43.0827ZM88.6585 55.5886C88.6585 55.8024 88.5575 56.012 88.3765 56.1336C87.5263 56.7079 86.6005 56.993 85.6197 56.993C83.473 56.993 82.8077 55.8946 82.8077 53.4421V50.1762C82.8077 47.6566 83.4688 46.5917 85.6197 46.5917C86.5415 46.5917 87.4631 46.8768 88.3597 47.4512C88.5491 47.5727 88.6585 47.7865 88.6585 48.0087V55.5886Z" fill="#14163A"/>
<path d="M92.5269 43.0827H90.3675C90.1444 43.0827 89.9382 43.1875 89.8077 43.3594L89.109 44.2901C88.8733 44.6045 88.4145 44.659 88.1073 44.4075C86.7224 43.2797 85.2827 42.7263 83.7674 42.7263C80.0002 42.7263 78.1146 45.2124 78.1146 50.1804V53.4463C78.1146 58.4142 80.0002 60.9003 83.7674 60.9003C85.0807 60.9003 86.3393 60.4853 87.5516 59.6384C88.0146 59.3156 88.6585 59.6217 88.6585 60.175V61.2525C88.6585 63.9147 87.8674 65.4072 84.5589 65.4072C83.1699 65.4072 81.6375 65.252 80.0001 64.9166C79.5707 64.8286 79.171 65.1514 79.171 65.5749V67.7759C79.171 68.0903 79.3983 68.3712 79.714 68.4383C81.5155 68.8156 83.1571 68.9916 84.6893 68.9916C91.6977 68.9916 93.2171 65.3736 93.2171 61.2525V43.7535C93.2171 43.3803 92.9058 43.0785 92.5228 43.0785L92.5269 43.0827ZM88.6585 55.5886C88.6585 55.8024 88.5575 56.012 88.3765 56.1336C87.5263 56.7079 86.6005 56.993 85.6197 56.993C83.473 56.993 82.8077 55.8946 82.8077 53.4421V50.1762C82.8077 47.6566 83.4688 46.5917 85.6197 46.5917C86.5415 46.5917 87.4631 46.8768 88.3597 47.4512C88.5491 47.5727 88.6585 47.7865 88.6585 48.0087V55.5886Z" fill="#14163A"/>
<path d="M105.224 43.3177C103.773 43.4639 102.486 44.0408 101.357 45.0403C101.027 45.3328 100.495 45.2841 100.254 44.9225L99.5975 43.9352C99.4688 43.7402 99.2415 43.6224 98.9969 43.6224H96.8297C96.4391 43.6224 96.1214 43.9149 96.1214 44.2765V60.1661C96.1214 60.5277 96.4391 60.8202 96.8297 60.8202H100.031C100.422 60.8202 100.739 60.5277 100.739 60.1661V48.7171C100.739 48.4693 100.894 48.2418 101.13 48.128C102.164 47.6405 103.559 47.3683 105.318 47.3114C105.696 47.2992 105.996 47.0107 105.996 46.6614V43.9677C105.996 43.5817 105.636 43.273 105.224 43.3136V43.3177Z" fill="#14163A"/>
<path d="M105.224 43.3177C103.773 43.4639 102.486 44.0408 101.357 45.0403C101.027 45.3328 100.495 45.2841 100.254 44.9225L99.5975 43.9352C99.4688 43.7402 99.2415 43.6224 98.9969 43.6224H96.8297C96.4391 43.6224 96.1214 43.9149 96.1214 44.2765V60.1661C96.1214 60.5277 96.4391 60.8202 96.8297 60.8202H100.031C100.422 60.8202 100.739 60.5277 100.739 60.1661V48.7171C100.739 48.4693 100.894 48.2418 101.13 48.128C102.164 47.6405 103.559 47.3683 105.318 47.3114C105.696 47.2992 105.996 47.0107 105.996 46.6614V43.9677C105.996 43.5817 105.636 43.273 105.224 43.3136V43.3177Z" fill="#14163A"/>
<path d="M131.961 42.7306C127.054 42.7306 124.584 45.3521 124.584 50.5613V53.5774C124.584 55.8384 125.006 57.4928 126.21 58.9987C127.381 60.5088 129.719 61.4039 132.999 61.4039C134.476 61.4039 136.119 61.2257 137.919 60.8397C138.233 60.7718 138.456 60.4919 138.456 60.1695V57.9339C138.456 57.5055 138.063 57.1831 137.641 57.2679C135.933 57.6115 134.419 57.7727 133.128 57.7727C130.314 57.7727 129.404 56.6019 129.23 54.4767C129.197 54.0822 129.516 53.7513 129.909 53.7513H138.423C138.8 53.7513 139.106 53.4459 139.106 53.0683V50.2686C139.106 47.8973 138.585 46.0309 137.546 44.7031C136.508 43.3754 134.654 42.7263 131.957 42.7263L131.961 42.7306ZM134.075 50.3789H129.88C129.503 50.3789 129.197 50.0735 129.197 49.696C129.197 47.541 129.88 46.3575 131.957 46.3575C134.034 46.3575 134.75 47.541 134.75 49.696C134.75 50.0735 134.443 50.3789 134.067 50.3789H134.075Z" fill="#14163A"/>
<path d="M131.961 42.7306C127.054 42.7306 124.584 45.3521 124.584 50.5613V53.5774C124.584 55.8384 125.006 57.4928 126.21 58.9987C127.381 60.5088 129.719 61.4039 132.999 61.4039C134.476 61.4039 136.119 61.2257 137.919 60.8397C138.233 60.7718 138.456 60.4919 138.456 60.1695V57.9339C138.456 57.5055 138.063 57.1831 137.641 57.2679C135.933 57.6115 134.419 57.7727 133.128 57.7727C130.314 57.7727 129.404 56.6019 129.23 54.4767C129.197 54.0822 129.516 53.7513 129.909 53.7513H138.423C138.8 53.7513 139.106 53.4459 139.106 53.0683V50.2686C139.106 47.8973 138.585 46.0309 137.546 44.7031C136.508 43.3754 134.654 42.7263 131.957 42.7263L131.961 42.7306ZM134.075 50.3789H129.88C129.503 50.3789 129.197 50.0735 129.197 49.696C129.197 47.541 129.88 46.3575 131.957 46.3575C134.034 46.3575 134.75 47.541 134.75 49.696C134.75 50.0735 134.443 50.3789 134.067 50.3789H134.075Z" fill="#14163A"/>
<path d="M153.676 43.2905C151.897 42.9045 150.303 42.7263 148.897 42.7263C143.909 42.7263 141.43 45.3479 141.43 50.5571V53.5731C141.43 58.7823 143.909 61.4039 148.897 61.4039C150.303 61.4039 151.897 61.2257 153.676 60.8397C153.988 60.7718 154.209 60.4918 154.209 60.1695V57.9339C154.209 57.5055 153.815 57.1788 153.397 57.2679C151.737 57.6115 150.364 57.7727 149.282 57.7727C146.835 57.7727 145.999 56.3347 145.999 53.5731V50.5571C145.999 47.7913 146.835 46.3533 149.282 46.3533C150.467 46.3533 151.836 46.5102 153.393 46.8496C153.811 46.9386 154.205 46.6163 154.205 46.1836V43.9608C154.205 43.6384 153.983 43.3584 153.672 43.2905H153.676Z" fill="#14163A"/>
<path d="M153.676 43.2905C151.897 42.9045 150.303 42.7263 148.897 42.7263C143.909 42.7263 141.43 45.3479 141.43 50.5571V53.5731C141.43 58.7823 143.909 61.4039 148.897 61.4039C150.303 61.4039 151.897 61.2257 153.676 60.8397C153.988 60.7718 154.209 60.4918 154.209 60.1695V57.9339C154.209 57.5055 153.815 57.1788 153.397 57.2679C151.737 57.6115 150.364 57.7727 149.282 57.7727C146.835 57.7727 145.999 56.3347 145.999 53.5731V50.5571C145.999 47.7913 146.835 46.3533 149.282 46.3533C150.467 46.3533 151.836 46.5102 153.393 46.8496C153.811 46.9386 154.205 46.6163 154.205 46.1836V43.9608C154.205 43.6384 153.983 43.3584 153.672 43.2905H153.676Z" fill="#14163A"/>
<path d="M164.067 42.7263C159.054 42.7263 156.532 45.3479 156.532 50.5571V53.5731C156.532 58.7823 159.054 61.4039 164.067 61.4039C169.081 61.4039 171.635 58.7823 171.635 53.5731V50.5571C171.635 45.3479 169.114 42.7263 164.067 42.7263ZM167.101 53.5731C167.101 56.1947 166.463 57.7727 164.067 57.7727C161.672 57.7727 161.066 56.2626 161.066 53.5731V50.5571C161.066 49.2293 161.257 48.1858 161.672 47.4307C162.087 46.7138 162.884 46.3533 164.067 46.3533C165.251 46.3533 166.08 46.7138 166.495 47.4647C166.91 48.2197 167.101 49.2251 167.101 50.5528V53.5731Z" fill="#14163A"/>
<path d="M164.067 42.7263C159.054 42.7263 156.532 45.3479 156.532 50.5571V53.5731C156.532 58.7823 159.054 61.4039 164.067 61.4039C169.081 61.4039 171.635 58.7823 171.635 53.5731V50.5571C171.635 45.3479 169.114 42.7263 164.067 42.7263ZM167.101 53.5731C167.101 56.1947 166.463 57.7727 164.067 57.7727C161.672 57.7727 161.066 56.2626 161.066 53.5731V50.5571C161.066 49.2293 161.257 48.1858 161.672 47.4307C162.087 46.7138 162.884 46.3533 164.067 46.3533C165.251 46.3533 166.08 46.7138 166.495 47.4647C166.91 48.2197 167.101 49.2251 167.101 50.5528V53.5731Z" fill="#14163A"/>
<path d="M114.693 42.7263C109.679 42.7263 107.158 45.3479 107.158 50.5571V53.5731C107.158 58.7823 109.679 61.4039 114.693 61.4039C119.707 61.4039 122.261 58.7823 122.261 53.5731V50.5571C122.261 45.3479 119.74 42.7263 114.693 42.7263ZM117.727 53.5731C117.727 56.1947 117.088 57.7727 114.693 57.7727C112.298 57.7727 111.692 56.2626 111.692 53.5731V50.5571C111.692 49.2293 111.883 48.1858 112.298 47.4307C112.713 46.7138 113.51 46.3533 114.693 46.3533C115.877 46.3533 116.706 46.7138 117.121 47.4647C117.536 48.2197 117.727 49.2251 117.727 50.5528V53.5731Z" fill="#14163A"/>
<path d="M114.693 42.7263C109.679 42.7263 107.158 45.3479 107.158 50.5571V53.5731C107.158 58.7823 109.679 61.4039 114.693 61.4039C119.707 61.4039 122.261 58.7823 122.261 53.5731V50.5571C122.261 45.3479 119.74 42.7263 114.693 42.7263ZM117.727 53.5731C117.727 56.1947 117.088 57.7727 114.693 57.7727C112.298 57.7727 111.692 56.2626 111.692 53.5731V50.5571C111.692 49.2293 111.883 48.1858 112.298 47.4307C112.713 46.7138 113.51 46.3533 114.693 46.3533C115.877 46.3533 116.706 46.7138 117.121 47.4647C117.536 48.2197 117.727 49.2251 117.727 50.5528V53.5731Z" fill="#14163A"/>
<path d="M178.474 36.3059H175.252C174.859 36.3059 174.539 36.6037 174.539 36.9718V60.1543C174.539 60.5224 174.859 60.8202 175.252 60.8202H178.474C178.867 60.8202 179.186 60.5224 179.186 60.1543V36.9718C179.186 36.6037 178.867 36.3059 178.474 36.3059Z" fill="#14163A"/>
<path d="M178.474 36.3059H175.252C174.859 36.3059 174.539 36.6037 174.539 36.9718V60.1543C174.539 60.5224 174.859 60.8202 175.252 60.8202H178.474C178.867 60.8202 179.186 60.5224 179.186 60.1543V36.9718C179.186 36.6037 178.867 36.3059 178.474 36.3059Z" fill="#14163A"/>
<path d="M189.626 42.7263C184.612 42.7263 182.091 45.3479 182.091 50.5571V53.5731C182.091 58.7823 184.612 61.4039 189.626 61.4039C194.64 61.4039 197.193 58.7823 197.193 53.5731V50.5571C197.193 45.3479 194.672 42.7263 189.626 42.7263ZM192.659 53.5731C192.659 56.1947 192.021 57.7727 189.626 57.7727C187.231 57.7727 186.625 56.2626 186.625 53.5731V50.5571C186.625 49.2293 186.816 48.1858 187.231 47.4307C187.645 46.7138 188.442 46.3533 189.626 46.3533C190.809 46.3533 191.639 46.7138 192.053 47.4647C192.468 48.2197 192.659 49.2251 192.659 50.5528V53.5731Z" fill="#14163A"/>
<path d="M189.626 42.7263C184.612 42.7263 182.091 45.3479 182.091 50.5571V53.5731C182.091 58.7823 184.612 61.4039 189.626 61.4039C194.64 61.4039 197.193 58.7823 197.193 53.5731V50.5571C197.193 45.3479 194.672 42.7263 189.626 42.7263ZM192.659 53.5731C192.659 56.1947 192.021 57.7727 189.626 57.7727C187.231 57.7727 186.625 56.2626 186.625 53.5731V50.5571C186.625 49.2293 186.816 48.1858 187.231 47.4307C187.645 46.7138 188.442 46.3533 189.626 46.3533C190.809 46.3533 191.639 46.7138 192.053 47.4647C192.468 48.2197 192.659 49.2251 192.659 50.5528V53.5731Z" fill="#14163A"/>
<path d="M213.956 43.0827H211.879C211.665 43.0827 211.467 43.1875 211.341 43.3594L210.669 44.2901C210.443 44.6045 210.002 44.659 209.706 44.4075C208.375 43.2797 206.991 42.7263 205.533 42.7263C201.911 42.7263 200.098 45.2124 200.098 50.1804V53.4463C200.098 58.4142 201.911 60.9003 205.533 60.9003C206.796 60.9003 208.006 60.4853 209.172 59.6384C209.617 59.3156 210.236 59.6217 210.236 60.175V61.2525C210.236 63.9147 209.471 65.4072 206.294 65.4072C204.958 65.4072 203.485 65.252 201.911 64.9166C201.498 64.8286 201.114 65.1514 201.114 65.5749V67.7759C201.114 68.0903 201.332 68.3712 201.636 68.4383C203.368 68.8156 204.946 68.9916 206.42 68.9916C213.159 68.9916 214.619 65.3736 214.619 61.2525V43.7535C214.619 43.3803 214.32 43.0785 213.952 43.0785L213.956 43.0827ZM210.236 55.5844C210.236 55.7982 210.139 56.0078 209.965 56.1336C209.148 56.7079 208.257 56.993 207.314 56.993C205.25 56.993 204.615 55.8946 204.615 53.4421V50.1762C204.615 47.6566 205.25 46.5917 207.314 46.5917C208.2 46.5917 209.087 46.8768 209.949 47.4512C210.131 47.5727 210.236 47.7865 210.236 48.0087V55.5844Z" fill="#14163A"/>
<path d="M213.956 43.0827H211.879C211.665 43.0827 211.467 43.1875 211.341 43.3594L210.669 44.2901C210.443 44.6045 210.002 44.659 209.706 44.4075C208.375 43.2797 206.991 42.7263 205.533 42.7263C201.911 42.7263 200.098 45.2124 200.098 50.1804V53.4463C200.098 58.4142 201.911 60.9003 205.533 60.9003C206.796 60.9003 208.006 60.4853 209.172 59.6384C209.617 59.3156 210.236 59.6217 210.236 60.175V61.2525C210.236 63.9147 209.471 65.4072 206.294 65.4072C204.958 65.4072 203.485 65.252 201.911 64.9166C201.498 64.8286 201.114 65.1514 201.114 65.5749V67.7759C201.114 68.0903 201.332 68.3712 201.636 68.4383C203.368 68.8156 204.946 68.9916 206.42 68.9916C213.159 68.9916 214.619 65.3736 214.619 61.2525V43.7535C214.619 43.3803 214.32 43.0785 213.952 43.0785L213.956 43.0827ZM210.236 55.5844C210.236 55.7982 210.139 56.0078 209.965 56.1336C209.148 56.7079 208.257 56.993 207.314 56.993C205.25 56.993 204.615 55.8946 204.615 53.4421V50.1762C204.615 47.6566 205.25 46.5917 207.314 46.5917C208.2 46.5917 209.087 46.8768 209.949 47.4512C210.131 47.5727 210.236 47.7865 210.236 48.0087V55.5844Z" fill="#14163A"/>
<path d="M222.039 43.31H218.817C218.424 43.31 218.105 43.6078 218.105 43.976V60.1542C218.105 60.5224 218.424 60.8202 218.817 60.8202H222.039C222.432 60.8202 222.752 60.5224 222.752 60.1542V43.976C222.752 43.6078 222.432 43.31 222.039 43.31Z" fill="#14163A"/>
<path d="M222.039 43.31H218.817C218.424 43.31 218.105 43.6078 218.105 43.976V60.1542C218.105 60.5224 218.424 60.8202 218.817 60.8202H222.039C222.432 60.8202 222.752 60.5224 222.752 60.1542V43.976C222.752 43.6078 222.432 43.31 222.039 43.31Z" fill="#14163A"/>
<path d="M220.138 35.1386C218.384 35.1386 217.524 36.0217 217.524 37.7464C217.524 39.471 218.384 40.3916 220.138 40.3916C221.892 40.3916 222.752 39.5085 222.752 37.7464C222.752 35.9842 221.892 35.1386 220.138 35.1386Z" fill="#14163A"/>
<path d="M220.138 35.1386C218.384 35.1386 217.524 36.0217 217.524 37.7464C217.524 39.471 218.384 40.3916 220.138 40.3916C221.892 40.3916 222.752 39.5085 222.752 37.7464C222.752 35.9842 221.892 35.1386 220.138 35.1386Z" fill="#14163A"/>
<path d="M232.389 42.7263C230.766 42.7263 229.114 42.9045 227.395 43.2863C227.092 43.3541 226.877 43.6341 226.877 43.9565V46.1412C226.877 46.5823 227.272 46.9047 227.687 46.8029C228.923 46.4975 230.355 46.3533 232.014 46.3533C234.3 46.3533 235.273 47.1804 235.273 49.3354V49.8147C235.273 50.2644 234.862 50.5825 234.443 50.4722C233.406 50.188 232.274 50.0565 231.045 50.0565C227.882 50.0565 225.656 51.8509 225.656 55.2657V55.9105C225.656 59.5374 227.411 61.4039 230.574 61.4039C232.062 61.4039 233.454 60.8482 234.751 59.7113C235.042 59.4568 235.481 59.5077 235.704 59.8301L236.362 60.7676C236.486 60.9457 236.681 61.0476 236.893 61.0476H238.939C239.302 61.0476 239.597 60.7421 239.597 60.3646V49.3396C239.597 47.0405 239.062 45.3521 238.029 44.3128C236.996 43.2693 235.118 42.7306 232.389 42.7306V42.7263ZM235.269 56.305C235.269 56.5468 235.15 56.7759 234.946 56.8946C234.108 57.3782 233.247 57.6285 232.357 57.6285C230.758 57.6285 229.976 56.9837 229.976 55.6899V55.3293C229.976 54.1458 230.945 53.3907 232.417 53.3907C233.271 53.3907 234.085 53.5138 234.814 53.7768C235.082 53.8743 235.265 54.1331 235.265 54.4258V56.3007L235.269 56.305Z" fill="#14163A"/>
<path d="M232.389 42.7263C230.766 42.7263 229.114 42.9045 227.395 43.2863C227.092 43.3541 226.877 43.6341 226.877 43.9565V46.1412C226.877 46.5823 227.272 46.9047 227.687 46.8029C228.923 46.4975 230.355 46.3533 232.014 46.3533C234.3 46.3533 235.273 47.1804 235.273 49.3354V49.8147C235.273 50.2644 234.862 50.5825 234.443 50.4722C233.406 50.188 232.274 50.0565 231.045 50.0565C227.882 50.0565 225.656 51.8509 225.656 55.2657V55.9105C225.656 59.5374 227.411 61.4039 230.574 61.4039C232.062 61.4039 233.454 60.8482 234.751 59.7113C235.042 59.4568 235.481 59.5077 235.704 59.8301L236.362 60.7676C236.486 60.9457 236.681 61.0476 236.893 61.0476H238.939C239.302 61.0476 239.597 60.7421 239.597 60.3646V49.3396C239.597 47.0405 239.062 45.3521 238.029 44.3128C236.996 43.2693 235.118 42.7306 232.389 42.7306V42.7263ZM235.269 56.305C235.269 56.5468 235.15 56.7759 234.946 56.8946C234.108 57.3782 233.247 57.6285 232.357 57.6285C230.758 57.6285 229.976 56.9837 229.976 55.6899V55.3293C229.976 54.1458 230.945 53.3907 232.417 53.3907C233.271 53.3907 234.085 53.5138 234.814 53.7768C235.082 53.8743 235.265 54.1331 235.265 54.4258V56.3007L235.269 56.305Z" fill="#14163A"/>
</svg>
