<svg width="174" height="91" viewBox="0 0 174 91" fill="none" xmlns="http://www.w3.org/2000/svg">
<path d="M20.9556 40.0407C23.7198 40.0407 25.6577 37.8994 25.6577 35.0998V29.4466H31.7695C40.2925 29.4466 45.8745 22.8977 45.8745 15.1031C45.8745 8.13756 41.173 0.93457 31.4736 0.93457H20.9517C18.1875 0.93457 16.25 3.07589 16.25 5.87543V35.0998C16.25 37.8994 18.1875 40.0407 20.9517 40.0407H20.9556ZM25.6577 9.74146H30.7124C35.0603 9.74146 36.4712 12.0619 36.4712 15.0989C36.4712 18.1359 35.1181 20.5772 30.4165 20.5772H25.6577V9.74146Z" fill="#14163A"/>
<path d="M20.9556 40.0407C23.7198 40.0407 25.6577 37.8994 25.6577 35.0998V29.4466H31.7695C40.2925 29.4466 45.8745 22.8977 45.8745 15.1031C45.8745 8.13756 41.173 0.93457 31.4736 0.93457H20.9517C18.1875 0.93457 16.25 3.07589 16.25 5.87543V35.0998C16.25 37.8994 18.1875 40.0407 20.9517 40.0407H20.9556ZM25.6577 9.74146H30.7124C35.0603 9.74146 36.4712 12.0619 36.4712 15.0989C36.4712 18.1359 35.1181 20.5772 30.4165 20.5772H25.6577V9.74146Z" fill="#14163A"/>
<path d="M63.3423 9.68967C54.8635 9.68967 47.6172 15.9017 47.6172 24.8652C47.6172 33.8286 54.0968 40.0407 63.9316 40.0407C67.9381 40.0407 71.4706 39.0443 73.8242 37.7568C76.0047 36.4693 76.1821 34.8291 75.2959 33.0126C74.2366 30.7861 72.7035 30.3761 70.4653 31.1962C68.697 31.8399 66.6977 32.5452 64.2822 32.5452C60.5725 32.5452 58.1573 30.8476 57.2134 27.9159H73.6431C76.5861 27.9159 77.8228 25.513 77.8228 22.8191C77.8228 14.9095 71.1656 9.69787 63.334 9.69787L63.3423 9.68967ZM57.1597 21.6423C58.0418 18.7146 60.164 16.6029 63.2266 16.6029C66.9363 16.6029 68.9977 19.5306 69.1172 21.6423H57.1597Z" fill="#14163A"/>
<path d="M63.3423 9.68967C54.8635 9.68967 47.6172 15.9017 47.6172 24.8652C47.6172 33.8286 54.0968 40.0407 63.9316 40.0407C67.9381 40.0407 71.4706 39.0443 73.8242 37.7568C76.0047 36.4693 76.1821 34.8291 75.2959 33.0126C74.2366 30.7861 72.7035 30.3761 70.4653 31.1962C68.697 31.8399 66.6977 32.5452 64.2822 32.5452C60.5725 32.5452 58.1573 30.8476 57.2134 27.9159H73.6431C76.5861 27.9159 77.8228 25.513 77.8228 22.8191C77.8228 14.9095 71.1656 9.69787 63.334 9.69787L63.3423 9.68967ZM57.1597 21.6423C58.0418 18.7146 60.164 16.6029 63.2266 16.6029C66.9363 16.6029 68.9977 19.5306 69.1172 21.6423H57.1597Z" fill="#14163A"/>
<path d="M84.2534 18.8367V28.2021C84.2534 36.3308 88.1174 40.0407 95.7261 40.0407H97.1885C99.823 40.0407 101.638 38.5691 101.638 35.8609C101.638 33.1527 99.823 31.6193 97.1885 31.6193H96.5454C94.2632 31.6193 93.4438 30.2054 93.4438 27.4354V18.8367H97.0742C99.7662 18.8367 101.638 17.1879 101.638 14.657C101.638 12.126 99.7662 10.4772 97.0742 10.4772H93.4438V5.76564C93.4438 2.99561 91.5713 0.93457 88.8794 0.93457C86.1875 0.93457 84.2534 2.99561 84.2534 5.76564V10.4772H83.3765C80.7419 10.4772 78.9844 12.126 78.9844 14.657C78.9844 17.1879 80.7419 18.8367 83.3765 18.8367H84.2534Z" fill="#14163A"/>
<path d="M84.2534 18.8367V28.2021C84.2534 36.3308 88.1174 40.0407 95.7261 40.0407H97.1885C99.823 40.0407 101.638 38.5691 101.638 35.8609C101.638 33.1527 99.823 31.6193 97.1885 31.6193H96.5454C94.2632 31.6193 93.4438 30.2054 93.4438 27.4354V18.8367H97.0742C99.7662 18.8367 101.638 17.1879 101.638 14.657C101.638 12.126 99.7662 10.4772 97.0742 10.4772H93.4438V5.76564C93.4438 2.99561 91.5713 0.93457 88.8794 0.93457C86.1875 0.93457 84.2534 2.99561 84.2534 5.76564V10.4772H83.3765C80.7419 10.4772 78.9844 12.126 78.9844 14.657C78.9844 17.1879 80.7419 18.8367 83.3765 18.8367H84.2534Z" fill="#14163A"/>
<path d="M130.678 30.6688C130.678 23.93 125.052 22.2894 119.779 20.8252C116.733 20.0623 115.211 19.4758 115.211 18.2454C115.211 17.1339 116.208 16.6048 117.906 16.6048C120.075 16.6048 122.359 17.7163 123.531 18.4217C125.581 19.5332 127.164 19.242 128.571 17.1913C129.92 15.198 129.509 13.5574 127.574 12.2695C125.228 10.3336 121.6 9.68967 118.258 9.68967C111.988 9.68967 106.306 12.208 106.306 19.1231C106.306 25.6281 111.755 27.0349 116.208 28.2653C119.956 29.262 121.657 29.8485 121.657 31.1364C121.657 32.4242 120.485 33.0107 118.377 33.0107C115.273 33.0107 112.637 31.6613 110.997 30.3735C109.414 29.2005 107.658 29.2005 106.133 31.0174C104.845 32.658 104.612 34.7088 106.486 36.4068C108.126 38.0474 112.46 40.0407 118.438 40.0407C125.643 40.0407 130.682 37.0507 130.682 30.6647L130.678 30.6688Z" fill="#14163A"/>
<path d="M130.678 30.6688C130.678 23.93 125.052 22.2894 119.779 20.8252C116.733 20.0623 115.211 19.4758 115.211 18.2454C115.211 17.1339 116.208 16.6048 117.906 16.6048C120.075 16.6048 122.359 17.7163 123.531 18.4217C125.581 19.5332 127.164 19.242 128.571 17.1913C129.92 15.198 129.509 13.5574 127.574 12.2695C125.228 10.3336 121.6 9.68967 118.258 9.68967C111.988 9.68967 106.306 12.208 106.306 19.1231C106.306 25.6281 111.755 27.0349 116.208 28.2653C119.956 29.262 121.657 29.8485 121.657 31.1364C121.657 32.4242 120.485 33.0107 118.377 33.0107C115.273 33.0107 112.637 31.6613 110.997 30.3735C109.414 29.2005 107.658 29.2005 106.133 31.0174C104.845 32.658 104.612 34.7088 106.486 36.4068C108.126 38.0474 112.46 40.0407 118.438 40.0407C125.643 40.0407 130.682 37.0507 130.682 30.6647L130.678 30.6688Z" fill="#14163A"/>
<path d="M62.7612 59.8856C54.2824 59.8856 47.0361 66.0977 47.0361 75.0611C47.0361 84.0245 53.5156 90.2366 63.3506 90.2366C67.3571 90.2366 70.8895 89.2402 73.2432 87.9527C75.4237 86.6652 75.6016 85.025 74.7153 83.2086C73.656 80.982 72.1225 80.572 69.8843 81.3921C68.116 82.0359 66.1166 82.7411 63.7012 82.7411C59.9914 82.7411 57.5758 81.0435 56.6318 78.1118H73.062C76.0051 78.1118 77.2417 75.709 77.2417 73.015C77.2417 65.1054 70.5851 59.8938 62.7534 59.8938L62.7612 59.8856ZM56.5786 71.8382C57.4607 68.9105 59.5834 66.7988 62.646 66.7988C66.3558 66.7988 68.4166 69.7265 68.5361 71.8382H56.5786Z" fill="#14163A"/>
<path d="M62.7612 59.8856C54.2824 59.8856 47.0361 66.0977 47.0361 75.0611C47.0361 84.0245 53.5156 90.2366 63.3506 90.2366C67.3571 90.2366 70.8895 89.2402 73.2432 87.9527C75.4237 86.6652 75.6016 85.025 74.7153 83.2086C73.656 80.982 72.1225 80.572 69.8843 81.3921C68.116 82.0359 66.1166 82.7411 63.7012 82.7411C59.9914 82.7411 57.5758 81.0435 56.6318 78.1118H73.062C76.0051 78.1118 77.2417 75.709 77.2417 73.015C77.2417 65.1054 70.5851 59.8938 62.7534 59.8938L62.7612 59.8856ZM56.5786 71.8382C57.4607 68.9105 59.5834 66.7988 62.646 66.7988C66.3558 66.7988 68.4166 69.7265 68.5361 71.8382H56.5786Z" fill="#14163A"/>
<path d="M85.6934 48.2121C83.1412 48.2121 81.3076 50.2632 81.3076 53.02V84.9067C81.3076 87.6634 83.1373 89.6529 85.6934 89.6529C88.2494 89.6529 90.021 87.6593 90.021 84.9067V53.02C90.021 50.2632 88.2456 48.2121 85.6934 48.2121Z" fill="#14163A"/>
<path d="M85.6934 48.2121C83.1412 48.2121 81.3076 50.2632 81.3076 53.02V84.9067C81.3076 87.6634 83.1373 89.6529 85.6934 89.6529C88.2494 89.6529 90.021 87.6593 90.021 84.9067V53.02C90.021 50.2632 88.2456 48.2121 85.6934 48.2121Z" fill="#14163A"/>
<path d="M99.9268 48.2121C97.2044 48.2121 95.2485 50.2632 95.2485 53.02V84.9067C95.2485 87.6634 97.2044 89.6529 99.9268 89.6529C102.649 89.6529 104.542 87.6593 104.542 84.9067V53.02C104.542 50.2632 102.649 48.2121 99.9268 48.2121Z" fill="#14163A"/>
<path d="M99.9268 48.2121C97.2044 48.2121 95.2485 50.2632 95.2485 53.02V84.9067C95.2485 87.6634 97.2044 89.6529 99.9268 89.6529C102.649 89.6529 104.542 87.6593 104.542 84.9067V53.02C104.542 50.2632 102.649 48.2121 99.9268 48.2121Z" fill="#14163A"/>
<path d="M124.611 59.8856C115.5 59.8856 108.609 66.2699 108.609 75.0611C108.609 83.8523 115.5 90.2366 124.611 90.2366C133.722 90.2366 140.557 83.9097 140.557 75.0611C140.557 66.2125 133.665 59.8856 124.611 59.8856ZM124.611 82.0318C120.348 82.0318 117.838 78.9278 117.838 75.0611C117.838 71.1944 120.348 68.029 124.611 68.029C128.875 68.029 131.327 71.2518 131.327 75.0611C131.327 78.8704 128.817 82.0318 124.611 82.0318Z" fill="#14163A"/>
<path d="M124.611 59.8856C115.5 59.8856 108.609 66.2699 108.609 75.0611C108.609 83.8523 115.5 90.2366 124.611 90.2366C133.722 90.2366 140.557 83.9097 140.557 75.0611C140.557 66.2125 133.665 59.8856 124.611 59.8856ZM124.611 82.0318C120.348 82.0318 117.838 78.9278 117.838 75.0611C117.838 71.1944 120.348 68.029 124.611 68.029C128.875 68.029 131.327 71.2518 131.327 75.0611C131.327 78.8704 128.817 82.0318 124.611 82.0318Z" fill="#14163A"/>
<path d="M161.725 59.8856C157.956 59.8856 155.116 61.5194 153.436 63.4472H153.086V63.39C152.624 61.3478 150.94 60.3553 149.204 60.3553C146.477 60.3553 144.623 62.3975 144.623 65.1423V84.866C144.623 87.6107 146.421 89.6529 149.143 89.6529C151.866 89.6529 153.724 87.6107 153.724 84.866V72.2614C153.724 70.452 155.347 68.0585 159.116 68.0585C162.074 68.0585 163.985 69.2839 163.985 73.6011V84.866C163.985 87.6107 165.839 89.6529 168.565 89.6529C171.292 89.6529 173.086 87.6107 173.086 84.866V72.0286C173.086 63.39 167.637 59.8897 161.725 59.8897V59.8856Z" fill="#14163A"/>
<path d="M161.725 59.8856C157.956 59.8856 155.116 61.5194 153.436 63.4472H153.086V63.39C152.624 61.3478 150.94 60.3553 149.204 60.3553C146.477 60.3553 144.623 62.3975 144.623 65.1423V84.866C144.623 87.6107 146.421 89.6529 149.143 89.6529C151.866 89.6529 153.724 87.6107 153.724 84.866V72.2614C153.724 70.452 155.347 68.0585 159.116 68.0585C162.074 68.0585 163.985 69.2839 163.985 73.6011V84.866C163.985 87.6107 165.839 89.6529 168.565 89.6529C171.292 89.6529 173.086 87.6107 173.086 84.866V72.0286C173.086 63.39 167.637 59.8897 161.725 59.8897V59.8856Z" fill="#14163A"/>
<path d="M23.6973 52.138C18.2938 52.138 13.3927 54.3368 9.81104 57.9016V53.02C9.81104 50.2632 7.92764 48.2121 5.21973 48.2121C2.51181 48.2121 0.566406 50.2632 0.566406 53.02V84.9066C0.566406 87.6634 2.50769 89.6529 5.21973 89.6529C7.93176 89.6529 9.81104 87.6592 9.81104 84.9066L9.82373 71.7221H9.84424C10.0586 68.7479 12.4658 66.4015 15.4087 66.4015C18.3515 66.4015 20.7542 68.7479 20.9727 71.7221H20.9932V84.9066C20.9932 87.6634 22.9386 89.6529 25.6465 89.6529C28.3544 89.6529 30.2378 87.6592 30.2378 84.9066V69.8145C30.2378 68.6618 31.145 67.7265 32.2661 67.7265C33.3872 67.7265 34.2939 68.6618 34.2939 69.8145L34.3062 84.9025C34.3062 87.6592 36.2474 89.6488 38.9595 89.6488C41.6715 89.6488 43.5513 87.6551 43.5513 84.9025C43.5513 84.9025 43.4685 69.6381 43.3242 69.1499C41.8033 59.5056 33.5974 52.1339 23.6973 52.1339V52.138Z" fill="#14163A"/>
<path d="M23.6973 52.138C18.2938 52.138 13.3927 54.3368 9.81104 57.9016V53.02C9.81104 50.2632 7.92764 48.2121 5.21973 48.2121C2.51181 48.2121 0.566406 50.2632 0.566406 53.02V84.9066C0.566406 87.6634 2.50769 89.6529 5.21973 89.6529C7.93176 89.6529 9.81104 87.6592 9.81104 84.9066L9.82373 71.7221H9.84424C10.0586 68.7479 12.4658 66.4015 15.4087 66.4015C18.3515 66.4015 20.7542 68.7479 20.9727 71.7221H20.9932V84.9066C20.9932 87.6634 22.9386 89.6529 25.6465 89.6529C28.3544 89.6529 30.2378 87.6592 30.2378 84.9066V69.8145C30.2378 68.6618 31.145 67.7265 32.2661 67.7265C33.3872 67.7265 34.2939 68.6618 34.2939 69.8145L34.3062 84.9025C34.3062 87.6592 36.2474 89.6488 38.9595 89.6488C41.6715 89.6488 43.5513 87.6551 43.5513 84.9025C43.5513 84.9025 43.4685 69.6381 43.3242 69.1499C41.8033 59.5056 33.5974 52.1339 23.6973 52.1339V52.138Z" fill="#14163A"/>
<path d="M51.0957 57.1931C56.56 59.2865 61.4882 56.2203 62.0776 50.6544C62.1186 50.2727 62.1392 49.9279 62.1392 49.6077C62.1433 48.4133 61.1237 47.4774 59.9326 47.5431C59.6502 47.5595 59.3637 47.5677 59.0771 47.5677C51.2961 47.5677 45.3121 43.4384 43.9736 36.0049C43.6339 34.1085 42.1644 33.2876 41.2803 35.6683C40.8832 36.7355 38.9471 43.6354 33.8062 49.4928C33.5851 49.7432 33.655 50.1372 33.9497 50.2973C39.6719 53.421 42.5406 57.5544 43.4902 59.0977C43.6581 59.3727 44.0594 59.3686 44.2231 59.0936C45.0008 57.7924 44.481 58.5887 45.1646 57.542C46.2533 55.8838 49.0041 56.3927 51.0957 57.1972V57.1931Z" fill="#14163A"/>
<path d="M51.0957 57.1931C56.56 59.2865 61.4882 56.2203 62.0776 50.6544C62.1186 50.2727 62.1392 49.9279 62.1392 49.6077C62.1433 48.4133 61.1237 47.4774 59.9326 47.5431C59.6502 47.5595 59.3637 47.5677 59.0771 47.5677C51.2961 47.5677 45.3121 43.4384 43.9736 36.0049C43.6339 34.1085 42.1644 33.2876 41.2803 35.6683C40.8832 36.7355 38.9471 43.6354 33.8062 49.4928C33.5851 49.7432 33.655 50.1372 33.9497 50.2973C39.6719 53.421 42.5406 57.5544 43.4902 59.0977C43.6581 59.3727 44.0594 59.3686 44.2231 59.0936C45.0008 57.7924 44.481 58.5887 45.1646 57.542C46.2533 55.8838 49.0041 56.3927 51.0957 57.1972V57.1931Z" fill="#14163A"/>
</svg>
