<svg width="276" height="58" viewBox="0 0 276 58" fill="none" xmlns="http://www.w3.org/2000/svg">
<path d="M28.007 31.9754C30.7175 31.9754 33.1734 30.6349 35.001 28.4504C35.9579 27.3044 36.7424 25.9267 37.3009 24.3876H18.713C19.2716 25.9267 20.056 27.3044 21.0129 28.4504C22.8405 30.6349 25.2964 31.9754 28.007 31.9754Z" fill="#14163A"/>
<path d="M28.007 31.9754C30.7175 31.9754 33.1734 30.6349 35.001 28.4504C35.9579 27.3044 36.7424 25.9267 37.3009 24.3876H18.713C19.2716 25.9267 20.056 27.3044 21.0129 28.4504C22.8405 30.6349 25.2964 31.9754 28.007 31.9754Z" fill="#14163A"/>
<path d="M0.125 56.4897H55.8888V0.457031H0.125V56.4897ZM7.55286 17.2204L48.457 17.1999C48.5184 17.8283 48.5469 18.4609 48.5469 19.1017C48.5469 22.4741 47.7416 25.6576 46.3108 28.4713C42.9137 35.1627 35.9928 39.7427 28.009 39.7427C20.0253 39.7427 13.0962 35.1627 9.6991 28.4713C8.26831 25.6576 7.46301 22.4741 7.46301 19.1017C7.46301 18.465 7.49563 17.8407 7.55286 17.2204Z" fill="#14163A"/>
<path d="M0.125 56.4897H55.8888V0.457031H0.125V56.4897ZM7.55286 17.2204L48.457 17.1999C48.5184 17.8283 48.5469 18.4609 48.5469 19.1017C48.5469 22.4741 47.7416 25.6576 46.3108 28.4713C42.9137 35.1627 35.9928 39.7427 28.009 39.7427C20.0253 39.7427 13.0962 35.1627 9.6991 28.4713C8.26831 25.6576 7.46301 22.4741 7.46301 19.1017C7.46301 18.465 7.49563 17.8407 7.55286 17.2204Z" fill="#14163A"/>
<path d="M107.294 13.8815C100.718 13.8815 95.3881 19.3663 95.3881 26.1387C95.3881 32.911 100.718 38.3958 107.294 38.3958C113.871 38.3958 119.204 32.9069 119.204 26.1387C119.204 19.3704 113.875 13.8815 107.294 13.8815ZM107.294 33.7818C104.042 33.7818 101.399 30.3606 101.399 26.1387C101.399 21.9168 104.042 18.4955 107.294 18.4955C110.546 18.4955 113.197 21.9168 113.197 26.1387C113.197 30.3606 110.554 33.7818 107.294 33.7818Z" fill="#14163A"/>
<path d="M107.294 13.8815C100.718 13.8815 95.3881 19.3663 95.3881 26.1387C95.3881 32.911 100.718 38.3958 107.294 38.3958C113.871 38.3958 119.204 32.9069 119.204 26.1387C119.204 19.3704 113.875 13.8815 107.294 13.8815ZM107.294 33.7818C104.042 33.7818 101.399 30.3606 101.399 26.1387C101.399 21.9168 104.042 18.4955 107.294 18.4955C110.546 18.4955 113.197 21.9168 113.197 26.1387C113.197 30.3606 110.554 33.7818 107.294 33.7818Z" fill="#14163A"/>
<path d="M155.218 12.1737V13.8815C156.931 12.7099 158.907 11.9748 161.027 11.8279V8.04478H161C158.741 8.80572 156.749 10.2584 155.218 12.1737Z" fill="#14163A"/>
<path d="M155.218 12.1737V13.8815C156.931 12.7099 158.907 11.9748 161.027 11.8279V8.04478H161C158.741 8.80572 156.749 10.2584 155.218 12.1737Z" fill="#14163A"/>
<path d="M155.218 38.3917H161.027V14.4652C158.907 14.6082 156.931 15.2986 155.218 16.4097V38.3958V38.3917Z" fill="#14163A"/>
<path d="M155.218 38.3917H161.027V14.4652C158.907 14.6082 156.931 15.2986 155.218 16.4097V38.3958V38.3917Z" fill="#14163A"/>
<path d="M229.228 14.4652C226.531 14.4652 224.089 15.5232 222.263 17.2472V14.4652C220.055 14.6082 217.995 15.2986 216.21 16.4097V38.3958H222.263V24.3267C222.827 21.798 225.052 19.9107 227.716 19.9107C230.808 19.9107 233.306 22.4475 233.306 25.5808V34.3148C233.334 34.3025 233.363 34.2903 233.391 34.2821V37.6768H239.444V24.5187H239.432C239.279 18.9384 234.769 14.4693 229.228 14.4693V14.4652Z" fill="#14163A"/>
<path d="M229.228 14.4652C226.531 14.4652 224.089 15.5232 222.263 17.2472V14.4652C220.055 14.6082 217.995 15.2986 216.21 16.4097V38.3958H222.263V24.3267C222.827 21.798 225.052 19.9107 227.716 19.9107C230.808 19.9107 233.306 22.4475 233.306 25.5808V34.3148C233.334 34.3025 233.363 34.2903 233.391 34.2821V37.6768H239.444V24.5187H239.432C239.279 18.9384 234.769 14.4693 229.228 14.4693V14.4652Z" fill="#14163A"/>
<path d="M152.895 14.5959C152.371 14.5101 151.835 14.4652 151.283 14.4652C148.617 14.4652 146.187 15.5232 144.38 17.2472V14.4652C142.186 14.6082 140.143 15.2986 138.373 16.4097V38.3958H144.38V24.3267C144.936 21.798 147.143 19.9107 149.785 19.9107C150.94 19.9107 152.007 20.2742 152.895 20.8911V14.5959Z" fill="#14163A"/>
<path d="M152.895 14.5959C152.371 14.5101 151.835 14.4652 151.283 14.4652C148.617 14.4652 146.187 15.5232 144.38 17.2472V14.4652C142.186 14.6082 140.143 15.2986 138.373 16.4097V38.3958H144.38V24.3267C144.936 21.798 147.143 19.9107 149.785 19.9107C150.94 19.9107 152.007 20.2742 152.895 20.8911V14.5959Z" fill="#14163A"/>
<path d="M127.191 17.2472V14.4652C124.914 14.6082 122.787 15.2986 120.947 16.4097V38.3958H127.191V24.3267C127.769 21.798 130.066 19.9107 132.812 19.9107C134.009 19.9107 135.123 20.2742 136.049 20.8911V14.6C135.501 14.5142 134.944 14.4693 134.375 14.4693C131.595 14.4693 129.077 15.5273 127.195 17.2512L127.191 17.2472Z" fill="#14163A"/>
<path d="M127.191 17.2472V14.4652C124.914 14.6082 122.787 15.2986 120.947 16.4097V38.3958H127.191V24.3267C127.769 21.798 130.066 19.9107 132.812 19.9107C134.009 19.9107 135.123 20.2742 136.049 20.8911V14.6C135.501 14.5142 134.944 14.4693 134.375 14.4693C131.595 14.4693 129.077 15.5273 127.195 17.2512L127.191 17.2472Z" fill="#14163A"/>
<path d="M181.14 37.6119H187.166V5.71009H187.138C184.792 6.43243 182.731 7.81144 181.14 9.62959V15.6094C179.404 14.5998 177.399 14.017 175.254 14.017C168.679 14.017 163.35 19.4714 163.35 26.2064C163.35 32.9413 168.679 38.3958 175.254 38.3958C177.399 38.3958 179.404 37.813 181.14 36.8034V37.6119ZM175.254 33.8073C172.003 33.8073 169.364 30.405 169.364 26.2064C169.364 22.0078 172.003 18.6054 175.254 18.6054C178.506 18.6054 180.995 21.8231 181.14 25.8575V26.5511C180.995 30.5896 178.422 33.8073 175.254 33.8073Z" fill="#14163A"/>
<path d="M181.14 37.6119H187.166V5.71009H187.138C184.792 6.43243 182.731 7.81144 181.14 9.62959V15.6094C179.404 14.5998 177.399 14.017 175.254 14.017C168.679 14.017 163.35 19.4714 163.35 26.2064C163.35 32.9413 168.679 38.3958 175.254 38.3958C177.399 38.3958 179.404 37.813 181.14 36.8034V37.6119ZM175.254 33.8073C172.003 33.8073 169.364 30.405 169.364 26.2064C169.364 22.0078 172.003 18.6054 175.254 18.6054C178.506 18.6054 180.995 21.8231 181.14 25.8575V26.5511C180.995 30.5896 178.422 33.8073 175.254 33.8073Z" fill="#14163A"/>
<path d="M201.684 13.8815C194.948 13.8815 189.49 19.3663 189.49 26.1387C189.49 32.911 194.948 38.3958 201.684 38.3958C204.575 38.3958 207.232 37.3764 209.319 35.6844L205.606 31.9495C204.546 33.0885 203.179 33.7818 201.684 33.7818C198.648 33.7818 196.143 30.9466 195.716 27.2571H213.833C213.862 26.8898 213.886 26.5142 213.886 26.1387C213.886 19.3663 208.423 13.8815 201.684 13.8815ZM196.188 22.9691C197.145 20.332 199.244 18.4955 201.684 18.4955C204.123 18.4955 206.222 20.332 207.175 22.9691H196.188Z" fill="#14163A"/>
<path d="M201.684 13.8815C194.948 13.8815 189.49 19.3663 189.49 26.1387C189.49 32.911 194.948 38.3958 201.684 38.3958C204.575 38.3958 207.232 37.3764 209.319 35.6844L205.606 31.9495C204.546 33.0885 203.179 33.7818 201.684 33.7818C198.648 33.7818 196.143 30.9466 195.716 27.2571H213.833C213.862 26.8898 213.886 26.5142 213.886 26.1387C213.886 19.3663 208.423 13.8815 201.684 13.8815ZM196.188 22.9691C197.145 20.332 199.244 18.4955 201.684 18.4955C204.123 18.4955 206.222 20.332 207.175 22.9691H196.188Z" fill="#14163A"/>
<path d="M253.113 33.2726C251.16 33.2726 249.812 32.3717 249.758 30.2846H249.75V19.1562H255.784V14.5254H249.75V7.46111H249.726C247.325 8.17855 245.208 9.54821 243.581 11.354V14.5254H240.025V19.1562H243.581V32.6326H243.597C243.745 36.1668 246.672 38.9795 250.268 38.9795C253.865 38.9795 256.29 36.55 256.29 36.55L256.273 31.8459C255.624 32.8364 254.321 33.2726 253.113 33.2726Z" fill="#14163A"/>
<path d="M253.113 33.2726C251.16 33.2726 249.812 32.3717 249.758 30.2846H249.75V19.1562H255.784V14.5254H249.75V7.46111H249.726C247.325 8.17855 245.208 9.54821 243.581 11.354V14.5254H240.025V19.1562H243.581V32.6326H243.597C243.745 36.1668 246.672 38.9795 250.268 38.9795C253.865 38.9795 256.29 36.55 256.29 36.55L256.273 31.8459C255.624 32.8364 254.321 33.2726 253.113 33.2726Z" fill="#14163A"/>
<path d="M268.646 24.2459C265.516 23.1066 264.662 22.4521 264.662 21.2078C264.662 19.8625 265.901 18.9899 267.818 18.9899C269.914 18.9899 271.533 19.7454 272.311 20.1979L273.156 20.6826L274.73 16.2751L274.183 15.9438C272.639 15.0187 270.295 14.4652 267.917 14.4652C262.658 14.4652 258.844 17.5073 258.844 21.7007C258.844 24.7872 261.18 27.1344 265.768 28.6655C269.04 29.7927 269.644 30.6451 269.644 31.9258C269.644 33.5094 268.257 34.4144 265.834 34.4144C263.818 34.4144 261.668 33.6346 260.434 32.9721L259.598 32.5116L258.032 37.0201L258.62 37.3352C260.55 38.3816 263.147 38.9795 265.743 38.9795C271.645 38.9795 275.458 36.0667 275.458 31.5581C275.458 27.0496 271.81 25.3205 268.65 24.2337L268.646 24.2459Z" fill="#14163A"/>
<path d="M268.646 24.2459C265.516 23.1066 264.662 22.4521 264.662 21.2078C264.662 19.8625 265.901 18.9899 267.818 18.9899C269.914 18.9899 271.533 19.7454 272.311 20.1979L273.156 20.6826L274.73 16.2751L274.183 15.9438C272.639 15.0187 270.295 14.4652 267.917 14.4652C262.658 14.4652 258.844 17.5073 258.844 21.7007C258.844 24.7872 261.18 27.1344 265.768 28.6655C269.04 29.7927 269.644 30.6451 269.644 31.9258C269.644 33.5094 268.257 34.4144 265.834 34.4144C263.818 34.4144 261.668 33.6346 260.434 32.9721L259.598 32.5116L258.032 37.0201L258.62 37.3352C260.55 38.3816 263.147 38.9795 265.743 38.9795C271.645 38.9795 275.458 36.0667 275.458 31.5581C275.458 27.0496 271.81 25.3205 268.65 24.2337L268.646 24.2459Z" fill="#14163A"/>
<path d="M83.7824 17.2358C79.3401 15.5693 77.4902 14.4902 77.4902 12.0863C77.4902 9.68232 79.5392 8.17414 82.708 8.17414C85.8769 8.17414 88.4775 9.38235 89.6845 10.1073L90.427 10.5489L92.4552 4.71197L91.9699 4.412C89.7384 3.0288 86.3291 2.20805 82.8574 2.20805C75.2795 2.20805 69.7794 6.68678 69.7794 12.857C69.7794 17.3774 73.1559 20.8312 79.8088 23.1143C84.3921 24.7392 85.9349 26.1266 85.9349 28.6096C85.9349 31.3219 83.6247 32.9426 79.7466 32.9426C76.6234 32.9426 73.3093 31.7094 71.4221 30.6511L70.6837 30.2387L68.668 36.2256L69.1823 36.513C72.0069 38.0796 75.8062 38.9795 79.6013 38.9795C88.1291 38.9795 93.6455 34.6882 93.6455 28.0514C93.6455 21.4145 88.3778 18.8606 83.7863 17.2399L83.7824 17.2358Z" fill="#14163A"/>
<path d="M83.7824 17.2358C79.3401 15.5693 77.4902 14.4902 77.4902 12.0863C77.4902 9.68232 79.5392 8.17414 82.708 8.17414C85.8769 8.17414 88.4775 9.38235 89.6845 10.1073L90.427 10.5489L92.4552 4.71197L91.9699 4.412C89.7384 3.0288 86.3291 2.20805 82.8574 2.20805C75.2795 2.20805 69.7794 6.68678 69.7794 12.857C69.7794 17.3774 73.1559 20.8312 79.8088 23.1143C84.3921 24.7392 85.9349 26.1266 85.9349 28.6096C85.9349 31.3219 83.6247 32.9426 79.7466 32.9426C76.6234 32.9426 73.3093 31.7094 71.4221 30.6511L70.6837 30.2387L68.668 36.2256L69.1823 36.513C72.0069 38.0796 75.8062 38.9795 79.6013 38.9795C88.1291 38.9795 93.6455 34.6882 93.6455 28.0514C93.6455 21.4145 88.3778 18.8606 83.7863 17.2399L83.7824 17.2358Z" fill="#14163A"/>
<path d="M73.1012 46.9043C73.7974 46.9043 74.3856 47.0578 74.7937 47.2556L75.0576 46.3632C74.7695 46.2137 74.1094 45.9836 73.0612 45.9836C70.4525 45.9836 68.668 47.7847 68.668 50.4419C68.668 53.0991 70.4526 54.7387 72.8252 54.7387C73.8495 54.7387 74.6456 54.5367 75.0457 54.3348L74.8217 53.4666C74.3855 53.6806 73.7093 53.8179 73.0491 53.8179C71.0045 53.8179 69.8164 52.4812 69.8164 50.4055C69.8164 48.1764 71.1287 46.9043 73.1012 46.9043Z" fill="#14163A"/>
<path d="M73.1012 46.9043C73.7974 46.9043 74.3856 47.0578 74.7937 47.2556L75.0576 46.3632C74.7695 46.2137 74.1094 45.9836 73.0612 45.9836C70.4525 45.9836 68.668 47.7847 68.668 50.4419C68.668 53.0991 70.4526 54.7387 72.8252 54.7387C73.8495 54.7387 74.6456 54.5367 75.0457 54.3348L74.8217 53.4666C74.3855 53.6806 73.7093 53.8179 73.0491 53.8179C71.0045 53.8179 69.8164 52.4812 69.8164 50.4055C69.8164 48.1764 71.1287 46.9043 73.1012 46.9043Z" fill="#14163A"/>
<path d="M81.4472 45.9836H80.2854V54.7387H81.4472V45.9836Z" fill="#14163A"/>
<path d="M81.4472 45.9836H80.2854V54.7387H81.4472V45.9836Z" fill="#14163A"/>
<path d="M87.2559 47.7346H88.0491L89.5794 45.9836H88.3593L87.2559 47.7346Z" fill="#14163A"/>
<path d="M87.2559 47.7346H88.0491L89.5794 45.9836H88.3593L87.2559 47.7346Z" fill="#14163A"/>
<path d="M88.4176 48.3183H87.2559V54.7387H88.4176V48.3183Z" fill="#14163A"/>
<path d="M88.4176 48.3183H87.2559V54.7387H88.4176V48.3183Z" fill="#14163A"/>
<path d="M96.7227 48.3183C95.7198 48.3183 95.0148 48.9008 94.7128 49.5H94.6889L94.6283 48.4597H93.6455C93.6818 48.9799 93.698 49.5125 93.698 50.1574V54.7387H94.8014V50.9646C94.8014 50.7691 94.8257 50.5735 94.8781 50.432C95.0674 49.7954 95.6312 49.267 96.3602 49.267C97.4034 49.267 97.7658 50.1075 97.7658 51.1186V54.7387H98.8734V50.9896C98.8734 48.8342 97.5644 48.3183 96.7227 48.3183Z" fill="#14163A"/>
<path d="M96.7227 48.3183C95.7198 48.3183 95.0148 48.9008 94.7128 49.5H94.6889L94.6283 48.4597H93.6455C93.6818 48.9799 93.698 49.5125 93.698 50.1574V54.7387H94.8014V50.9646C94.8014 50.7691 94.8257 50.5735 94.8781 50.432C95.0674 49.7954 95.6312 49.267 96.3602 49.267C97.4034 49.267 97.7658 50.1075 97.7658 51.1186V54.7387H98.8734V50.9896C98.8734 48.8342 97.5644 48.3183 96.7227 48.3183Z" fill="#14163A"/>
<path d="M105.266 45.9836C104.928 45.9836 104.682 46.3738 104.682 46.8668C104.682 47.3597 104.914 47.7346 105.246 47.7346C105.621 47.7346 105.854 47.3495 105.844 46.8668C105.844 46.3738 105.622 45.9836 105.266 45.9836Z" fill="#14163A"/>
<path d="M105.266 45.9836C104.928 45.9836 104.682 46.3738 104.682 46.8668C104.682 47.3597 104.914 47.7346 105.246 47.7346C105.621 47.7346 105.854 47.3495 105.844 46.8668C105.844 46.3738 105.622 45.9836 105.266 45.9836Z" fill="#14163A"/>
<path d="M105.844 48.3183H104.682V54.7387H105.844V48.3183Z" fill="#14163A"/>
<path d="M105.844 48.3183H104.682V54.7387H105.844V48.3183Z" fill="#14163A"/>
<path d="M114.233 49.2086C114.818 49.2086 115.22 49.3475 115.473 49.5027L115.719 48.6368C115.422 48.4857 114.865 48.3183 114.233 48.3183C112.311 48.3183 111.072 49.6946 111.072 51.5897C111.072 53.4848 112.226 54.7387 114.003 54.7387C114.791 54.7387 115.411 54.5344 115.691 54.3833L115.512 53.5379C115.204 53.6809 114.806 53.8442 114.198 53.8442C113.029 53.8442 112.155 52.9661 112.155 51.5407C112.155 50.2542 112.884 49.2086 114.233 49.2086Z" fill="#14163A"/>
<path d="M114.233 49.2086C114.818 49.2086 115.22 49.3475 115.473 49.5027L115.719 48.6368C115.422 48.4857 114.865 48.3183 114.233 48.3183C112.311 48.3183 111.072 49.6946 111.072 51.5897C111.072 53.4848 112.226 54.7387 114.003 54.7387C114.791 54.7387 115.411 54.5344 115.691 54.3833L115.512 53.5379C115.204 53.6809 114.806 53.8442 114.198 53.8442C113.029 53.8442 112.155 52.9661 112.155 51.5407C112.155 50.2542 112.884 49.2086 114.233 49.2086Z" fill="#14163A"/>
<path d="M124.916 50.8287C124.916 49.5999 124.484 48.3183 122.701 48.3183C121.967 48.3183 121.269 48.5339 120.786 48.8635L121.03 49.5999C121.439 49.3192 122.002 49.1442 122.542 49.1442C123.735 49.1442 123.866 50.0556 123.866 50.5642V50.6903C121.616 50.6781 120.366 51.4878 120.366 52.9728C120.366 53.8598 120.968 54.7387 122.145 54.7387C122.979 54.7387 123.604 54.3074 123.928 53.8273H123.963L124.048 54.5963H125.013C124.939 54.1813 124.916 53.6605 124.916 53.1275V50.8287ZM123.893 52.5294C123.893 52.6433 123.866 52.7694 123.832 52.8874C123.662 53.4041 123.183 53.9127 122.423 53.9127C121.883 53.9127 121.427 53.5709 121.427 52.8467C121.427 51.6546 122.736 51.4389 123.893 51.4634V52.5294Z" fill="#14163A"/>
<path d="M124.916 50.8287C124.916 49.5999 124.484 48.3183 122.701 48.3183C121.967 48.3183 121.269 48.5339 120.786 48.8635L121.03 49.5999C121.439 49.3192 122.002 49.1442 122.542 49.1442C123.735 49.1442 123.866 50.0556 123.866 50.5642V50.6903C121.616 50.6781 120.366 51.4878 120.366 52.9728C120.366 53.8598 120.968 54.7387 122.145 54.7387C122.979 54.7387 123.604 54.3074 123.928 53.8273H123.963L124.048 54.5963H125.013C124.939 54.1813 124.916 53.6605 124.916 53.1275V50.8287ZM123.893 52.5294C123.893 52.6433 123.866 52.7694 123.832 52.8874C123.662 53.4041 123.183 53.9127 122.423 53.9127C121.883 53.9127 121.427 53.5709 121.427 52.8467C121.427 51.6546 122.736 51.4389 123.893 51.4634V52.5294Z" fill="#14163A"/>
<path d="M132.677 51.0372C131.866 50.7315 131.496 50.5032 131.496 49.9937C131.496 49.5371 131.866 49.158 132.537 49.158C133.113 49.158 133.562 49.3578 133.805 49.5127L134.089 48.6974C133.743 48.4976 133.187 48.3183 132.562 48.3183C131.224 48.3183 130.417 49.1295 130.417 50.12C130.417 50.862 130.944 51.4694 132.06 51.8648C132.895 52.1664 133.216 52.4599 133.216 52.9939C133.216 53.528 132.829 53.9111 132.01 53.9111C131.446 53.9111 130.854 53.6829 130.52 53.4668L130.24 54.3188C130.677 54.5715 131.302 54.7387 131.981 54.7387C133.459 54.7387 134.307 53.9764 134.307 52.8961C134.307 51.9789 133.755 51.4449 132.677 51.0372Z" fill="#14163A"/>
<path d="M132.677 51.0372C131.866 50.7315 131.496 50.5032 131.496 49.9937C131.496 49.5371 131.866 49.158 132.537 49.158C133.113 49.158 133.562 49.3578 133.805 49.5127L134.089 48.6974C133.743 48.4976 133.187 48.3183 132.562 48.3183C131.224 48.3183 130.417 49.1295 130.417 50.12C130.417 50.862 130.944 51.4694 132.06 51.8648C132.895 52.1664 133.216 52.4599 133.216 52.9939C133.216 53.528 132.829 53.9111 132.01 53.9111C131.446 53.9111 130.854 53.6829 130.52 53.4668L130.24 54.3188C130.677 54.5715 131.302 54.7387 131.981 54.7387C133.459 54.7387 134.307 53.9764 134.307 52.8961C134.307 51.9789 133.755 51.4449 132.677 51.0372Z" fill="#14163A"/>
<path d="M155.866 45.9836C153.489 45.9836 151.733 47.7459 151.733 50.4357C151.733 53.1256 153.383 54.7387 155.731 54.7387C158.079 54.7387 159.865 53.1901 159.865 50.2744C159.865 47.758 158.291 45.9836 155.866 45.9836ZM155.799 53.8434C153.992 53.8434 152.964 52.2222 152.964 50.4115C152.964 48.6008 153.912 46.8788 155.812 46.8788C157.711 46.8788 158.651 48.6371 158.651 50.3228C158.651 52.2464 157.618 53.8434 155.799 53.8434Z" fill="#14163A"/>
<path d="M155.866 45.9836C153.489 45.9836 151.733 47.7459 151.733 50.4357C151.733 53.1256 153.383 54.7387 155.731 54.7387C158.079 54.7387 159.865 53.1901 159.865 50.2744C159.865 47.758 158.291 45.9836 155.866 45.9836ZM155.799 53.8434C153.992 53.8434 152.964 52.2222 152.964 50.4115C152.964 48.6008 153.912 46.8788 155.812 46.8788C157.711 46.8788 158.651 48.6371 158.651 50.3228C158.651 52.2464 157.618 53.8434 155.799 53.8434Z" fill="#14163A"/>
<path d="M170.272 45.9836H169.151V49.4926H169.126C168.849 49.0175 168.213 48.5929 167.272 48.5929C165.772 48.5929 164.5 49.7964 164.512 51.7515C164.512 53.5352 165.657 54.7387 167.145 54.7387C168.148 54.7387 168.898 54.2401 169.244 53.582H169.269L169.318 54.6024H170.321C170.284 54.2051 170.272 53.6092 170.272 53.0873V45.9836ZM169.151 52.141C169.151 52.3084 169.138 52.4525 169.102 52.6005C168.898 53.4028 168.213 53.8741 167.463 53.8741C166.252 53.8741 165.645 52.8926 165.645 51.7009C165.645 50.404 166.33 49.4303 167.488 49.4303C168.327 49.4303 168.935 49.9872 169.102 50.6688C169.138 50.8012 169.151 50.9843 169.151 51.1206V52.141Z" fill="#14163A"/>
<path d="M170.272 45.9836H169.151V49.4926H169.126C168.849 49.0175 168.213 48.5929 167.272 48.5929C165.772 48.5929 164.5 49.7964 164.512 51.7515C164.512 53.5352 165.657 54.7387 167.145 54.7387C168.148 54.7387 168.898 54.2401 169.244 53.582H169.269L169.318 54.6024H170.321C170.284 54.2051 170.272 53.6092 170.272 53.0873V45.9836ZM169.151 52.141C169.151 52.3084 169.138 52.4525 169.102 52.6005C168.898 53.4028 168.213 53.8741 167.463 53.8741C166.252 53.8741 165.645 52.8926 165.645 51.7009C165.645 50.404 166.33 49.4303 167.488 49.4303C168.327 49.4303 168.935 49.9872 169.102 50.6688C169.138 50.8012 169.151 50.9843 169.151 51.1206V52.141Z" fill="#14163A"/>
<path d="M178.494 48.3183C176.848 48.3183 175.548 49.5226 175.548 51.5773C175.548 53.5221 176.785 54.7387 178.396 54.7387C179.833 54.7387 181.357 53.7459 181.357 51.4796C181.357 49.5999 180.203 48.3183 178.494 48.3183ZM178.443 53.9005C177.388 53.9005 176.639 52.8874 176.639 51.5407C176.639 50.373 177.195 49.1564 178.471 49.1564C179.747 49.1564 180.251 50.4747 180.251 51.5163C180.251 52.8996 179.479 53.9005 178.443 53.9005Z" fill="#14163A"/>
<path d="M178.494 48.3183C176.848 48.3183 175.548 49.5226 175.548 51.5773C175.548 53.5221 176.785 54.7387 178.396 54.7387C179.833 54.7387 181.357 53.7459 181.357 51.4796C181.357 49.5999 180.203 48.3183 178.494 48.3183ZM178.443 53.9005C177.388 53.9005 176.639 52.8874 176.639 51.5407C176.639 50.373 177.195 49.1564 178.471 49.1564C179.747 49.1564 180.251 50.4747 180.251 51.5163C180.251 52.8996 179.479 53.9005 178.443 53.9005Z" fill="#14163A"/>
<path d="M189.665 48.3183C188.661 48.3183 187.956 48.9008 187.653 49.5H187.629L187.565 48.4597H186.585C186.625 48.9799 186.638 49.5125 186.638 50.1574V54.7387H187.742V50.9646C187.742 50.7691 187.766 50.5735 187.818 50.432C188.004 49.7954 188.572 49.267 189.302 49.267C190.342 49.267 190.709 50.1075 190.709 51.1186V54.7387H191.813V50.9896C191.813 48.8342 190.507 48.3183 189.665 48.3183Z" fill="#14163A"/>
<path d="M189.665 48.3183C188.661 48.3183 187.956 48.9008 187.653 49.5H187.629L187.565 48.4597H186.585C186.625 48.9799 186.638 49.5125 186.638 50.1574V54.7387H187.742V50.9646C187.742 50.7691 187.766 50.5735 187.818 50.432C188.004 49.7954 188.572 49.267 189.302 49.267C190.342 49.267 190.709 50.1075 190.709 51.1186V54.7387H191.813V50.9896C191.813 48.8342 190.507 48.3183 189.665 48.3183Z" fill="#14163A"/>
<path d="M198.741 46.5672L197.523 46.8653V48.3596H196.46V49.2248H197.523V52.6358C197.523 53.3685 197.65 53.9232 198.005 54.2585C198.304 54.5689 198.772 54.7387 199.349 54.7387C199.831 54.7387 200.217 54.6724 200.458 54.5814L200.399 53.7328C200.24 53.77 199.999 53.8073 199.676 53.8073C198.981 53.8073 198.741 53.3685 198.741 52.5902V49.2248H200.526V48.3596H198.741V46.5672Z" fill="#14163A"/>
<path d="M198.741 46.5672L197.523 46.8653V48.3596H196.46V49.2248H197.523V52.6358C197.523 53.3685 197.65 53.9232 198.005 54.2585C198.304 54.5689 198.772 54.7387 199.349 54.7387C199.831 54.7387 200.217 54.6724 200.458 54.5814L200.399 53.7328C200.24 53.77 199.999 53.8073 199.676 53.8073C198.981 53.8073 198.741 53.3685 198.741 52.5902V49.2248H200.526V48.3596H198.741V46.5672Z" fill="#14163A"/>
<path d="M207.832 48.3183C206.022 48.3183 204.592 49.5226 204.592 51.5773C204.592 53.5221 205.957 54.7387 207.724 54.7387C209.305 54.7387 210.982 53.7459 210.982 51.4796C210.982 49.5999 209.712 48.3183 207.832 48.3183ZM207.78 53.9005C206.619 53.9005 205.796 52.8874 205.796 51.5407C205.796 50.373 206.403 49.1564 207.806 49.1564C209.21 49.1564 209.764 50.4747 209.764 51.5163C209.764 52.8996 208.92 53.9005 207.78 53.9005Z" fill="#14163A"/>
<path d="M207.832 48.3183C206.022 48.3183 204.592 49.5226 204.592 51.5773C204.592 53.5221 205.957 54.7387 207.724 54.7387C209.305 54.7387 210.982 53.7459 210.982 51.4796C210.982 49.5999 209.712 48.3183 207.832 48.3183ZM207.78 53.9005C206.619 53.9005 205.796 52.8874 205.796 51.5407C205.796 50.373 206.403 49.1564 207.806 49.1564C209.21 49.1564 209.764 50.4747 209.764 51.5163C209.764 52.8996 208.92 53.9005 207.78 53.9005Z" fill="#14163A"/>
<path d="M217.371 45.9836H216.21V54.7387H217.371V45.9836Z" fill="#14163A"/>
<path d="M217.371 45.9836H216.21V54.7387H217.371V45.9836Z" fill="#14163A"/>
<path d="M227.246 45.9836H225.726L224.342 47.7346H225.333L227.246 45.9836Z" fill="#14163A"/>
<path d="M227.246 45.9836H225.726L224.342 47.7346H225.333L227.246 45.9836Z" fill="#14163A"/>
<path d="M225.261 48.3183C223.451 48.3183 222.018 49.5226 222.018 51.5773C222.018 53.5221 223.382 54.7387 225.152 54.7387C226.732 54.7387 228.408 53.7459 228.408 51.4796C228.408 49.5999 227.135 48.3183 225.261 48.3183ZM225.209 53.9005C224.044 53.9005 223.222 52.8874 223.222 51.5407C223.222 50.373 223.828 49.1564 225.235 49.1564C226.642 49.1564 227.191 50.4747 227.191 51.5163C227.191 52.8996 226.343 53.9005 225.209 53.9005Z" fill="#14163A"/>
<path d="M225.261 48.3183C223.451 48.3183 222.018 49.5226 222.018 51.5773C222.018 53.5221 223.382 54.7387 225.152 54.7387C226.732 54.7387 228.408 53.7459 228.408 51.4796C228.408 49.5999 227.135 48.3183 225.261 48.3183ZM225.209 53.9005C224.044 53.9005 223.222 52.8874 223.222 51.5407C223.222 50.373 223.828 49.1564 225.235 49.1564C226.642 49.1564 227.191 50.4747 227.191 51.5163C227.191 52.8996 226.343 53.9005 225.209 53.9005Z" fill="#14163A"/>
<path d="M237.821 49.4329H237.797C237.529 48.9011 236.936 48.3183 235.856 48.3183C234.431 48.3183 233.055 49.5521 233.055 51.7262C233.055 53.5046 234.159 54.8575 235.704 54.8575C236.664 54.8575 237.331 54.381 237.681 53.7811H237.702V54.5001C237.702 56.1169 236.857 56.7423 235.704 56.7423C234.929 56.7423 234.287 56.504 233.879 56.236L233.595 57.1252C234.093 57.4741 234.917 57.657 235.663 57.657C236.45 57.657 237.319 57.4741 237.924 56.8869C238.526 56.3296 238.81 55.4276 238.81 53.9556V50.2286C238.81 49.4457 238.835 48.9267 238.864 48.4629H237.871L237.821 49.4329ZM237.694 52.1516C237.694 52.3516 237.669 52.5771 237.603 52.777C237.36 53.5173 236.73 53.9683 236.033 53.9683C234.814 53.9683 234.196 52.9217 234.196 51.6624C234.196 50.1733 234.971 49.233 236.046 49.233C236.87 49.233 237.422 49.7903 237.628 50.4668C237.681 50.6242 237.694 50.7987 237.694 50.9986V52.1516Z" fill="#14163A"/>
<path d="M237.821 49.4329H237.797C237.529 48.9011 236.936 48.3183 235.856 48.3183C234.431 48.3183 233.055 49.5521 233.055 51.7262C233.055 53.5046 234.159 54.8575 235.704 54.8575C236.664 54.8575 237.331 54.381 237.681 53.7811H237.702V54.5001C237.702 56.1169 236.857 56.7423 235.704 56.7423C234.929 56.7423 234.287 56.504 233.879 56.236L233.595 57.1252C234.093 57.4741 234.917 57.657 235.663 57.657C236.45 57.657 237.319 57.4741 237.924 56.8869C238.526 56.3296 238.81 55.4276 238.81 53.9556V50.2286C238.81 49.4457 238.835 48.9267 238.864 48.4629H237.871L237.821 49.4329ZM237.694 52.1516C237.694 52.3516 237.669 52.5771 237.603 52.777C237.36 53.5173 236.73 53.9683 236.033 53.9683C234.814 53.9683 234.196 52.9217 234.196 51.6624C234.196 50.1733 234.971 49.233 236.046 49.233C236.87 49.233 237.422 49.7903 237.628 50.4668C237.681 50.6242 237.694 50.7987 237.694 50.9986V52.1516Z" fill="#14163A"/>
<path d="M244.679 45.9836C244.337 45.9836 244.091 46.3738 244.091 46.8668C244.091 47.3597 244.327 47.7346 244.658 47.7346C245.031 47.7346 245.263 47.3495 245.253 46.8668C245.253 46.3738 245.031 45.9836 244.679 45.9836Z" fill="#14163A"/>
<path d="M244.679 45.9836C244.337 45.9836 244.091 46.3738 244.091 46.8668C244.091 47.3597 244.327 47.7346 244.658 47.7346C245.031 47.7346 245.263 47.3495 245.253 46.8668C245.253 46.3738 245.031 45.9836 244.679 45.9836Z" fill="#14163A"/>
<path d="M245.253 48.3183H244.091V54.7387H245.253V48.3183Z" fill="#14163A"/>
<path d="M245.253 48.3183H244.091V54.7387H245.253V48.3183Z" fill="#14163A"/>
<path d="M253.641 49.2086C254.231 49.2086 254.633 49.3475 254.886 49.5027L255.128 48.6368C254.835 48.4857 254.274 48.3183 253.641 48.3183C251.722 48.3183 250.481 49.6946 250.481 51.5897C250.481 53.4848 251.636 54.7387 253.411 54.7387C254.203 54.7387 254.824 54.5344 255.105 54.3833L254.921 53.5379C254.617 53.6809 254.215 53.8442 253.606 53.8442C252.44 53.8442 251.562 52.9661 251.562 51.5407C251.562 50.2542 252.295 49.2086 253.641 49.2086Z" fill="#14163A"/>
<path d="M253.641 49.2086C254.231 49.2086 254.633 49.3475 254.886 49.5027L255.128 48.6368C254.835 48.4857 254.274 48.3183 253.641 48.3183C251.722 48.3183 250.481 49.6946 250.481 51.5897C250.481 53.4848 251.636 54.7387 253.411 54.7387C254.203 54.7387 254.824 54.5344 255.105 54.3833L254.921 53.5379C254.617 53.6809 254.215 53.8442 253.606 53.8442C252.44 53.8442 251.562 52.9661 251.562 51.5407C251.562 50.2542 252.295 49.2086 253.641 49.2086Z" fill="#14163A"/>
<path d="M264.894 50.8287C264.894 49.5999 264.408 48.3183 262.404 48.3183C261.574 48.3183 260.788 48.5339 260.249 48.8635L260.518 49.5999C260.979 49.3192 261.618 49.1442 262.226 49.1442C263.569 49.1442 263.717 50.0556 263.717 50.5642V50.6903C261.183 50.6781 259.775 51.4878 259.775 52.9728C259.775 53.8598 260.453 54.7387 261.778 54.7387C262.713 54.7387 263.417 54.3074 263.782 53.8273H263.825L263.921 54.5963H265.003C264.925 54.1813 264.894 53.6605 264.894 53.1275V50.8287ZM263.743 52.5294C263.743 52.6433 263.716 52.7694 263.677 52.8874C263.486 53.4041 262.943 53.9127 262.091 53.9127C261.483 53.9127 260.966 53.5709 260.966 52.8467C260.966 51.6546 262.443 51.4389 263.743 51.4634V52.5294Z" fill="#14163A"/>
<path d="M264.894 50.8287C264.894 49.5999 264.408 48.3183 262.404 48.3183C261.574 48.3183 260.788 48.5339 260.249 48.8635L260.518 49.5999C260.979 49.3192 261.618 49.1442 262.226 49.1442C263.569 49.1442 263.717 50.0556 263.717 50.5642V50.6903C261.183 50.6781 259.775 51.4878 259.775 52.9728C259.775 53.8598 260.453 54.7387 261.778 54.7387C262.713 54.7387 263.417 54.3074 263.782 53.8273H263.825L263.921 54.5963H265.003C264.925 54.1813 264.894 53.6605 264.894 53.1275V50.8287ZM263.743 52.5294C263.743 52.6433 263.716 52.7694 263.677 52.8874C263.486 53.4041 262.943 53.9127 262.091 53.9127C261.483 53.9127 260.966 53.5709 260.966 52.8467C260.966 51.6546 262.443 51.4389 263.743 51.4634V52.5294Z" fill="#14163A"/>
<path d="M272.088 51.0372C271.278 50.7315 270.908 50.5032 270.908 49.9937C270.908 49.5371 271.278 49.158 271.944 49.158C272.52 49.158 272.972 49.3578 273.214 49.5127L273.494 48.6974C273.153 48.4976 272.602 48.3183 271.973 48.3183C270.637 48.3183 269.831 49.1295 269.831 50.12C269.831 50.862 270.357 51.4694 271.471 51.8648C272.302 52.1664 272.626 52.4599 272.626 52.9939C272.626 53.528 272.24 53.9111 271.422 53.9111C270.854 53.9111 270.266 53.6829 269.933 53.4668L269.65 54.3188C270.086 54.5715 270.714 54.7387 271.393 54.7387C272.869 54.7387 273.716 53.9764 273.716 52.8961C273.716 51.9789 273.165 51.4449 272.088 51.0372Z" fill="#14163A"/>
<path d="M272.088 51.0372C271.278 50.7315 270.908 50.5032 270.908 49.9937C270.908 49.5371 271.278 49.158 271.944 49.158C272.52 49.158 272.972 49.3578 273.214 49.5127L273.494 48.6974C273.153 48.4976 272.602 48.3183 271.973 48.3183C270.637 48.3183 269.831 49.1295 269.831 50.12C269.831 50.862 270.357 51.4694 271.471 51.8648C272.302 52.1664 272.626 52.4599 272.626 52.9939C272.626 53.528 272.24 53.9111 271.422 53.9111C270.854 53.9111 270.266 53.6829 269.933 53.4668L269.65 54.3188C270.086 54.5715 270.714 54.7387 271.393 54.7387C272.869 54.7387 273.716 53.9764 273.716 52.8961C273.716 51.9789 273.165 51.4449 272.088 51.0372Z" fill="#14163A"/>
</svg>
