<svg width="231" height="69" viewBox="0 0 231 69" fill="none" xmlns="http://www.w3.org/2000/svg">
<path d="M211.498 24.6017L223.102 34.9716L211.498 45.4315V52.2329L230.667 34.9511L211.498 17.7962V24.6017Z" fill="#14163A"/>
<path d="M211.498 24.6017L223.102 34.9716L211.498 45.4315V52.2329L230.667 34.9511L211.498 17.7962V24.6017Z" fill="#14163A"/>
<path d="M4.24646 44.0615L0.0605469 47.8977V56.3186L13.4207 44.0615H4.24646Z" fill="#14163A"/>
<path d="M4.24646 44.0615L0.0605469 47.8977V56.3186L13.4207 44.0615H4.24646Z" fill="#14163A"/>
<path d="M14.5824 26.5513L0.0605469 13.1268V21.9303L5.06201 26.5513H14.5824Z" fill="#14163A"/>
<path d="M14.5824 26.5513L0.0605469 13.1268V21.9303L5.06201 26.5513H14.5824Z" fill="#14163A"/>
<path d="M4.12659 55.3145V68.5758L30.8468 44.0615H16.4004L4.12659 55.3145Z" fill="#14163A"/>
<path d="M4.12659 55.3145V68.5758L30.8468 44.0615H16.4004L4.12659 55.3145Z" fill="#14163A"/>
<path d="M4.12659 14.4386L17.2894 26.5513H32.0085L4.12659 0.869629V14.4386Z" fill="#14163A"/>
<path d="M4.12659 14.4386L17.2894 26.5513H32.0085L4.12659 0.869629V14.4386Z" fill="#14163A"/>
<path d="M10.9763 42.3104V30.756H15.1632V28.3023H4.12659V30.756H8.31348V42.3104H10.9763Z" fill="#14163A"/>
<path d="M10.9763 42.3104V30.756H15.1632V28.3023H4.12659V30.756H8.31348V42.3104H10.9763Z" fill="#14163A"/>
<path d="M29.7456 35.7413C30.3388 34.9863 30.6395 34.1082 30.6395 33.0989C30.6395 31.6874 30.1885 30.5385 29.2905 29.644C28.3925 28.7495 27.1858 28.3023 25.6783 28.3023H19.1201V35.4459H17.4867V37.8954H19.1201V42.3104H21.6759V37.8954H24.7843L27.649 42.3104H30.8468L27.4214 37.3046C28.3763 37.0133 29.1483 36.4922 29.7496 35.7372L29.7456 35.7413ZM27.4377 34.773C26.9948 35.2243 26.3447 35.4459 25.4915 35.4459H21.6718V30.756H25.4915C26.3285 30.756 26.9866 30.9899 27.462 31.4658C27.8765 31.8843 28.0836 32.4259 28.0836 33.0989C28.0836 33.7718 27.8685 34.3421 27.4377 34.773Z" fill="#14163A"/>
<path d="M29.7456 35.7413C30.3388 34.9863 30.6395 34.1082 30.6395 33.0989C30.6395 31.6874 30.1885 30.5385 29.2905 29.644C28.3925 28.7495 27.1858 28.3023 25.6783 28.3023H19.1201V35.4459H17.4867V37.8954H19.1201V42.3104H21.6759V37.8954H24.7843L27.649 42.3104H30.8468L27.4214 37.3046C28.3763 37.0133 29.1483 36.4922 29.7496 35.7372L29.7456 35.7413ZM27.4377 34.773C26.9948 35.2243 26.3447 35.4459 25.4915 35.4459H21.6718V30.756H25.4915C26.3285 30.756 26.9866 30.9899 27.462 31.4658C27.8765 31.8843 28.0836 32.4259 28.0836 33.0989C28.0836 33.7718 27.8685 34.3421 27.4377 34.773Z" fill="#14163A"/>
<path d="M112.75 28.3023H110.426V42.3104H112.75V28.3023Z" fill="#14163A"/>
<path d="M112.75 28.3023H110.426V42.3104H112.75V28.3023Z" fill="#14163A"/>
<path d="M125.529 27.7186V26.206L122.921 25.3839L120.301 26.206V27.7186L122.921 26.8349L125.529 27.7186Z" fill="#14163A"/>
<path d="M125.529 27.7186V26.206L122.921 25.3839L120.301 26.206V27.7186L122.921 26.8349L125.529 27.7186Z" fill="#14163A"/>
<path d="M142.104 37.1812L133.08 28.3023V42.5988H135.678V34.0234L144.698 42.8941V28.5976H142.104V37.1812Z" fill="#14163A"/>
<path d="M142.104 37.1812L133.08 28.3023V42.5988H135.678V34.0234L144.698 42.8941V28.5976H142.104V37.1812Z" fill="#14163A"/>
<path d="M118.098 28.3023V30.756H121.197L116.235 42.3104H118.949L119.998 39.6721H125.807L126.865 42.3104H129.595L123.786 28.3023H118.098ZM120.91 37.3456L122.915 32.3439L124.916 37.3456H120.91Z" fill="#14163A"/>
<path d="M118.098 28.3023V30.756H121.197L116.235 42.3104H118.949L119.998 39.6721H125.807L126.865 42.3104H129.595L123.786 28.3023H118.098ZM120.91 37.3456L122.915 32.3439L124.916 37.3456H120.91Z" fill="#14163A"/>
<path d="M105.259 35.7413C105.856 34.9863 106.153 34.1082 106.153 33.0989C106.153 31.6874 105.702 30.5385 104.804 29.644C103.902 28.7495 102.699 28.3023 101.188 28.3023H94.6335V35.4459H93.0001V37.8954H94.6335V42.3104H97.1851V37.8954H100.298L103.162 42.3104H106.36L102.939 37.3046C103.894 37.0133 104.666 36.4922 105.263 35.7372L105.259 35.7413ZM97.1851 35.4459V30.756H101.005C101.846 30.756 102.5 30.9899 102.975 31.4658C103.39 31.8843 103.597 32.4259 103.597 33.0989C103.597 33.7718 103.382 34.3421 102.951 34.773C102.508 35.2243 101.858 35.4459 101.001 35.4459H97.181H97.1851Z" fill="#14163A"/>
<path d="M105.259 35.7413C105.856 34.9863 106.153 34.1082 106.153 33.0989C106.153 31.6874 105.702 30.5385 104.804 29.644C103.902 28.7495 102.699 28.3023 101.188 28.3023H94.6335V35.4459H93.0001V37.8954H94.6335V42.3104H97.1851V37.8954H100.298L103.162 42.3104H106.36L102.939 37.3046C103.894 37.0133 104.666 36.4922 105.263 35.7372L105.259 35.7413ZM97.1851 35.4459V30.756H101.005C101.846 30.756 102.5 30.9899 102.975 31.4658C103.39 31.8843 103.597 32.4259 103.597 33.0989C103.597 33.7718 103.382 34.3421 102.951 34.773C102.508 35.2243 101.858 35.4459 101.001 35.4459H97.181H97.1851Z" fill="#14163A"/>
<path d="M34.5303 28.3023V30.756H37.7649L32.5894 42.3104H35.4182L36.5133 39.6721H42.5768L43.6761 42.3104H46.5303L40.4669 28.3023H34.5303ZM37.4604 37.3456L39.5536 32.3439L41.6425 37.3456H37.4604Z" fill="#14163A"/>
<path d="M34.5303 28.3023V30.756H37.7649L32.5894 42.3104H35.4182L36.5133 39.6721H42.5768L43.6761 42.3104H46.5303L40.4669 28.3023H34.5303ZM37.4604 37.3456L39.5536 32.3439L41.6425 37.3456H37.4604Z" fill="#14163A"/>
<path d="M79.64 30.756H83.8267V42.3104H86.4898V30.756H90.6766V28.3023H79.64V30.756Z" fill="#14163A"/>
<path d="M79.64 30.756H83.8267V42.3104H86.4898V30.756H90.6766V28.3023H79.64V30.756Z" fill="#14163A"/>
<path d="M155.707 36.6586H160.502C160.219 37.8606 159.654 38.7877 158.803 39.4482C157.943 40.1169 156.921 40.4533 155.732 40.4533C154.44 40.4533 153.318 39.9774 152.354 39.0339C151.399 38.0821 150.917 36.9376 150.917 35.5961C150.917 34.2547 151.399 33.0938 152.354 32.1584C153.318 31.2231 154.444 30.7554 155.732 30.7554C157.357 30.7554 158.641 31.4323 159.588 32.7902L161.732 31.1944C160.951 30.2181 160.053 29.492 159.039 29.0202C158.005 28.5402 156.904 28.3023 155.732 28.3023C153.622 28.3023 151.843 28.9997 150.385 30.3985C148.914 31.8056 148.183 33.5368 148.183 35.5879C148.183 37.6391 148.91 39.3744 150.368 40.7855C151.822 42.1926 153.609 42.8941 155.736 42.8941C158.163 42.8941 160.111 42.0367 161.561 40.322C162.708 38.9682 163.286 37.5406 163.286 36.0515V34.185H155.711V36.6545L155.707 36.6586Z" fill="#14163A"/>
<path d="M155.707 36.6586H160.502C160.219 37.8606 159.654 38.7877 158.803 39.4482C157.943 40.1169 156.921 40.4533 155.732 40.4533C154.44 40.4533 153.318 39.9774 152.354 39.0339C151.399 38.0821 150.917 36.9376 150.917 35.5961C150.917 34.2547 151.399 33.0938 152.354 32.1584C153.318 31.2231 154.444 30.7554 155.732 30.7554C157.357 30.7554 158.641 31.4323 159.588 32.7902L161.732 31.1944C160.951 30.2181 160.053 29.492 159.039 29.0202C158.005 28.5402 156.904 28.3023 155.732 28.3023C153.622 28.3023 151.843 28.9997 150.385 30.3985C148.914 31.8056 148.183 33.5368 148.183 35.5879C148.183 37.6391 148.91 39.3744 150.368 40.7855C151.822 42.1926 153.609 42.8941 155.736 42.8941C158.163 42.8941 160.111 42.0367 161.561 40.322C162.708 38.9682 163.286 37.5406 163.286 36.0515V34.185H155.711V36.6545L155.707 36.6586Z" fill="#14163A"/>
<path d="M211.054 30.3985C209.599 28.9997 207.812 28.3023 205.691 28.3023C203.571 28.3023 201.8 28.9997 200.341 30.3985C198.87 31.8056 198.138 33.5368 198.138 35.5879C198.138 37.6391 198.866 39.3744 200.32 40.7855C201.78 42.1926 203.567 42.8941 205.691 42.8941C207.816 42.8941 209.599 42.1885 211.054 40.7855C212.513 39.3744 213.241 37.6432 213.241 35.5879C213.241 33.5327 212.513 31.7933 211.054 30.3985ZM209.067 39.0257C208.086 39.9692 206.963 40.4451 205.695 40.4451C204.428 40.4451 203.28 39.9692 202.316 39.0257C201.36 38.0739 200.882 36.9294 200.882 35.5879C200.882 34.2465 201.36 33.0855 202.316 32.1502C203.28 31.2149 204.407 30.7473 205.695 30.7473C206.984 30.7473 208.09 31.2149 209.067 32.1502C210.027 33.0979 210.505 34.2465 210.505 35.5879C210.505 36.9294 210.023 38.0862 209.067 39.0257Z" fill="#14163A"/>
<path d="M211.054 30.3985C209.599 28.9997 207.812 28.3023 205.691 28.3023C203.571 28.3023 201.8 28.9997 200.341 30.3985C198.87 31.8056 198.138 33.5368 198.138 35.5879C198.138 37.6391 198.866 39.3744 200.32 40.7855C201.78 42.1926 203.567 42.8941 205.691 42.8941C207.816 42.8941 209.599 42.1885 211.054 40.7855C212.513 39.3744 213.241 37.6432 213.241 35.5879C213.241 33.5327 212.513 31.7933 211.054 30.3985ZM209.067 39.0257C208.086 39.9692 206.963 40.4451 205.695 40.4451C204.428 40.4451 203.28 39.9692 202.316 39.0257C201.36 38.0739 200.882 36.9294 200.882 35.5879C200.882 34.2465 201.36 33.0855 202.316 32.1502C203.28 31.2149 204.407 30.7473 205.695 30.7473C206.984 30.7473 208.09 31.2149 209.067 32.1502C210.027 33.0979 210.505 34.2465 210.505 35.5879C210.505 36.9294 210.023 38.0862 209.067 39.0257Z" fill="#14163A"/>
<path d="M74.4904 34.8108C74.1668 34.6836 72.7857 34.4171 70.343 33.9987C68.8553 33.7486 68.1094 33.2113 68.1094 32.3829C68.1094 31.8867 68.3225 31.4601 68.7566 31.1075C69.2656 30.6891 69.9918 30.48 70.927 30.48C71.586 30.48 72.2094 30.6071 72.8013 30.8573C73.3774 31.1239 73.9615 31.5586 74.5574 32.1532L76.3687 30.439C75.0427 29.0159 73.2671 28.3023 71.0533 28.3023C69.5104 28.3023 68.204 28.7001 67.1267 29.4998C66.0534 30.2913 65.5167 31.3002 65.5167 32.5141C65.5167 34.1587 66.2626 35.2824 67.7543 35.8853C68.0226 35.996 69.4076 36.2749 71.9016 36.7219C73.3893 36.9885 74.1351 37.5339 74.1351 38.3583C74.1351 39.0103 73.8472 39.5189 73.2671 39.8839C72.6909 40.2571 71.9174 40.4457 70.9546 40.4457C70.2167 40.4457 69.5063 40.2694 68.8236 39.9249C68.1251 39.5722 67.5176 39.1129 66.9888 38.5387L65.1183 40.2981C65.9351 41.1921 66.8702 41.8647 67.9199 42.3118C68.8433 42.6973 69.8221 42.8941 70.856 42.8941C72.4541 42.8941 73.8195 42.4758 74.9402 41.6433C76.1398 40.7656 76.7357 39.6214 76.7357 38.2106C76.7357 36.5497 75.9899 35.4177 74.4983 34.8149L74.4904 34.8108Z" fill="#14163A"/>
<path d="M74.4904 34.8108C74.1668 34.6836 72.7857 34.4171 70.343 33.9987C68.8553 33.7486 68.1094 33.2113 68.1094 32.3829C68.1094 31.8867 68.3225 31.4601 68.7566 31.1075C69.2656 30.6891 69.9918 30.48 70.927 30.48C71.586 30.48 72.2094 30.6071 72.8013 30.8573C73.3774 31.1239 73.9615 31.5586 74.5574 32.1532L76.3687 30.439C75.0427 29.0159 73.2671 28.3023 71.0533 28.3023C69.5104 28.3023 68.204 28.7001 67.1267 29.4998C66.0534 30.2913 65.5167 31.3002 65.5167 32.5141C65.5167 34.1587 66.2626 35.2824 67.7543 35.8853C68.0226 35.996 69.4076 36.2749 71.9016 36.7219C73.3893 36.9885 74.1351 37.5339 74.1351 38.3583C74.1351 39.0103 73.8472 39.5189 73.2671 39.8839C72.6909 40.2571 71.9174 40.4457 70.9546 40.4457C70.2167 40.4457 69.5063 40.2694 68.8236 39.9249C68.1251 39.5722 67.5176 39.1129 66.9888 38.5387L65.1183 40.2981C65.9351 41.1921 66.8702 41.8647 67.9199 42.3118C68.8433 42.6973 69.8221 42.8941 70.856 42.8941C72.4541 42.8941 73.8195 42.4758 74.9402 41.6433C76.1398 40.7656 76.7357 39.6214 76.7357 38.2106C76.7357 36.5497 75.9899 35.4177 74.4983 34.8149L74.4904 34.8108Z" fill="#14163A"/>
<path d="M58.4576 37.1812L49.4347 28.3023V42.5988H52.0333V34.0234L61.0521 42.8941V28.5976H58.4576V37.1812Z" fill="#14163A"/>
<path d="M58.4576 37.1812L49.4347 28.3023V42.5988H52.0333V34.0234L61.0521 42.8941V28.5976H58.4576V37.1812Z" fill="#14163A"/>
<path d="M192.693 39.8609H187.318V28.3023H184.778V42.3104H195.234V36.5086H192.693V39.8609Z" fill="#14163A"/>
<path d="M192.693 39.8609H187.318V28.3023H184.778V42.3104H195.234V36.5086H192.693V39.8609Z" fill="#14163A"/>
<path d="M177.003 36.2074C177.003 37.4886 176.667 38.5061 175.99 39.2639C175.318 40.0176 174.467 40.3986 173.451 40.3986C172.434 40.3986 171.584 40.0176 170.908 39.2639C170.231 38.5103 169.895 37.4886 169.895 36.2074V28.3023H167.352V36.7643C167.352 38.4726 167.927 39.9171 169.069 41.1021C170.199 42.2996 171.661 42.8941 173.455 42.8941C175.249 42.8941 176.711 42.2954 177.857 41.1021C178.987 39.9171 179.55 38.4726 179.55 36.7643V28.3023H177.003V36.2074Z" fill="#14163A"/>
<path d="M177.003 36.2074C177.003 37.4886 176.667 38.5061 175.99 39.2639C175.318 40.0176 174.467 40.3986 173.451 40.3986C172.434 40.3986 171.584 40.0176 170.908 39.2639C170.231 38.5103 169.895 37.4886 169.895 36.2074V28.3023H167.352V36.7643C167.352 38.4726 167.927 39.9171 169.069 41.1021C170.199 42.2996 171.661 42.8941 173.455 42.8941C175.249 42.8941 176.711 42.2954 177.857 41.1021C178.987 39.9171 179.55 38.4726 179.55 36.7643V28.3023H177.003V36.2074Z" fill="#14163A"/>
</svg>
