<svg width="60" height="94" viewBox="0 0 60 94" fill="none" xmlns="http://www.w3.org/2000/svg">
<path d="M11.5612 17.4712L15.1813 15.0271L18.7418 17.5388L17.535 13.3473L21.0238 10.7361L16.6747 10.5888L15.249 6.44904L13.7675 10.553L9.40638 10.6286L12.8434 13.2996L11.5612 17.4712Z" fill="#14163A"/>
<path d="M11.5612 17.4712L15.1813 15.0271L18.7418 17.5388L17.535 13.3473L21.0238 10.7361L16.6747 10.5888L15.249 6.44904L13.7675 10.553L9.40638 10.6286L12.8434 13.2996L11.5612 17.4712Z" fill="#14163A"/>
<path d="M40.7113 17.4672L44.5033 15.0271L48.2329 17.5388L46.9856 13.3513L50.6483 10.7321L46.0678 10.5689L44.5951 6.44904L43.0308 10.553L38.4501 10.6087L42.0546 13.2956L40.7113 17.4672Z" fill="#14163A"/>
<path d="M40.7113 17.4672L44.5033 15.0271L48.2329 17.5388L46.9856 13.3513L50.6483 10.7321L46.0678 10.5689L44.5951 6.44904L43.0308 10.553L38.4501 10.6087L42.0546 13.2956L40.7113 17.4672Z" fill="#14163A"/>
<path d="M26.0778 12.2103L29.6892 9.64091L33.2532 12.2858L32.0653 7.86789L35.5457 5.10984L31.1912 4.94637L29.7848 0.612305L28.2868 4.92961L23.9282 4.9799L27.3571 7.81759L26.0778 12.2103Z" fill="#14163A"/>
<path d="M26.0778 12.2103L29.6892 9.64091L33.2532 12.2858L32.0653 7.86789L35.5457 5.10984L31.1912 4.94637L29.7848 0.612305L28.2868 4.92961L23.9282 4.9799L27.3571 7.81759L26.0778 12.2103Z" fill="#14163A"/>
<path d="M13.5974 41.8843C13.3742 42.2554 13.1425 42.4809 12.9108 42.5467C12.7254 42.5984 12.5275 42.5514 12.3169 42.4152C12.3464 42.3682 12.38 42.3212 12.4137 42.2695H12.4094L13.7366 40.1695L13.4417 39.9392L12.0261 42.1944C11.8913 42.387 11.7482 42.5044 11.6007 42.5514C11.4828 42.5843 11.3522 42.5561 11.209 42.4715L12.3759 40.6205L12.0851 40.3903L10.792 42.4339C10.6909 42.5796 10.5897 42.683 10.4844 42.7534C10.3959 42.8051 10.2991 42.8239 10.2064 42.8192C10.1306 42.946 10.0589 43.0635 9.98731 43.181L10.0758 43.1997C10.278 43.2467 10.4718 43.2138 10.6571 43.1011C10.7709 43.0306 10.8804 42.9272 10.9899 42.7957C11.2258 42.9554 11.4617 43.0024 11.6892 42.9366C11.824 42.8991 11.9503 42.8239 12.0682 42.7205C12.3884 42.9507 12.696 43.0259 12.9993 42.9366C13.3236 42.8427 13.627 42.5749 13.9008 42.1192L15.2151 39.9439L14.9202 39.7184L13.606 41.8937L13.5974 41.8843Z" fill="#14163A"/>
<path d="M13.5974 41.8843C13.3742 42.2554 13.1425 42.4809 12.9108 42.5467C12.7254 42.5984 12.5275 42.5514 12.3169 42.4152C12.3464 42.3682 12.38 42.3212 12.4137 42.2695H12.4094L13.7366 40.1695L13.4417 39.9392L12.0261 42.1944C11.8913 42.387 11.7482 42.5044 11.6007 42.5514C11.4828 42.5843 11.3522 42.5561 11.209 42.4715L12.3759 40.6205L12.0851 40.3903L10.792 42.4339C10.6909 42.5796 10.5897 42.683 10.4844 42.7534C10.3959 42.8051 10.2991 42.8239 10.2064 42.8192C10.1306 42.946 10.0589 43.0635 9.98731 43.181L10.0758 43.1997C10.278 43.2467 10.4718 43.2138 10.6571 43.1011C10.7709 43.0306 10.8804 42.9272 10.9899 42.7957C11.2258 42.9554 11.4617 43.0024 11.6892 42.9366C11.824 42.8991 11.9503 42.8239 12.0682 42.7205C12.3884 42.9507 12.696 43.0259 12.9993 42.9366C13.3236 42.8427 13.627 42.5749 13.9008 42.1192L15.2151 39.9439L14.9202 39.7184L13.606 41.8937L13.5974 41.8843Z" fill="#14163A"/>
<path d="M11.834 33.8213C13.0821 34.0174 14.4034 33.7395 15.5051 32.9345C16.6069 32.1253 17.2818 30.9442 17.4769 29.6937C17.6761 28.439 17.3956 27.1108 16.5947 26.0033C15.7938 24.8917 14.6229 24.2133 13.3748 24.0212C12.1267 23.821 10.8015 24.103 9.69972 24.9081H9.70362C8.60188 25.7132 7.92716 26.8902 7.72389 28.1448C7.52874 29.3994 7.80515 30.7317 8.61012 31.8433C9.41102 32.9467 10.5817 33.6251 11.8298 33.8254L11.834 33.8213ZM14.2083 32.7465L14.0253 33.3104C13.326 33.5352 12.5942 33.5924 11.8869 33.478C11.5494 33.4249 11.2121 33.3268 10.8909 33.2042L10.7527 32.7792L10.4478 31.8596L11.5535 30.3761H13.44L14.505 31.8433L14.2083 32.7505V32.7465ZM16.8264 28.3369L17.1884 28.6025C17.2128 28.9458 17.1924 29.2972 17.1436 29.6446C17.0297 30.3557 16.7531 31.0423 16.3181 31.639H14.7815L13.7245 30.1677L14.0172 29.2645L14.3141 28.345L16.0744 27.7892L16.8306 28.341L16.8264 28.3369ZM12.9276 25.0388L13.688 24.4871L13.7409 24.4463C14.741 24.7037 15.6676 25.3045 16.3181 26.2118L16.3467 26.2444L16.2492 26.5428L15.9524 27.4582L14.1838 28.014L13.4359 27.4664L12.6675 26.9106L12.9236 25.0348L12.9276 25.0388ZM9.90699 25.186C10.4558 24.7855 11.0616 24.5239 11.6918 24.3972L11.8057 24.483L12.578 25.0388L12.322 26.9024L11.5576 27.4664L10.8096 28.014L8.9557 27.6993L8.65895 26.7839L8.61427 26.645C8.92731 26.0892 9.36218 25.5865 9.91102 25.186H9.90699ZM8.02467 28.6188L8.07752 28.5862L8.83375 28.0344L10.6795 28.3491L10.9763 29.2645L11.2691 30.18L10.1591 31.6676H8.9192C8.9192 31.6676 8.90279 31.643 8.89466 31.6349C8.23606 30.7276 7.95555 29.6651 8.02467 28.6229V28.6188Z" fill="#14163A"/>
<path d="M11.834 33.8213C13.0821 34.0174 14.4034 33.7395 15.5051 32.9345C16.6069 32.1253 17.2818 30.9442 17.4769 29.6937C17.6761 28.439 17.3956 27.1108 16.5947 26.0033C15.7938 24.8917 14.6229 24.2133 13.3748 24.0212C12.1267 23.821 10.8015 24.103 9.69972 24.9081H9.70362C8.60188 25.7132 7.92716 26.8902 7.72389 28.1448C7.52874 29.3994 7.80515 30.7317 8.61012 31.8433C9.41102 32.9467 10.5817 33.6251 11.8298 33.8254L11.834 33.8213ZM14.2083 32.7465L14.0253 33.3104C13.326 33.5352 12.5942 33.5924 11.8869 33.478C11.5494 33.4249 11.2121 33.3268 10.8909 33.2042L10.7527 32.7792L10.4478 31.8596L11.5535 30.3761H13.44L14.505 31.8433L14.2083 32.7505V32.7465ZM16.8264 28.3369L17.1884 28.6025C17.2128 28.9458 17.1924 29.2972 17.1436 29.6446C17.0297 30.3557 16.7531 31.0423 16.3181 31.639H14.7815L13.7245 30.1677L14.0172 29.2645L14.3141 28.345L16.0744 27.7892L16.8306 28.341L16.8264 28.3369ZM12.9276 25.0388L13.688 24.4871L13.7409 24.4463C14.741 24.7037 15.6676 25.3045 16.3181 26.2118L16.3467 26.2444L16.2492 26.5428L15.9524 27.4582L14.1838 28.014L13.4359 27.4664L12.6675 26.9106L12.9236 25.0348L12.9276 25.0388ZM9.90699 25.186C10.4558 24.7855 11.0616 24.5239 11.6918 24.3972L11.8057 24.483L12.578 25.0388L12.322 26.9024L11.5576 27.4664L10.8096 28.014L8.9557 27.6993L8.65895 26.7839L8.61427 26.645C8.92731 26.0892 9.36218 25.5865 9.91102 25.186H9.90699ZM8.02467 28.6188L8.07752 28.5862L8.83375 28.0344L10.6795 28.3491L10.9763 29.2645L11.2691 30.18L10.1591 31.6676H8.9192C8.9192 31.6676 8.90279 31.643 8.89466 31.6349C8.23606 30.7276 7.95555 29.6651 8.02467 28.6229V28.6188Z" fill="#14163A"/>
<path d="M27.4974 39.7329C27.1159 39.7859 26.6184 40.0385 25.9581 40.4703L24.509 41.4848L25.8254 43.2205L27.2916 42.2304C27.8447 41.8515 28.2392 41.4685 28.4321 41.1059C28.6251 40.7392 28.625 40.4133 28.4192 40.1525C28.1705 39.8266 27.8662 39.6759 27.4974 39.7288V39.7329Z" fill="#14163A"/>
<path d="M27.4974 39.7329C27.1159 39.7859 26.6184 40.0385 25.9581 40.4703L24.509 41.4848L25.8254 43.2205L27.2916 42.2304C27.8447 41.8515 28.2392 41.4685 28.4321 41.1059C28.6251 40.7392 28.625 40.4133 28.4192 40.1525C28.1705 39.8266 27.8662 39.6759 27.4974 39.7288V39.7329Z" fill="#14163A"/>
<path d="M18.7003 31.6023C18.7003 31.6995 18.7003 31.8826 18.7003 32.0141C18.7003 32.14 18.7003 32.1686 18.7003 32.077C18.7003 31.9798 18.7003 31.7968 18.7003 31.6652C18.7003 31.5336 18.7003 31.5108 18.7003 31.6023Z" fill="#14163A"/>
<path d="M18.7003 31.6023C18.7003 31.6995 18.7003 31.8826 18.7003 32.0141C18.7003 32.14 18.7003 32.1686 18.7003 32.077C18.7003 31.9798 18.7003 31.7968 18.7003 31.6652C18.7003 31.5336 18.7003 31.5108 18.7003 31.6023Z" fill="#14163A"/>
<path d="M31.0614 30.8142C30.8462 31.0793 30.582 31.3322 30.2774 31.5483C29.9728 31.7726 29.6562 31.9439 29.3353 32.0703C29.0023 32.2008 28.6733 32.2824 28.3524 32.315L28.202 32.3273L28.1411 32.4659C28.0152 32.7636 27.8325 33.0573 27.6091 33.3305C27.3939 33.5956 27.1299 33.8403 26.8253 34.0646C26.5207 34.2807 26.204 34.4602 25.8872 34.5866C25.7207 34.6478 25.5621 34.7008 25.3997 34.7416C25.6149 34.5581 25.81 34.3623 25.9887 34.1584C26.6019 33.4284 26.9471 32.5353 26.8456 31.426C26.8293 31.1976 26.8578 31.0018 26.9187 30.8102C26.9878 30.6103 27.0974 30.4146 27.2152 30.2066C27.3127 30.0353 27.3168 29.9211 27.2274 29.8395C27.1421 29.7702 27.0326 29.7865 26.8864 29.8681C26.4599 30.0965 25.814 30.2637 25.1113 30.4431C23.4218 30.8713 21.4197 31.3852 20.9851 33.1837C20.8186 33.0695 20.6723 32.9105 20.5342 32.7065C20.3352 32.4088 20.1727 32.0295 20.0549 31.6013C19.8844 30.9855 19.3971 30.7 18.8894 30.6552C18.7026 30.6389 18.5077 30.6552 18.329 30.7C18.1462 30.7531 17.9796 30.8387 17.8416 30.9447C17.5898 31.1446 17.4475 31.4382 17.5044 31.7889C17.4354 31.8175 17.3746 31.8583 17.3218 31.9031C17.2365 31.9847 17.1714 32.0826 17.1349 32.1886L16.5988 32.4659C16.5054 32.5108 16.4444 32.576 16.4038 32.6495C16.3632 32.7188 16.347 32.8003 16.3511 32.8778C16.3551 32.9472 16.3795 33.0165 16.412 33.0777C16.4729 33.1919 16.5825 33.2938 16.6921 33.3591L16.7531 33.3917L16.8222 33.3672L16.9237 33.3387C17.1918 33.2571 17.7197 33.0981 18.0852 33.1144C18.6579 33.1307 18.8813 34.0442 19.0397 34.713C19.0803 34.9006 19.121 35.0679 19.1657 35.2065C19.2956 35.6062 19.4904 35.9284 19.726 36.169C20.0509 36.5075 20.4572 36.7032 20.8917 36.7766C21.3263 36.846 21.7812 36.8011 22.2279 36.6502C22.7234 36.4912 23.2066 36.2016 23.6006 35.8223C23.9093 35.6837 24.2057 35.5287 24.486 35.3656C24.3885 35.5246 24.2789 35.6796 24.1611 35.8305C23.9459 36.0956 23.6817 36.3403 23.3771 36.5646C23.0684 36.7889 22.7559 36.9602 22.4351 37.0866C22.1102 37.2171 21.7769 37.2987 21.4561 37.3272L21.3018 37.3435L21.245 37.4822C21.115 37.7799 20.9363 38.0654 20.7129 38.3427C20.4976 38.6078 20.2337 38.8525 19.9251 39.0768C19.6205 39.3011 19.3077 39.4724 18.9868 39.5988C18.6619 39.7293 18.3289 39.8109 18.0081 39.8394L17.8538 39.8557L17.7969 39.9944C17.6669 40.2921 17.4883 40.5857 17.2609 40.8549C17.0456 41.12 16.7817 41.3728 16.4771 41.589C16.1725 41.8133 15.8555 41.9846 15.5387 42.111C15.36 42.1844 15.1773 42.2374 15.0027 42.2823C15.2464 42.0661 15.4818 41.8296 15.7052 41.5767C16.1845 41.3116 16.6069 40.9446 16.9115 40.5286C17.1917 40.1453 17.3786 39.7211 17.4436 39.2888C17.5127 38.8484 17.4558 38.3998 17.2324 37.9879C17.0781 37.6902 16.8344 37.4047 16.4973 37.1559C16.3755 37.0703 16.2292 36.9765 16.0668 36.8786C15.4779 36.5156 14.6859 36.0303 14.8402 35.4716C14.9418 35.1209 15.2586 34.6641 15.417 34.4316L15.5145 34.2848L15.5023 34.2155C15.478 34.0891 15.4129 33.9586 15.3195 33.8607C15.2748 33.8077 15.2099 33.7669 15.1489 33.7383C15.0799 33.7098 14.9986 33.6976 14.9214 33.7139C14.8442 33.7302 14.7631 33.771 14.6859 33.8403L14.2554 34.2685C14.1417 34.2726 14.0279 34.3011 13.9304 34.3582C13.8695 34.3909 13.8086 34.4439 13.7599 34.501C13.4472 34.3338 13.1263 34.3786 12.8583 34.5581C12.7161 34.6559 12.5823 34.7864 12.4807 34.9496C12.3792 35.1045 12.3019 35.284 12.2572 35.4716C12.1435 35.9651 12.2693 36.5197 12.7932 36.8704C13.1709 37.1151 13.4717 37.3924 13.6951 37.6738C13.8453 37.8696 13.9468 38.0572 14.0077 38.253C12.1679 38.1102 11.0672 39.8639 10.1331 41.3443C9.74318 41.9601 9.38972 42.5188 9.03639 42.8573C8.91455 42.9797 8.87004 43.0734 8.91065 43.1795C8.95533 43.2896 9.06495 43.3222 9.2599 43.2814C9.49546 43.2284 9.71085 43.1876 9.91798 43.1836C10.117 43.1836 10.3159 43.2121 10.5311 43.3059C11.5424 43.7423 12.5009 43.6893 13.3822 43.3304C13.634 43.2284 13.8737 43.102 14.1133 42.9511C14.028 43.0898 13.9263 43.2284 13.8167 43.363C13.6014 43.6281 13.3374 43.8728 13.0328 44.0971C12.7282 44.3132 12.4114 44.4927 12.0946 44.6191C11.7616 44.7455 11.4327 44.8271 11.1118 44.8597L10.9617 44.872L10.9008 45.0147C10.7749 45.3083 10.592 45.602 10.3687 45.8752C10.1534 46.1403 9.88945 46.385 9.58485 46.6093C9.28025 46.8336 8.9634 47.0049 8.64662 47.1313C8.31358 47.2618 7.98468 47.3434 7.66383 47.3719L7.71656 47.8899C8.08209 47.8572 8.4597 47.7634 8.83741 47.6125C9.19887 47.4698 9.55638 47.274 9.88941 47.0293C10.2265 46.7887 10.5188 46.5073 10.7706 46.2096C10.9859 45.9364 11.1687 45.655 11.315 45.3614C11.6358 45.3165 11.9606 45.2308 12.2855 45.1044C12.647 44.9617 13.0045 44.7659 13.3375 44.5212C13.6746 44.2806 13.967 43.9992 14.2188 43.6933C14.4421 43.4242 14.625 43.1387 14.7631 42.8491C15.0839 42.8043 15.4129 42.7186 15.7338 42.5841C16.0993 42.4413 16.4526 42.2496 16.7897 42.005C17.1227 41.7603 17.4192 41.4829 17.6629 41.1771C17.8862 40.9079 18.0689 40.6224 18.2111 40.3288C18.5238 40.288 18.857 40.2024 19.1819 40.0719C19.5434 39.9291 19.8966 39.7334 20.2337 39.4927C20.5667 39.2481 20.8633 38.9667 21.1069 38.6649C21.3303 38.3957 21.5131 38.1102 21.6553 37.8166C21.9761 37.7717 22.3011 37.6861 22.626 37.5597C22.9874 37.4169 23.3407 37.2212 23.6777 36.9724C24.0148 36.7318 24.3072 36.4504 24.5509 36.1527C24.7743 35.8753 24.957 35.598 25.0991 35.3044C25.42 35.2595 25.745 35.1739 26.07 35.0475C26.4314 34.9047 26.7887 34.709 27.1217 34.4643C27.4588 34.2196 27.7514 33.9423 28.0032 33.6364C28.2266 33.3672 28.4092 33.0817 28.5473 32.7922C28.8681 32.7473 29.193 32.6617 29.518 32.5271C29.8835 32.3844 30.245 32.1927 30.574 31.948C30.9111 31.7033 31.2076 31.4219 31.4553 31.1201C31.7112 30.8102 31.9183 30.4757 32.0604 30.1332L31.5852 29.9252C31.4593 30.2229 31.2807 30.5165 31.0532 30.7857L31.0614 30.8142ZM13.2562 43.0367C12.4561 43.363 11.5951 43.4079 10.6691 43.0123C10.4132 42.9022 10.1656 42.8614 9.92188 42.8695C9.7838 42.8695 9.64164 42.8859 9.50355 42.9103C9.80815 42.5555 10.1088 42.0743 10.4337 41.5563C11.3475 40.1004 12.4399 38.359 14.2025 38.6526L14.4259 38.6853C14.3691 38.1796 14.296 37.9063 13.9671 37.4862C13.7274 37.1763 13.3902 36.8704 12.9882 36.6094C12.5983 36.3525 12.509 35.9365 12.5942 35.5695C12.6267 35.4267 12.6877 35.284 12.7649 35.1617C12.8461 35.0393 12.9435 34.9455 13.0451 34.8762C13.2441 34.7457 13.4837 34.7253 13.707 34.9006L13.7192 34.9129C13.7192 34.9863 13.7315 35.0678 13.7599 35.1413C13.8127 35.2799 13.9102 35.3982 14.032 35.4798C14.0564 35.4961 14.0726 35.5042 14.0889 35.5124C14.0929 35.5165 14.1336 35.5368 14.158 35.545C14.162 35.5042 14.1742 35.4594 14.1864 35.4145C14.1986 35.3859 14.2025 35.3533 14.2147 35.3166C14.1985 35.3125 14.1823 35.3003 14.158 35.2881C14.0767 35.231 14.0076 35.1453 13.9751 35.0597C13.9182 34.917 13.963 34.762 14.1011 34.6804C14.1255 34.6682 14.1539 34.6559 14.1742 34.6519C14.1864 34.713 14.2188 34.7742 14.2716 34.8232C14.2879 34.8395 14.3122 34.8558 14.3325 34.868C14.3366 34.8803 14.3855 34.9006 14.4017 34.9129C14.4424 34.8435 14.4748 34.7742 14.5154 34.713C14.5032 34.709 14.4707 34.6845 14.4625 34.6804C14.4503 34.6763 14.4382 34.6682 14.4301 34.6559C14.4179 34.6437 14.4138 34.6396 14.4056 34.6274L14.9214 34.1095C14.9458 34.085 14.9661 34.0768 14.9783 34.0687C14.9905 34.0687 15.0026 34.0687 15.0108 34.0728C15.027 34.0768 15.0432 34.0972 15.0635 34.1135C15.096 34.1462 15.1205 34.1869 15.1367 34.2277L15.1245 34.2522C14.9539 34.4969 14.621 34.9822 14.5032 35.386C14.2757 36.1934 15.2018 36.7685 15.88 37.1804C16.0384 37.2783 16.1846 37.368 16.2861 37.4455C16.5826 37.6575 16.7898 37.9063 16.9279 38.1551C17.1106 38.4977 17.1551 38.8729 17.0983 39.244C17.0414 39.6151 16.875 39.9903 16.6354 40.3288C16.3511 40.7203 15.9613 41.0588 15.5145 41.2913L15.486 41.3076L15.4697 41.332C14.7996 42.0702 14.0605 42.6901 13.2482 43.0245L13.2562 43.0367ZM23.4381 35.5368L23.4098 35.5491L23.3854 35.5654C23.0199 35.9202 22.5813 36.1853 22.1223 36.3403C21.7324 36.4667 21.3262 36.5115 20.9525 36.4504C20.587 36.3892 20.25 36.2261 19.9819 35.9447C19.7748 35.7367 19.6163 35.4634 19.5026 35.1168C19.462 34.9944 19.4215 34.8313 19.3768 34.6478C19.1941 33.8729 18.9422 32.8126 18.1014 32.7759C17.6791 32.7636 17.1187 32.9308 16.8344 33.0165H16.8099C16.7775 32.992 16.7409 32.9594 16.7206 32.9186C16.7084 32.8941 16.7044 32.8737 16.7044 32.8574C16.7003 32.8452 16.7044 32.833 16.7085 32.8248C16.7126 32.8126 16.7328 32.7963 16.7612 32.78L17.4111 32.4537C17.4111 32.4537 17.4232 32.47 17.4273 32.4822C17.4313 32.4945 17.4396 32.5067 17.4436 32.523C17.4436 32.5271 17.4477 32.5679 17.4558 32.5801C17.5289 32.5638 17.606 32.5475 17.6791 32.5353C17.675 32.5108 17.6669 32.4659 17.6629 32.4537C17.6588 32.4251 17.6467 32.4007 17.6345 32.3803C17.6061 32.3191 17.5613 32.2661 17.5044 32.2375C17.5166 32.2131 17.5371 32.1927 17.5574 32.1764C17.6792 32.0744 17.8335 32.0785 17.9513 32.1723C18.0244 32.2335 18.0893 32.3232 18.1096 32.4251C18.1137 32.4415 18.1217 32.4659 18.1217 32.4863H18.2233C18.268 32.4863 18.3168 32.4904 18.3615 32.4986C18.3574 32.47 18.3493 32.4374 18.3493 32.4251C18.3452 32.4007 18.3371 32.3844 18.333 32.364C18.2924 32.2212 18.2071 32.0866 18.0974 31.9969C18.0365 31.9439 17.9593 31.9113 17.8862 31.8868V31.8746C17.7888 31.6013 17.8823 31.3811 18.0651 31.2302C18.1625 31.1487 18.2883 31.0875 18.4264 31.0508C18.5645 31.01 18.7188 30.9937 18.865 31.01C19.2346 31.0426 19.6001 31.2547 19.726 31.7033C19.8519 32.1723 20.0347 32.5883 20.2581 32.9145C20.5505 33.3509 20.7901 33.51 21.245 33.7179L21.2775 33.4936C21.5536 31.7155 23.5356 31.2098 25.1967 30.7857C25.7856 30.6348 26.3339 30.5002 26.7684 30.3167C26.7075 30.4472 26.6426 30.5736 26.5979 30.7082C26.5167 30.9447 26.4841 31.1854 26.5044 31.4708C26.5978 32.47 26.281 33.2856 25.7286 33.9422C25.1641 34.6152 24.3397 35.1372 23.4381 35.5409V35.5368Z" fill="#14163A"/>
<path d="M31.0614 30.8142C30.8462 31.0793 30.582 31.3322 30.2774 31.5483C29.9728 31.7726 29.6562 31.9439 29.3353 32.0703C29.0023 32.2008 28.6733 32.2824 28.3524 32.315L28.202 32.3273L28.1411 32.4659C28.0152 32.7636 27.8325 33.0573 27.6091 33.3305C27.3939 33.5956 27.1299 33.8403 26.8253 34.0646C26.5207 34.2807 26.204 34.4602 25.8872 34.5866C25.7207 34.6478 25.5621 34.7008 25.3997 34.7416C25.6149 34.5581 25.81 34.3623 25.9887 34.1584C26.6019 33.4284 26.9471 32.5353 26.8456 31.426C26.8293 31.1976 26.8578 31.0018 26.9187 30.8102C26.9878 30.6103 27.0974 30.4146 27.2152 30.2066C27.3127 30.0353 27.3168 29.9211 27.2274 29.8395C27.1421 29.7702 27.0326 29.7865 26.8864 29.8681C26.4599 30.0965 25.814 30.2637 25.1113 30.4431C23.4218 30.8713 21.4197 31.3852 20.9851 33.1837C20.8186 33.0695 20.6723 32.9105 20.5342 32.7065C20.3352 32.4088 20.1727 32.0295 20.0549 31.6013C19.8844 30.9855 19.3971 30.7 18.8894 30.6552C18.7026 30.6389 18.5077 30.6552 18.329 30.7C18.1462 30.7531 17.9796 30.8387 17.8416 30.9447C17.5898 31.1446 17.4475 31.4382 17.5044 31.7889C17.4354 31.8175 17.3746 31.8583 17.3218 31.9031C17.2365 31.9847 17.1714 32.0826 17.1349 32.1886L16.5988 32.4659C16.5054 32.5108 16.4444 32.576 16.4038 32.6495C16.3632 32.7188 16.347 32.8003 16.3511 32.8778C16.3551 32.9472 16.3795 33.0165 16.412 33.0777C16.4729 33.1919 16.5825 33.2938 16.6921 33.3591L16.7531 33.3917L16.8222 33.3672L16.9237 33.3387C17.1918 33.2571 17.7197 33.0981 18.0852 33.1144C18.6579 33.1307 18.8813 34.0442 19.0397 34.713C19.0803 34.9006 19.121 35.0679 19.1657 35.2065C19.2956 35.6062 19.4904 35.9284 19.726 36.169C20.0509 36.5075 20.4572 36.7032 20.8917 36.7766C21.3263 36.846 21.7812 36.8011 22.2279 36.6502C22.7234 36.4912 23.2066 36.2016 23.6006 35.8223C23.9093 35.6837 24.2057 35.5287 24.486 35.3656C24.3885 35.5246 24.2789 35.6796 24.1611 35.8305C23.9459 36.0956 23.6817 36.3403 23.3771 36.5646C23.0684 36.7889 22.7559 36.9602 22.4351 37.0866C22.1102 37.2171 21.7769 37.2987 21.4561 37.3272L21.3018 37.3435L21.245 37.4822C21.115 37.7799 20.9363 38.0654 20.7129 38.3427C20.4976 38.6078 20.2337 38.8525 19.9251 39.0768C19.6205 39.3011 19.3077 39.4724 18.9868 39.5988C18.6619 39.7293 18.3289 39.8109 18.0081 39.8394L17.8538 39.8557L17.7969 39.9944C17.6669 40.2921 17.4883 40.5857 17.2609 40.8549C17.0456 41.12 16.7817 41.3728 16.4771 41.589C16.1725 41.8133 15.8555 41.9846 15.5387 42.111C15.36 42.1844 15.1773 42.2374 15.0027 42.2823C15.2464 42.0661 15.4818 41.8296 15.7052 41.5767C16.1845 41.3116 16.6069 40.9446 16.9115 40.5286C17.1917 40.1453 17.3786 39.7211 17.4436 39.2888C17.5127 38.8484 17.4558 38.3998 17.2324 37.9879C17.0781 37.6902 16.8344 37.4047 16.4973 37.1559C16.3755 37.0703 16.2292 36.9765 16.0668 36.8786C15.4779 36.5156 14.6859 36.0303 14.8402 35.4716C14.9418 35.1209 15.2586 34.6641 15.417 34.4316L15.5145 34.2848L15.5023 34.2155C15.478 34.0891 15.4129 33.9586 15.3195 33.8607C15.2748 33.8077 15.2099 33.7669 15.1489 33.7383C15.0799 33.7098 14.9986 33.6976 14.9214 33.7139C14.8442 33.7302 14.7631 33.771 14.6859 33.8403L14.2554 34.2685C14.1417 34.2726 14.0279 34.3011 13.9304 34.3582C13.8695 34.3909 13.8086 34.4439 13.7599 34.501C13.4472 34.3338 13.1263 34.3786 12.8583 34.5581C12.7161 34.6559 12.5823 34.7864 12.4807 34.9496C12.3792 35.1045 12.3019 35.284 12.2572 35.4716C12.1435 35.9651 12.2693 36.5197 12.7932 36.8704C13.1709 37.1151 13.4717 37.3924 13.6951 37.6738C13.8453 37.8696 13.9468 38.0572 14.0077 38.253C12.1679 38.1102 11.0672 39.8639 10.1331 41.3443C9.74318 41.9601 9.38972 42.5188 9.03639 42.8573C8.91455 42.9797 8.87004 43.0734 8.91065 43.1795C8.95533 43.2896 9.06495 43.3222 9.2599 43.2814C9.49546 43.2284 9.71085 43.1876 9.91798 43.1836C10.117 43.1836 10.3159 43.2121 10.5311 43.3059C11.5424 43.7423 12.5009 43.6893 13.3822 43.3304C13.634 43.2284 13.8737 43.102 14.1133 42.9511C14.028 43.0898 13.9263 43.2284 13.8167 43.363C13.6014 43.6281 13.3374 43.8728 13.0328 44.0971C12.7282 44.3132 12.4114 44.4927 12.0946 44.6191C11.7616 44.7455 11.4327 44.8271 11.1118 44.8597L10.9617 44.872L10.9008 45.0147C10.7749 45.3083 10.592 45.602 10.3687 45.8752C10.1534 46.1403 9.88945 46.385 9.58485 46.6093C9.28025 46.8336 8.9634 47.0049 8.64662 47.1313C8.31358 47.2618 7.98468 47.3434 7.66383 47.3719L7.71656 47.8899C8.08209 47.8572 8.4597 47.7634 8.83741 47.6125C9.19887 47.4698 9.55638 47.274 9.88941 47.0293C10.2265 46.7887 10.5188 46.5073 10.7706 46.2096C10.9859 45.9364 11.1687 45.655 11.315 45.3614C11.6358 45.3165 11.9606 45.2308 12.2855 45.1044C12.647 44.9617 13.0045 44.7659 13.3375 44.5212C13.6746 44.2806 13.967 43.9992 14.2188 43.6933C14.4421 43.4242 14.625 43.1387 14.7631 42.8491C15.0839 42.8043 15.4129 42.7186 15.7338 42.5841C16.0993 42.4413 16.4526 42.2496 16.7897 42.005C17.1227 41.7603 17.4192 41.4829 17.6629 41.1771C17.8862 40.9079 18.0689 40.6224 18.2111 40.3288C18.5238 40.288 18.857 40.2024 19.1819 40.0719C19.5434 39.9291 19.8966 39.7334 20.2337 39.4927C20.5667 39.2481 20.8633 38.9667 21.1069 38.6649C21.3303 38.3957 21.5131 38.1102 21.6553 37.8166C21.9761 37.7717 22.3011 37.6861 22.626 37.5597C22.9874 37.4169 23.3407 37.2212 23.6777 36.9724C24.0148 36.7318 24.3072 36.4504 24.5509 36.1527C24.7743 35.8753 24.957 35.598 25.0991 35.3044C25.42 35.2595 25.745 35.1739 26.07 35.0475C26.4314 34.9047 26.7887 34.709 27.1217 34.4643C27.4588 34.2196 27.7514 33.9423 28.0032 33.6364C28.2266 33.3672 28.4092 33.0817 28.5473 32.7922C28.8681 32.7473 29.193 32.6617 29.518 32.5271C29.8835 32.3844 30.245 32.1927 30.574 31.948C30.9111 31.7033 31.2076 31.4219 31.4553 31.1201C31.7112 30.8102 31.9183 30.4757 32.0604 30.1332L31.5852 29.9252C31.4593 30.2229 31.2807 30.5165 31.0532 30.7857L31.0614 30.8142ZM13.2562 43.0367C12.4561 43.363 11.5951 43.4079 10.6691 43.0123C10.4132 42.9022 10.1656 42.8614 9.92188 42.8695C9.7838 42.8695 9.64164 42.8859 9.50355 42.9103C9.80815 42.5555 10.1088 42.0743 10.4337 41.5563C11.3475 40.1004 12.4399 38.359 14.2025 38.6526L14.4259 38.6853C14.3691 38.1796 14.296 37.9063 13.9671 37.4862C13.7274 37.1763 13.3902 36.8704 12.9882 36.6094C12.5983 36.3525 12.509 35.9365 12.5942 35.5695C12.6267 35.4267 12.6877 35.284 12.7649 35.1617C12.8461 35.0393 12.9435 34.9455 13.0451 34.8762C13.2441 34.7457 13.4837 34.7253 13.707 34.9006L13.7192 34.9129C13.7192 34.9863 13.7315 35.0678 13.7599 35.1413C13.8127 35.2799 13.9102 35.3982 14.032 35.4798C14.0564 35.4961 14.0726 35.5042 14.0889 35.5124C14.0929 35.5165 14.1336 35.5368 14.158 35.545C14.162 35.5042 14.1742 35.4594 14.1864 35.4145C14.1986 35.3859 14.2025 35.3533 14.2147 35.3166C14.1985 35.3125 14.1823 35.3003 14.158 35.2881C14.0767 35.231 14.0076 35.1453 13.9751 35.0597C13.9182 34.917 13.963 34.762 14.1011 34.6804C14.1255 34.6682 14.1539 34.6559 14.1742 34.6519C14.1864 34.713 14.2188 34.7742 14.2716 34.8232C14.2879 34.8395 14.3122 34.8558 14.3325 34.868C14.3366 34.8803 14.3855 34.9006 14.4017 34.9129C14.4424 34.8435 14.4748 34.7742 14.5154 34.713C14.5032 34.709 14.4707 34.6845 14.4625 34.6804C14.4503 34.6763 14.4382 34.6682 14.4301 34.6559C14.4179 34.6437 14.4138 34.6396 14.4056 34.6274L14.9214 34.1095C14.9458 34.085 14.9661 34.0768 14.9783 34.0687C14.9905 34.0687 15.0026 34.0687 15.0108 34.0728C15.027 34.0768 15.0432 34.0972 15.0635 34.1135C15.096 34.1462 15.1205 34.1869 15.1367 34.2277L15.1245 34.2522C14.9539 34.4969 14.621 34.9822 14.5032 35.386C14.2757 36.1934 15.2018 36.7685 15.88 37.1804C16.0384 37.2783 16.1846 37.368 16.2861 37.4455C16.5826 37.6575 16.7898 37.9063 16.9279 38.1551C17.1106 38.4977 17.1551 38.8729 17.0983 39.244C17.0414 39.6151 16.875 39.9903 16.6354 40.3288C16.3511 40.7203 15.9613 41.0588 15.5145 41.2913L15.486 41.3076L15.4697 41.332C14.7996 42.0702 14.0605 42.6901 13.2482 43.0245L13.2562 43.0367ZM23.4381 35.5368L23.4098 35.5491L23.3854 35.5654C23.0199 35.9202 22.5813 36.1853 22.1223 36.3403C21.7324 36.4667 21.3262 36.5115 20.9525 36.4504C20.587 36.3892 20.25 36.2261 19.9819 35.9447C19.7748 35.7367 19.6163 35.4634 19.5026 35.1168C19.462 34.9944 19.4215 34.8313 19.3768 34.6478C19.1941 33.8729 18.9422 32.8126 18.1014 32.7759C17.6791 32.7636 17.1187 32.9308 16.8344 33.0165H16.8099C16.7775 32.992 16.7409 32.9594 16.7206 32.9186C16.7084 32.8941 16.7044 32.8737 16.7044 32.8574C16.7003 32.8452 16.7044 32.833 16.7085 32.8248C16.7126 32.8126 16.7328 32.7963 16.7612 32.78L17.4111 32.4537C17.4111 32.4537 17.4232 32.47 17.4273 32.4822C17.4313 32.4945 17.4396 32.5067 17.4436 32.523C17.4436 32.5271 17.4477 32.5679 17.4558 32.5801C17.5289 32.5638 17.606 32.5475 17.6791 32.5353C17.675 32.5108 17.6669 32.4659 17.6629 32.4537C17.6588 32.4251 17.6467 32.4007 17.6345 32.3803C17.6061 32.3191 17.5613 32.2661 17.5044 32.2375C17.5166 32.2131 17.5371 32.1927 17.5574 32.1764C17.6792 32.0744 17.8335 32.0785 17.9513 32.1723C18.0244 32.2335 18.0893 32.3232 18.1096 32.4251C18.1137 32.4415 18.1217 32.4659 18.1217 32.4863H18.2233C18.268 32.4863 18.3168 32.4904 18.3615 32.4986C18.3574 32.47 18.3493 32.4374 18.3493 32.4251C18.3452 32.4007 18.3371 32.3844 18.333 32.364C18.2924 32.2212 18.2071 32.0866 18.0974 31.9969C18.0365 31.9439 17.9593 31.9113 17.8862 31.8868V31.8746C17.7888 31.6013 17.8823 31.3811 18.0651 31.2302C18.1625 31.1487 18.2883 31.0875 18.4264 31.0508C18.5645 31.01 18.7188 30.9937 18.865 31.01C19.2346 31.0426 19.6001 31.2547 19.726 31.7033C19.8519 32.1723 20.0347 32.5883 20.2581 32.9145C20.5505 33.3509 20.7901 33.51 21.245 33.7179L21.2775 33.4936C21.5536 31.7155 23.5356 31.2098 25.1967 30.7857C25.7856 30.6348 26.3339 30.5002 26.7684 30.3167C26.7075 30.4472 26.6426 30.5736 26.5979 30.7082C26.5167 30.9447 26.4841 31.1854 26.5044 31.4708C26.5978 32.47 26.281 33.2856 25.7286 33.9422C25.1641 34.6152 24.3397 35.1372 23.4381 35.5409V35.5368Z" fill="#14163A"/>
<path d="M26.0719 32.5176C26.2031 32.3154 26.2381 32.0837 26.1769 31.8142C26.3255 31.751 26.4479 31.671 26.5441 31.5825C26.7058 31.4351 26.7975 31.2624 26.8193 31.056L26.8325 30.9633C26.7014 31.0054 26.5747 31.0391 26.4392 31.0771C26.4217 31.1739 26.3736 31.254 26.2905 31.3256C26.1987 31.4098 26.0762 31.473 25.9144 31.532L23.6896 32.189L23.7987 32.5344L25.814 31.9363C25.8446 32.0922 25.8184 32.2269 25.7528 32.3323C25.6741 32.4586 25.5211 32.5555 25.3025 32.6355L22.8544 33.36L22.9638 33.7054L25.2457 33.0315C25.3026 33.0188 25.355 33.002 25.4075 32.9851C25.4643 33.221 25.4381 33.4232 25.3331 33.5832C25.1976 33.7896 24.9266 33.9497 24.5288 34.0592L22.1856 34.7037L22.2863 35.049L24.6338 34.4046C25.1278 34.2698 25.4642 34.0592 25.6478 33.777C25.8183 33.5158 25.8577 33.1957 25.7528 32.8293C25.8883 32.745 25.9933 32.6439 26.0676 32.5344L26.0719 32.5176Z" fill="#14163A"/>
<path d="M26.0719 32.5176C26.2031 32.3154 26.2381 32.0837 26.1769 31.8142C26.3255 31.751 26.4479 31.671 26.5441 31.5825C26.7058 31.4351 26.7975 31.2624 26.8193 31.056L26.8325 30.9633C26.7014 31.0054 26.5747 31.0391 26.4392 31.0771C26.4217 31.1739 26.3736 31.254 26.2905 31.3256C26.1987 31.4098 26.0762 31.473 25.9144 31.532L23.6896 32.189L23.7987 32.5344L25.814 31.9363C25.8446 32.0922 25.8184 32.2269 25.7528 32.3323C25.6741 32.4586 25.5211 32.5555 25.3025 32.6355L22.8544 33.36L22.9638 33.7054L25.2457 33.0315C25.3026 33.0188 25.355 33.002 25.4075 32.9851C25.4643 33.221 25.4381 33.4232 25.3331 33.5832C25.1976 33.7896 24.9266 33.9497 24.5288 34.0592L22.1856 34.7037L22.2863 35.049L24.6338 34.4046C25.1278 34.2698 25.4642 34.0592 25.6478 33.777C25.8183 33.5158 25.8577 33.1957 25.7528 32.8293C25.8883 32.745 25.9933 32.6439 26.0676 32.5344L26.0719 32.5176Z" fill="#14163A"/>
<path d="M25.2528 37.0881C25.0393 37.3554 24.7815 37.6021 24.4754 37.8283C24.1733 38.0544 23.8631 38.2271 23.5449 38.3546C23.2227 38.4821 22.8924 38.5685 22.5702 38.5972L22.421 38.6137L22.3607 38.7535C22.2359 39.0537 22.0585 39.3415 21.8329 39.6211C21.6194 39.8884 21.3578 40.1351 21.0557 40.3613C20.7536 40.5874 20.4392 40.7601 20.125 40.8876C19.7947 41.0192 19.4686 41.1014 19.1504 41.1302L19.0014 41.1467L18.9409 41.2865C18.8161 41.5866 18.6348 41.8827 18.4132 42.1541C18.1997 42.4214 17.9379 42.6763 17.6358 42.8943C17.3337 43.1204 17.0195 43.2931 16.7053 43.4206C16.375 43.5522 16.0488 43.6344 15.7306 43.6632L15.5814 43.6796L15.521 43.8195C15.3921 44.1196 15.2148 44.4157 14.9933 44.6912C14.7798 44.9585 14.5182 45.2052 14.2161 45.4314C13.9099 45.6493 13.5997 45.8302 13.2815 45.9577C12.9593 46.0852 12.629 46.1674 12.3108 46.2003L12.3632 46.7225C12.7257 46.6896 13.1001 46.5909 13.4747 46.4429C13.8332 46.299 14.1838 46.1016 14.5181 45.8508C14.8524 45.604 15.1425 45.3244 15.3842 45.016C15.6057 44.7446 15.7869 44.4568 15.9279 44.1607C16.2461 44.1196 16.5683 44.0333 16.8905 43.9017C17.249 43.7578 17.6035 43.5645 17.9338 43.3178C18.2682 43.0711 18.5581 42.7873 18.8079 42.4831C19.0294 42.2117 19.2108 41.9238 19.3478 41.6278C19.666 41.5867 19.9882 41.4962 20.3104 41.3687C20.673 41.2248 21.0235 41.0274 21.3538 40.7848C21.6881 40.5381 21.982 40.2544 22.2277 39.9501C22.4492 39.6787 22.6305 39.3908 22.7675 39.0948C23.0857 39.0495 23.4119 38.9632 23.7301 38.8357C24.0926 38.6918 24.4433 38.4944 24.7776 38.2477C25.1079 38.0051 25.4018 37.7214 25.6434 37.4212C25.8972 37.1046 26.1027 36.7674 26.2517 36.4261L25.7804 36.2164C25.6515 36.5124 25.4744 36.8085 25.2488 37.084L25.2528 37.0881Z" fill="#14163A"/>
<path d="M25.2528 37.0881C25.0393 37.3554 24.7815 37.6021 24.4754 37.8283C24.1733 38.0544 23.8631 38.2271 23.5449 38.3546C23.2227 38.4821 22.8924 38.5685 22.5702 38.5972L22.421 38.6137L22.3607 38.7535C22.2359 39.0537 22.0585 39.3415 21.8329 39.6211C21.6194 39.8884 21.3578 40.1351 21.0557 40.3613C20.7536 40.5874 20.4392 40.7601 20.125 40.8876C19.7947 41.0192 19.4686 41.1014 19.1504 41.1302L19.0014 41.1467L18.9409 41.2865C18.8161 41.5866 18.6348 41.8827 18.4132 42.1541C18.1997 42.4214 17.9379 42.6763 17.6358 42.8943C17.3337 43.1204 17.0195 43.2931 16.7053 43.4206C16.375 43.5522 16.0488 43.6344 15.7306 43.6632L15.5814 43.6796L15.521 43.8195C15.3921 44.1196 15.2148 44.4157 14.9933 44.6912C14.7798 44.9585 14.5182 45.2052 14.2161 45.4314C13.9099 45.6493 13.5997 45.8302 13.2815 45.9577C12.9593 46.0852 12.629 46.1674 12.3108 46.2003L12.3632 46.7225C12.7257 46.6896 13.1001 46.5909 13.4747 46.4429C13.8332 46.299 14.1838 46.1016 14.5181 45.8508C14.8524 45.604 15.1425 45.3244 15.3842 45.016C15.6057 44.7446 15.7869 44.4568 15.9279 44.1607C16.2461 44.1196 16.5683 44.0333 16.8905 43.9017C17.249 43.7578 17.6035 43.5645 17.9338 43.3178C18.2682 43.0711 18.5581 42.7873 18.8079 42.4831C19.0294 42.2117 19.2108 41.9238 19.3478 41.6278C19.666 41.5867 19.9882 41.4962 20.3104 41.3687C20.673 41.2248 21.0235 41.0274 21.3538 40.7848C21.6881 40.5381 21.982 40.2544 22.2277 39.9501C22.4492 39.6787 22.6305 39.3908 22.7675 39.0948C23.0857 39.0495 23.4119 38.9632 23.7301 38.8357C24.0926 38.6918 24.4433 38.4944 24.7776 38.2477C25.1079 38.0051 25.4018 37.7214 25.6434 37.4212C25.8972 37.1046 26.1027 36.7674 26.2517 36.4261L25.7804 36.2164C25.6515 36.5124 25.4744 36.8085 25.2488 37.084L25.2528 37.0881Z" fill="#14163A"/>
<path d="M53.3186 42.0329C52.8213 40.083 52.739 38.162 53.2075 36.1381C53.6761 34.0855 54.7036 31.9094 56.4298 29.4783L56.767 29.0093L48.5674 20.4572L48.1276 20.63C45.2012 21.7982 42.2256 22.695 39.2006 23.2956C36.1756 23.8962 33.1258 24.2047 30.0309 24.1923H30.0186C26.9319 24.2047 23.8741 23.8962 20.8532 23.2956C17.824 22.695 14.8525 21.7982 11.922 20.63L11.4862 20.4572L3.28272 29.0093L3.61964 29.4783C5.34175 31.9094 6.37342 34.0855 6.84608 36.1381C7.30641 38.162 7.22845 40.083 6.73524 42.0329C6.12695 44.4228 4.98835 46.5742 3.87452 48.6804C1.4537 53.267 -0.85612 57.6438 2.04969 63.987C4.81987 70.038 11.622 73.5387 18.4652 77.064C22.4479 79.1125 26.4511 81.1734 29.587 83.7197L30.0309 84.0776L30.4707 83.7197C33.6026 81.1734 37.6058 79.1125 41.5925 77.064C48.4276 73.5387 55.2297 70.038 58.0081 63.987C60.9098 57.6438 58.6001 53.2711 56.1752 48.6804C55.0614 46.5742 53.9269 44.4228 53.3186 42.0329ZM11.4453 71.6094C8.782 69.9352 6.43916 68.0841 4.7787 65.8627L11.4453 61.0211V71.6094ZM17.4994 54.1514C17.1048 54.9783 16.3075 55.8421 15.0868 56.7142C13.7223 57.6809 12.6289 58.2239 11.8027 58.3102C10.9931 58.4131 10.3108 58.0799 9.76832 57.3189L7.89002 54.6903C7.72151 54.4517 7.56122 54.3365 7.39271 54.3365C7.23242 54.353 6.96936 54.4805 6.62 54.7191L6.08155 55.1017L5.58851 54.4188L8.00929 52.687L10.4507 50.9264L10.9439 51.6257L10.4136 51.9918C10.0766 52.2304 9.89162 52.4361 9.81764 52.6047C9.78476 52.7487 9.8177 52.9338 9.99854 53.1724L11.6055 55.4102C12.0453 56.0395 12.5344 56.3604 13.0687 56.381C13.6072 56.3974 14.2647 56.1424 15.0292 55.5994C15.7854 55.0482 16.2335 54.5011 16.3815 53.9663C16.5336 53.4357 16.3526 52.8269 15.9129 52.1892L14.3634 50.042C14.2031 49.8034 14.0181 49.6882 13.8496 49.7047C13.6647 49.7211 13.3852 49.8486 13.0153 50.1284L12.4069 50.5603L11.9345 49.861L13.8209 48.5282L15.6868 47.1748L16.1801 47.8577L15.7567 48.1703C15.4978 48.3719 15.3293 48.5158 15.3129 48.668C15.2718 48.7956 15.3252 48.9971 15.5101 49.2357L17.3884 51.8437C17.8611 52.5389 17.9144 53.2917 17.5034 54.135L17.4994 54.1514ZM26.3524 79.7707C24.059 78.3721 21.5765 77.0928 19.0982 75.8176C18.8516 75.69 18.601 75.5584 18.3544 75.4309V55.9943L26.3566 50.1654V79.7666L26.3524 79.7707ZM20.7052 50.6837C20.8367 50.4122 21.0752 50.1325 21.4697 49.861C21.8396 49.5813 22.1684 49.4208 22.4807 49.4208C22.7766 49.3879 22.9945 49.4866 23.1383 49.7047C23.3233 49.9227 23.3233 50.1859 23.2083 50.441C23.0973 50.7207 22.8384 50.9922 22.452 51.2472C22.0821 51.5434 21.7286 51.6709 21.4533 51.7039C21.1656 51.7368 20.9395 51.6463 20.7587 51.4241C20.6148 51.1979 20.5983 50.9428 20.7052 50.6837ZM31.2722 44.5833C30.8489 44.5421 30.4296 44.283 30.0309 43.7276C29.8788 43.5425 29.7144 43.341 29.5089 43.1394C29.3281 42.9543 29.1103 42.8556 28.8678 42.872C28.6294 42.8885 28.3376 43.0325 28.0006 43.271L26.4839 44.3488L27.491 45.7392C27.6348 45.9654 27.8363 46.0765 28.0418 46.0559C28.2432 46.023 28.5555 45.8544 28.9994 45.5458L29.6815 45.0152L30.2035 45.7022L27.5155 47.652L24.7988 49.5689L24.3058 48.9025L24.877 48.487C25.2633 48.2073 25.4646 47.9893 25.5427 47.8453C25.6003 47.6602 25.5467 47.4751 25.3823 47.2365L22.978 43.8675C22.8095 43.6659 22.6493 43.5508 22.4644 43.5508C22.2794 43.5672 22.004 43.7112 21.63 43.9662L21.0421 44.3899L20.5491 43.7235L23.1178 41.8601L26.6854 39.3097C27.5362 38.7091 28.2925 38.3594 28.9747 38.2731C29.6406 38.1867 30.1213 38.3882 30.4501 38.8325C30.7953 39.3138 30.8324 39.8444 30.5119 40.4368C30.3105 40.8605 29.9529 41.3007 29.4474 41.7573C29.7063 41.6297 29.9118 41.5392 30.1173 41.4858C30.89 41.2307 31.4488 41.3048 31.7529 41.7531L32.2627 42.4771C32.3942 42.6458 32.5012 42.7733 32.608 42.8144C32.7026 42.8679 32.8093 42.8473 32.9038 42.798C33.0353 42.6869 33.1301 42.58 33.1465 42.4689C33.1712 42.3578 33.1299 42.2262 33.0354 42.0822L32.5093 41.3953L33.4176 40.7412L33.9273 41.4405C34.215 41.8519 34.2724 42.2385 34.108 42.6211C33.956 43.0242 33.5657 43.4479 32.9163 43.884C32.2504 44.3817 31.7038 44.6121 31.2722 44.5956V44.5833ZM41.7035 75.4309C41.4487 75.5584 41.202 75.69 40.9513 75.8176C38.4771 77.0928 35.9906 78.368 33.6972 79.7707V44.8342L41.7035 39.0135V75.435V75.4309ZM35.1644 40.3216C35.2795 40.0625 35.522 39.7663 35.9083 39.5112C36.2782 39.2233 36.6235 39.0958 36.9194 39.0588C37.2154 39.0258 37.4332 39.1163 37.6017 39.3385C37.762 39.5812 37.7621 39.8198 37.647 40.0789C37.536 40.3504 37.277 40.6301 36.9071 40.9016C36.5208 41.1731 36.1919 41.3418 35.896 41.3582C35.6206 41.3706 35.3824 41.276 35.2139 41.0579C35.0536 40.8399 35.033 40.5931 35.1604 40.3216H35.1644ZM43.6394 36.0805L41.0336 37.944L40.5608 37.2447L41.1322 36.821C41.5186 36.5659 41.7446 36.3479 41.8021 36.1628C41.8761 36.0188 41.8187 35.8173 41.6748 35.5951L38.8634 31.6708L38.1976 32.1438C37.5688 32.584 37.1989 32.983 37.0879 33.2956C36.9769 33.6083 37.0839 33.9949 37.3551 34.5091L37.7208 35.011L36.6522 35.7761L34.9589 33.3903L39.3937 30.1981L43.853 27.006L44.708 28.2113L45.5629 29.3919L44.4942 30.1611L44.1284 29.6593C43.7585 29.2356 43.3928 29.0134 43.064 29.0134C42.727 29.0093 42.2501 29.2438 41.6254 29.7004L40.9761 30.1734L43.7627 34.0813C43.9312 34.2994 44.0914 34.4104 44.2764 34.394C44.4613 34.3775 44.7573 34.25 45.1272 33.9785L45.7355 33.5425L46.2328 34.2253L43.6434 36.0846L43.6394 36.0805ZM2.51002 55.3197C3.04844 53.2464 4.07174 51.3089 5.11158 49.3385C6.26651 47.1501 7.44624 44.9247 8.08741 42.3784C8.63816 40.2188 8.72438 38.0838 8.2024 35.8296C7.72153 33.7358 6.72285 31.5474 5.08705 29.1533L11.8439 22.1068C14.725 23.2298 17.6309 24.0895 20.5737 24.6818C23.6727 25.2948 26.8169 25.6115 30.0269 25.5951C33.2286 25.6115 36.3728 25.2948 39.4677 24.6818C42.3981 24.0977 45.2998 23.2339 48.1727 22.1109L2.50587 55.3238L2.51002 55.3197ZM48.7152 30.6095C48.8262 30.3503 49.0852 30.0583 49.4551 29.7991C49.8414 29.5112 50.1785 29.3836 50.4744 29.3466C50.7703 29.3137 51.0045 29.4207 51.1525 29.6469C51.321 29.8485 51.3375 30.1035 51.2224 30.3832C51.095 30.6383 50.8524 30.9139 50.4661 31.1895C50.0797 31.461 49.7428 31.6132 49.4469 31.6461C49.1756 31.6585 48.9331 31.5638 48.7687 31.3458C48.6248 31.1196 48.5837 30.881 48.7152 30.6095ZM56.734 63.4069C55.1886 66.7801 52.1882 69.351 48.6043 71.6053V33.995L54.6626 29.5852C53.1994 31.8148 52.291 33.8633 51.843 35.8214C51.3211 38.0797 51.4074 40.2147 51.9581 42.3702C52.6075 44.9165 53.783 47.1419 54.9338 49.3303C57.1944 53.6084 59.3521 57.685 56.734 63.4028V63.4069Z" fill="#14163A"/>
<path d="M53.3186 42.0329C52.8213 40.083 52.739 38.162 53.2075 36.1381C53.6761 34.0855 54.7036 31.9094 56.4298 29.4783L56.767 29.0093L48.5674 20.4572L48.1276 20.63C45.2012 21.7982 42.2256 22.695 39.2006 23.2956C36.1756 23.8962 33.1258 24.2047 30.0309 24.1923H30.0186C26.9319 24.2047 23.8741 23.8962 20.8532 23.2956C17.824 22.695 14.8525 21.7982 11.922 20.63L11.4862 20.4572L3.28272 29.0093L3.61964 29.4783C5.34175 31.9094 6.37342 34.0855 6.84608 36.1381C7.30641 38.162 7.22845 40.083 6.73524 42.0329C6.12695 44.4228 4.98835 46.5742 3.87452 48.6804C1.4537 53.267 -0.85612 57.6438 2.04969 63.987C4.81987 70.038 11.622 73.5387 18.4652 77.064C22.4479 79.1125 26.4511 81.1734 29.587 83.7197L30.0309 84.0776L30.4707 83.7197C33.6026 81.1734 37.6058 79.1125 41.5925 77.064C48.4276 73.5387 55.2297 70.038 58.0081 63.987C60.9098 57.6438 58.6001 53.2711 56.1752 48.6804C55.0614 46.5742 53.9269 44.4228 53.3186 42.0329ZM11.4453 71.6094C8.782 69.9352 6.43916 68.0841 4.7787 65.8627L11.4453 61.0211V71.6094ZM17.4994 54.1514C17.1048 54.9783 16.3075 55.8421 15.0868 56.7142C13.7223 57.6809 12.6289 58.2239 11.8027 58.3102C10.9931 58.4131 10.3108 58.0799 9.76832 57.3189L7.89002 54.6903C7.72151 54.4517 7.56122 54.3365 7.39271 54.3365C7.23242 54.353 6.96936 54.4805 6.62 54.7191L6.08155 55.1017L5.58851 54.4188L8.00929 52.687L10.4507 50.9264L10.9439 51.6257L10.4136 51.9918C10.0766 52.2304 9.89162 52.4361 9.81764 52.6047C9.78476 52.7487 9.8177 52.9338 9.99854 53.1724L11.6055 55.4102C12.0453 56.0395 12.5344 56.3604 13.0687 56.381C13.6072 56.3974 14.2647 56.1424 15.0292 55.5994C15.7854 55.0482 16.2335 54.5011 16.3815 53.9663C16.5336 53.4357 16.3526 52.8269 15.9129 52.1892L14.3634 50.042C14.2031 49.8034 14.0181 49.6882 13.8496 49.7047C13.6647 49.7211 13.3852 49.8486 13.0153 50.1284L12.4069 50.5603L11.9345 49.861L13.8209 48.5282L15.6868 47.1748L16.1801 47.8577L15.7567 48.1703C15.4978 48.3719 15.3293 48.5158 15.3129 48.668C15.2718 48.7956 15.3252 48.9971 15.5101 49.2357L17.3884 51.8437C17.8611 52.5389 17.9144 53.2917 17.5034 54.135L17.4994 54.1514ZM26.3524 79.7707C24.059 78.3721 21.5765 77.0928 19.0982 75.8176C18.8516 75.69 18.601 75.5584 18.3544 75.4309V55.9943L26.3566 50.1654V79.7666L26.3524 79.7707ZM20.7052 50.6837C20.8367 50.4122 21.0752 50.1325 21.4697 49.861C21.8396 49.5813 22.1684 49.4208 22.4807 49.4208C22.7766 49.3879 22.9945 49.4866 23.1383 49.7047C23.3233 49.9227 23.3233 50.1859 23.2083 50.441C23.0973 50.7207 22.8384 50.9922 22.452 51.2472C22.0821 51.5434 21.7286 51.6709 21.4533 51.7039C21.1656 51.7368 20.9395 51.6463 20.7587 51.4241C20.6148 51.1979 20.5983 50.9428 20.7052 50.6837ZM31.2722 44.5833C30.8489 44.5421 30.4296 44.283 30.0309 43.7276C29.8788 43.5425 29.7144 43.341 29.5089 43.1394C29.3281 42.9543 29.1103 42.8556 28.8678 42.872C28.6294 42.8885 28.3376 43.0325 28.0006 43.271L26.4839 44.3488L27.491 45.7392C27.6348 45.9654 27.8363 46.0765 28.0418 46.0559C28.2432 46.023 28.5555 45.8544 28.9994 45.5458L29.6815 45.0152L30.2035 45.7022L27.5155 47.652L24.7988 49.5689L24.3058 48.9025L24.877 48.487C25.2633 48.2073 25.4646 47.9893 25.5427 47.8453C25.6003 47.6602 25.5467 47.4751 25.3823 47.2365L22.978 43.8675C22.8095 43.6659 22.6493 43.5508 22.4644 43.5508C22.2794 43.5672 22.004 43.7112 21.63 43.9662L21.0421 44.3899L20.5491 43.7235L23.1178 41.8601L26.6854 39.3097C27.5362 38.7091 28.2925 38.3594 28.9747 38.2731C29.6406 38.1867 30.1213 38.3882 30.4501 38.8325C30.7953 39.3138 30.8324 39.8444 30.5119 40.4368C30.3105 40.8605 29.9529 41.3007 29.4474 41.7573C29.7063 41.6297 29.9118 41.5392 30.1173 41.4858C30.89 41.2307 31.4488 41.3048 31.7529 41.7531L32.2627 42.4771C32.3942 42.6458 32.5012 42.7733 32.608 42.8144C32.7026 42.8679 32.8093 42.8473 32.9038 42.798C33.0353 42.6869 33.1301 42.58 33.1465 42.4689C33.1712 42.3578 33.1299 42.2262 33.0354 42.0822L32.5093 41.3953L33.4176 40.7412L33.9273 41.4405C34.215 41.8519 34.2724 42.2385 34.108 42.6211C33.956 43.0242 33.5657 43.4479 32.9163 43.884C32.2504 44.3817 31.7038 44.6121 31.2722 44.5956V44.5833ZM41.7035 75.4309C41.4487 75.5584 41.202 75.69 40.9513 75.8176C38.4771 77.0928 35.9906 78.368 33.6972 79.7707V44.8342L41.7035 39.0135V75.435V75.4309ZM35.1644 40.3216C35.2795 40.0625 35.522 39.7663 35.9083 39.5112C36.2782 39.2233 36.6235 39.0958 36.9194 39.0588C37.2154 39.0258 37.4332 39.1163 37.6017 39.3385C37.762 39.5812 37.7621 39.8198 37.647 40.0789C37.536 40.3504 37.277 40.6301 36.9071 40.9016C36.5208 41.1731 36.1919 41.3418 35.896 41.3582C35.6206 41.3706 35.3824 41.276 35.2139 41.0579C35.0536 40.8399 35.033 40.5931 35.1604 40.3216H35.1644ZM43.6394 36.0805L41.0336 37.944L40.5608 37.2447L41.1322 36.821C41.5186 36.5659 41.7446 36.3479 41.8021 36.1628C41.8761 36.0188 41.8187 35.8173 41.6748 35.5951L38.8634 31.6708L38.1976 32.1438C37.5688 32.584 37.1989 32.983 37.0879 33.2956C36.9769 33.6083 37.0839 33.9949 37.3551 34.5091L37.7208 35.011L36.6522 35.7761L34.9589 33.3903L39.3937 30.1981L43.853 27.006L44.708 28.2113L45.5629 29.3919L44.4942 30.1611L44.1284 29.6593C43.7585 29.2356 43.3928 29.0134 43.064 29.0134C42.727 29.0093 42.2501 29.2438 41.6254 29.7004L40.9761 30.1734L43.7627 34.0813C43.9312 34.2994 44.0914 34.4104 44.2764 34.394C44.4613 34.3775 44.7573 34.25 45.1272 33.9785L45.7355 33.5425L46.2328 34.2253L43.6434 36.0846L43.6394 36.0805ZM2.51002 55.3197C3.04844 53.2464 4.07174 51.3089 5.11158 49.3385C6.26651 47.1501 7.44624 44.9247 8.08741 42.3784C8.63816 40.2188 8.72438 38.0838 8.2024 35.8296C7.72153 33.7358 6.72285 31.5474 5.08705 29.1533L11.8439 22.1068C14.725 23.2298 17.6309 24.0895 20.5737 24.6818C23.6727 25.2948 26.8169 25.6115 30.0269 25.5951C33.2286 25.6115 36.3728 25.2948 39.4677 24.6818C42.3981 24.0977 45.2998 23.2339 48.1727 22.1109L2.50587 55.3238L2.51002 55.3197ZM48.7152 30.6095C48.8262 30.3503 49.0852 30.0583 49.4551 29.7991C49.8414 29.5112 50.1785 29.3836 50.4744 29.3466C50.7703 29.3137 51.0045 29.4207 51.1525 29.6469C51.321 29.8485 51.3375 30.1035 51.2224 30.3832C51.095 30.6383 50.8524 30.9139 50.4661 31.1895C50.0797 31.461 49.7428 31.6132 49.4469 31.6461C49.1756 31.6585 48.9331 31.5638 48.7687 31.3458C48.6248 31.1196 48.5837 30.881 48.7152 30.6095ZM56.734 63.4069C55.1886 66.7801 52.1882 69.351 48.6043 71.6053V33.995L54.6626 29.5852C53.1994 31.8148 52.291 33.8633 51.843 35.8214C51.3211 38.0797 51.4074 40.2147 51.9581 42.3702C52.6075 44.9165 53.783 47.1419 54.9338 49.3303C57.1944 53.6084 59.3521 57.685 56.734 63.4028V63.4069Z" fill="#14163A"/>
<path d="M12.8916 91.8004C12.8916 91.6139 12.8462 91.4624 12.7593 91.3459C12.6723 91.2293 12.5627 91.1516 12.4304 91.1167C12.3473 91.0933 12.1619 91.0817 11.886 91.0817H11.1491V93.4164H11.6063V92.5346H11.905C12.1129 92.5346 12.2716 92.5229 12.3812 92.4996C12.4606 92.4802 12.5401 92.4452 12.6195 92.3908C12.6989 92.3364 12.7631 92.2588 12.8123 92.1616C12.8614 92.0645 12.8878 91.9441 12.8878 91.8004H12.8916ZM12.3662 91.9868C12.3322 92.0373 12.283 92.0762 12.2225 92.1034C12.1621 92.1267 12.0411 92.1383 11.8596 92.1383H11.6102V91.4741H11.8333C11.9996 91.4741 12.1091 91.4779 12.162 91.4896C12.2376 91.5051 12.298 91.5362 12.3472 91.5945C12.3963 91.6489 12.4191 91.7188 12.4191 91.8042C12.4191 91.8742 12.4002 91.9324 12.3662 91.9868Z" fill="#14163A"/>
<path d="M12.8916 91.8004C12.8916 91.6139 12.8462 91.4624 12.7593 91.3459C12.6723 91.2293 12.5627 91.1516 12.4304 91.1167C12.3473 91.0933 12.1619 91.0817 11.886 91.0817H11.1491V93.4164H11.6063V92.5346H11.905C12.1129 92.5346 12.2716 92.5229 12.3812 92.4996C12.4606 92.4802 12.5401 92.4452 12.6195 92.3908C12.6989 92.3364 12.7631 92.2588 12.8123 92.1616C12.8614 92.0645 12.8878 91.9441 12.8878 91.8004H12.8916ZM12.3662 91.9868C12.3322 92.0373 12.283 92.0762 12.2225 92.1034C12.1621 92.1267 12.0411 92.1383 11.8596 92.1383H11.6102V91.4741H11.8333C11.9996 91.4741 12.1091 91.4779 12.162 91.4896C12.2376 91.5051 12.298 91.5362 12.3472 91.5945C12.3963 91.6489 12.4191 91.7188 12.4191 91.8042C12.4191 91.8742 12.4002 91.9324 12.3662 91.9868Z" fill="#14163A"/>
<path d="M14.0187 91.0817L12.8916 93.4164H13.5129L13.7538 92.8842H14.9097L15.1603 93.4164H15.796L14.6351 91.0817H14.0187ZM13.932 92.4918L14.3222 91.6255L14.7218 92.4918H13.932Z" fill="#14163A"/>
<path d="M14.0187 91.0817L12.8916 93.4164H13.5129L13.7538 92.8842H14.9097L15.1603 93.4164H15.796L14.6351 91.0817H14.0187ZM13.932 92.4918L14.3222 91.6255L14.7218 92.4918H13.932Z" fill="#14163A"/>
<path d="M15.2151 91.4779H16.0853V93.4164H16.6735V91.4779H17.5386V91.0817H15.2151V91.4779Z" fill="#14163A"/>
<path d="M15.2151 91.4779H16.0853V93.4164H16.6735V91.4779H17.5386V91.0817H15.2151V91.4779Z" fill="#14163A"/>
<path d="M18.6984 91.0817C18.5031 91.0817 18.3316 91.1118 18.1802 91.1719C18.0686 91.217 17.965 91.2847 17.8694 91.3749C17.7737 91.4652 17.7019 91.5704 17.6461 91.6832C17.5744 91.8411 17.5386 92.0329 17.5386 92.2622C17.5386 92.6231 17.6422 92.9051 17.8534 93.1081C18.0646 93.3149 18.3477 93.4164 18.7024 93.4164C19.0571 93.4164 19.336 93.3149 19.5473 93.1081C19.7585 92.9013 19.8621 92.6156 19.8621 92.2509C19.8621 91.8863 19.7546 91.5968 19.5433 91.39C19.3321 91.1832 19.0492 91.0817 18.6945 91.0817H18.6984ZM19.1766 92.8299C19.0531 92.9615 18.8937 93.0254 18.7024 93.0254C18.5111 93.0254 18.3517 92.9577 18.2241 92.8261C18.1006 92.6946 18.0369 92.4991 18.0369 92.2434C18.0369 91.9878 18.0967 91.7885 18.2202 91.6607C18.3438 91.5329 18.5031 91.4689 18.7024 91.4689C18.9017 91.4689 19.061 91.5329 19.1806 91.6607C19.3001 91.7885 19.36 91.9802 19.36 92.2397C19.36 92.4991 19.2962 92.6983 19.1726 92.8299H19.1766Z" fill="#14163A"/>
<path d="M18.6984 91.0817C18.5031 91.0817 18.3316 91.1118 18.1802 91.1719C18.0686 91.217 17.965 91.2847 17.8694 91.3749C17.7737 91.4652 17.7019 91.5704 17.6461 91.6832C17.5744 91.8411 17.5386 92.0329 17.5386 92.2622C17.5386 92.6231 17.6422 92.9051 17.8534 93.1081C18.0646 93.3149 18.3477 93.4164 18.7024 93.4164C19.0571 93.4164 19.336 93.3149 19.5473 93.1081C19.7585 92.9013 19.8621 92.6156 19.8621 92.2509C19.8621 91.8863 19.7546 91.5968 19.5433 91.39C19.3321 91.1832 19.0492 91.0817 18.6945 91.0817H18.6984ZM19.1766 92.8299C19.0531 92.9615 18.8937 93.0254 18.7024 93.0254C18.5111 93.0254 18.3517 92.9577 18.2241 92.8261C18.1006 92.6946 18.0369 92.4991 18.0369 92.2434C18.0369 91.9878 18.0967 91.7885 18.2202 91.6607C18.3438 91.5329 18.5031 91.4689 18.7024 91.4689C18.9017 91.4689 19.061 91.5329 19.1806 91.6607C19.3001 91.7885 19.36 91.9802 19.36 92.2397C19.36 92.4991 19.2962 92.6983 19.1726 92.8299H19.1766Z" fill="#14163A"/>
<path d="M21.7581 92.386C21.625 92.3157 21.4159 92.25 21.1355 92.1843C20.8552 92.1186 20.6793 92.0576 20.6033 91.9966C20.5463 91.9497 20.5177 91.8934 20.5177 91.8277C20.5177 91.7526 20.5463 91.6963 20.608 91.6541C20.7031 91.5837 20.8361 91.5509 21.0025 91.5509C21.1688 91.5509 21.2875 91.5837 21.3683 91.6447C21.4491 91.7057 21.5014 91.8136 21.5252 91.9591L22.1001 91.9356C22.0906 91.6776 21.9955 91.4711 21.815 91.3163C21.6344 91.1615 21.3636 91.0817 21.0072 91.0817C20.7886 91.0817 20.5986 91.1145 20.4465 91.1802C20.2897 91.2459 20.1709 91.3398 20.0901 91.4664C20.0093 91.5931 19.9667 91.7245 19.9667 91.8699C19.9667 92.0951 20.0522 92.2828 20.228 92.4377C20.3516 92.5503 20.5701 92.6394 20.8789 92.7145C21.1212 92.7755 21.2733 92.813 21.3399 92.8365C21.4396 92.8693 21.5061 92.9115 21.5488 92.9585C21.5869 93.0054 21.6058 93.0617 21.6058 93.1274C21.6058 93.2306 21.5584 93.3197 21.4634 93.3995C21.3684 93.4793 21.2306 93.5168 21.0453 93.5168C20.8695 93.5168 20.7316 93.4746 20.6271 93.3854C20.5225 93.2963 20.456 93.1602 20.4227 92.9772L19.8621 93.0288C19.9001 93.3432 20.0142 93.5825 20.209 93.7514C20.4038 93.9156 20.6793 94.0001 21.0404 94.0001C21.2875 94.0001 21.4965 93.9672 21.6629 93.8968C21.8292 93.8265 21.9575 93.7232 22.0477 93.5825C22.138 93.4417 22.1856 93.2916 22.1856 93.1274C22.1856 92.9491 22.1476 92.7989 22.0715 92.6769C21.9955 92.555 21.8911 92.4611 21.7581 92.3907V92.386Z" fill="#14163A"/>
<path d="M21.7581 92.386C21.625 92.3157 21.4159 92.25 21.1355 92.1843C20.8552 92.1186 20.6793 92.0576 20.6033 91.9966C20.5463 91.9497 20.5177 91.8934 20.5177 91.8277C20.5177 91.7526 20.5463 91.6963 20.608 91.6541C20.7031 91.5837 20.8361 91.5509 21.0025 91.5509C21.1688 91.5509 21.2875 91.5837 21.3683 91.6447C21.4491 91.7057 21.5014 91.8136 21.5252 91.9591L22.1001 91.9356C22.0906 91.6776 21.9955 91.4711 21.815 91.3163C21.6344 91.1615 21.3636 91.0817 21.0072 91.0817C20.7886 91.0817 20.5986 91.1145 20.4465 91.1802C20.2897 91.2459 20.1709 91.3398 20.0901 91.4664C20.0093 91.5931 19.9667 91.7245 19.9667 91.8699C19.9667 92.0951 20.0522 92.2828 20.228 92.4377C20.3516 92.5503 20.5701 92.6394 20.8789 92.7145C21.1212 92.7755 21.2733 92.813 21.3399 92.8365C21.4396 92.8693 21.5061 92.9115 21.5488 92.9585C21.5869 93.0054 21.6058 93.0617 21.6058 93.1274C21.6058 93.2306 21.5584 93.3197 21.4634 93.3995C21.3684 93.4793 21.2306 93.5168 21.0453 93.5168C20.8695 93.5168 20.7316 93.4746 20.6271 93.3854C20.5225 93.2963 20.456 93.1602 20.4227 92.9772L19.8621 93.0288C19.9001 93.3432 20.0142 93.5825 20.209 93.7514C20.4038 93.9156 20.6793 94.0001 21.0404 94.0001C21.2875 94.0001 21.4965 93.9672 21.6629 93.8968C21.8292 93.8265 21.9575 93.7232 22.0477 93.5825C22.138 93.4417 22.1856 93.2916 22.1856 93.1274C22.1856 92.9491 22.1476 92.7989 22.0715 92.6769C21.9955 92.555 21.8911 92.4611 21.7581 92.3907V92.386Z" fill="#14163A"/>
<path d="M25.3237 91.3381C25.208 91.2332 25.0691 91.1633 24.9025 91.1244C24.7821 91.0933 24.6062 91.0817 24.3748 91.0817H23.3473V93.4164H24.4026C24.6109 93.4164 24.7775 93.4008 24.8978 93.3659C25.0645 93.3231 25.1942 93.261 25.2914 93.1794C25.421 93.0745 25.518 92.9386 25.5874 92.7677C25.643 92.6278 25.6708 92.4646 25.6708 92.2704C25.6708 92.0529 25.6384 91.8664 25.5783 91.7188C25.5181 91.5712 25.4302 91.443 25.3145 91.342L25.3237 91.3381ZM25.0413 92.6744C25.0042 92.7793 24.9532 92.8531 24.8931 92.8997C24.8329 92.9463 24.759 92.9774 24.6664 92.9968C24.597 93.0124 24.4814 93.0202 24.3286 93.0202H23.9074V91.474H24.162C24.3888 91.474 24.5461 91.4818 24.6248 91.4973C24.7312 91.5168 24.8145 91.5517 24.8839 91.6061C24.9533 91.6605 25.0042 91.7343 25.0413 91.8314C25.0783 91.9286 25.0969 92.0684 25.0969 92.2471C25.0969 92.4258 25.0783 92.5695 25.0413 92.6744Z" fill="#14163A"/>
<path d="M25.3237 91.3381C25.208 91.2332 25.0691 91.1633 24.9025 91.1244C24.7821 91.0933 24.6062 91.0817 24.3748 91.0817H23.3473V93.4164H24.4026C24.6109 93.4164 24.7775 93.4008 24.8978 93.3659C25.0645 93.3231 25.1942 93.261 25.2914 93.1794C25.421 93.0745 25.518 92.9386 25.5874 92.7677C25.643 92.6278 25.6708 92.4646 25.6708 92.2704C25.6708 92.0529 25.6384 91.8664 25.5783 91.7188C25.5181 91.5712 25.4302 91.443 25.3145 91.342L25.3237 91.3381ZM25.0413 92.6744C25.0042 92.7793 24.9532 92.8531 24.8931 92.8997C24.8329 92.9463 24.759 92.9774 24.6664 92.9968C24.597 93.0124 24.4814 93.0202 24.3286 93.0202H23.9074V91.474H24.162C24.3888 91.474 24.5461 91.4818 24.6248 91.4973C24.7312 91.5168 24.8145 91.5517 24.8839 91.6061C24.9533 91.6605 25.0042 91.7343 25.0413 91.8314C25.0783 91.9286 25.0969 92.0684 25.0969 92.2471C25.0969 92.4258 25.0783 92.5695 25.0413 92.6744Z" fill="#14163A"/>
<path d="M26.7131 92.3869H27.8648V91.9946H26.7131V91.4779H27.9486V91.0817H26.2517V93.4164H27.9943V93.024H26.7131V92.3869Z" fill="#14163A"/>
<path d="M26.7131 92.3869H27.8648V91.9946H26.7131V91.4779H27.9486V91.0817H26.2517V93.4164H27.9943V93.024H26.7131V92.3869Z" fill="#14163A"/>
<path d="M30.3198 92.6744L29.8839 91.0817H29.1561V93.4164H29.6079V91.5789L30.0839 93.4164H30.5518L31.0276 91.5789V93.4164H31.4796V91.0817H30.7517L30.3198 92.6744Z" fill="#14163A"/>
<path d="M30.3198 92.6744L29.8839 91.0817H29.1561V93.4164H29.6079V91.5789L30.0839 93.4164H30.5518L31.0276 91.5789V93.4164H31.4796V91.0817H30.7517L30.3198 92.6744Z" fill="#14163A"/>
<path d="M32.6414 91.0817H32.0604V93.4164H32.6414V91.0817Z" fill="#14163A"/>
<path d="M32.6414 91.0817H32.0604V93.4164H32.6414V91.0817Z" fill="#14163A"/>
<path d="M34.552 92.6395L33.6533 91.0817H33.2222V93.4164H33.635V91.8936L34.5191 93.4164H34.9649V91.0817H34.552V92.6395Z" fill="#14163A"/>
<path d="M34.552 92.6395L33.6533 91.0817H33.2222V93.4164H33.635V91.8936L34.5191 93.4164H34.9649V91.0817H34.552V92.6395Z" fill="#14163A"/>
<path d="M36.4473 91.0817L35.5457 93.4164H36.0427L36.2354 92.8842H37.1603L37.3606 93.4164H37.8692L36.9406 91.0817H36.4473ZM36.3779 92.4918L36.6901 91.6255L37.0099 92.4918H36.3779Z" fill="#14163A"/>
<path d="M36.4473 91.0817L35.5457 93.4164H36.0427L36.2354 92.8842H37.1603L37.3606 93.4164H37.8692L36.9406 91.0817H36.4473ZM36.3779 92.4918L36.6901 91.6255L37.0099 92.4918H36.3779Z" fill="#14163A"/>
<path d="M39.7603 92.386C39.6272 92.3157 39.418 92.25 39.1377 92.1843C38.8574 92.1186 38.6818 92.0576 38.6105 91.9966C38.5535 91.9497 38.5249 91.8934 38.5249 91.8277C38.5249 91.7526 38.5534 91.6963 38.6151 91.6541C38.7102 91.5837 38.8432 91.5509 39.0095 91.5509C39.1758 91.5509 39.2946 91.5837 39.3754 91.6447C39.4562 91.7057 39.5084 91.8136 39.5321 91.9591L40.1069 91.9356C40.0974 91.6776 40.0026 91.4711 39.822 91.3163C39.6415 91.1615 39.3705 91.0817 39.0142 91.0817C38.7956 91.0817 38.6057 91.1145 38.4536 91.1802C38.2968 91.2459 38.178 91.3398 38.0972 91.4664C38.0164 91.5931 37.9736 91.7245 37.9736 91.8699C37.9736 92.0951 38.0592 92.2828 38.235 92.4377C38.3585 92.5503 38.5772 92.6394 38.886 92.7145C39.1283 92.7755 39.2803 92.813 39.3468 92.8365C39.4466 92.8693 39.5132 92.9115 39.5559 92.9585C39.5939 93.0054 39.6129 93.0617 39.6129 93.1274C39.6129 93.2306 39.5654 93.3197 39.4703 93.3995C39.3753 93.4793 39.2377 93.5168 39.0524 93.5168C38.8766 93.5168 38.7388 93.4746 38.6343 93.3854C38.5298 93.2963 38.463 93.1602 38.4297 92.9772L37.8692 93.0288C37.9072 93.3432 38.0213 93.5825 38.2161 93.7514C38.4109 93.9156 38.6864 94.0001 39.0475 94.0001C39.2946 94.0001 39.5036 93.9672 39.6699 93.8968C39.8362 93.8265 39.9645 93.7232 40.0548 93.5825C40.1451 93.4417 40.1926 93.2916 40.1926 93.1274C40.1926 92.9491 40.1545 92.7989 40.0785 92.6769C40.0025 92.555 39.8979 92.4611 39.7649 92.3907L39.7603 92.386Z" fill="#14163A"/>
<path d="M39.7603 92.386C39.6272 92.3157 39.418 92.25 39.1377 92.1843C38.8574 92.1186 38.6818 92.0576 38.6105 91.9966C38.5535 91.9497 38.5249 91.8934 38.5249 91.8277C38.5249 91.7526 38.5534 91.6963 38.6151 91.6541C38.7102 91.5837 38.8432 91.5509 39.0095 91.5509C39.1758 91.5509 39.2946 91.5837 39.3754 91.6447C39.4562 91.7057 39.5084 91.8136 39.5321 91.9591L40.1069 91.9356C40.0974 91.6776 40.0026 91.4711 39.822 91.3163C39.6415 91.1615 39.3705 91.0817 39.0142 91.0817C38.7956 91.0817 38.6057 91.1145 38.4536 91.1802C38.2968 91.2459 38.178 91.3398 38.0972 91.4664C38.0164 91.5931 37.9736 91.7245 37.9736 91.8699C37.9736 92.0951 38.0592 92.2828 38.235 92.4377C38.3585 92.5503 38.5772 92.6394 38.886 92.7145C39.1283 92.7755 39.2803 92.813 39.3468 92.8365C39.4466 92.8693 39.5132 92.9115 39.5559 92.9585C39.5939 93.0054 39.6129 93.0617 39.6129 93.1274C39.6129 93.2306 39.5654 93.3197 39.4703 93.3995C39.3753 93.4793 39.2377 93.5168 39.0524 93.5168C38.8766 93.5168 38.7388 93.4746 38.6343 93.3854C38.5298 93.2963 38.463 93.1602 38.4297 92.9772L37.8692 93.0288C37.9072 93.3432 38.0213 93.5825 38.2161 93.7514C38.4109 93.9156 38.6864 94.0001 39.0475 94.0001C39.2946 94.0001 39.5036 93.9672 39.6699 93.8968C39.8362 93.8265 39.9645 93.7232 40.0548 93.5825C40.1451 93.4417 40.1926 93.2916 40.1926 93.1274C40.1926 92.9491 40.1545 92.7989 40.0785 92.6769C40.0025 92.555 39.8979 92.4611 39.7649 92.3907L39.7603 92.386Z" fill="#14163A"/>
<path d="M41.9353 92.249H41.3544V92.8327H41.9353V92.249Z" fill="#14163A"/>
<path d="M41.9353 92.249H41.3544V92.8327H41.9353V92.249Z" fill="#14163A"/>
<path d="M44.8436 92.6744L44.407 91.0817H43.6779V93.4164H44.1305V91.5789L44.6072 93.4164H45.072L45.5526 91.5789V93.4164H46.0014V91.0817H45.2724L44.8436 92.6744Z" fill="#14163A"/>
<path d="M44.8436 92.6744L44.407 91.0817H43.6779V93.4164H44.1305V91.5789L44.6072 93.4164H45.072L45.5526 91.5789V93.4164H46.0014V91.0817H45.2724L44.8436 92.6744Z" fill="#14163A"/>
<path d="M47.2438 92.5531H47.8196V92.8383C47.745 92.8909 47.654 92.9359 47.5463 92.9735C47.4386 93.011 47.335 93.0298 47.2315 93.0298C47.0202 93.0298 46.8464 92.9622 46.7139 92.8271C46.5813 92.692 46.5149 92.493 46.5149 92.2228C46.5149 91.975 46.5813 91.7873 46.7097 91.6597C46.8381 91.5321 47.012 91.472 47.2315 91.472C47.3764 91.472 47.4966 91.5058 47.596 91.5696C47.6912 91.6335 47.7575 91.7198 47.7948 91.8324L48.2958 91.7461C48.2461 91.5396 48.1344 91.3782 47.9605 91.2581C47.7865 91.1417 47.5463 91.0817 47.2357 91.0817C46.9997 91.0817 46.8008 91.1192 46.6393 91.1943C46.4281 91.2919 46.2705 91.4308 46.1629 91.6147C46.0552 91.7986 46.0014 92.0051 46.0014 92.2415C46.0014 92.4592 46.051 92.6582 46.1463 92.8421C46.2457 93.026 46.3908 93.1686 46.5813 93.2662C46.776 93.3638 47.0036 93.4164 47.2604 93.4164C47.4633 93.4164 47.6663 93.3826 47.8693 93.3113C48.0681 93.24 48.2213 93.1611 48.3248 93.0673V92.1702H47.2398V92.5493L47.2438 92.5531Z" fill="#14163A"/>
<path d="M47.2438 92.5531H47.8196V92.8383C47.745 92.8909 47.654 92.9359 47.5463 92.9735C47.4386 93.011 47.335 93.0298 47.2315 93.0298C47.0202 93.0298 46.8464 92.9622 46.7139 92.8271C46.5813 92.692 46.5149 92.493 46.5149 92.2228C46.5149 91.975 46.5813 91.7873 46.7097 91.6597C46.8381 91.5321 47.012 91.472 47.2315 91.472C47.3764 91.472 47.4966 91.5058 47.596 91.5696C47.6912 91.6335 47.7575 91.7198 47.7948 91.8324L48.2958 91.7461C48.2461 91.5396 48.1344 91.3782 47.9605 91.2581C47.7865 91.1417 47.5463 91.0817 47.2357 91.0817C46.9997 91.0817 46.8008 91.1192 46.6393 91.1943C46.4281 91.2919 46.2705 91.4308 46.1629 91.6147C46.0552 91.7986 46.0014 92.0051 46.0014 92.2415C46.0014 92.4592 46.051 92.6582 46.1463 92.8421C46.2457 93.026 46.3908 93.1686 46.5813 93.2662C46.776 93.3638 47.0036 93.4164 47.2604 93.4164C47.4633 93.4164 47.6663 93.3826 47.8693 93.3113C48.0681 93.24 48.2213 93.1611 48.3248 93.0673V92.1702H47.2398V92.5493L47.2438 92.5531Z" fill="#14163A"/>
</svg>
