<svg width="231" height="73" viewBox="0 0 231 73" fill="none" xmlns="http://www.w3.org/2000/svg">
<path d="M6.15576 1.49169C6.06889 1.1001 5.81191 0.910479 5.41064 0.898113L0.455078 0.861015V1.88328L17.3872 71.4385C17.4865 71.8548 17.7553 72.0568 18.1855 72.0692H22.5874C23.0176 72.0692 23.183 71.8672 23.0796 71.4509L6.16016 1.49581L6.15576 1.49169Z" fill="#14163A"/>
<path d="M6.15576 1.49169C6.06889 1.1001 5.81191 0.910479 5.41064 0.898113L0.455078 0.861015V1.88328L17.3872 71.4385C17.4865 71.8548 17.7553 72.0568 18.1855 72.0692H22.5874C23.0176 72.0692 23.183 71.8672 23.0796 71.4509L6.16016 1.49581L6.15576 1.49169Z" fill="#14163A"/>
<path d="M38.5166 15.5239C38.0348 13.1483 37.3996 10.7767 36.627 8.4011C36.386 7.68221 36.1825 7.69461 36.0039 8.42589L29.2617 36.223C29.162 36.6155 28.6012 36.6155 28.5015 36.223L20.123 1.50553C20.0234 1.13783 19.691 0.873409 19.2964 0.873409L14.8896 0.861015C14.4826 0.861015 14.3332 1.06346 14.4204 1.45596L28.6426 60.2067C28.7049 60.4587 29.0627 60.4587 29.125 60.2067C32.1615 47.717 35.1813 35.2273 38.2178 22.7335C38.8658 20.0934 38.9655 17.693 38.521 15.5239H38.5166Z" fill="#14163A"/>
<path d="M38.5166 15.5239C38.0348 13.1483 37.3996 10.7767 36.627 8.4011C36.386 7.68221 36.1825 7.69461 36.0039 8.42589L29.2617 36.223C29.162 36.6155 28.6012 36.6155 28.5015 36.223L20.123 1.50553C20.0234 1.13783 19.691 0.873409 19.2964 0.873409L14.8896 0.861015C14.4826 0.861015 14.3332 1.06346 14.4204 1.45596L28.6426 60.2067C28.7049 60.4587 29.0627 60.4587 29.125 60.2067C32.1615 47.717 35.1813 35.2273 38.2178 22.7335C38.8658 20.0934 38.9655 17.693 38.521 15.5239H38.5166Z" fill="#14163A"/>
<path d="M39.7529 0.861015C39.5071 0.861015 39.3335 1.10016 39.3818 1.33931L55.978 71.7682C56.0264 71.9455 56.1758 72.0692 56.3491 72.0692H61.0679C61.3137 72.0692 61.4868 71.83 61.4385 71.5909L44.8706 1.16201C44.8222 0.984707 44.6733 0.861015 44.5 0.861015H39.7529Z" fill="#14163A"/>
<path d="M39.7529 0.861015C39.5071 0.861015 39.3335 1.10016 39.3818 1.33931L55.978 71.7682C56.0264 71.9455 56.1758 72.0692 56.3491 72.0692H61.0679C61.3137 72.0692 61.4868 71.83 61.4385 71.5909L44.8706 1.16201C44.8222 0.984707 44.6733 0.861015 44.5 0.861015H39.7529Z" fill="#14163A"/>
<path d="M81.0669 0.873889L77.0537 0.861495C76.5914 0.849101 76.3172 1.07634 76.2026 1.5308L67.8491 36.5372C67.7755 36.8388 67.3497 36.8388 67.272 36.5372L58.8936 1.54319C58.779 1.08873 58.5052 0.861495 58.043 0.861495H54.0298C53.4407 0.861495 53.2154 1.1507 53.3545 1.72085L67.3213 60.2067C67.3827 60.4587 67.7223 60.4587 67.7837 60.2067L81.7373 1.73324C81.8764 1.16309 81.6516 0.873889 81.0625 0.873889H81.0669Z" fill="#14163A"/>
<path d="M81.0669 0.873889L77.0537 0.861495C76.5914 0.849101 76.3172 1.07634 76.2026 1.5308L67.8491 36.5372C67.7755 36.8388 67.3497 36.8388 67.272 36.5372L58.8936 1.54319C58.779 1.08873 58.5052 0.861495 58.043 0.861495H54.0298C53.4407 0.861495 53.2154 1.1507 53.3545 1.72085L67.3213 60.2067C67.3827 60.4587 67.7223 60.4587 67.7837 60.2067L81.7373 1.73324C81.8764 1.16309 81.6516 0.873889 81.0625 0.873889H81.0669Z" fill="#14163A"/>
<path d="M95.4375 1.39564L90.8452 0.289005C90.6447 0.239638 90.4563 0.350711 90.4072 0.552291L73.7041 69.9288C73.479 70.8955 73.9171 71.8294 74.707 72.0145L77.1709 72.6193C77.9485 72.8085 78.7709 72.1791 79.0083 71.2123L95.7114 1.83582C95.7483 1.64658 95.6381 1.445 95.4375 1.39564Z" fill="#14163A"/>
<path d="M95.4375 1.39564L90.8452 0.289005C90.6447 0.239638 90.4563 0.350711 90.4072 0.552291L73.7041 69.9288C73.479 70.8955 73.9171 71.8294 74.707 72.0145L77.1709 72.6193C77.9485 72.8085 78.7709 72.1791 79.0083 71.2123L95.7114 1.83582C95.7483 1.64658 95.6381 1.445 95.4375 1.39564Z" fill="#14163A"/>
<path d="M102.144 0.861015H98.0054C97.7048 0.861015 97.4609 1.08068 97.4609 1.35165V71.5785C97.4609 71.8495 97.7048 72.0692 98.0054 72.0692H102.144C102.445 72.0692 102.689 71.8495 102.689 71.5785V1.35165C102.689 1.08068 102.445 0.861015 102.144 0.861015Z" fill="#14163A"/>
<path d="M102.144 0.861015H98.0054C97.7048 0.861015 97.4609 1.08068 97.4609 1.35165V71.5785C97.4609 71.8495 97.7048 72.0692 98.0054 72.0692H102.144C102.445 72.0692 102.689 71.8495 102.689 71.5785V1.35165C102.689 1.08068 102.445 0.861015 102.144 0.861015Z" fill="#14163A"/>
<path d="M135.363 32.3794C135.599 32.3794 135.786 32.1877 135.786 31.9461L135.798 27.7179C135.798 27.4762 135.611 27.2846 135.375 27.2846H115.062C114.826 27.2846 114.639 27.093 114.639 26.8514V1.29425C114.639 1.05264 114.451 0.861015 114.215 0.861015H110.083C109.847 0.861015 109.659 1.05264 109.659 1.29425V31.9461C109.659 32.1877 109.847 32.3794 110.083 32.3794H135.363Z" fill="#14163A"/>
<path d="M135.363 32.3794C135.599 32.3794 135.786 32.1877 135.786 31.9461L135.798 27.7179C135.798 27.4762 135.611 27.2846 135.375 27.2846H115.062C114.826 27.2846 114.639 27.093 114.639 26.8514V1.29425C114.639 1.05264 114.451 0.861015 114.215 0.861015H110.083C109.847 0.861015 109.659 1.05264 109.659 1.29425V31.9461C109.659 32.1877 109.847 32.3794 110.083 32.3794H135.363Z" fill="#14163A"/>
<path d="M144.635 0.861015H140.322C140.069 0.861015 139.865 1.05853 139.865 1.30218V71.628C139.865 71.8717 140.069 72.0692 140.322 72.0692H144.635C144.888 72.0692 145.093 71.8717 145.093 71.628V1.30218C145.093 1.05853 144.888 0.861015 144.635 0.861015Z" fill="#14163A"/>
<path d="M144.635 0.861015H140.322C140.069 0.861015 139.865 1.05853 139.865 1.30218V71.628C139.865 71.8717 140.069 72.0692 140.322 72.0692H144.635C144.888 72.0692 145.093 71.8717 145.093 71.628V1.30218C145.093 1.05853 144.888 0.861015 144.635 0.861015Z" fill="#14163A"/>
<path d="M156.275 0.861015H152.498C152.258 0.861015 152.063 1.05853 152.063 1.30218V71.628C152.063 71.8717 152.258 72.0692 152.498 72.0692H156.275C156.515 72.0692 156.71 71.8717 156.71 71.628V1.30218C156.71 1.05853 156.515 0.861015 156.275 0.861015Z" fill="#14163A"/>
<path d="M156.275 0.861015H152.498C152.258 0.861015 152.063 1.05853 152.063 1.30218V71.628C152.063 71.8717 152.258 72.0692 152.498 72.0692H156.275C156.515 72.0692 156.71 71.8717 156.71 71.628V1.30218C156.71 1.05853 156.515 0.861015 156.275 0.861015Z" fill="#14163A"/>
<path d="M229.876 36.4735H226.202C225.814 36.4735 225.626 36.6636 225.613 37.0562C225.201 59.5677 202.776 73.7308 182.375 64.8618C153.718 52.3931 161.9 6.13036 194.566 5.87826C195.003 5.86586 195.228 5.65095 195.228 5.20874V1.45614C195.228 1.06352 195.028 0.861015 194.627 0.861015C163.445 1.20404 148.606 38.544 168.966 61.2621C176.486 69.6642 186.58 73.1646 199.261 71.7719C217.628 69.7509 230.468 55.8399 230.481 37.0934C230.481 36.676 230.28 36.4735 229.867 36.4735H229.876Z" fill="#14163A"/>
<path d="M229.876 36.4735H226.202C225.814 36.4735 225.626 36.6636 225.613 37.0562C225.201 59.5677 202.776 73.7308 182.375 64.8618C153.718 52.3931 161.9 6.13036 194.566 5.87826C195.003 5.86586 195.228 5.65095 195.228 5.20874V1.45614C195.228 1.06352 195.028 0.861015 194.627 0.861015C163.445 1.20404 148.606 38.544 168.966 61.2621C176.486 69.6642 186.58 73.1646 199.261 71.7719C217.628 69.7509 230.468 55.8399 230.481 37.0934C230.481 36.676 230.28 36.4735 229.867 36.4735H229.876Z" fill="#14163A"/>
<path d="M194.537 17.988C195.024 17.951 195.262 17.6875 195.262 17.1936L195.274 13.8348C195.274 13.345 195.036 13.1063 194.549 13.1186C179.98 13.5096 170.153 25.9651 172.045 40.3592C173.81 53.8231 186.377 61.4215 198.882 59.5239C209.933 57.8487 216.406 51.3946 218.269 40.1616C218.331 39.7706 218.171 39.5689 217.77 39.5689H183.076C182.662 39.5689 182.45 39.7829 182.45 40.1987V43.8209C182.45 44.3354 182.712 44.6029 183.24 44.6029H210.928C211.542 44.6029 211.706 44.8787 211.415 45.422C203.529 60.5818 180.886 57.009 176.947 40.7173C174.207 29.3938 182.978 18.7742 194.545 17.9921L194.537 17.988Z" fill="#14163A"/>
<path d="M194.537 17.988C195.024 17.951 195.262 17.6875 195.262 17.1936L195.274 13.8348C195.274 13.345 195.036 13.1063 194.549 13.1186C179.98 13.5096 170.153 25.9651 172.045 40.3592C173.81 53.8231 186.377 61.4215 198.882 59.5239C209.933 57.8487 216.406 51.3946 218.269 40.1616C218.331 39.7706 218.171 39.5689 217.77 39.5689H183.076C182.662 39.5689 182.45 39.7829 182.45 40.1987V43.8209C182.45 44.3354 182.712 44.6029 183.24 44.6029H210.928C211.542 44.6029 211.706 44.8787 211.415 45.422C203.529 60.5818 180.886 57.009 176.947 40.7173C174.207 29.3938 182.978 18.7742 194.545 17.9921L194.537 17.988Z" fill="#14163A"/>
<path d="M182.745 27.1263H220.129C220.392 27.1263 220.606 27.3499 220.606 27.625V31.8807C220.606 32.1558 220.392 32.3794 220.129 32.3794H182.745C182.482 32.3794 182.268 32.1558 182.268 31.8807V27.625C182.268 27.3499 182.482 27.1263 182.745 27.1263Z" fill="#14163A"/>
<path d="M182.745 27.1263H220.129C220.392 27.1263 220.606 27.3499 220.606 27.625V31.8807C220.606 32.1558 220.392 32.3794 220.129 32.3794H182.745C182.482 32.3794 182.268 32.1558 182.268 31.8807V27.625C182.268 27.3499 182.482 27.1263 182.745 27.1263Z" fill="#14163A"/>
<path d="M43.6152 37.6668C43.3744 36.8407 43.1585 36.8407 42.9551 37.6791L34.7676 71.2185C34.6264 71.7829 34.8545 72.0569 35.4399 72.0569L39.5127 72.0692C39.9445 72.0692 40.3144 71.7829 40.4141 71.3821C42.1164 64.6423 43.7521 57.8821 45.3506 51.13C45.8696 48.9421 45.8949 46.8563 45.4507 44.8688C44.9068 42.4681 44.2835 40.0675 43.6108 37.6668H43.6152Z" fill="#14163A"/>
<path d="M43.6152 37.6668C43.3744 36.8407 43.1585 36.8407 42.9551 37.6791L34.7676 71.2185C34.6264 71.7829 34.8545 72.0569 35.4399 72.0569L39.5127 72.0692C39.9445 72.0692 40.3144 71.7829 40.4141 71.3821C42.1164 64.6423 43.7521 57.8821 45.3506 51.13C45.8696 48.9421 45.8949 46.8563 45.4507 44.8688C44.9068 42.4681 44.2835 40.0675 43.6108 37.6668H43.6152Z" fill="#14163A"/>
<path d="M135.387 40.5508H110.071C109.847 40.5508 109.659 40.7386 109.659 40.9632V71.6568C109.659 71.8813 109.847 72.0692 110.071 72.0692H114.225C114.449 72.0692 114.636 71.8813 114.636 71.6568V45.6467C114.636 45.4221 114.824 45.2343 115.048 45.2343H135.35C135.574 45.2343 135.762 45.0464 135.762 44.8219L135.798 40.9632C135.798 40.7386 135.611 40.5508 135.387 40.5508Z" fill="#14163A"/>
<path d="M135.387 40.5508H110.071C109.847 40.5508 109.659 40.7386 109.659 40.9632V71.6568C109.659 71.8813 109.847 72.0692 110.071 72.0692H114.225C114.449 72.0692 114.636 71.8813 114.636 71.6568V45.6467C114.636 45.4221 114.824 45.2343 115.048 45.2343H135.35C135.574 45.2343 135.762 45.0464 135.762 44.8219L135.798 40.9632C135.798 40.7386 135.611 40.5508 135.387 40.5508Z" fill="#14163A"/>
</svg>
