<svg width="241" height="70" viewBox="0 0 241 70" fill="none" xmlns="http://www.w3.org/2000/svg">
<path d="M47.1572 18.7903C46.0414 18.7903 44.9709 18.34 44.2202 17.558C43.3177 16.6164 42.0215 15.0894 40.9878 13.1857C40.3807 12.0681 39.2647 11.2821 38.0054 11.0897C34.8139 10.5984 26.6835 10.2832 20.0996 17.9265C14.3936 24.5504 14.1188 32.861 14.4634 37.2252C14.6357 39.3908 15.4521 41.3887 16.7319 42.973C15.6285 44.9463 12.777 50.3707 12.9165 53.609C12.9411 54.1944 13.4255 54.6488 14.0039 54.6488C14.0203 54.6488 14.0368 54.6488 14.0532 54.6488C14.6521 54.6243 15.1198 54.1166 15.0952 53.5148C14.9968 51.2754 17.0314 46.9973 18.3481 44.5573C18.8527 44.9422 19.394 45.2779 19.9683 45.5563C22.208 46.633 26.581 47.5745 30.6831 41.7694C36.9881 32.8447 25.7647 21.5578 22.4707 18.5488C28.2014 12.5512 34.9577 12.8214 37.6733 13.239C38.264 13.329 38.7892 13.6975 39.0723 14.2256C40.2209 16.3421 41.6523 18.0247 42.645 19.0646C43.8018 20.2723 45.4466 20.9683 47.1572 20.9683H54.9761C55.616 20.9683 56.1943 21.2425 56.5225 21.7052C57.9008 23.6375 56.781 25.9792 56.7358 26.0693C54.2089 31.0843 46.5955 35.563 43.4409 37.2538C41.5293 38.2814 40.5449 40.4143 41.0576 42.4367C42.3293 47.505 47.6619 53.2855 47.8916 53.5312C48.1049 53.7604 48.3961 53.8792 48.6914 53.8792C48.958 53.8792 49.221 53.785 49.4302 53.5885C49.8691 53.1791 49.8975 52.4954 49.4873 52.0533C49.434 51.996 44.3062 46.4324 43.1699 41.9086C42.9033 40.8483 43.4409 39.7224 44.4746 39.1657C48.6219 36.9427 55.9808 32.4107 58.6841 27.0395C58.7579 26.8962 60.4396 23.4492 58.2983 20.4401C57.5641 19.4085 56.3214 18.7903 54.98 18.7903H47.1572ZM28.8984 40.5167C26.4413 43.9924 23.8325 44.9995 20.9077 43.5994C18.4957 42.4408 16.8586 39.9353 16.6289 37.0532C16.3253 33.2172 16.5311 26.0856 21.0435 20.2068C24.0667 23.007 34.0837 33.1722 28.8945 40.5167H28.8984Z" fill="#14163A"/>
<path d="M47.1572 18.7903C46.0414 18.7903 44.9709 18.34 44.2202 17.558C43.3177 16.6164 42.0215 15.0894 40.9878 13.1857C40.3807 12.0681 39.2647 11.2821 38.0054 11.0897C34.8139 10.5984 26.6835 10.2832 20.0996 17.9265C14.3936 24.5504 14.1188 32.861 14.4634 37.2252C14.6357 39.3908 15.4521 41.3887 16.7319 42.973C15.6285 44.9463 12.777 50.3707 12.9165 53.609C12.9411 54.1944 13.4255 54.6488 14.0039 54.6488C14.0203 54.6488 14.0368 54.6488 14.0532 54.6488C14.6521 54.6243 15.1198 54.1166 15.0952 53.5148C14.9968 51.2754 17.0314 46.9973 18.3481 44.5573C18.8527 44.9422 19.394 45.2779 19.9683 45.5563C22.208 46.633 26.581 47.5745 30.6831 41.7694C36.9881 32.8447 25.7647 21.5578 22.4707 18.5488C28.2014 12.5512 34.9577 12.8214 37.6733 13.239C38.264 13.329 38.7892 13.6975 39.0723 14.2256C40.2209 16.3421 41.6523 18.0247 42.645 19.0646C43.8018 20.2723 45.4466 20.9683 47.1572 20.9683H54.9761C55.616 20.9683 56.1943 21.2425 56.5225 21.7052C57.9008 23.6375 56.781 25.9792 56.7358 26.0693C54.2089 31.0843 46.5955 35.563 43.4409 37.2538C41.5293 38.2814 40.5449 40.4143 41.0576 42.4367C42.3293 47.505 47.6619 53.2855 47.8916 53.5312C48.1049 53.7604 48.3961 53.8792 48.6914 53.8792C48.958 53.8792 49.221 53.785 49.4302 53.5885C49.8691 53.1791 49.8975 52.4954 49.4873 52.0533C49.434 51.996 44.3062 46.4324 43.1699 41.9086C42.9033 40.8483 43.4409 39.7224 44.4746 39.1657C48.6219 36.9427 55.9808 32.4107 58.6841 27.0395C58.7579 26.8962 60.4396 23.4492 58.2983 20.4401C57.5641 19.4085 56.3214 18.7903 54.98 18.7903H47.1572ZM28.8984 40.5167C26.4413 43.9924 23.8325 44.9995 20.9077 43.5994C18.4957 42.4408 16.8586 39.9353 16.6289 37.0532C16.3253 33.2172 16.5311 26.0856 21.0435 20.2068C24.0667 23.007 34.0837 33.1722 28.8945 40.5167H28.8984Z" fill="#14163A"/>
<path d="M34.9849 0.367188C15.7676 0.367188 0.132812 15.9468 0.132812 35.0958C0.132812 54.2448 15.7676 69.8243 34.9849 69.8243C54.2022 69.8243 69.8374 54.2448 69.8374 35.0958C69.8374 15.9468 54.2022 0.367188 34.9849 0.367188ZM34.9849 67.6507C16.9712 67.6507 2.31396 53.0454 2.31396 35.0958C2.31396 17.1461 16.9712 2.5408 34.9849 2.5408C52.9985 2.5408 67.6558 17.1461 67.6558 35.0958C67.6558 53.0454 52.9985 67.6507 34.9849 67.6507Z" fill="#14163A"/>
<path d="M34.9849 0.367188C15.7676 0.367188 0.132812 15.9468 0.132812 35.0958C0.132812 54.2448 15.7676 69.8243 34.9849 69.8243C54.2022 69.8243 69.8374 54.2448 69.8374 35.0958C69.8374 15.9468 54.2022 0.367188 34.9849 0.367188ZM34.9849 67.6507C16.9712 67.6507 2.31396 53.0454 2.31396 35.0958C2.31396 17.1461 16.9712 2.5408 34.9849 2.5408C52.9985 2.5408 67.6558 17.1461 67.6558 35.0958C67.6558 53.0454 52.9985 67.6507 34.9849 67.6507Z" fill="#14163A"/>
<path d="M106.877 31.5651H95.9976L108.367 16.293C110.416 13.6285 108.44 10.2896 105.088 10.2896H93.4243C92.081 10.2896 90.9287 11.3767 90.9287 12.803C90.9287 14.2292 92.0851 15.2795 93.4243 15.2795H103.334L91.0015 30.5516C88.9521 33.2161 90.9286 36.5549 94.2441 36.5549H106.877C108.221 36.5549 109.337 35.4679 109.337 34.0784C109.337 32.6889 108.221 31.5651 106.877 31.5651Z" fill="#14163A"/>
<path d="M106.877 31.5651H95.9976L108.367 16.293C110.416 13.6285 108.44 10.2896 105.088 10.2896H93.4243C92.081 10.2896 90.9287 11.3767 90.9287 12.803C90.9287 14.2292 92.0851 15.2795 93.4243 15.2795H103.334L91.0015 30.5516C88.9521 33.2161 90.9286 36.5549 94.2441 36.5549H106.877C108.221 36.5549 109.337 35.4679 109.337 34.0784C109.337 32.6889 108.221 31.5651 106.877 31.5651Z" fill="#14163A"/>
<path d="M121.245 16.71C116.899 16.71 111.079 20.1579 111.079 26.9828C111.079 33.8076 116.899 37.1386 121.245 37.1386C125.591 37.1386 131.41 33.841 131.41 26.9828C131.41 20.1245 125.554 16.71 121.245 16.71ZM121.245 32.2715C118.714 32.2715 116.52 30.2011 116.52 26.9828C116.52 23.7645 118.714 21.5772 121.245 21.5772C123.776 21.5772 125.932 23.6476 125.932 26.9828C125.932 30.318 123.739 32.2715 121.245 32.2715Z" fill="#14163A"/>
<path d="M121.245 16.71C116.899 16.71 111.079 20.1579 111.079 26.9828C111.079 33.8076 116.899 37.1386 121.245 37.1386C125.591 37.1386 131.41 33.841 131.41 26.9828C131.41 20.1245 125.554 16.71 121.245 16.71ZM121.245 32.2715C118.714 32.2715 116.52 30.2011 116.52 26.9828C116.52 23.7645 118.714 21.5772 121.245 21.5772C123.776 21.5772 125.932 23.6476 125.932 26.9828C125.932 30.318 123.739 32.2715 121.245 32.2715Z" fill="#14163A"/>
<path d="M143.898 16.71C139.552 16.71 133.733 20.1579 133.733 26.9828C133.733 33.8076 139.552 37.1386 143.898 37.1386C148.244 37.1386 154.064 33.841 154.064 26.9828C154.064 20.1245 148.207 16.71 143.898 16.71ZM143.898 32.2715C141.367 32.2715 139.174 30.2011 139.174 26.9828C139.174 23.7645 141.367 21.5772 143.898 21.5772C146.429 21.5772 148.586 23.6476 148.586 26.9828C148.586 30.318 146.392 32.2715 143.898 32.2715Z" fill="#14163A"/>
<path d="M143.898 16.71C139.552 16.71 133.733 20.1579 133.733 26.9828C133.733 33.8076 139.552 37.1386 143.898 37.1386C148.244 37.1386 154.064 33.841 154.064 26.9828C154.064 20.1245 148.207 16.71 143.898 16.71ZM143.898 32.2715C141.367 32.2715 139.174 30.2011 139.174 26.9828C139.174 23.7645 141.367 21.5772 143.898 21.5772C146.429 21.5772 148.586 23.6476 148.586 26.9828C148.586 30.318 146.392 32.2715 143.898 32.2715Z" fill="#14163A"/>
<path d="M189.497 34.36V26.0744C189.497 19.367 186.282 16.71 182.473 16.71C178.96 16.71 176.604 19.0984 175.558 21.4489C174.439 18.133 172.009 16.71 169.242 16.71C165.282 16.71 163.149 19.7531 163.003 21.1802V19.6398C163.003 18.0616 161.77 16.7898 160.276 16.7898C158.782 16.7898 157.549 18.0616 157.549 19.6398V34.36C157.549 35.8962 158.774 37.126 160.26 37.1344C161.77 37.1428 163.007 35.8081 163.007 34.2508V26.1961C163.007 25.1216 163.312 24.0638 163.922 23.1992C164.557 22.2967 165.587 21.4908 167.19 21.4908C169.246 21.4908 170.776 22.8802 170.776 26.0786V34.3642C170.776 35.9046 172.046 37.1386 173.503 37.1386C174.96 37.1386 176.229 35.9046 176.229 34.3642V25.4615C176.303 24.7312 177.239 21.4908 180.413 21.4908C182.505 21.4908 184.04 22.8802 184.04 26.0786V34.3642C184.04 35.9046 185.272 37.1386 186.766 37.1386C188.26 37.1386 189.493 35.9046 189.493 34.3642L189.497 34.36Z" fill="#14163A"/>
<path d="M189.497 34.36V26.0744C189.497 19.367 186.282 16.71 182.473 16.71C178.96 16.71 176.604 19.0984 175.558 21.4489C174.439 18.133 172.009 16.71 169.242 16.71C165.282 16.71 163.149 19.7531 163.003 21.1802V19.6398C163.003 18.0616 161.77 16.7898 160.276 16.7898C158.782 16.7898 157.549 18.0616 157.549 19.6398V34.36C157.549 35.8962 158.774 37.126 160.26 37.1344C161.77 37.1428 163.007 35.8081 163.007 34.2508V26.1961C163.007 25.1216 163.312 24.0638 163.922 23.1992C164.557 22.2967 165.587 21.4908 167.19 21.4908C169.246 21.4908 170.776 22.8802 170.776 26.0786V34.3642C170.776 35.9046 172.046 37.1386 173.503 37.1386C174.96 37.1386 176.229 35.9046 176.229 34.3642V25.4615C176.303 24.7312 177.239 21.4908 180.413 21.4908C182.505 21.4908 184.04 22.8802 184.04 26.0786V34.3642C184.04 35.9046 185.272 37.1386 186.766 37.1386C188.26 37.1386 189.493 35.9046 189.493 34.3642L189.497 34.36Z" fill="#14163A"/>
<path d="M197.048 9.12229C195.479 9.12229 194.144 10.4601 194.144 12.0407C194.144 13.6213 195.479 14.959 197.048 14.959C198.618 14.959 199.953 13.6213 199.953 12.0407C199.953 10.4601 198.618 9.12229 197.048 9.12229Z" fill="#14163A"/>
<path d="M197.048 9.12229C195.479 9.12229 194.144 10.4601 194.144 12.0407C194.144 13.6213 195.479 14.959 197.048 14.959C198.618 14.959 199.953 13.6213 199.953 12.0407C199.953 10.4601 198.618 9.12229 197.048 9.12229Z" fill="#14163A"/>
<path d="M197.048 16.71C195.457 16.71 194.144 17.9847 194.144 19.5665V34.2822C194.144 35.8639 195.457 37.1386 197.048 37.1386C198.639 37.1386 199.953 35.8639 199.953 34.2822V19.5665C199.953 17.9847 198.639 16.71 197.048 16.71Z" fill="#14163A"/>
<path d="M197.048 16.71C195.457 16.71 194.144 17.9847 194.144 19.5665V34.2822C194.144 35.8639 195.457 37.1386 197.048 37.1386C198.639 37.1386 199.953 35.8639 199.953 34.2822V19.5665C199.953 17.9847 198.639 16.71 197.048 16.71Z" fill="#14163A"/>
<path d="M213.561 16.71C209.205 16.71 203.438 20.0198 203.438 27.0207C203.438 34.0215 208.863 37.1386 214.018 37.1386C216.423 37.1386 218.258 36.485 219.597 35.601C220.666 34.7547 220.933 33.9838 220.933 33.2925C220.933 32.2158 220.209 31.3695 219.061 31.3695C218.337 31.3695 217.763 31.7173 216.997 32.0231C215.89 32.4085 215.508 32.6013 214.247 32.6013C211.609 32.6013 209.741 31.2941 209.242 28.9102L219.709 29.0652C222.002 29.0652 223.187 28.2943 223.187 26.0655C223.187 20.2168 217.917 16.7184 213.561 16.7184V16.71ZM209.242 25.1354C209.587 22.5965 211.572 21.5951 213.561 21.5951C215.549 21.5951 217.305 22.5965 217.688 25.1354H209.242Z" fill="#14163A"/>
<path d="M213.561 16.71C209.205 16.71 203.438 20.0198 203.438 27.0207C203.438 34.0215 208.863 37.1386 214.018 37.1386C216.423 37.1386 218.258 36.485 219.597 35.601C220.666 34.7547 220.933 33.9838 220.933 33.2925C220.933 32.2158 220.209 31.3695 219.061 31.3695C218.337 31.3695 217.763 31.7173 216.997 32.0231C215.89 32.4085 215.508 32.6013 214.247 32.6013C211.609 32.6013 209.741 31.2941 209.242 28.9102L219.709 29.0652C222.002 29.0652 223.187 28.2943 223.187 26.0655C223.187 20.2168 217.917 16.7184 213.561 16.7184V16.71ZM209.242 25.1354C209.587 22.5965 211.572 21.5951 213.561 21.5951C215.549 21.5951 217.305 22.5965 217.688 25.1354H209.242Z" fill="#14163A"/>
<path d="M235.266 24.9125L233.014 24.2586C231.462 23.7976 231.39 23.0264 231.39 22.6408C231.39 21.7564 232.129 21.1403 233.308 21.1403C234.12 21.1403 234.86 21.4463 235.596 22.2552C236.295 23.0641 237.035 23.3701 237.811 23.3701C238.993 23.3701 239.878 22.6408 239.878 21.2535C239.878 20.3314 239.436 19.7529 239.215 19.4428C237.996 17.674 235.559 16.71 233.122 16.71C229.652 16.71 226.106 18.6339 226.106 22.6743C226.106 25.4448 227.694 27.5614 231.458 28.6763L233.376 29.2924C235.113 29.8331 235.258 30.6798 235.258 31.0612C235.258 31.8324 234.558 32.5994 232.934 32.5994C231.9 32.5994 230.867 32.3312 229.757 31.0235C229.279 30.4451 228.652 29.7535 227.578 29.7535C226.066 29.7535 225.511 30.948 225.511 31.8701C225.511 33.1778 226.436 34.2927 226.657 34.5232C227.691 35.6381 229.536 37.1386 232.934 37.1386C236.774 37.1386 240.614 35.0974 240.614 30.751C240.614 27.2471 238.065 25.7885 235.262 24.8999L235.266 24.9125Z" fill="#14163A"/>
<path d="M235.266 24.9125L233.014 24.2586C231.462 23.7976 231.39 23.0264 231.39 22.6408C231.39 21.7564 232.129 21.1403 233.308 21.1403C234.12 21.1403 234.86 21.4463 235.596 22.2552C236.295 23.0641 237.035 23.3701 237.811 23.3701C238.993 23.3701 239.878 22.6408 239.878 21.2535C239.878 20.3314 239.436 19.7529 239.215 19.4428C237.996 17.674 235.559 16.71 233.122 16.71C229.652 16.71 226.106 18.6339 226.106 22.6743C226.106 25.4448 227.694 27.5614 231.458 28.6763L233.376 29.2924C235.113 29.8331 235.258 30.6798 235.258 31.0612C235.258 31.8324 234.558 32.5994 232.934 32.5994C231.9 32.5994 230.867 32.3312 229.757 31.0235C229.279 30.4451 228.652 29.7535 227.578 29.7535C226.066 29.7535 225.511 30.948 225.511 31.8701C225.511 33.1778 226.436 34.2927 226.657 34.5232C227.691 35.6381 229.536 37.1386 232.934 37.1386C236.774 37.1386 240.614 35.0974 240.614 30.751C240.614 27.2471 238.065 25.7885 235.262 24.8999L235.266 24.9125Z" fill="#14163A"/>
<path d="M94.709 48.8161H90.168V60.4856H93.1548V56.9835H94.709C95.894 56.9835 96.8802 56.6025 97.6797 55.8324C98.4792 55.0663 98.8809 54.0814 98.8809 52.8978C98.8809 51.7142 98.4792 50.7293 97.6797 49.9632C96.8802 49.1971 95.894 48.8121 94.709 48.8121V48.8161ZM94.709 54.1503H93.1548V51.6656H94.709C95.3745 51.6656 95.894 52.1642 95.894 52.8978C95.894 53.6315 95.3786 54.1462 94.709 54.1462V54.1503Z" fill="#14163A"/>
<path d="M94.709 48.8161H90.168V60.4856H93.1548V56.9835H94.709C95.894 56.9835 96.8802 56.6025 97.6797 55.8324C98.4792 55.0663 98.8809 54.0814 98.8809 52.8978C98.8809 51.7142 98.4792 50.7293 97.6797 49.9632C96.8802 49.1971 95.894 48.8121 94.709 48.8121V48.8161ZM94.709 54.1503H93.1548V51.6656H94.709C95.3745 51.6656 95.894 52.1642 95.894 52.8978C95.894 53.6315 95.3786 54.1462 94.709 54.1462V54.1503Z" fill="#14163A"/>
<path d="M114.082 55.967H118.129V53.213H114.082V51.5946H118.545V48.8121H111.079V60.4856H118.631V57.6828H114.082V55.967Z" fill="#14163A"/>
<path d="M114.082 55.967H118.129V53.213H114.082V51.5946H118.545V48.8121H111.079V60.4856H118.631V57.6828H114.082V55.967Z" fill="#14163A"/>
<path d="M130.248 51.696H133.122V60.4856H136.092V51.696H138.961V48.8121H130.248V51.696Z" fill="#14163A"/>
<path d="M130.248 51.696H133.122V60.4856H136.092V51.696H138.961V48.8121H130.248V51.696Z" fill="#14163A"/>
<path d="M171.71 51.3082C172.783 51.3082 173.712 51.8514 174.158 52.7154L176.718 51.1499C176.207 50.2516 175.512 49.5501 174.62 49.0197C173.728 48.4936 172.751 48.2284 171.71 48.2284C169.974 48.2284 168.519 48.8444 167.381 50.0763C166.24 51.291 165.681 52.8224 165.681 54.6488C165.681 56.4753 166.244 58.0066 167.381 59.2385C168.523 60.4533 169.978 61.0692 171.71 61.0692C173.824 61.0692 175.709 59.9614 176.718 58.1477L174.158 56.5651C173.712 57.4634 172.787 57.9895 171.71 57.9895C170.786 57.9895 170.042 57.6901 169.463 57.0741C168.901 56.4582 168.62 55.6497 168.62 54.6445C168.62 53.6393 168.901 52.8523 169.463 52.2364C170.042 51.6204 170.786 51.3039 171.71 51.3039V51.3082Z" fill="#14163A"/>
<path d="M171.71 51.3082C172.783 51.3082 173.712 51.8514 174.158 52.7154L176.718 51.1499C176.207 50.2516 175.512 49.5501 174.62 49.0197C173.728 48.4936 172.751 48.2284 171.71 48.2284C169.974 48.2284 168.519 48.8444 167.381 50.0763C166.24 51.291 165.681 52.8224 165.681 54.6488C165.681 56.4753 166.244 58.0066 167.381 59.2385C168.523 60.4533 169.978 61.0692 171.71 61.0692C173.824 61.0692 175.709 59.9614 176.718 58.1477L174.158 56.5651C173.712 57.4634 172.787 57.9895 171.71 57.9895C170.786 57.9895 170.042 57.6901 169.463 57.0741C168.901 56.4582 168.62 55.6497 168.62 54.6445C168.62 53.6393 168.901 52.8523 169.463 52.2364C170.042 51.6204 170.786 51.3039 171.71 51.3039V51.3082Z" fill="#14163A"/>
<path d="M191.702 48.8121L187.754 60.4856H191.07L191.581 58.8029H195.562L196.073 60.4856H199.372L195.425 48.8121H191.702ZM192.367 56.2322L193.563 52.2626L194.776 56.2322H192.367Z" fill="#14163A"/>
<path d="M191.702 48.8121L187.754 60.4856H191.07L191.581 58.8029H195.562L196.073 60.4856H199.372L195.425 48.8121H191.702ZM192.367 56.2322L193.563 52.2626L194.776 56.2322H192.367Z" fill="#14163A"/>
<path d="M219.861 52.8465C219.861 51.6787 219.459 50.7137 218.644 49.9636C217.845 49.1973 216.843 48.8121 215.659 48.8121H210.989V60.4856H213.975V56.7188H215.042L217.079 60.4856H220.283L217.882 56.1673C219.099 55.4821 219.866 54.2494 219.866 52.8506L219.861 52.8465ZM215.626 54.1805H213.975V51.5612H215.626C216.36 51.5612 216.876 52.0964 216.876 52.8789C216.876 53.6615 216.36 54.1967 215.626 54.1805Z" fill="#14163A"/>
<path d="M219.861 52.8465C219.861 51.6787 219.459 50.7137 218.644 49.9636C217.845 49.1973 216.843 48.8121 215.659 48.8121H210.989V60.4856H213.975V56.7188H215.042L217.079 60.4856H220.283L217.882 56.1673C219.099 55.4821 219.866 54.2494 219.866 52.8506L219.861 52.8465ZM215.626 54.1805H213.975V51.5612H215.626C216.36 51.5612 216.876 52.0964 216.876 52.8789C216.876 53.6615 216.36 54.1967 215.626 54.1805Z" fill="#14163A"/>
<path d="M235.484 55.967H239.527V53.213H235.484V51.5946H239.947V48.8121H232.481V60.4856H240.033V57.6828H235.484V55.967Z" fill="#14163A"/>
<path d="M235.484 55.967H239.527V53.213H235.484V51.5946H239.947V48.8121H232.481V60.4856H240.033V57.6828H235.484V55.967Z" fill="#14163A"/>
</svg>
