<svg width="99" height="22" viewBox="0 0 99 22" fill="none" xmlns="http://www.w3.org/2000/svg">
<path d="M37.2071 6.21519C37.2013 5.73147 37.1353 5.25166 37.013 4.78745C36.8946 4.34079 36.7238 3.90389 36.5025 3.49429C36.0774 2.70435 35.4679 2.00219 34.7362 1.46581C34.0122 0.933332 33.1717 0.564694 32.3041 0.398904C31.3763 0.221412 30.4465 0.270174 29.542 0.547139C28.1775 0.962588 27.3526 1.83835 26.5509 2.80578L24.707 0.720731C24.4702 0.449616 24.1266 0.293579 23.7695 0.293579H17.1914C16.4984 0.293579 15.9355 0.859214 15.9355 1.55553V2.50346C16.7682 3.59181 17.1623 4.95519 17.1079 6.57798C17.0672 7.84773 16.5373 8.81516 15.9355 9.54268V10.8085C16.6809 11.4658 17.1875 12.2441 17.4709 13.1647C17.6126 13.6231 17.7038 14.1204 17.7465 14.6314V2.11336H23.521L25.7338 4.61581C25.9512 4.86157 26.2656 5.00005 26.5936 4.9942C26.9217 4.98835 27.2303 4.83816 27.4399 4.5846C27.5156 4.49293 27.5894 4.40126 27.6631 4.31154C28.4784 3.3129 29.0684 2.59123 30.0719 2.285C31.2948 1.91246 32.6069 2.14847 33.6725 2.93256C34.7536 3.7264 35.3825 4.93178 35.4 6.2386C35.4252 8.07008 34.7478 9.79429 33.3289 11.5107C32.0265 13.0886 30.4155 14.4559 28.8588 15.7764C28.7443 15.8739 28.6298 15.9714 28.5152 16.0689C27.9543 16.5468 27.3953 17.0071 26.8033 17.4947L26.615 17.6488C26.5898 17.6703 26.5529 17.6703 26.5276 17.6488C26.3918 17.5376 26.2559 17.4245 26.12 17.3133C25.3436 16.6775 24.6099 16.0767 23.8976 15.4311C23.5676 15.1327 23.2143 14.8128 22.8611 14.4891C22.8378 14.4676 22.8145 14.4481 22.7893 14.4286C22.7252 14.3798 22.6553 14.3408 22.5816 14.3116C22.4923 14.2765 22.3972 14.255 22.2982 14.2492C22.2788 14.2492 22.2594 14.2492 22.238 14.2492C22.1099 14.2492 21.9896 14.2784 21.8809 14.3272C21.7702 14.3759 21.6654 14.4501 21.5781 14.5456C21.4927 14.6392 21.4305 14.7465 21.3917 14.8616C21.3704 14.924 21.3548 14.9903 21.3471 15.0586C21.3432 15.0937 21.3413 15.1308 21.3413 15.1659V19.884H17.7485V15.9441C17.7096 16.4103 17.632 16.8686 17.5136 17.3055C17.2127 18.4075 16.679 19.3418 15.9394 20.0713V20.4399C15.9394 21.1362 16.5023 21.7019 17.1953 21.7019H21.8983C22.5913 21.7019 23.1542 21.1362 23.1542 20.4399V17.1983C23.7559 17.7229 24.3751 18.2301 24.9768 18.7235C25.1126 18.8347 25.2466 18.9459 25.3824 19.057C25.7182 19.3321 26.1394 19.4842 26.5723 19.4842C27.0051 19.4842 27.4283 19.3321 27.7641 19.0551L27.9523 18.901C28.5502 18.4075 29.1131 17.9433 29.6857 17.4577C29.8002 17.3601 29.9147 17.2646 30.0273 17.167C31.6441 15.7939 33.3173 14.374 34.7226 12.6732C35.53 11.694 36.124 10.7286 36.5394 9.72018C37.0013 8.59476 37.2265 7.41473 37.211 6.21324L37.2071 6.21519Z" fill="#14163A"/>
<path d="M35.9491 21.7064H31.2461C30.5531 21.7064 29.9902 21.1407 29.9902 20.4444V19.1415C29.9902 18.6383 30.3959 18.2326 30.8947 18.2326C31.3936 18.2326 31.7993 18.6402 31.7993 19.1415V19.8866H35.3921V14.5169C35.3921 14.0137 35.7977 13.608 36.2966 13.608C36.7954 13.608 37.2011 14.0157 37.2011 14.5169V20.4444C37.2011 21.1407 36.6382 21.7064 35.9453 21.7064H35.9491Z" fill="#14163A"/>
<path d="M37.9931 10.9512C37.9931 8.97737 37.997 7.0035 37.9893 5.03158C37.9893 4.81508 38.0417 4.64539 38.1775 4.4796C40.7494 1.28864 44.0743 -0.183963 48.1155 0.430434C52.2712 1.06238 55.1594 3.50046 56.5841 7.46381C58.8532 13.7794 54.7305 20.411 48.3678 21.4837C44.2257 22.182 40.8115 20.7328 38.1678 17.456C38.0397 17.2981 37.9912 17.1342 37.9912 16.9294C37.997 14.936 37.9951 12.9427 37.9951 10.9473L37.9931 10.9512ZM46.6248 16.2975C46.8927 16.3092 47.2013 16.2702 47.508 16.2038C50.8484 15.4822 52.6245 11.6885 51.0794 8.57362C49.9672 6.33059 47.44 5.17982 45.1846 5.88978C42.5895 6.70703 41.0172 9.5235 41.6636 12.2015C42.2401 14.5947 44.2859 16.2994 46.6268 16.2975H46.6248Z" fill="#14163A"/>
<path d="M73.0726 14.5261C73.9713 15.0625 74.8778 15.5189 75.8386 15.8563C77.0168 16.2717 78.2202 16.4492 79.4624 16.2327C79.8021 16.1742 80.1282 16.0689 80.4097 15.8621C81.1045 15.3492 81.0211 14.4812 80.2408 14.1321C79.6158 13.8532 78.9364 13.8083 78.2765 13.6815C76.7082 13.3772 75.1165 13.1725 73.6239 12.5444C73.2862 12.402 73.1716 12.2401 73.1736 11.8656C73.191 8.44452 73.1891 5.02341 73.1755 1.60229C73.1755 1.30387 73.2764 1.18295 73.5365 1.08737C75.1709 0.476877 76.8634 0.32084 78.5871 0.40666C81.0696 0.529539 83.2629 1.4326 85.2447 2.90521C85.8425 3.34991 85.893 3.64638 85.4718 4.24908C84.8119 5.1931 84.1539 6.13713 83.492 7.08115C83.1659 7.54536 82.8417 7.61363 82.3604 7.31326C81.1084 6.53112 79.7808 5.94208 78.3037 5.76264C77.6127 5.67877 76.9178 5.68072 76.2268 5.79189C75.9861 5.8309 75.759 5.91087 75.5571 6.05521C75.0661 6.40824 75.0583 6.99923 75.5552 7.34251C75.99 7.64288 76.4888 7.81062 76.9857 7.97641C77.9737 8.30799 79.0102 8.40942 80.0195 8.64542C81.3569 8.9575 82.6729 9.33004 83.8161 10.1375C85.4505 11.2922 86.3802 12.835 86.4287 14.8791C86.4676 16.4746 86.1686 17.9608 85.1302 19.2228C84.1985 20.356 82.964 20.9977 81.5646 21.2981C77.8708 22.09 74.3634 21.6297 71.1006 19.6363C70.8774 19.4998 70.8424 19.4315 71.0326 19.2072C72.0944 17.9511 72.7116 16.4843 72.9969 14.8694C73.0066 14.8089 73.0202 14.7504 73.0338 14.6919C73.0416 14.6529 73.0532 14.6138 73.0726 14.5339V14.5261Z" fill="#14163A"/>
<path d="M83.9373 21.2323C84.3663 20.9553 84.7952 20.6803 85.1698 20.3292C86.4606 19.1199 87.0584 17.5888 87.1962 15.8548C87.2894 14.6807 87.1807 13.5201 86.7168 12.4298C86.02 10.7973 84.7991 9.65822 83.2308 8.87999C83.0502 8.79027 82.9765 8.69274 82.9862 8.48794C82.994 8.3163 83.0405 8.23633 83.2172 8.20513C83.584 8.14076 83.8577 7.92231 84.0673 7.62194C84.7972 6.58039 85.5289 5.53884 86.251 4.49144C86.7149 3.81658 86.5693 2.93692 85.921 2.4376C85.1698 1.85636 84.376 1.34144 83.5258 0.916239C83.4579 0.881131 83.3686 0.869428 83.3259 0.773856C83.4443 0.656828 83.5957 0.66853 83.7412 0.66853C88.4463 0.66853 93.1493 0.66658 97.8543 0.66853C98.3823 0.66853 98.6171 0.92014 98.6191 1.46237C98.6191 2.65605 98.6191 3.85169 98.6191 5.04537C98.6191 5.5876 98.3629 5.84506 97.8252 5.84506C95.034 5.84506 92.2448 5.84506 89.4536 5.84506C88.7491 5.84506 88.5452 6.05376 88.5452 6.77348C88.5452 7.01729 88.5452 7.25915 88.5452 7.50296C88.5452 8.15051 88.7782 8.38652 89.4148 8.38847C91.8023 8.38847 94.1897 8.38847 96.5772 8.38847C96.6684 8.38847 96.7596 8.38652 96.8489 8.39042C97.2138 8.40992 97.4817 8.65763 97.4855 9.02627C97.4933 10.3428 97.4952 11.6574 97.4855 12.974C97.4817 13.3895 97.1963 13.6216 96.7363 13.6216C94.4789 13.6216 92.2235 13.6216 89.9661 13.6216C89.7351 13.6216 89.5022 13.6177 89.2712 13.6216C88.8267 13.6294 88.5608 13.8927 88.5491 14.3413C88.5414 14.6456 88.5452 14.9479 88.5491 15.2522C88.553 15.7924 88.8073 16.046 89.3527 16.046C92.1128 16.046 94.8729 16.046 97.6331 16.046C97.7243 16.046 97.8136 16.046 97.9048 16.046C98.3512 16.0557 98.6191 16.3152 98.621 16.7657C98.6269 18.0316 98.6269 19.2974 98.621 20.5613C98.6191 21.0119 98.3532 21.2752 97.9009 21.2752C93.2968 21.2771 88.6928 21.2752 84.0906 21.2752C84.046 21.2752 83.9916 21.2947 83.9431 21.2245L83.9373 21.2323Z" fill="#14163A"/>
<path d="M72.3977 7.45805C72.3977 9.27003 72.4035 11.082 72.3977 12.894C72.388 14.9205 71.9008 16.8047 70.6469 18.4275C69.3678 20.0854 67.6461 21.0333 65.6158 21.4175C63.4166 21.8349 61.2641 21.6808 59.2066 20.7349C57.877 20.1244 56.7978 19.2057 55.969 17.9906C55.8312 17.7877 55.8176 17.6473 55.9651 17.4327C58.8436 13.2548 58.6204 7.70966 55.4236 3.76192C55.2139 3.50251 54.9985 3.247 54.7559 3.02074C54.5598 2.8374 54.488 2.64235 54.5055 2.38099C54.5249 2.06892 54.5055 1.75294 54.5113 1.43892C54.519 0.955202 54.7811 0.691889 55.2644 0.689939C56.5843 0.687988 57.9042 0.689939 59.2241 0.689939C59.8355 0.689939 60.0665 0.920094 60.0665 1.52864C60.0665 5.27353 60.0665 9.01842 60.0665 12.7653C60.0665 13.5045 60.179 14.2145 60.5595 14.864C61.2621 16.0596 62.6985 16.6838 64.127 16.4068C65.5615 16.1279 66.5494 15.1117 66.7804 13.6937C66.8367 13.3524 66.8464 13.0091 66.8464 12.6658C66.8464 8.97161 66.8464 5.27548 66.8464 1.5813C66.8464 1.36675 66.8464 1.15415 66.9803 0.970806C67.1298 0.767957 67.3336 0.687988 67.584 0.687988C68.9446 0.689939 70.3033 0.687988 71.664 0.689939C72.1512 0.689939 72.4016 0.9474 72.4016 1.44672C72.4016 3.4518 72.4016 5.45492 72.4016 7.46L72.3977 7.45805Z" fill="#14163A"/>
<path d="M16.7547 13.3873C16.5761 12.808 16.2946 12.3106 15.9356 11.8815C15.5221 11.39 15.0039 10.9862 14.4138 10.6469C14.0605 10.444 14.0547 10.2919 14.3633 10.0305C14.4254 9.97785 14.4914 9.93299 14.5536 9.88033C15.1223 9.37906 15.6114 8.83683 15.9375 8.20293C16.1879 7.71531 16.3412 7.17308 16.3626 6.55479C16.3936 5.61076 16.2616 4.75061 15.9375 3.98603C15.559 3.09271 14.9204 2.33203 13.9751 1.72739C12.8396 0.999864 11.5547 0.715096 10.2367 0.695592C7.2573 0.652681 4.27591 0.672186 1.29451 0.666335C0.578282 0.664384 0.378358 0.869183 0.378358 1.58695C0.378358 4.71355 0.378358 7.84014 0.378358 10.9667V19.6483C0.378358 19.9623 0.368653 20.2763 0.38224 20.5884C0.40165 21.0292 0.661746 21.2788 1.09653 21.2788C4.24873 21.2788 7.40093 21.2964 10.5512 21.2613C11.8051 21.2476 13.0279 21.0019 14.1673 20.4245C14.9223 20.0422 15.5008 19.5195 15.9336 18.9227C17.172 17.2141 17.2147 14.8813 16.7527 13.3853L16.7547 13.3873ZM8.20063 16.1062C7.69791 16.1062 7.19324 16.1121 6.69052 16.1062C6.20721 16.1004 5.94129 15.8351 5.93353 15.3553C5.92771 14.8696 5.92771 14.384 5.93353 13.8983C5.93935 13.4009 6.20721 13.1415 6.70993 13.1396C7.6455 13.1376 8.58301 13.1357 9.51857 13.1396C10.2814 13.1435 10.8676 13.5882 11.0927 14.3176C11.3509 15.1544 10.6579 16.0731 9.73791 16.1004C9.22548 16.116 8.71111 16.1023 8.19869 16.1023L8.20063 16.1062ZM9.27789 8.4838C8.38308 8.5111 7.48634 8.4994 6.59153 8.4877C6.21109 8.48185 5.94906 8.21073 5.93741 7.83039C5.92188 7.39544 5.92382 6.96048 5.93741 6.52553C5.94906 6.11398 6.22274 5.85457 6.63617 5.84677C7.07872 5.83897 7.52127 5.84677 7.96382 5.84677C8.37726 5.84677 8.78875 5.84287 9.20219 5.84677C9.83884 5.85262 10.4289 6.42215 10.4561 7.0502C10.4871 7.79723 9.96501 8.46234 9.28177 8.4838H9.27789Z" fill="#14163A"/>
</svg>
